<?xml version="1.0" standalone="no"?>
<!DOCTYPE svg PUBLIC "-//W3C//DTD SVG 1.1//EN" "http://www.w3.org/Graphics/SVG/1.1/DTD/svg11.dtd">
<svg version="1.1" xmlns="http://www.w3.org/2000/svg" viewBox="0 0 259.7692439958769 296.86979676198257" width="779.3077319876306" height="890.6093902859477" filter="invert(93%) hue-rotate(180deg)"><!-- svg-source:excalidraw --><metadata></metadata><defs><style class="style-fonts">
      </style></defs><g transform="translate(10.451195224352887 20.815012801912417) rotate(0 113.30469164279248 91.99938987467613)" stroke="none"><path fill="#1e1e1e" d="M 3.12,0 Q 3.12,0 3.05,6.34 2.98,12.68 2.93,19.42 2.88,26.17 2.85,34.76 2.81,43.36 2.79,51.83 2.76,60.31 3.62,67.80 4.48,75.30 5.73,82.53 6.97,89.75 7.92,96.16 8.86,102.58 9.59,107.30 10.32,112.02 10.97,116.70 11.62,121.38 11.95,125.47 12.29,129.56 12.59,132.84 12.88,136.12 13.04,139.55 13.20,142.98 13.37,145.97 13.53,148.97 13.61,152.32 13.68,155.67 13.83,158.15 13.99,160.63 14.11,163.23 14.22,165.83 14.35,167.99 14.48,170.16 14.56,172.62 14.65,175.08 14.85,178.47 15.05,181.85 15.21,184.05 15.38,186.24 15.55,188.42 15.73,190.60 19.85,189.54 23.97,188.48 30.02,188.10 36.08,187.72 44.50,187.11 52.92,186.50 61.42,186.32 69.92,186.14 77.57,186.12 85.22,186.11 93.51,186.15 101.80,186.19 107.96,186.23 114.12,186.28 122.94,186.33 131.76,186.37 137.04,186.41 142.33,186.44 146.59,186.47 150.85,186.50 154.20,186.34 157.54,186.18 160.50,186.01 163.46,185.84 166.74,185.75 170.01,185.65 173.42,185.60 176.83,185.55 179.81,185.45 182.80,185.35 185.61,185.24 188.41,185.14 191.89,185.09 195.37,185.04 198.38,184.82 201.40,184.59 204.23,184.45 207.05,184.30 210.10,184.19 213.14,184.08 215.47,184.09 217.80,184.10 220.61,184.01 223.43,183.92 222.33,180.93 221.23,177.93 221.23,173.57 221.24,169.21 220.51,163.38 219.77,157.54 219.13,150.82 218.48,144.09 218.27,136.15 218.06,128.22 217.55,120.14 217.05,112.06 216.46,105.37 215.87,98.68 215.65,92.46 215.42,86.25 214.99,82.20 214.57,78.15 214.30,74.29 214.03,70.43 213.87,66.77 213.71,63.10 213.20,60.20 212.70,57.30 212.39,54.35 212.08,51.40 211.66,47.87 211.24,44.33 210.63,41.51 210.03,38.70 209.84,36.48 209.65,34.26 209.55,30.32 209.45,26.37 209.35,22.99 209.24,19.60 209.14,16.94 209.04,14.27 208.91,12.02 208.78,9.77 208.65,7.36 208.52,4.95 209.10,2.66 209.69,0.37 210.99,-1.60 212.30,-3.58 211.92,-1.37 211.54,0.83 207.77,0.53 203.99,0.23 201.16,-0.54 198.34,-1.32 194.43,-2.32 190.52,-3.32 186.22,-4.27 181.91,-5.22 177.60,-5.73 173.29,-6.24 168.80,-6.56 164.31,-6.87 160.38,-7.00 156.44,-7.12 152.75,-7.14 149.06,-7.17 145.48,-7.16 141.89,-7.15 138.35,-7.13 134.82,-7.10 130.67,-7.22 126.52,-7.34 121.48,-7.46 116.45,-7.57 111.03,-7.66 105.62,-7.74 100.04,-7.80 94.47,-7.86 89.66,-7.17 84.85,-6.48 79.52,-5.39 74.19,-4.30 69.29,-3.10 64.39,-1.90 60.32,-0.73 56.24,0.43 52.51,1.66 48.78,2.90 45.46,3.62 42.15,4.34 38.65,4.68 35.15,5.02 32.29,5.50 29.44,5.99 26.70,6.52 23.97,7.06 21.84,7.63 19.70,8.20 17.33,8.55 14.96,8.91 12.68,9.10 10.40,9.30 7.76,9.56 5.13,9.82 2.96,10.37 0.79,10.92 0.40,9.36 0.01,7.81 -0.67,7.74 -1.36,7.67 -2.01,7.44 -2.66,7.21 -3.24,6.83 -3.82,6.45 -4.29,5.94 -4.76,5.43 -5.10,4.83 -5.43,4.22 -5.61,3.55 -5.79,2.89 -5.81,2.19 -5.83,1.50 -5.67,0.83 -5.52,0.15 -5.22,-0.46 -4.91,-1.08 -4.46,-1.61 -4.01,-2.14 -3.45,-2.54 -2.89,-2.95 -2.25,-3.21 -1.61,-3.47 -0.92,-3.57 -0.24,-3.67 -2.84,-1.86 -5.44,-0.06 -4.96,-0.85 -4.48,-1.65 -3.77,-2.25 -3.06,-2.85 -2.20,-3.19 -1.34,-3.54 -0.41,-3.58 0.51,-3.63 1.40,-3.38 2.30,-3.13 3.07,-2.61 3.84,-2.09 4.40,-1.35 4.96,-0.61 5.25,0.26 5.55,1.15 5.55,2.07 5.54,3.00 5.25,3.88 4.95,4.76 4.39,5.50 3.82,6.24 3.05,6.76 2.28,7.28 1.39,7.53 0.49,7.77 -0.43,7.72 -1.35,7.67 -2.22,7.33 -3.08,6.98 -3.79,6.38 -4.49,5.78 -4.97,4.98 -5.45,4.18 -5.65,3.27 -5.84,2.37 -5.74,1.44 -5.64,0.52 -5.25,-0.31 -4.86,-1.16 -4.22,-1.83 -3.58,-2.50 -2.76,-2.94 -1.93,-3.37 -1.02,-3.52 -0.10,-3.67 0.81,-3.52 1.72,-3.36 2.54,-2.93 3.36,-2.49 4.00,-1.81 4.64,-1.14 5.03,-0.30 5.42,0.54 5.51,1.46 5.61,2.39 2.81,5.10 0.01,7.81 -0.67,7.74 -1.36,7.67 -2.01,7.44 -2.66,7.21 -3.24,6.83 -3.82,6.45 -4.29,5.94 -4.76,5.43 -5.10,4.83 -5.43,4.22 -5.61,3.55 -5.79,2.89 -5.81,2.19 -5.83,1.50 -5.67,0.83 -5.52,0.15 -5.22,-0.46 -4.91,-1.08 -4.46,-1.61 -4.01,-2.14 -3.45,-2.54 -2.89,-2.95 -2.25,-3.21 -1.61,-3.47 -0.93,-3.57 -0.24,-3.67 0.24,-1.89 0.72,-0.12 2.85,-0.27 4.97,-0.42 7.51,-0.25 10.05,-0.09 14.07,-0.08 18.08,-0.06 20.45,-0.38 22.82,-0.69 25.69,-0.99 28.56,-1.28 31.64,-1.51 34.72,-1.74 37.93,-1.83 41.15,-1.92 44.12,-2.21 47.09,-2.49 50.91,-3.63 54.72,-4.77 58.89,-6.00 63.06,-7.23 68.05,-8.50 73.04,-9.77 78.52,-10.96 84.01,-12.14 89.23,-12.95 94.46,-13.76 100.04,-13.82 105.62,-13.88 111.03,-13.96 116.45,-14.05 121.49,-14.16 126.53,-14.27 130.68,-14.39 134.83,-14.51 138.37,-14.48 141.90,-14.45 145.50,-14.42 149.10,-14.39 152.82,-14.38 156.53,-14.36 160.51,-14.40 164.49,-14.43 169.12,-14.53 173.76,-14.62 178.48,-14.63 183.20,-14.63 187.67,-14.38 192.15,-14.14 196.44,-13.90 200.74,-13.66 204.76,-13.11 208.78,-12.56 211.84,-11.50 214.91,-10.45 218.11,-9.09 221.31,-7.72 222.68,-5.93 224.06,-4.14 224.40,-1.94 224.74,0.25 223.18,2.60 221.62,4.95 221.49,7.36 221.37,9.77 221.24,12.02 221.11,14.27 221.00,16.94 220.90,19.60 220.80,22.98 220.70,26.37 220.60,30.29 220.51,34.21 220.28,36.91 220.05,39.62 220.07,41.89 220.10,44.17 219.87,47.57 219.64,50.97 219.65,53.71 219.65,56.45 219.90,59.70 220.14,62.95 220.14,66.53 220.15,70.11 220.27,73.80 220.40,77.50 220.90,81.73 221.39,85.96 221.75,92.00 222.10,98.04 222.88,104.79 223.66,111.54 224.43,119.71 225.19,127.88 225.72,135.48 226.24,143.08 227.32,149.55 228.40,156.02 229.79,162.19 231.18,168.36 231.97,173.22 232.76,178.08 232.86,181.31 232.97,184.54 232.12,188.54 231.28,192.55 227.35,194.26 223.43,195.98 220.61,195.89 217.80,195.80 214.05,195.75 210.31,195.70 207.32,195.57 204.33,195.45 201.78,195.28 199.22,195.11 196.55,194.70 193.88,194.29 191.15,193.85 188.41,193.42 185.61,193.32 182.80,193.21 179.82,193.11 176.83,193.01 173.42,192.95 170.01,192.90 166.74,192.81 163.47,192.72 160.51,192.55 157.55,192.38 154.20,192.22 150.85,192.07 146.59,192.10 142.33,192.13 137.05,192.18 131.77,192.22 122.96,192.29 114.15,192.36 108.00,192.46 101.85,192.57 93.61,192.74 85.36,192.91 77.80,193.21 70.25,193.50 62.00,194.05 53.76,194.60 45.45,195.72 37.15,196.83 30.88,197.91 24.60,198.98 15.56,198.43 6.51,197.89 5.34,194.25 4.17,190.60 4.34,188.42 4.52,186.24 4.68,184.05 4.85,181.85 5.05,178.47 5.25,175.08 5.33,172.62 5.42,170.16 5.54,167.99 5.67,165.83 5.78,163.24 5.90,160.64 6.04,158.17 6.19,155.69 6.25,152.35 6.30,149.02 6.42,146.05 6.55,143.07 6.61,139.71 6.67,136.34 6.73,133.14 6.79,129.94 6.57,126.03 6.36,122.11 5.71,117.48 5.05,112.84 4.31,108.10 3.56,103.36 2.61,97.02 1.65,90.68 0.36,83.30 -0.92,75.93 -1.84,68.12 -2.76,60.31 -2.79,51.84 -2.81,43.36 -2.85,34.76 -2.88,26.17 -2.93,19.42 -2.98,12.68 -3.05,6.34 -3.12,0 -3.07,-0.37 -3.03,-0.74 -2.90,-1.09 -2.76,-1.45 -2.55,-1.76 -2.33,-2.07 -2.05,-2.32 -1.77,-2.57 -1.44,-2.74 -1.10,-2.92 -0.74,-3.01 -0.37,-3.10 0.00,-3.10 0.37,-3.10 0.74,-3.01 1.10,-2.92 1.44,-2.74 1.77,-2.57 2.05,-2.32 2.33,-2.07 2.55,-1.76 2.76,-1.45 2.90,-1.09 3.03,-0.74 3.07,-0.37 3.12,0.00 3.12,0.00 L 3.12,0 Z"></path></g><g transform="translate(26.379753902264383 125.0684547925357) rotate(0 97.09926316811902 -2.891751210625216)" stroke="none"><path fill="#1e1e1e" d="M 0,-3.12 Q 0,-3.12 5.32,-3.05 10.64,-2.98 19.55,-4.03 28.45,-5.08 38.07,-6.07 47.69,-7.06 59.60,-7.48 71.51,-7.90 82.29,-8.06 93.07,-8.23 102.47,-8.30 111.87,-8.36 118.51,-8.39 125.14,-8.41 130.61,-8.42 136.08,-8.42 140.95,-8.42 145.81,-8.42 149.42,-8.56 153.03,-8.69 155.57,-8.91 158.11,-9.14 161.73,-9.18 165.36,-9.22 168.44,-9.34 171.51,-9.46 175.38,-9.80 179.24,-10.13 181.74,-10.37 184.23,-10.62 186.43,-10.84 188.62,-11.06 191.33,-11.18 194.04,-11.29 194.92,-11.14 195.80,-11.00 196.59,-10.58 197.38,-10.16 197.99,-9.52 198.60,-8.87 198.98,-8.06 199.35,-7.25 199.45,-6.37 199.54,-5.48 199.35,-4.61 199.16,-3.74 198.70,-2.98 198.24,-2.21 197.56,-1.63 196.88,-1.06 196.05,-0.73 195.23,-0.40 194.34,-0.35 193.45,-0.30 192.59,-0.54 191.73,-0.78 190.99,-1.28 190.25,-1.78 189.71,-2.49 189.17,-3.20 188.89,-4.04 188.61,-4.89 188.61,-5.78 188.61,-6.67 188.89,-7.52 189.18,-8.36 189.71,-9.07 190.25,-9.78 190.99,-10.28 191.73,-10.78 192.59,-11.02 193.45,-11.26 194.34,-11.21 195.23,-11.16 196.06,-10.83 196.88,-10.50 197.56,-9.92 198.24,-9.34 198.70,-8.58 199.16,-7.82 199.35,-6.95 199.54,-6.08 199.45,-5.19 199.35,-4.30 198.98,-3.49 198.60,-2.69 197.99,-2.04 197.37,-1.39 196.59,-0.97 195.80,-0.56 194.92,-0.41 194.04,-0.27 194.04,-0.27 194.04,-0.27 191.33,-0.38 188.62,-0.49 186.43,-0.72 184.23,-0.94 181.74,-1.19 179.24,-1.43 175.38,-1.76 171.51,-2.09 168.44,-2.21 165.36,-2.33 161.74,-2.37 158.11,-2.42 155.57,-2.64 153.03,-2.86 149.43,-2.99 145.82,-3.12 140.96,-3.10 136.09,-3.09 130.63,-3.07 125.17,-3.05 118.54,-3.01 111.91,-2.96 102.54,-2.87 93.16,-2.78 82.44,-2.57 71.71,-2.37 60.00,-1.92 48.29,-1.46 38.72,-0.40 29.15,0.65 19.90,1.81 10.65,2.98 5.32,3.05 0,3.12 -0.37,3.07 -0.74,3.03 -1.09,2.90 -1.45,2.76 -1.76,2.55 -2.07,2.33 -2.32,2.05 -2.57,1.77 -2.74,1.44 -2.92,1.10 -3.01,0.74 -3.10,0.37 -3.10,-0.00 -3.10,-0.37 -3.01,-0.74 -2.92,-1.10 -2.74,-1.44 -2.57,-1.77 -2.32,-2.05 -2.07,-2.33 -1.76,-2.55 -1.45,-2.76 -1.09,-2.90 -0.74,-3.03 -0.37,-3.07 0.00,-3.12 0.00,-3.12 L 0,-3.12 Z"></path></g><g transform="translate(103.73922600494598 162.21002530630994) rotate(0 28.117666026716734 -46.49703512781821)" stroke="none"><path fill="#1e1e1e" d="M -3.20,3.77 Q -3.20,3.77 -5.66,1.60 -8.11,-0.56 -10.35,-3.35 -12.59,-6.15 -14.28,-9.65 -15.98,-13.16 -17.19,-15.48 -18.41,-17.79 -19.72,-20.45 -21.04,-23.10 -23.17,-26.23 -25.29,-29.36 -26.33,-31.77 -27.37,-34.18 -27.92,-36.99 -28.46,-39.81 -28.57,-43.24 -28.67,-46.68 -28.65,-48.96 -28.62,-51.24 -28.57,-53.74 -28.51,-56.24 -28.37,-59.37 -28.22,-62.51 -27.70,-66.14 -27.18,-69.77 -25.96,-73.30 -24.73,-76.83 -23.35,-79.53 -21.97,-82.23 -20.15,-84.65 -18.34,-87.07 -16.87,-88.83 -15.41,-90.59 -13.35,-92.23 -11.29,-93.86 -8.66,-95.21 -6.02,-96.56 -3.16,-97.51 -0.30,-98.45 2.51,-99.10 5.33,-99.75 8.33,-100.53 11.32,-101.31 14.88,-101.97 18.44,-102.63 22.19,-102.89 25.94,-103.14 29.54,-103.19 33.15,-103.24 36.21,-103.31 39.27,-103.38 42.59,-103.37 45.91,-103.36 48.87,-103.40 51.83,-103.43 55.11,-102.82 58.38,-102.20 60.93,-101.41 63.48,-100.63 66.01,-99.80 68.54,-98.97 70.66,-97.86 72.77,-96.75 74.99,-94.56 77.20,-92.36 79.41,-88.52 81.62,-84.68 82.43,-82.46 83.23,-80.24 83.64,-77.27 84.04,-74.30 84.15,-71.55 84.25,-68.79 84.32,-66.58 84.39,-64.37 84.47,-60.44 84.56,-56.52 84.63,-53.12 84.70,-49.72 84.75,-46.23 84.80,-42.73 84.83,-39.08 84.85,-35.42 84.83,-31.23 84.80,-27.05 84.16,-24.25 83.53,-21.46 82.18,-17.27 80.83,-13.09 79.39,-10.87 77.96,-8.66 76.50,-6.93 75.05,-5.21 71.61,-2.21 68.17,0.77 66.09,2.03 64.01,3.28 61.98,4.39 59.96,5.50 57.10,6.45 54.24,7.41 51.51,8.08 48.77,8.75 46.00,9.27 43.22,9.80 41.10,10.30 38.98,10.79 36.66,11.08 34.33,11.37 29.82,11.53 25.30,11.69 21.61,11.77 17.92,11.85 14.70,11.92 11.49,11.99 9.18,12.07 6.88,12.15 4.34,11.82 1.79,11.49 -2.52,6.21 -6.85,0.94 -6.55,-0.09 -6.25,-1.14 -5.63,-2.03 -5.02,-2.92 -4.15,-3.57 -3.28,-4.21 -2.25,-4.55 -1.22,-4.88 -0.14,-4.87 0.94,-4.86 1.96,-4.51 2.99,-4.15 3.84,-3.49 4.70,-2.82 5.30,-1.92 5.90,-1.02 6.18,0.02 6.46,1.07 6.39,2.15 6.32,3.23 5.91,4.23 5.49,5.24 4.78,6.06 4.07,6.87 3.14,7.42 2.21,7.97 1.15,8.20 0.09,8.42 -0.98,8.29 -2.06,8.16 -3.04,7.70 -4.01,7.23 -4.79,6.48 -5.57,5.73 -6.07,4.76 -6.57,3.80 -6.73,2.73 -6.90,1.66 -6.71,0.59 -6.53,-0.47 -6.01,-1.42 -5.49,-2.37 -4.70,-3.11 -3.90,-3.85 -2.92,-4.29 -1.93,-4.74 -0.85,-4.84 0.22,-4.95 1.28,-4.70 2.33,-4.46 3.25,-3.89 4.18,-3.32 4.87,-2.49 5.56,-1.66 5.95,-0.65 6.35,0.35 6.39,1.44 6.44,2.52 6.44,2.52 6.44,2.52 4.12,0.69 1.80,-1.13 4.34,-0.77 6.88,-0.42 9.18,-0.34 11.48,-0.26 14.67,-0.20 17.86,-0.14 21.48,-0.10 25.11,-0.07 27.36,-0.12 29.62,-0.17 33.00,-0.35 36.39,-0.53 38.61,-1.04 40.83,-1.54 43.29,-2.11 45.75,-2.68 48.09,-3.36 50.43,-4.03 53.99,-5.60 57.56,-7.17 60.45,-8.97 63.34,-10.78 65.60,-13.24 67.85,-15.70 69.25,-18.18 70.65,-20.65 71.57,-23.90 72.49,-27.14 72.46,-29.44 72.42,-31.74 72.44,-35.41 72.46,-39.09 72.50,-42.70 72.53,-46.30 72.60,-49.52 72.66,-52.74 72.70,-56.48 72.75,-60.22 72.71,-64.23 72.68,-68.24 72.38,-72.33 72.08,-76.43 70.82,-79.71 69.56,-82.99 68.29,-84.96 67.03,-86.94 64.86,-88.63 62.70,-90.33 59.55,-91.70 56.41,-93.08 54.11,-93.66 51.82,-94.25 48.90,-94.26 45.98,-94.28 42.71,-94.22 39.44,-94.16 36.47,-94.12 33.50,-94.07 30.15,-93.86 26.80,-93.65 23.67,-93.28 20.55,-92.92 17.43,-92.11 14.30,-91.31 11.06,-90.23 7.81,-89.15 5.44,-88.59 3.07,-88.03 -0.87,-86.48 -4.82,-84.94 -7.37,-82.76 -9.93,-80.58 -11.26,-78.92 -12.60,-77.26 -13.66,-75.33 -14.71,-73.40 -15.50,-71.01 -16.29,-68.62 -16.44,-65.56 -16.60,-62.50 -16.45,-59.38 -16.30,-56.26 -16.24,-53.76 -16.18,-51.27 -16.15,-49.03 -16.11,-46.78 -16.11,-43.76 -16.12,-40.73 -15.72,-38.37 -15.33,-36.01 -14.25,-33.43 -13.16,-30.86 -12.18,-28.49 -11.19,-26.11 -10.54,-24.06 -9.90,-22.01 -8.78,-19.62 -7.66,-17.23 -6.37,-14.63 -5.07,-12.03 -3.46,-9.96 -1.84,-7.89 0.68,-5.83 3.20,-3.77 3.61,-3.34 4.01,-2.90 4.30,-2.37 4.59,-1.85 4.75,-1.27 4.90,-0.70 4.91,-0.10 4.93,0.49 4.80,1.07 4.67,1.65 4.40,2.19 4.13,2.72 3.75,3.18 3.36,3.63 2.88,3.98 2.39,4.33 1.84,4.56 1.28,4.78 0.69,4.87 0.10,4.95 -0.48,4.89 -1.08,4.83 -1.64,4.63 -2.20,4.43 -2.70,4.10 -3.20,3.77 -3.20,3.77 L -3.20,3.77 Z"></path></g><g transform="translate(114.6636194673074 101.55161279596223) rotate(0 20.925887602183593 20.170477415956384)" stroke="none"><path fill="#1e1e1e" d="M 1.06,-4.68 Q 1.06,-4.68 4.07,-3.97 7.09,-3.27 10.48,-1.23 13.86,0.80 16.54,3.38 19.21,5.96 21.55,8.32 23.88,10.67 26.00,13.43 28.13,16.19 29.85,17.79 31.58,19.38 33.23,20.91 34.89,22.44 36.55,24.28 38.22,26.12 39.62,27.82 41.02,29.52 42.74,31.48 44.47,33.43 45.74,35.79 47.01,38.15 47.20,39.04 47.39,39.92 47.30,40.82 47.20,41.72 46.81,42.55 46.43,43.37 45.81,44.03 45.18,44.68 44.38,45.11 43.58,45.53 42.69,45.67 41.79,45.82 40.90,45.67 40.00,45.52 39.20,45.10 38.40,44.67 37.78,44.01 37.16,43.35 36.78,42.53 36.40,41.71 36.30,40.81 36.21,39.90 36.40,39.02 36.60,38.13 37.07,37.36 37.54,36.58 38.23,36.00 38.92,35.41 39.76,35.08 40.60,34.74 41.51,34.70 42.42,34.65 43.29,34.89 44.16,35.14 44.91,35.65 45.66,36.16 46.21,36.88 46.75,37.60 47.04,38.46 47.33,39.32 47.33,40.23 47.33,41.13 47.04,41.99 46.75,42.85 46.20,43.57 45.65,44.29 44.89,44.80 44.14,45.31 43.27,45.55 42.40,45.79 41.49,45.74 40.59,45.69 39.74,45.35 38.90,45.01 38.21,44.42 37.52,43.84 37.06,43.06 36.59,42.28 36.59,42.28 36.59,42.28 36.00,40.95 35.42,39.62 34.13,37.70 32.85,35.79 30.44,32.54 28.03,29.30 26.51,27.65 24.99,26.00 22.96,23.86 20.93,21.72 19.20,19.43 17.46,17.15 15.12,14.88 12.77,12.61 10.77,10.67 8.77,8.72 6.79,7.34 4.81,5.96 1.87,5.32 -1.06,4.68 -1.60,4.49 -2.15,4.29 -2.63,3.97 -3.11,3.65 -3.50,3.22 -3.90,2.80 -4.17,2.29 -4.45,1.78 -4.60,1.22 -4.75,0.66 -4.76,0.09 -4.77,-0.48 -4.65,-1.05 -4.52,-1.61 -4.26,-2.13 -4.00,-2.65 -3.62,-3.09 -3.25,-3.53 -2.78,-3.87 -2.31,-4.21 -1.77,-4.42 -1.23,-4.64 -0.66,-4.72 -0.09,-4.80 0.48,-4.74 1.06,-4.68 1.06,-4.68 L 1.06,-4.68 Z"></path></g><g transform="translate(119.59942177007679 139.13070595153295) rotate(0 19.045907500713156 -23.927019473257587)" stroke="none"><path fill="#1e1e1e" d="M -3.88,-1.77 Q -3.88,-1.77 -2.23,-5.15 -0.58,-8.53 1.91,-12.32 4.41,-16.11 7.47,-19.97 10.54,-23.84 12.98,-26.98 15.43,-30.13 18.00,-33.24 20.57,-36.35 22.30,-38.80 24.03,-41.24 25.91,-43.93 27.79,-46.62 29.56,-48.21 31.33,-49.81 33.81,-51.03 36.29,-52.25 37.04,-52.37 37.80,-52.50 38.56,-52.37 39.32,-52.25 39.99,-51.89 40.67,-51.53 41.20,-50.98 41.73,-50.42 42.05,-49.73 42.38,-49.03 42.46,-48.27 42.54,-47.51 42.38,-46.76 42.22,-46.01 41.82,-45.35 41.43,-44.69 40.84,-44.19 40.26,-43.70 39.55,-43.41 38.84,-43.13 38.07,-43.08 37.30,-43.04 36.56,-43.24 35.83,-43.45 35.19,-43.88 34.55,-44.31 34.09,-44.92 33.62,-45.53 33.38,-46.25 33.13,-46.98 33.13,-47.75 33.13,-48.51 33.37,-49.24 33.62,-49.97 34.08,-50.58 34.54,-51.19 35.18,-51.62 35.81,-52.05 36.55,-52.26 37.29,-52.47 38.06,-52.43 38.82,-52.39 39.53,-52.10 40.25,-51.82 40.83,-51.33 41.42,-50.83 41.81,-50.17 42.21,-49.52 42.38,-48.77 42.54,-48.02 42.46,-47.26 42.38,-46.49 42.06,-45.80 41.74,-45.10 41.21,-44.54 40.68,-43.98 40.01,-43.62 39.33,-43.26 39.33,-43.26 39.33,-43.26 36.70,-42.08 34.08,-40.90 31.86,-38.87 29.64,-36.84 27.64,-34.53 25.65,-32.23 23.19,-29.15 20.73,-26.08 18.36,-22.91 15.99,-19.75 13.36,-16.02 10.74,-12.28 8.78,-8.70 6.83,-5.12 5.35,-1.67 3.88,1.77 3.61,2.21 3.34,2.65 2.97,3.01 2.61,3.37 2.16,3.63 1.72,3.90 1.23,4.05 0.74,4.20 0.22,4.22 -0.28,4.25 -0.79,4.16 -1.29,4.06 -1.76,3.85 -2.23,3.63 -2.63,3.31 -3.03,2.99 -3.35,2.59 -3.66,2.18 -3.87,1.71 -4.08,1.24 -4.17,0.73 -4.26,0.23 -4.22,-0.28 -4.19,-0.79 -4.03,-1.28 -3.87,-1.77 -3.87,-1.77 L -3.88,-1.77 Z"></path></g><g transform="translate(136.70382254781725 92.40465506589953) rotate(0 0.9365719050961161 22.939175383576185)" stroke="none"><path fill="#1e1e1e" d="M 5.26,0 Q 5.26,0 5.29,2.41 5.31,4.83 5.42,8.87 5.53,12.91 5.64,16.32 5.75,19.73 5.90,22.28 6.04,24.82 7.02,27.31 8.00,29.80 8.22,32.33 8.43,34.85 8.53,37.22 8.63,39.59 8.68,42.52 8.73,45.45 8.55,46.55 8.37,47.65 7.85,48.63 7.33,49.61 6.53,50.37 5.72,51.13 4.71,51.60 3.70,52.07 2.60,52.19 1.50,52.31 0.41,52.07 -0.66,51.83 -1.61,51.26 -2.57,50.68 -3.28,49.84 -4.00,48.99 -4.41,47.96 -4.83,46.93 -4.89,45.82 -4.95,44.71 -4.65,43.64 -4.35,42.57 -3.73,41.65 -3.10,40.73 -2.22,40.06 -1.34,39.39 -0.28,39.03 0.76,38.68 1.87,38.68 2.98,38.68 4.03,39.03 5.08,39.39 5.97,40.06 6.85,40.73 7.48,41.65 8.10,42.57 8.40,43.64 8.69,44.71 8.63,45.82 8.57,46.93 8.16,47.96 7.75,48.99 7.03,49.84 6.31,50.69 5.36,51.26 4.41,51.83 3.32,52.07 2.24,52.31 1.13,52.19 0.03,52.07 -0.97,51.60 -1.98,51.13 -2.78,50.37 -3.59,49.61 -4.11,48.62 -4.63,47.64 -4.81,46.55 -4.99,45.45 -4.99,45.45 -4.99,45.45 -4.93,42.53 -4.88,39.60 -4.80,37.32 -4.71,35.04 -4.72,32.87 -4.72,30.70 -5.38,27.86 -6.04,25.02 -5.90,22.38 -5.75,19.73 -5.64,16.32 -5.53,12.91 -5.42,8.87 -5.31,4.83 -5.29,2.41 -5.26,0 -5.18,-0.62 -5.11,-1.25 -4.88,-1.85 -4.66,-2.44 -4.30,-2.96 -3.94,-3.49 -3.46,-3.91 -2.99,-4.33 -2.42,-4.62 -1.86,-4.92 -1.25,-5.07 -0.63,-5.22 0.00,-5.22 0.63,-5.22 1.25,-5.07 1.86,-4.92 2.42,-4.62 2.99,-4.33 3.46,-3.91 3.94,-3.49 4.30,-2.96 4.66,-2.44 4.88,-1.85 5.11,-1.25 5.18,-0.62 5.26,0.00 5.26,0.00 L 5.26,0 Z"></path></g><g transform="translate(18.046314834292843 224.4339485193359) rotate(0 23.636477093939448 26.306048838027436)" stroke="none"><path fill="#1e1e1e" d="M 5.15,0.67 Q 5.15,0.67 4.55,4.17 3.94,7.68 3.17,10.59 2.41,13.51 1.91,15.64 1.41,17.77 1.31,20.66 1.20,23.56 1.29,26.25 1.37,28.95 1.47,31.49 1.58,34.02 2.19,36.58 2.80,39.14 4.07,41.24 5.34,43.34 6.98,44.74 8.62,46.13 12.18,46.11 15.74,46.08 19.22,46.11 22.69,46.15 25.90,45.08 29.10,44.01 32.21,42.51 35.31,41.01 36.94,39.34 38.58,37.66 39.44,35.58 40.29,33.49 41.63,30.37 42.98,27.24 43.53,24.20 44.08,21.16 44.44,18.73 44.80,16.30 44.81,13.51 44.83,10.72 43.24,8.90 41.65,7.09 38.91,7.07 36.16,7.06 34.29,7.06 32.42,7.06 31.28,6.87 30.13,6.68 29.10,6.14 28.07,5.59 27.27,4.75 26.47,3.90 25.98,2.85 25.49,1.79 25.37,0.63 25.24,-0.52 25.49,-1.65 25.74,-2.79 26.34,-3.79 26.94,-4.78 27.83,-5.54 28.72,-6.29 29.80,-6.72 30.88,-7.15 32.04,-7.21 33.20,-7.28 34.33,-6.97 35.45,-6.65 36.41,-6.00 37.37,-5.35 38.08,-4.42 38.78,-3.49 39.15,-2.39 39.52,-1.29 39.52,-0.12 39.52,1.03 39.15,2.13 38.78,3.24 38.08,4.16 37.37,5.09 36.41,5.74 35.44,6.40 34.32,6.71 33.20,7.02 32.04,6.95 30.88,6.89 29.79,6.46 28.71,6.03 27.83,5.27 26.94,4.52 26.34,3.52 25.74,2.53 25.49,1.39 25.24,0.25 25.37,-0.90 25.49,-2.05 25.98,-3.11 26.47,-4.16 27.27,-5.01 28.07,-5.85 29.10,-6.40 30.13,-6.94 31.28,-7.13 32.43,-7.32 32.43,-7.32 32.43,-7.32 35.19,-7.30 37.94,-7.29 41.10,-7.20 44.26,-7.10 47.51,-5.48 50.75,-3.86 52.55,-2.28 54.34,-0.70 55.94,1.37 57.53,3.46 58.00,6.41 58.46,9.36 58.36,12.14 58.26,14.93 57.75,17.87 57.25,20.81 56.67,23.74 56.09,26.67 55.69,29.07 55.29,31.48 53.72,35.33 52.14,39.18 50.56,42.36 48.98,45.53 46.53,47.97 44.08,50.41 40.95,52.23 37.82,54.06 35.76,55.00 33.69,55.94 31.33,56.87 28.97,57.79 25.87,58.55 22.78,59.32 19.18,59.33 15.59,59.34 12.35,59.23 9.12,59.13 6.29,58.39 3.45,57.65 0.71,55.60 -2.02,53.54 -4.54,50.31 -7.06,47.08 -8.54,43.55 -10.02,40.02 -10.16,37.01 -10.29,33.99 -10.16,31.39 -10.04,28.79 -9.83,25.85 -9.62,22.92 -9.03,19.03 -8.44,15.14 -7.79,12.97 -7.14,10.80 -6.46,8.60 -5.77,6.40 -5.46,2.86 -5.15,-0.67 -5.00,-1.27 -4.84,-1.88 -4.55,-2.43 -4.25,-2.99 -3.83,-3.45 -3.41,-3.92 -2.89,-4.27 -2.37,-4.62 -1.78,-4.84 -1.20,-5.06 -0.57,-5.13 0.04,-5.20 0.66,-5.11 1.28,-5.03 1.87,-4.81 2.45,-4.58 2.96,-4.22 3.48,-3.86 3.89,-3.39 4.30,-2.91 4.59,-2.36 4.87,-1.80 5.02,-1.19 5.16,-0.58 5.16,0.04 5.15,0.67 5.15,0.67 L 5.15,0.67 Z"></path></g><g transform="translate(22.401032378425953 221.80881266855567) rotate(0 15.730306230847418 1.2578775951653824)" stroke="none"><path fill="#1e1e1e" d="M 0,-5.06 Q 0,-5.06 3.56,-4.92 7.12,-4.79 10.88,-4.98 14.63,-5.17 17.08,-5.37 19.52,-5.58 22.87,-5.06 26.22,-4.54 28.21,-3.22 30.21,-1.90 30.82,-2.82 31.44,-3.74 32.43,-3.55 33.43,-3.37 34.31,-2.87 35.19,-2.37 35.87,-1.62 36.55,-0.87 36.95,0.05 37.36,0.98 37.44,1.99 37.53,3.00 37.29,3.98 37.04,4.96 36.50,5.82 35.96,6.67 35.17,7.31 34.38,7.95 33.43,8.30 32.48,8.65 31.47,8.68 30.46,8.71 29.49,8.42 28.52,8.12 27.70,7.53 26.87,6.95 26.28,6.13 25.69,5.30 25.39,4.34 25.09,3.37 25.11,2.36 25.13,1.34 25.48,0.39 25.83,-0.55 26.46,-1.34 27.09,-2.13 27.94,-2.68 28.80,-3.23 29.78,-3.48 30.76,-3.72 31.77,-3.64 32.78,-3.56 33.71,-3.17 34.64,-2.77 35.40,-2.09 36.16,-1.42 36.66,-0.54 37.16,0.33 37.35,1.33 37.54,2.32 37.41,3.32 37.28,4.33 36.83,5.24 36.38,6.15 35.67,6.86 34.95,7.58 34.05,8.03 33.14,8.49 32.14,8.63 31.13,8.77 31.13,8.77 31.14,8.77 27.29,8.06 23.44,7.36 21.48,6.47 19.52,5.58 17.08,5.37 14.63,5.17 10.88,4.98 7.12,4.79 3.56,4.92 0,5.06 -0.60,4.99 -1.21,4.91 -1.78,4.70 -2.35,4.48 -2.85,4.13 -3.35,3.79 -3.76,3.33 -4.16,2.87 -4.45,2.33 -4.73,1.79 -4.88,1.20 -5.02,0.61 -5.02,-0.00 -5.02,-0.61 -4.88,-1.20 -4.73,-1.79 -4.45,-2.33 -4.16,-2.87 -3.76,-3.33 -3.35,-3.79 -2.85,-4.13 -2.35,-4.48 -1.78,-4.70 -1.21,-4.91 -0.60,-4.99 0.00,-5.06 0.00,-5.06 L 0,-5.06 Z"></path></g><g transform="translate(194.3064128568658 223.43584999273753) rotate(0 27.14349451959106 29.77888480728859)" stroke="none"><path fill="#1e1e1e" d="M 4.39,0 Q 4.39,0 4.15,5.54 3.92,11.08 3.75,16.08 3.57,21.09 3.10,25.98 2.63,30.87 2.45,34.86 2.26,38.85 2.38,41.61 2.49,44.38 2.61,47.08 2.73,49.78 6.99,52.13 11.25,54.48 14.61,55.09 17.96,55.70 20.55,56.21 23.15,56.71 25.28,57.12 27.41,57.52 29.63,57.85 31.85,58.18 34.60,56.49 37.35,54.80 39.71,51.82 42.06,48.84 43.53,47.18 44.99,45.51 46.56,43.00 48.14,40.50 48.88,36.52 49.62,32.55 49.69,29.01 49.75,25.47 49.66,23.15 49.57,20.82 49.50,17.98 49.42,15.14 48.72,13.03 48.03,10.93 46.14,9.41 44.25,7.88 41.86,7.21 39.46,6.54 35.97,5.61 32.47,4.68 29.53,3.84 26.59,3.00 23.95,2.88 21.31,2.77 18.26,2.74 15.21,2.71 12.95,3.02 10.68,3.32 8.59,4.31 6.49,5.29 1.82,5.70 -2.84,6.12 -3.72,5.46 -4.59,4.81 -5.22,3.91 -5.84,3.02 -6.14,1.97 -6.44,0.92 -6.39,-0.16 -6.34,-1.25 -5.95,-2.27 -5.56,-3.28 -4.86,-4.12 -4.16,-4.96 -3.23,-5.53 -2.30,-6.11 -1.24,-6.35 -0.18,-6.60 0.90,-6.49 1.99,-6.38 2.98,-5.93 3.98,-5.48 4.78,-4.74 5.58,-4.00 6.10,-3.04 6.62,-2.08 6.80,-1.01 6.99,0.06 6.82,1.14 6.66,2.22 6.16,3.18 5.66,4.15 4.87,4.91 4.09,5.67 3.10,6.14 2.11,6.61 1.03,6.73 -0.04,6.86 -1.11,6.64 -2.18,6.41 -3.12,5.86 -4.06,5.31 -4.77,4.48 -5.49,3.66 -5.90,2.65 -6.32,1.64 -6.39,0.55 -6.46,-0.53 -6.17,-1.58 -5.89,-2.64 -5.29,-3.55 -4.68,-4.46 -3.82,-5.12 -2.96,-5.79 -1.93,-6.15 -0.90,-6.51 0.18,-6.52 1.27,-6.53 2.31,-6.19 3.35,-5.85 3.35,-5.85 3.35,-5.85 2.88,-6.72 2.41,-7.58 4.61,-8.41 6.81,-9.24 9.22,-9.82 11.63,-10.41 15.20,-10.41 18.76,-10.40 22.25,-10.28 25.74,-10.15 29.37,-9.46 33.00,-8.76 36.20,-7.87 39.39,-6.98 43.15,-5.94 46.92,-4.89 50.11,-3.34 53.31,-1.78 55.67,0.59 58.04,2.98 59.21,5.25 60.39,7.53 60.97,9.83 61.56,12.13 61.49,15.38 61.43,18.63 61.30,20.79 61.17,22.94 60.96,26.11 60.74,29.27 60.55,31.58 60.36,33.88 59.95,36.90 59.53,39.92 58.57,42.82 57.60,45.72 54.40,50.88 51.19,56.04 49.76,57.83 48.33,59.62 45.39,62.61 42.45,65.59 39.81,67.09 37.17,68.58 33.73,68.37 30.28,68.16 27.74,67.31 25.20,66.47 23.14,65.84 21.08,65.21 18.80,64.53 16.51,63.85 13.14,63.26 9.76,62.68 4.58,61.82 -0.59,60.97 -2.68,58.75 -4.76,56.53 -4.88,53.12 -5.01,49.71 -4.83,46.96 -4.66,44.22 -4.42,41.42 -4.19,38.62 -4.09,34.51 -3.98,30.40 -3.78,25.74 -3.57,21.09 -3.75,16.08 -3.92,11.08 -4.15,5.54 -4.39,0 -4.32,-0.52 -4.26,-1.05 -4.07,-1.54 -3.88,-2.04 -3.58,-2.47 -3.28,-2.91 -2.89,-3.26 -2.49,-3.61 -2.02,-3.85 -1.55,-4.10 -1.04,-4.23 -0.52,-4.35 0.00,-4.35 0.52,-4.35 1.04,-4.23 1.55,-4.10 2.02,-3.85 2.49,-3.61 2.89,-3.26 3.28,-2.91 3.58,-2.47 3.88,-2.03 4.07,-1.54 4.26,-1.05 4.32,-0.52 4.39,0.00 4.39,0.00 L 4.39,0 Z"></path></g></svg>