<?xml version="1.0" standalone="no"?>
<!DOCTYPE svg PUBLIC "-//W3C//DTD SVG 1.1//EN" "http://www.w3.org/Graphics/SVG/1.1/DTD/svg11.dtd">
<svg version="1.1" xmlns="http://www.w3.org/2000/svg" viewBox="0 0 264.3905768998543 321.9111317135664" width="793.1717306995629" height="965.7333951406993" filter="invert(93%) hue-rotate(180deg)"><!-- svg-source:excalidraw --><metadata></metadata><defs><style class="style-fonts">
      </style></defs><g transform="translate(42.622781978967396 155.4079154846263) rotate(0 90.68340380364657 -31.156397499820514)" stroke="none"><path fill="#1e1e1e" d="M -4.06,0 Q -4.06,0 -3.87,-5.40 -3.68,-10.81 -3.62,-14.72 -3.56,-18.64 -3.43,-24.35 -3.31,-30.06 -3.21,-37.39 -3.12,-44.72 -3.05,-49.85 -2.98,-54.99 -3.05,-58.71 -3.12,-62.42 -3.32,-65.06 -3.52,-67.70 -3.70,-69.88 -3.89,-72.06 -3.50,-76.96 -3.11,-81.87 -2.27,-84.60 -1.43,-87.34 -0.19,-89.88 1.04,-92.42 2.76,-94.76 4.48,-97.10 6.27,-99.16 8.06,-101.21 10.54,-103.39 13.02,-105.57 15.73,-107.49 18.45,-109.41 21.03,-111.29 23.61,-113.17 25.76,-114.83 27.90,-116.49 31.11,-118.28 34.33,-120.08 37.10,-121.69 39.88,-123.30 43.09,-125.20 46.30,-127.09 49.75,-129.15 53.20,-131.21 56.73,-133.37 60.26,-135.52 63.89,-137.49 67.52,-139.47 71.31,-140.79 75.10,-142.11 78.60,-143.29 82.09,-144.47 87.51,-145.31 92.92,-146.16 96.01,-146.97 99.10,-147.78 103.75,-148.00 108.40,-148.23 111.84,-148.45 115.29,-148.67 118.30,-148.86 121.31,-149.05 124.13,-149.20 126.95,-149.34 129.49,-149.21 132.02,-149.08 134.69,-148.13 137.35,-147.17 139.58,-145.94 141.81,-144.71 143.72,-143.31 145.63,-141.92 148.02,-139.62 150.41,-137.31 153.33,-132.29 156.25,-127.26 157.59,-124.74 158.94,-122.22 160.00,-119.28 161.06,-116.34 162.02,-113.75 162.98,-111.16 163.76,-108.87 164.54,-106.57 165.40,-104.21 166.27,-101.86 167.99,-98.58 169.71,-95.30 171.35,-91.52 173.00,-87.74 173.86,-83.60 174.73,-79.45 175.81,-76.16 176.89,-72.86 177.45,-70.31 178.01,-67.77 178.73,-65.40 179.46,-63.03 180.33,-60.46 181.20,-57.88 181.92,-54.41 182.63,-50.93 183.24,-48.02 183.85,-45.11 184.42,-42.86 184.99,-40.61 185.29,-37.73 185.59,-34.85 186.14,-31.57 186.69,-28.28 186.89,-25.80 187.10,-23.32 187.25,-21.06 187.40,-18.79 187.54,-16.61 187.68,-14.43 187.81,-12.05 187.93,-9.68 186.34,-6.35 184.74,-3.03 181.72,-2.00 178.71,-0.96 176.50,-0.84 174.29,-0.72 171.17,-0.73 168.04,-0.73 164.46,-0.78 160.87,-0.82 158.51,-0.90 156.15,-0.97 151.67,-1.08 147.19,-1.18 142.67,-1.27 138.15,-1.35 135.58,-1.42 133.00,-1.49 129.89,-1.63 126.78,-1.78 123.43,-1.94 120.09,-2.11 116.65,-2.26 113.21,-2.42 109.33,-2.31 105.44,-2.21 101.55,-2.16 97.65,-2.11 93.34,-2.26 89.02,-2.41 84.68,-2.21 80.34,-2.02 75.71,-1.98 71.08,-1.94 66.47,-1.97 61.86,-1.99 57.39,-1.62 52.91,-1.26 48.87,-1.05 44.83,-0.84 41.22,-0.37 37.62,0.09 34.08,0.67 30.54,1.25 27.55,1.92 24.57,2.60 21.73,3.24 18.90,3.87 15.98,4.23 13.06,4.59 8.26,5.33 3.47,6.07 1.27,6.25 -0.92,6.43 -4.02,6.68 -7.12,6.93 -7.64,10.24 -8.17,13.56 -8.14,16.05 -8.12,18.54 -8.03,20.94 -7.94,23.33 -8.13,26.96 -8.32,30.59 -8.35,33.05 -8.39,35.50 -8.36,37.82 -8.34,40.13 -8.33,42.30 -8.32,44.48 -7.77,47.39 -7.21,50.31 -6.77,52.96 -6.33,55.61 -6.27,57.92 -6.21,60.23 -6.17,61.70 -6.14,63.16 -6.25,64.03 -6.35,64.90 -6.66,65.73 -6.97,66.55 -7.47,67.27 -7.97,67.99 -8.63,68.58 -9.28,69.16 -10.06,69.57 -10.84,69.98 -11.69,70.19 -12.54,70.40 -13.42,70.40 -14.30,70.40 -15.15,70.19 -16.01,69.98 -16.79,69.57 -17.56,69.17 -18.22,68.58 -18.88,68.00 -19.38,67.28 -19.88,66.56 -20.19,65.74 -20.50,64.91 -20.61,64.04 -20.72,63.17 -13.43,63.16 -6.15,63.15 -6.26,64.02 -6.36,64.89 -6.67,65.71 -6.98,66.53 -7.48,67.25 -7.98,67.97 -8.63,68.55 -9.29,69.14 -10.07,69.54 -10.84,69.95 -11.69,70.16 -12.55,70.37 -13.42,70.37 -14.30,70.37 -15.15,70.17 -16.00,69.96 -16.78,69.55 -17.56,69.14 -18.21,68.56 -18.87,67.98 -19.37,67.26 -19.87,66.54 -20.18,65.72 -20.49,64.90 -20.60,64.03 -20.70,63.16 -13.42,63.47 -6.14,63.78 -6.14,66.54 -6.13,69.30 -3.05,70.17 0.02,71.03 6.59,71.59 13.16,72.15 18.43,72.61 23.70,73.06 31.66,73.41 39.61,73.76 50.18,74.03 60.75,74.29 70.01,74.49 79.26,74.69 87.24,74.83 95.22,74.98 101.37,75.50 107.51,76.02 112.15,76.61 116.79,77.21 120.80,77.77 124.80,78.33 127.64,78.65 130.48,78.97 133.70,78.89 136.92,78.80 141.32,78.85 145.72,78.90 150.57,79.11 155.43,79.32 159.99,79.07 164.55,78.83 167.98,78.29 171.41,77.75 174.37,77.10 177.32,76.45 180.27,75.40 183.21,74.35 185.52,73.48 187.82,72.60 189.87,71.40 191.93,70.19 191.16,67.10 190.40,64.02 190.52,60.52 190.64,57.02 190.70,54.56 190.77,52.11 190.83,49.52 190.89,46.94 191.02,43.83 191.15,40.71 191.15,38.33 191.15,35.95 191.08,31.94 191.02,27.93 190.91,25.02 190.81,22.10 190.68,19.65 190.55,17.20 190.44,14.53 190.34,11.86 190.25,9.58 190.16,7.30 190.90,7.47 191.64,7.64 190.58,7.31 189.52,6.97 188.62,6.32 187.72,5.66 187.08,4.75 186.44,3.85 186.12,2.78 185.80,1.72 185.84,0.60 185.88,-0.50 186.27,-1.54 186.66,-2.58 187.36,-3.44 188.07,-4.30 189.01,-4.89 189.95,-5.48 191.03,-5.74 192.11,-6.00 193.22,-5.91 194.33,-5.81 195.34,-5.36 196.36,-4.91 197.18,-4.17 198.01,-3.42 198.54,-2.44 199.08,-1.47 199.29,-0.38 199.49,0.70 199.33,1.80 199.17,2.90 198.67,3.90 198.17,4.89 197.38,5.67 196.58,6.45 195.58,6.94 194.58,7.42 193.48,7.56 192.38,7.71 191.29,7.49 190.20,7.27 189.23,6.72 188.27,6.16 187.53,5.33 186.80,4.49 186.37,3.47 185.94,2.45 185.85,1.34 185.77,0.23 186.05,-0.84 186.33,-1.92 186.93,-2.85 187.54,-3.78 188.41,-4.47 189.28,-5.16 190.33,-5.53 191.37,-5.91 192.49,-5.93 193.60,-5.95 193.60,-5.95 193.59,-5.95 195.93,-4.90 198.26,-3.85 200.52,-1.63 202.78,0.58 203.09,3.94 203.40,7.30 203.32,9.58 203.23,11.86 203.13,14.53 203.02,17.20 202.89,19.65 202.76,22.10 202.66,25.02 202.55,27.94 202.48,31.94 202.41,35.95 202.41,38.34 202.41,40.73 202.53,43.85 202.65,46.98 202.69,49.60 202.74,52.21 202.76,54.75 202.78,57.30 202.74,59.71 202.71,62.12 202.24,65.31 201.77,68.49 201.25,71.62 200.74,74.74 198.63,77.17 196.53,79.59 194.18,80.53 191.83,81.47 188.78,82.11 185.74,82.75 182.20,83.30 178.67,83.84 175.54,84.30 172.42,84.75 168.78,85.23 165.14,85.71 160.28,86.27 155.42,86.84 150.55,87.04 145.68,87.24 141.05,87.17 136.43,87.11 132.84,86.42 129.25,85.73 126.60,85.04 123.96,84.36 120.04,83.81 116.12,83.26 111.59,82.83 107.07,82.40 101.15,82.10 95.22,81.79 87.24,81.94 79.26,82.08 70.00,82.27 60.75,82.46 50.17,82.72 39.60,82.97 31.62,83.30 23.64,83.62 18.34,84.02 13.03,84.41 6.05,84.82 -0.91,85.23 -4.31,85.05 -7.70,84.86 -10.45,83.79 -13.20,82.72 -15.19,81.26 -17.19,79.81 -18.66,76.78 -20.14,73.75 -20.43,71.58 -20.72,69.42 -20.72,66.60 -20.72,63.78 -13.44,63.46 -6.15,63.14 -6.26,64.02 -6.36,64.89 -6.67,65.71 -6.98,66.53 -7.48,67.25 -7.98,67.97 -8.63,68.55 -9.29,69.14 -10.07,69.54 -10.84,69.95 -11.69,70.16 -12.55,70.37 -13.42,70.37 -14.30,70.37 -15.15,70.17 -16.00,69.96 -16.78,69.55 -17.56,69.14 -18.21,68.56 -18.87,67.98 -19.37,67.26 -19.87,66.54 -20.18,65.72 -20.49,64.90 -20.60,64.03 -20.70,63.16 -13.42,63.16 -6.14,63.16 -6.25,64.03 -6.35,64.90 -6.66,65.72 -6.97,66.55 -7.47,67.27 -7.97,67.99 -8.63,68.58 -9.28,69.16 -10.06,69.57 -10.84,69.98 -11.69,70.19 -12.54,70.40 -13.42,70.40 -14.30,70.40 -15.15,70.19 -16.01,69.98 -16.79,69.57 -17.56,69.17 -18.22,68.58 -18.88,68.00 -19.38,67.28 -19.88,66.56 -20.19,65.74 -20.50,64.91 -20.61,64.04 -20.72,63.17 -20.69,61.74 -20.66,60.30 -20.63,57.59 -20.60,54.87 -21.32,51.44 -22.05,48.02 -22.28,45.09 -22.51,42.17 -22.47,39.65 -22.44,37.13 -22.39,34.98 -22.35,32.83 -22.15,30.41 -21.95,27.99 -21.75,25.66 -21.55,23.33 -21.44,20.74 -21.33,18.16 -20.87,15.53 -20.42,12.90 -19.96,10.28 -19.50,7.66 -18.68,5.20 -17.86,2.74 -15.50,0.33 -13.13,-2.07 -10.92,-2.79 -8.72,-3.52 -6.56,-3.36 -4.41,-3.21 -0.73,-3.07 2.93,-2.94 5.27,-2.97 7.60,-3.01 10.01,-3.24 12.43,-3.48 15.01,-3.55 17.58,-3.62 20.44,-3.99 23.30,-4.36 26.45,-4.79 29.61,-5.23 33.26,-5.69 36.91,-6.14 40.73,-6.50 44.54,-6.87 48.44,-7.03 52.34,-7.20 57.06,-7.71 61.77,-8.22 66.31,-8.38 70.85,-8.53 75.30,-8.81 79.75,-9.09 84.32,-9.63 88.89,-10.18 93.07,-10.47 97.25,-10.77 100.89,-11.07 104.53,-11.37 108.87,-12.09 113.20,-12.80 116.65,-12.96 120.09,-13.11 123.43,-13.28 126.78,-13.45 129.89,-13.59 133.00,-13.74 135.58,-13.80 138.15,-13.87 142.67,-13.96 147.19,-14.04 151.67,-14.14 156.15,-14.25 160.32,-14.35 164.49,-14.45 167.90,-14.49 171.31,-14.54 174.30,-14.19 177.30,-13.84 175.95,-11.76 174.60,-9.68 174.72,-12.05 174.85,-14.43 174.99,-16.59 175.13,-18.76 175.25,-20.91 175.37,-23.05 175.43,-25.21 175.48,-27.36 175.21,-30.62 174.94,-33.88 174.78,-36.03 174.62,-38.17 174.11,-40.48 173.60,-42.79 172.91,-45.63 172.22,-48.47 171.45,-51.28 170.68,-54.08 169.64,-56.79 168.60,-59.49 167.64,-62.30 166.67,-65.12 165.58,-69.43 164.50,-73.75 163.75,-77.38 163.01,-81.01 162.31,-84.15 161.61,-87.28 159.93,-90.79 158.26,-94.30 157.40,-96.33 156.54,-98.35 155.63,-100.93 154.72,-103.52 154.14,-105.59 153.56,-107.67 152.56,-110.36 151.56,-113.06 150.83,-115.30 150.10,-117.54 148.81,-119.96 147.53,-122.39 145.09,-126.24 142.65,-130.09 141.04,-132.18 139.43,-134.28 136.54,-136.61 133.64,-138.93 130.33,-140.16 127.01,-141.39 124.23,-141.49 121.45,-141.60 118.50,-141.67 115.55,-141.75 112.21,-141.71 108.86,-141.67 104.75,-141.28 100.64,-140.90 97.36,-140.26 94.07,-139.63 89.21,-138.67 84.35,-137.70 80.86,-136.54 77.37,-135.39 74.17,-134.36 70.98,-133.33 67.65,-131.35 64.33,-129.37 60.95,-126.96 57.58,-124.54 54.27,-122.17 50.97,-119.80 47.78,-117.60 44.59,-115.39 41.80,-113.69 39.01,-111.99 36.35,-110.38 33.69,-108.77 31.51,-107.18 29.33,-105.59 26.71,-103.55 24.10,-101.51 21.81,-99.86 19.53,-98.21 17.47,-96.37 15.42,-94.54 13.78,-92.81 12.14,-91.07 9.69,-87.74 7.24,-84.41 6.37,-82.05 5.50,-79.69 4.70,-75.87 3.89,-72.06 3.70,-69.88 3.52,-67.70 3.32,-65.06 3.12,-62.42 3.05,-58.71 2.98,-54.99 3.05,-49.85 3.12,-44.72 3.21,-37.39 3.31,-30.06 3.43,-24.35 3.56,-18.64 3.62,-14.72 3.68,-10.81 3.87,-5.40 4.06,0 4.00,0.48 3.94,0.97 3.77,1.43 3.59,1.88 3.31,2.29 3.04,2.69 2.67,3.01 2.30,3.34 1.87,3.57 1.44,3.79 0.96,3.91 0.48,4.03 -0.00,4.03 -0.49,4.03 -0.96,3.91 -1.44,3.79 -1.87,3.57 -2.30,3.34 -2.67,3.01 -3.04,2.69 -3.32,2.29 -3.59,1.88 -3.77,1.43 -3.94,0.97 -4.00,0.48 -4.06,-0.00 -4.06,-0.00 L -4.06,0 Z"></path></g><g transform="translate(63.24787276491543 182.65737251902783) rotate(0 21.32581064195074 9.943385663958452)" stroke="none"><path fill="#1e1e1e" d="M 0,-4.94 Q 0,-4.94 3.14,-4.90 6.29,-4.85 9.40,-5.10 12.52,-5.35 15.39,-5.75 18.27,-6.15 21.79,-6.29 25.32,-6.43 27.49,-6.61 29.66,-6.78 32.40,-7.03 35.15,-7.27 37.52,-7.46 39.89,-7.65 42.89,-6.10 45.88,-4.55 47.02,-2.61 48.15,-0.66 48.44,1.75 48.74,4.17 48.83,6.50 48.93,8.84 47.63,12.62 46.33,16.40 44.78,18.11 43.22,19.83 40.02,21.99 36.83,24.14 34.04,25.45 31.26,26.76 27.52,27.51 23.78,28.27 21.25,28.49 18.72,28.72 16.58,28.77 14.43,28.81 12.08,28.03 9.73,27.26 7.94,25.86 6.15,24.46 4.46,22.80 2.78,21.15 1.00,19.42 -0.77,17.68 -1.85,15.51 -2.94,13.33 -3.07,11.08 -3.20,8.82 -2.45,5.14 -1.70,1.45 -0.64,3.89 0.41,6.32 -0.19,6.97 -0.79,7.63 -1.78,6.98 -2.76,6.33 -3.49,5.40 -4.22,4.47 -4.61,3.36 -5.00,2.24 -5.02,1.06 -5.03,-0.11 -4.67,-1.23 -4.31,-2.35 -3.61,-3.30 -2.91,-4.25 -1.94,-4.93 -0.97,-5.60 0.15,-5.93 1.28,-6.27 2.46,-6.22 3.64,-6.17 4.74,-5.75 5.85,-5.33 6.76,-4.57 7.67,-3.82 8.29,-2.82 8.91,-1.82 9.18,-0.67 9.45,0.47 9.34,1.65 9.23,2.82 8.75,3.90 8.26,4.98 7.46,5.84 6.66,6.71 5.63,7.28 4.59,7.85 3.43,8.05 2.27,8.26 1.10,8.09 -0.05,7.91 -1.10,7.37 -2.15,6.83 -2.98,5.99 -3.80,5.14 -4.31,4.08 -4.82,3.01 -4.96,1.84 -5.11,0.67 -4.87,-0.48 -4.63,-1.63 -4.04,-2.65 -3.44,-3.67 -2.55,-4.45 -1.66,-5.22 -0.57,-5.68 0.51,-6.13 1.68,-6.21 2.86,-6.29 4.00,-5.99 5.14,-5.69 5.14,-5.69 5.14,-5.69 7.48,-3.72 9.82,-1.75 10.84,2.22 11.85,6.20 12.17,8.56 12.48,10.93 13.72,13.03 14.96,15.12 17.23,15.18 19.50,15.23 21.87,15.12 24.24,15.01 27.16,14.05 30.08,13.09 33.21,10.96 36.35,8.83 37.36,6.11 38.38,3.40 35.78,3.19 33.17,2.98 29.48,2.88 25.80,2.77 22.67,2.98 19.55,3.18 16.50,3.59 13.46,4.01 9.87,4.43 6.29,4.85 3.14,4.90 0,4.94 -0.59,4.87 -1.18,4.80 -1.74,4.58 -2.29,4.37 -2.78,4.03 -3.27,3.70 -3.67,3.25 -4.06,2.80 -4.34,2.28 -4.62,1.75 -4.76,1.17 -4.90,0.59 -4.90,-0.00 -4.90,-0.59 -4.76,-1.17 -4.62,-1.75 -4.34,-2.28 -4.06,-2.80 -3.67,-3.25 -3.27,-3.70 -2.78,-4.03 -2.29,-4.37 -1.73,-4.58 -1.18,-4.80 -0.59,-4.87 0.00,-4.94 0.00,-4.94 L 0,-4.94 Z"></path></g><g transform="translate(183.47089118111853 188.6664725524547) rotate(0 17.825629507576878 6.50814929672606)" stroke="none"><path fill="#1e1e1e" d="M -3.76,-3.83 Q -3.76,-3.83 -2.49,-5.16 -1.22,-6.49 0.81,-7.79 2.86,-9.09 5.28,-9.76 7.71,-10.43 11.27,-10.79 14.83,-11.15 18.01,-11.27 21.19,-11.39 23.96,-11.47 26.72,-11.55 28.93,-11.63 31.13,-11.70 33.55,-11.60 35.98,-11.51 38.04,-10.35 40.10,-9.19 41.18,-6.31 42.25,-3.44 42.32,-1.16 42.39,1.11 40.95,5.74 39.51,10.37 38.07,12.25 36.63,14.13 35.02,15.64 33.41,17.16 31.18,19.04 28.95,20.93 26.41,22.35 23.88,23.78 20.88,24.40 17.89,25.03 15.56,25.12 13.23,25.21 9.42,24.87 5.61,24.53 3.78,23.38 1.95,22.23 0.56,20.60 -0.82,18.97 -1.58,16.59 -2.34,14.20 -3.03,11.82 -3.73,9.44 -4.06,7.85 -4.39,6.26 -4.91,5.22 -5.44,4.17 -5.60,3.01 -5.76,1.85 -5.54,0.70 -5.32,-0.44 -4.74,-1.46 -4.17,-2.48 -3.30,-3.26 -2.43,-4.04 -1.36,-4.51 -0.28,-4.97 0.87,-5.07 2.04,-5.17 3.18,-4.88 4.31,-4.60 5.30,-3.98 6.29,-3.35 7.02,-2.44 7.76,-1.52 8.16,-0.43 8.57,0.66 8.60,1.83 8.63,3.00 8.29,4.12 7.95,5.24 7.27,6.19 6.59,7.14 5.64,7.83 4.69,8.51 3.57,8.86 2.45,9.20 1.28,9.17 0.11,9.14 -0.98,8.74 -2.08,8.34 -2.99,7.60 -3.90,6.87 -4.53,5.89 -5.17,4.90 -5.45,3.77 -5.73,2.63 -5.64,1.47 -5.55,0.30 -5.09,-0.77 -4.62,-1.84 -3.84,-2.71 -3.06,-3.59 -2.05,-4.16 -1.03,-4.74 0.11,-4.96 1.26,-5.19 2.42,-5.03 3.58,-4.87 4.63,-4.35 5.68,-3.84 6.51,-3.01 7.33,-2.18 7.33,-2.18 7.33,-2.18 7.78,1.96 8.22,6.11 9.53,8.75 10.84,11.40 13.85,11.38 16.87,11.37 18.91,10.75 20.96,10.13 22.74,8.69 24.52,7.24 26.74,5.19 28.97,3.14 29.00,0.11 29.02,-2.91 31.56,-0.86 34.10,1.19 31.69,1.09 29.29,0.99 26.70,0.92 24.10,0.85 21.06,0.80 18.01,0.74 15.16,0.73 12.30,0.71 9.34,1.07 6.39,1.43 5.07,2.63 3.76,3.83 3.24,4.23 2.73,4.62 2.13,4.88 1.54,5.14 0.90,5.25 0.27,5.36 -0.37,5.31 -1.02,5.27 -1.63,5.07 -2.25,4.87 -2.80,4.53 -3.35,4.19 -3.80,3.73 -4.26,3.27 -4.59,2.71 -4.92,2.15 -5.10,1.53 -5.29,0.91 -5.32,0.26 -5.35,-0.37 -5.23,-1.01 -5.11,-1.64 -4.84,-2.23 -4.56,-2.82 -4.16,-3.33 -3.75,-3.83 -3.76,-3.83 L -3.76,-3.83 Z"></path></g><g transform="translate(45.364134781474604 244.85395056694188) rotate(0 -17.682067390737302 30.804328499000007)" stroke="none"><path fill="#1e1e1e" d="M 4.92,0 Q 4.92,0 4.85,3.27 4.79,6.54 4.51,11.45 4.23,16.36 4.25,19.51 4.28,22.65 4.39,25.05 4.50,27.45 4.72,31.48 4.94,35.50 5.11,39.26 5.28,43.01 4.81,46.58 4.34,50.14 4.09,52.61 3.84,55.08 2.12,58.73 0.40,62.38 -2.88,65.23 -6.17,68.07 -9.21,69.89 -12.24,71.70 -14.87,72.46 -17.51,73.21 -20.13,73.41 -22.75,73.61 -26.39,73.40 -30.03,73.19 -33.72,71.49 -37.41,69.79 -39.51,66.50 -41.60,63.21 -41.83,61.08 -42.06,58.96 -42.10,55.27 -42.15,51.58 -42.07,47.43 -41.99,43.28 -41.90,40.76 -41.82,38.24 -41.73,35.63 -41.64,33.02 -41.34,30.49 -41.03,27.95 -40.62,25.77 -40.21,23.59 -39.66,20.61 -39.12,17.64 -38.43,14.81 -37.74,11.98 -37.07,9.36 -36.39,6.73 -35.58,4.67 -34.76,2.62 -33.65,0.13 -32.54,-2.35 -30.79,-4.36 -29.05,-6.37 -26.66,-8.21 -24.27,-10.06 -21.84,-11.09 -19.42,-12.12 -16.86,-12.34 -14.31,-12.55 -13.17,-12.38 -12.03,-12.20 -11.01,-11.67 -9.99,-11.14 -9.19,-10.31 -8.39,-9.48 -7.90,-8.44 -7.41,-7.40 -7.28,-6.26 -7.14,-5.12 -7.38,-3.99 -7.62,-2.87 -8.20,-1.87 -8.79,-0.88 -9.66,-0.13 -10.53,0.61 -11.59,1.05 -12.66,1.48 -13.81,1.55 -14.96,1.63 -16.07,1.33 -17.18,1.03 -18.14,0.39 -19.09,-0.24 -19.80,-1.15 -20.50,-2.06 -20.88,-3.15 -21.26,-4.23 -21.27,-5.38 -21.27,-6.53 -20.92,-7.63 -20.56,-8.72 -19.87,-9.64 -19.18,-10.57 -18.23,-11.22 -17.29,-11.87 -16.18,-12.19 -15.07,-12.51 -13.92,-12.45 -12.78,-12.40 -11.70,-11.98 -10.63,-11.57 -9.75,-10.83 -8.86,-10.09 -8.26,-9.11 -7.66,-8.13 -7.40,-7.01 -7.15,-5.89 -7.26,-4.74 -7.38,-3.60 -7.85,-2.55 -8.33,-1.50 -9.11,-0.66 -9.90,0.17 -10.91,0.72 -11.92,1.27 -13.05,1.46 -14.19,1.66 -14.19,1.66 -14.19,1.66 -15.65,1.83 -17.10,2.00 -19.56,3.91 -22.02,5.82 -23.02,8.35 -24.01,10.87 -24.67,13.11 -25.33,15.34 -25.99,17.44 -26.65,19.54 -27.31,22.72 -27.97,25.91 -28.52,29.47 -29.07,33.03 -28.98,35.63 -28.89,38.23 -28.81,40.75 -28.72,43.26 -28.64,45.55 -28.57,47.85 -28.50,51.34 -28.43,54.84 -29.07,56.97 -29.71,59.09 -27.43,59.76 -25.16,60.42 -22.89,60.47 -20.63,60.52 -18.19,60.07 -15.75,59.61 -13.33,58.14 -10.91,56.66 -9.26,54.72 -7.61,52.78 -7.05,50.09 -6.49,47.41 -5.89,45.20 -5.28,43.00 -5.11,39.25 -4.94,35.50 -4.72,31.48 -4.50,27.45 -4.39,25.05 -4.28,22.65 -4.25,19.51 -4.23,16.36 -4.51,11.45 -4.79,6.54 -4.85,3.27 -4.92,0 -4.85,-0.58 -4.78,-1.17 -4.57,-1.73 -4.36,-2.28 -4.02,-2.77 -3.68,-3.26 -3.24,-3.65 -2.79,-4.05 -2.27,-4.32 -1.74,-4.60 -1.16,-4.74 -0.59,-4.88 0.00,-4.88 0.59,-4.88 1.17,-4.74 1.74,-4.60 2.27,-4.32 2.79,-4.05 3.24,-3.65 3.68,-3.26 4.02,-2.77 4.36,-2.28 4.57,-1.73 4.78,-1.17 4.85,-0.58 4.92,0.00 4.92,0.00 L 4.92,0 Z"></path></g><g transform="translate(218.1103790871175 243.2200769514825) rotate(0 18.140098906368394 31.460612461694723)" stroke="none"><path fill="#1e1e1e" d="M 4.64,0 Q 4.64,0 4.37,6.44 4.11,12.89 3.91,18.26 3.71,23.64 3.57,27.94 3.42,32.25 3.78,34.66 4.14,37.07 4.58,40.46 5.02,43.84 5.90,47.14 6.78,50.44 7.67,52.50 8.56,54.57 9.49,56.74 10.41,58.92 13.00,59.03 15.60,59.14 18.70,57.96 21.79,56.78 23.87,54.60 25.95,52.42 26.64,49.11 27.33,45.79 28.07,42.49 28.81,39.19 29.09,36.56 29.38,33.92 29.76,31.41 30.14,28.91 30.22,26.39 30.30,23.87 30.19,20.86 30.09,17.85 29.98,15.10 29.87,12.34 27.86,10.65 25.86,8.95 24.38,6.69 22.89,4.42 24.68,5.97 26.46,7.51 22.82,5.80 19.18,4.09 17.71,1.63 16.23,-0.83 16.08,-1.97 15.93,-3.11 16.14,-4.24 16.36,-5.36 16.93,-6.36 17.50,-7.36 18.35,-8.13 19.21,-8.90 20.27,-9.35 21.32,-9.80 22.47,-9.89 23.61,-9.98 24.73,-9.70 25.84,-9.42 26.81,-8.80 27.78,-8.18 28.50,-7.29 29.22,-6.39 29.61,-5.31 30.00,-4.23 30.03,-3.08 30.06,-1.93 29.72,-0.83 29.38,0.25 28.71,1.19 28.04,2.12 27.10,2.79 26.17,3.46 25.07,3.79 23.97,4.13 22.82,4.09 21.67,4.06 20.60,3.66 19.52,3.26 18.62,2.54 17.73,1.82 17.11,0.85 16.49,-0.11 16.22,-1.22 15.94,-2.34 16.04,-3.49 16.14,-4.63 16.59,-5.69 17.05,-6.74 17.82,-7.59 18.59,-8.45 19.59,-9.01 20.59,-9.58 21.72,-9.79 22.85,-10.00 23.99,-9.85 25.12,-9.69 26.15,-9.18 27.18,-8.66 27.99,-7.85 28.80,-7.04 29.31,-6.01 29.82,-4.98 29.82,-4.98 29.82,-4.98 28.40,-5.74 26.97,-6.51 29.13,-6.04 31.29,-5.58 33.77,-2.67 36.25,0.23 38.22,1.24 40.18,2.26 41.40,4.38 42.62,6.50 42.68,8.69 42.75,10.87 42.64,13.54 42.54,16.20 42.38,19.09 42.23,21.98 42.02,24.46 41.80,26.94 41.23,30.88 40.66,34.82 40.48,37.98 40.30,41.14 39.95,44.26 39.60,47.38 39.19,50.46 38.79,53.54 37.74,56.42 36.70,59.30 35.29,61.34 33.88,63.38 30.43,65.82 26.99,68.25 24.98,69.13 22.97,70.01 20.29,70.88 17.60,71.74 13.94,71.97 10.27,72.20 8.12,71.81 5.97,71.42 3.29,68.44 0.61,65.45 0.02,63.24 -0.56,61.02 -1.62,58.20 -2.69,55.37 -3.17,52.02 -3.66,48.67 -3.73,46.37 -3.80,44.07 -3.59,40.85 -3.38,37.64 -3.40,34.94 -3.42,32.25 -3.57,27.94 -3.71,23.64 -3.91,18.26 -4.11,12.89 -4.37,6.44 -4.64,0 -4.57,-0.55 -4.50,-1.11 -4.30,-1.63 -4.10,-2.15 -3.79,-2.61 -3.47,-3.07 -3.05,-3.44 -2.63,-3.81 -2.14,-4.07 -1.64,-4.33 -1.10,-4.47 -0.55,-4.60 0.00,-4.60 0.55,-4.60 1.10,-4.47 1.64,-4.33 2.14,-4.07 2.63,-3.81 3.05,-3.44 3.47,-3.07 3.79,-2.61 4.10,-2.15 4.30,-1.63 4.50,-1.11 4.57,-0.55 4.64,0.00 4.64,0.00 L 4.64,0 Z"></path></g></svg>