<?xml version="1.0" standalone="no"?>
<!DOCTYPE svg PUBLIC "-//W3C//DTD SVG 1.1//EN" "http://www.w3.org/Graphics/SVG/1.1/DTD/svg11.dtd">
<svg version="1.1" xmlns="http://www.w3.org/2000/svg" viewBox="0 0 256.011391270898 279.8081713218198" width="768.034173812694" height="839.4245139654595" filter="invert(93%) hue-rotate(180deg)"><!-- svg-source:excalidraw --><metadata></metadata><defs><style class="style-fonts">
      </style></defs><g transform="translate(10 17.468573670249043) rotate(0 118.005695635449 122.43551199066087)" stroke="none"><path fill="#1e1e1e" d="M 3.12,0 Q 3.12,0 3.05,7.26 2.98,14.52 2.93,20.23 2.88,25.94 2.85,46.88 2.81,67.83 2.79,86.31 2.76,104.79 2.74,124.85 2.72,144.91 3.31,160.64 3.90,176.37 4.15,185.72 4.39,195.06 5.02,206.02 5.64,216.97 5.91,223.87 6.17,230.77 6.28,235.38 6.39,240.00 6.68,242.74 6.96,245.49 7.34,247.97 7.72,250.44 5.62,249.46 3.51,248.48 6.73,247.03 9.95,245.58 14.64,245.15 19.33,244.73 28.56,244.03 37.79,243.33 55.01,243.09 72.22,242.85 86.91,242.80 101.60,242.75 116.18,242.08 130.76,241.40 145.38,240.46 159.99,239.52 171.44,238.61 182.89,237.71 192.22,237.33 201.55,236.95 207.18,236.80 212.81,236.65 216.19,236.42 219.57,236.19 222.70,236.00 225.83,235.81 228.35,236.14 230.87,236.47 233.49,237.17 236.10,237.88 234.00,238.86 231.89,239.85 231.21,234.21 230.54,228.57 229.69,223.42 228.84,218.26 226.58,207.59 224.31,196.93 222.09,183.88 219.88,170.83 217.77,157.88 215.66,144.94 213.58,132.19 211.51,119.43 210.11,108.72 208.72,98.01 208.13,88.98 207.55,79.95 206.95,73.31 206.35,66.67 206.10,61.59 205.85,56.50 205.57,53.19 205.28,49.88 205.01,47.69 204.74,45.50 204.42,43.36 204.10,41.23 203.81,38.22 203.53,35.22 203.46,32.71 203.39,30.20 203.44,26.94 203.48,23.69 203.49,20.63 203.50,17.57 203.49,14.60 203.48,11.63 203.28,7.93 203.08,4.23 203.23,1.98 203.38,-0.27 204.37,2.36 205.37,4.99 202.41,4.01 199.45,3.03 196.27,1.87 193.09,0.70 189.22,-0.43 185.35,-1.57 180.33,-2.17 175.30,-2.77 170.23,-3.13 165.16,-3.48 158.60,-3.70 152.05,-3.92 145.69,-4.06 139.33,-4.20 132.23,-4.29 125.12,-4.38 118.54,-4.45 111.95,-4.51 105.59,-4.56 99.23,-4.60 93.65,-4.64 88.06,-4.67 83.60,-4.33 79.14,-3.99 75.47,-3.71 71.81,-3.44 68.75,-2.87 65.69,-2.30 61.99,-2.04 58.29,-1.78 55.59,-1.53 52.89,-1.28 50.57,-1.09 48.26,-0.89 45.10,-0.58 41.94,-0.27 39.24,-0.06 36.53,0.15 33.92,1.48 31.32,2.81 28.01,4.61 24.71,6.40 22.82,7.42 20.94,8.44 19.01,9.85 17.09,11.25 14.66,12.32 12.23,13.39 10.01,13.43 7.79,13.47 3.82,10.56 -0.13,7.65 -0.73,6.92 -1.34,6.19 -1.67,5.31 -2.01,4.42 -2.05,3.48 -2.09,2.53 -1.83,1.62 -1.56,0.71 -1.02,-0.06 -0.48,-0.84 0.28,-1.40 1.04,-1.96 1.94,-2.25 2.84,-2.54 3.79,-2.53 4.74,-2.52 5.63,-2.20 6.53,-1.89 7.27,-1.31 8.02,-0.72 8.54,0.06 9.06,0.85 9.30,1.77 9.54,2.68 9.48,3.63 9.42,4.58 9.05,5.45 8.69,6.33 8.07,7.04 7.45,7.75 6.63,8.23 5.81,8.71 4.88,8.90 3.95,9.09 3.01,8.98 2.07,8.86 1.22,8.45 0.36,8.04 -0.31,7.38 -0.99,6.72 -1.42,5.88 -1.85,5.03 -1.99,4.10 -2.13,3.16 -1.97,2.23 -1.80,1.29 -1.35,0.46 -0.89,-0.36 -0.19,-1.00 0.49,-1.64 1.36,-2.03 2.22,-2.42 3.17,-2.51 4.11,-2.60 5.03,-2.38 5.96,-2.16 6.76,-1.66 7.57,-1.16 7.57,-1.16 7.56,-1.16 9.30,0.00 11.05,1.17 13.39,-0.19 15.73,-1.55 19.33,-3.37 22.93,-5.18 24.98,-6.10 27.04,-7.03 29.17,-7.88 31.31,-8.73 33.83,-9.35 36.35,-9.98 39.13,-9.76 41.90,-9.55 45.02,-9.29 48.14,-9.02 50.40,-8.89 52.67,-8.76 55.30,-8.67 57.94,-8.58 61.38,-8.68 64.81,-8.79 68.18,-9.09 71.55,-9.39 75.12,-9.43 78.70,-9.47 83.38,-9.86 88.06,-10.26 93.65,-10.29 99.23,-10.32 105.59,-10.36 111.96,-10.40 118.54,-10.45 125.13,-10.51 132.25,-10.58 139.36,-10.65 145.74,-10.73 152.12,-10.81 158.75,-10.90 165.39,-10.98 170.63,-11.02 175.88,-11.06 181.56,-10.92 187.25,-10.78 191.81,-10.18 196.37,-9.58 199.48,-8.74 202.60,-7.89 205.30,-7.06 208.00,-6.22 210.10,-4.34 212.19,-2.46 212.74,0.88 213.30,4.23 213.09,7.93 212.89,11.63 212.88,14.60 212.88,17.57 212.88,20.63 212.89,23.68 212.94,26.94 212.98,30.20 212.92,32.71 212.85,35.21 212.64,37.71 212.44,40.20 212.11,42.77 211.77,45.34 211.60,47.51 211.42,49.67 211.36,52.94 211.31,56.21 211.59,61.18 211.87,66.16 212.53,72.86 213.19,79.57 213.82,88.40 214.46,97.23 215.95,107.84 217.43,118.44 219.64,131.16 221.86,143.88 224.15,156.76 226.44,169.64 228.88,182.48 231.32,195.32 233.95,205.98 236.57,216.63 237.95,222.05 239.32,227.47 240.10,231.87 240.88,236.26 239.72,240.28 238.55,244.30 234.97,244.59 231.39,244.88 228.62,243.72 225.85,242.56 222.77,242.43 219.70,242.30 216.34,242.22 212.98,242.13 207.39,242.32 201.79,242.52 192.57,242.95 183.36,243.38 171.87,244.37 160.39,245.36 145.73,246.42 131.07,247.48 116.37,248.31 101.67,249.14 87.02,249.40 72.37,249.67 55.44,250.18 38.50,250.69 29.51,251.75 20.51,252.81 16.23,253.69 11.96,254.57 8.41,255.04 4.85,255.52 2.47,253.02 0.08,250.52 0.41,248.06 0.73,245.60 0.91,242.87 1.10,240.13 0.98,235.55 0.87,230.97 0.59,224.13 0.32,217.28 -0.31,206.24 -0.95,195.21 -1.22,185.89 -1.49,176.58 -2.10,160.75 -2.72,144.91 -2.74,124.85 -2.76,104.79 -2.79,86.31 -2.81,67.83 -2.85,46.88 -2.88,25.94 -2.93,20.23 -2.98,14.52 -3.05,7.26 -3.12,0 -3.07,-0.37 -3.03,-0.74 -2.90,-1.09 -2.76,-1.45 -2.55,-1.76 -2.33,-2.07 -2.05,-2.32 -1.77,-2.57 -1.44,-2.74 -1.10,-2.92 -0.74,-3.01 -0.37,-3.10 0.00,-3.10 0.37,-3.10 0.74,-3.01 1.10,-2.92 1.44,-2.74 1.77,-2.57 2.05,-2.32 2.33,-2.07 2.55,-1.76 2.76,-1.45 2.90,-1.09 3.03,-0.74 3.07,-0.37 3.12,0.00 3.12,0.00 L 3.12,0 Z"></path></g><g transform="translate(40.097459232894835 72.90264836217466) rotate(0 21.784579674624865 -1.6291012288688762)" stroke="none"><path fill="#1e1e1e" d="M -5.14,-0.98 Q -5.14,-0.98 -4.63,-3.61 -4.13,-6.24 -3.15,-8.41 -2.16,-10.59 -0.87,-12.57 0.41,-14.54 2.42,-16.59 4.43,-18.63 7.03,-20.21 9.62,-21.80 12.02,-22.79 14.41,-23.78 16.96,-24.30 19.51,-24.81 22.57,-25.32 25.62,-25.83 28.39,-26.29 31.15,-26.75 33.38,-27.03 35.60,-27.32 38.02,-27.47 40.43,-27.63 43.74,-26.02 47.05,-24.42 48.08,-21.43 49.11,-18.44 49.19,-15.53 49.28,-12.63 49.70,-10.17 50.12,-7.72 49.95,-4.15 49.79,-0.59 49.78,1.61 49.78,3.82 49.84,6.73 49.91,9.64 48.76,13.08 47.61,16.51 46.27,18.23 44.92,19.94 41.95,21.73 38.99,23.51 35.97,24.02 32.95,24.53 30.16,24.60 27.36,24.67 24.09,24.67 20.83,24.66 17.47,24.64 14.12,24.62 11.86,24.65 9.61,24.69 7.32,24.35 5.02,24.02 2.99,22.81 0.96,21.60 -0.59,19.61 -2.16,17.61 -2.89,14.31 -3.61,11.02 -3.63,7.94 -3.65,4.86 -3.65,2.30 -3.66,-0.25 -3.28,-3.04 -2.89,-5.84 -0.90,-8.32 1.09,-10.79 1.32,-10.86 1.56,-10.93 2.33,-11.32 3.09,-11.71 3.93,-11.90 4.77,-12.09 5.63,-12.08 6.48,-12.06 7.31,-11.84 8.15,-11.62 8.90,-11.21 9.65,-10.80 10.29,-10.22 10.92,-9.64 11.39,-8.92 11.87,-8.21 12.16,-7.40 12.45,-6.59 12.54,-5.74 12.63,-4.88 12.51,-4.03 12.39,-3.18 12.08,-2.38 11.76,-1.59 11.26,-0.89 10.76,-0.19 10.11,0.36 9.45,0.92 8.24,1.97 7.02,3.02 6.08,3.64 5.13,4.25 4.04,4.53 2.95,4.81 1.82,4.72 0.70,4.64 -0.33,4.20 -1.37,3.76 -2.21,3.01 -3.06,2.27 -3.62,1.29 -4.18,0.31 -4.40,-0.78 -4.62,-1.89 -4.47,-3.01 -4.33,-4.13 -3.83,-5.14 -3.34,-6.15 -2.55,-6.96 -1.75,-7.76 -0.75,-8.27 0.25,-8.77 1.37,-8.93 2.48,-9.09 3.59,-8.89 4.70,-8.68 5.68,-8.13 6.67,-7.58 7.43,-6.75 8.19,-5.91 8.64,-4.88 9.09,-3.85 9.19,-2.72 9.29,-1.60 9.02,-0.51 8.76,0.58 8.16,1.53 7.55,2.49 6.68,3.20 5.81,3.91 4.75,4.31 3.69,4.70 2.57,4.74 1.44,4.78 0.36,4.45 -0.71,4.13 -1.63,3.48 -2.55,2.82 -3.21,1.91 -3.88,1.00 -4.21,-0.06 -4.55,-1.14 -4.53,-2.27 -4.51,-3.40 -4.12,-4.46 -3.74,-5.52 -3.04,-6.40 -2.34,-7.28 -2.34,-7.28 -2.34,-7.28 -0.39,-9.11 1.56,-10.93 2.32,-11.32 3.09,-11.71 3.93,-11.90 4.77,-12.09 5.63,-12.08 6.48,-12.06 7.31,-11.84 8.14,-11.62 8.90,-11.21 9.65,-10.80 10.29,-10.22 10.92,-9.64 11.39,-8.92 11.87,-8.21 12.16,-7.40 12.45,-6.59 12.54,-5.74 12.63,-4.88 12.51,-4.03 12.39,-3.18 12.08,-2.38 11.76,-1.59 11.26,-0.89 10.76,-0.19 10.11,0.36 9.45,0.92 9.91,0.32 10.36,-0.27 10.37,2.25 10.37,4.77 9.99,7.93 9.61,11.09 11.86,11.12 14.11,11.15 17.46,11.13 20.80,11.11 24.01,11.08 27.22,11.06 29.65,11.04 32.07,11.02 34.64,10.31 37.21,9.61 37.25,6.78 37.28,3.95 37.23,1.78 37.18,-0.39 36.86,-4.40 36.54,-8.41 37.09,-11.60 37.65,-14.79 35.51,-14.79 33.36,-14.79 30.54,-14.51 27.72,-14.23 24.54,-13.91 21.37,-13.60 18.24,-12.87 15.11,-12.13 12.28,-10.21 9.44,-8.29 7.77,-6.20 6.11,-4.10 5.62,-1.56 5.14,0.98 4.95,1.58 4.75,2.18 4.42,2.72 4.09,3.25 3.64,3.70 3.19,4.14 2.65,4.46 2.11,4.78 1.50,4.97 0.90,5.15 0.27,5.18 -0.35,5.22 -0.97,5.10 -1.59,4.98 -2.16,4.72 -2.74,4.45 -3.23,4.06 -3.72,3.67 -4.11,3.17 -4.50,2.67 -4.75,2.09 -5.00,1.52 -5.11,0.89 -5.22,0.27 -5.18,-0.35 -5.14,-0.98 -5.14,-0.98 L -5.14,-0.98 Z"></path></g><g transform="translate(130.56092975470256 57.02077108530102) rotate(0 22.227189369226153 -0.7215653844762073)" stroke="none"><path fill="#1e1e1e" d="M 0,-4.75 Q 0,-4.75 3.57,-4.65 7.15,-4.54 12.97,-4.29 18.78,-4.03 21.83,-4.10 24.87,-4.16 28.05,-4.19 31.22,-4.22 34.06,-4.49 36.91,-4.75 39.08,-4.98 41.25,-5.20 41.35,-5.50 41.46,-5.80 42.26,-6.11 43.05,-6.42 43.91,-6.45 44.76,-6.49 45.58,-6.25 46.40,-6.02 47.10,-5.53 47.80,-5.04 48.31,-4.36 48.82,-3.67 49.08,-2.86 49.35,-2.05 49.34,-1.20 49.33,-0.34 49.05,0.45 48.77,1.26 48.24,1.93 47.72,2.61 47.01,3.08 46.30,3.55 45.47,3.77 44.65,3.99 43.80,3.93 42.94,3.88 42.15,3.55 41.37,3.23 40.72,2.67 40.08,2.11 39.64,1.37 39.21,0.64 39.04,-0.19 38.86,-1.02 38.96,-1.87 39.06,-2.72 39.43,-3.49 39.80,-4.26 40.39,-4.87 40.99,-5.49 41.74,-5.88 42.50,-6.27 43.35,-6.40 44.19,-6.53 45.03,-6.38 45.87,-6.23 46.62,-5.83 47.37,-5.42 47.95,-4.79 48.53,-4.17 48.88,-3.39 49.23,-2.61 49.32,-1.76 49.40,-0.91 49.21,-0.08 49.01,0.74 48.57,1.47 48.12,2.20 47.46,2.74 46.80,3.29 46.81,3.29 46.81,3.29 44.09,4.25 41.37,5.20 39.14,4.98 36.91,4.75 34.06,4.49 31.22,4.22 28.05,4.19 24.87,4.16 21.83,4.10 18.78,4.03 12.97,4.29 7.15,4.54 3.57,4.65 0,4.75 -0.56,4.68 -1.13,4.61 -1.67,4.41 -2.21,4.21 -2.68,3.88 -3.15,3.56 -3.53,3.13 -3.91,2.70 -4.18,2.19 -4.44,1.68 -4.58,1.13 -4.72,0.57 -4.72,-0.00 -4.72,-0.57 -4.58,-1.13 -4.44,-1.68 -4.18,-2.19 -3.91,-2.70 -3.53,-3.13 -3.15,-3.56 -2.68,-3.88 -2.21,-4.21 -1.67,-4.41 -1.13,-4.62 -0.56,-4.68 0.00,-4.75 0.00,-4.75 L 0,-4.75 Z"></path></g><g transform="translate(132.47270608264444 82.26068190517572) rotate(0 17.7787759680225 0)" stroke="none"><path fill="#1e1e1e" d="M 0,-4.73 Q 0,-4.73 3.56,-4.63 7.13,-4.52 10.83,-4.42 14.53,-4.31 17.78,-4.31 21.02,-4.31 23.50,-4.41 25.98,-4.52 28.39,-4.61 30.80,-4.70 32.96,-4.74 35.13,-4.78 35.89,-4.65 36.65,-4.53 37.34,-4.16 38.02,-3.80 38.55,-3.24 39.08,-2.68 39.41,-1.98 39.73,-1.27 39.82,-0.50 39.90,0.25 39.73,1.01 39.57,1.76 39.17,2.43 38.77,3.09 38.18,3.59 37.59,4.09 36.87,4.38 36.15,4.66 35.38,4.71 34.61,4.75 33.86,4.54 33.12,4.33 32.48,3.90 31.84,3.47 31.37,2.85 30.90,2.23 30.65,1.50 30.41,0.77 30.41,-0.00 30.41,-0.77 30.66,-1.50 30.90,-2.24 31.37,-2.85 31.84,-3.47 32.48,-3.90 33.12,-4.33 33.86,-4.54 34.61,-4.75 35.38,-4.71 36.15,-4.66 36.87,-4.38 37.59,-4.09 38.18,-3.59 38.77,-3.09 39.17,-2.43 39.57,-1.76 39.73,-1.01 39.90,-0.25 39.82,0.51 39.73,1.28 39.41,1.98 39.08,2.68 38.55,3.24 38.02,3.80 37.33,4.16 36.65,4.53 35.89,4.65 35.12,4.78 35.13,4.78 35.13,4.78 32.96,4.74 30.80,4.70 28.39,4.61 25.98,4.52 23.50,4.41 21.02,4.31 17.78,4.31 14.53,4.31 10.83,4.42 7.13,4.52 3.56,4.63 0,4.73 -0.56,4.66 -1.13,4.59 -1.66,4.39 -2.20,4.19 -2.67,3.86 -3.14,3.54 -3.51,3.11 -3.89,2.69 -4.16,2.18 -4.42,1.67 -4.56,1.12 -4.70,0.57 -4.70,-0.00 -4.70,-0.57 -4.56,-1.12 -4.42,-1.67 -4.16,-2.18 -3.89,-2.69 -3.51,-3.11 -3.14,-3.54 -2.67,-3.86 -2.20,-4.19 -1.66,-4.39 -1.13,-4.59 -0.56,-4.66 0.00,-4.73 0.00,-4.73 L 0,-4.73 Z"></path></g><g transform="translate(50.801918905691764 133.9009592148036) rotate(0 37.216408438500366 0)" stroke="none"><path fill="#1e1e1e" d="M 0,-3.84 Q 0,-3.84 5.46,-3.67 10.93,-3.51 16.13,-3.39 21.33,-3.27 30.95,-3.18 40.57,-3.09 48.22,-3.03 55.86,-2.96 60.99,-2.92 66.12,-2.87 69.53,-3.05 72.93,-3.23 73.44,-3.14 73.96,-3.06 74.42,-2.81 74.88,-2.57 75.24,-2.19 75.60,-1.81 75.82,-1.33 76.04,-0.86 76.10,-0.34 76.16,0.17 76.04,0.68 75.93,1.19 75.66,1.64 75.39,2.09 74.99,2.43 74.59,2.77 74.11,2.96 73.62,3.15 73.10,3.18 72.58,3.21 72.07,3.07 71.57,2.93 71.14,2.64 70.70,2.34 70.39,1.93 70.07,1.51 69.90,1.01 69.74,0.52 69.74,-0.00 69.74,-0.52 69.90,-1.01 70.07,-1.51 70.39,-1.93 70.70,-2.34 71.14,-2.64 71.57,-2.93 72.07,-3.07 72.58,-3.21 73.10,-3.18 73.62,-3.15 74.11,-2.96 74.60,-2.77 74.99,-2.43 75.39,-2.09 75.66,-1.64 75.93,-1.19 76.04,-0.68 76.16,-0.17 76.10,0.34 76.04,0.86 75.82,1.34 75.60,1.81 75.24,2.19 74.88,2.57 74.42,2.81 73.96,3.06 73.44,3.14 72.93,3.23 72.93,3.23 72.93,3.23 69.53,3.05 66.12,2.87 60.99,2.92 55.86,2.96 48.22,3.03 40.57,3.09 30.95,3.18 21.33,3.27 16.13,3.39 10.93,3.51 5.46,3.67 0,3.84 -0.45,3.78 -0.91,3.72 -1.35,3.56 -1.78,3.40 -2.16,3.13 -2.54,2.87 -2.85,2.52 -3.16,2.18 -3.37,1.77 -3.59,1.36 -3.70,0.91 -3.81,0.46 -3.81,-0.00 -3.81,-0.46 -3.70,-0.91 -3.59,-1.36 -3.37,-1.77 -3.16,-2.18 -2.85,-2.52 -2.54,-2.87 -2.16,-3.13 -1.78,-3.40 -1.35,-3.56 -0.91,-3.72 -0.45,-3.78 0.00,-3.84 0.00,-3.84 L 0,-3.84 Z"></path></g><g transform="translate(161.9229881150295 133.17939383032763) rotate(0 14.535451147077765 0)" stroke="none"><path fill="#1e1e1e" d="M 0,-4.47 Q 0,-4.47 3.18,-4.47 6.36,-4.46 9.38,-4.49 12.40,-4.51 16.62,-4.27 20.83,-4.03 24.21,-4.16 27.58,-4.29 28.27,-4.18 28.95,-4.07 29.57,-3.74 30.18,-3.42 30.66,-2.91 31.14,-2.41 31.43,-1.78 31.72,-1.14 31.79,-0.45 31.87,0.23 31.72,0.91 31.57,1.59 31.21,2.18 30.85,2.78 30.32,3.23 29.79,3.68 29.15,3.93 28.50,4.19 27.81,4.23 27.11,4.27 26.44,4.08 25.77,3.89 25.20,3.50 24.62,3.11 24.20,2.56 23.78,2.01 23.56,1.35 23.34,0.69 23.34,-0.00 23.34,-0.69 23.56,-1.35 23.78,-2.01 24.20,-2.56 24.62,-3.12 25.20,-3.51 25.78,-3.90 26.45,-4.08 27.12,-4.27 27.81,-4.23 28.50,-4.19 29.15,-3.93 29.80,-3.68 30.33,-3.23 30.85,-2.78 31.21,-2.18 31.57,-1.58 31.72,-0.91 31.87,-0.23 31.79,0.45 31.72,1.15 31.43,1.78 31.14,2.41 30.66,2.91 30.18,3.42 29.56,3.74 28.95,4.07 28.26,4.18 27.58,4.29 27.58,4.29 27.58,4.29 24.21,4.16 20.83,4.03 16.62,4.27 12.40,4.51 9.38,4.49 6.36,4.46 3.18,4.47 0,4.47 -0.53,4.40 -1.07,4.34 -1.57,4.15 -2.07,3.96 -2.52,3.65 -2.96,3.34 -3.32,2.94 -3.68,2.54 -3.93,2.06 -4.18,1.58 -4.31,1.06 -4.43,0.53 -4.43,-0.00 -4.43,-0.53 -4.31,-1.06 -4.18,-1.58 -3.93,-2.06 -3.68,-2.54 -3.32,-2.94 -2.96,-3.34 -2.52,-3.65 -2.07,-3.96 -1.57,-4.15 -1.06,-4.34 -0.53,-4.40 0.00,-4.47 0.00,-4.47 L 0,-4.47 Z"></path></g><g transform="translate(44.84342536996519 169.95691198342502) rotate(0 8.629029340128 0)" stroke="none"><path fill="#1e1e1e" d="M 0,-4.67 Q 0,-4.67 3.76,-4.53 7.52,-4.39 11.87,-4.60 16.22,-4.81 16.99,-4.68 17.76,-4.55 18.45,-4.19 19.13,-3.82 19.67,-3.26 20.21,-2.69 20.53,-1.99 20.86,-1.28 20.94,-0.51 21.03,0.26 20.86,1.02 20.69,1.78 20.29,2.44 19.89,3.11 19.30,3.61 18.70,4.12 17.98,4.41 17.26,4.69 16.48,4.74 15.70,4.78 14.95,4.57 14.20,4.36 13.56,3.92 12.91,3.49 12.44,2.87 11.97,2.25 11.72,1.51 11.48,0.77 11.48,-0.00 11.48,-0.77 11.72,-1.51 11.97,-2.25 12.44,-2.87 12.92,-3.49 13.56,-3.92 14.20,-4.36 14.95,-4.57 15.70,-4.78 16.48,-4.74 17.26,-4.69 17.98,-4.40 18.70,-4.12 19.30,-3.61 19.89,-3.11 20.29,-2.44 20.69,-1.77 20.86,-1.01 21.03,-0.25 20.94,0.51 20.86,1.28 20.53,1.99 20.20,2.70 19.67,3.26 19.13,3.83 18.45,4.19 17.76,4.55 16.99,4.68 16.22,4.81 16.22,4.81 16.22,4.81 11.87,4.60 7.52,4.39 3.76,4.53 0,4.67 -0.55,4.60 -1.11,4.53 -1.64,4.33 -2.17,4.13 -2.63,3.81 -3.09,3.49 -3.47,3.07 -3.84,2.65 -4.10,2.15 -4.37,1.65 -4.50,1.11 -4.64,0.56 -4.64,-0.00 -4.64,-0.56 -4.50,-1.11 -4.37,-1.65 -4.10,-2.15 -3.84,-2.65 -3.47,-3.07 -3.09,-3.49 -2.63,-3.81 -2.17,-4.13 -1.64,-4.33 -1.11,-4.53 -0.55,-4.60 0.00,-4.67 0.00,-4.67 L 0,-4.67 Z"></path></g><g transform="translate(89.1490277404846 167.91867574273965) rotate(0 59.07909570629022 0)" stroke="none"><path fill="#1e1e1e" d="M 0,-3.44 Q 0,-3.44 5.52,-3.33 11.04,-3.22 17.01,-3.14 22.98,-3.05 31.73,-3.00 40.48,-2.94 48.58,-2.89 56.69,-2.85 68.45,-2.82 80.20,-2.79 86.98,-2.76 93.76,-2.74 100.77,-2.73 107.78,-2.71 110.77,-2.92 113.75,-3.13 114.25,-3.04 114.75,-2.96 115.19,-2.72 115.64,-2.49 115.99,-2.12 116.34,-1.75 116.55,-1.29 116.76,-0.83 116.82,-0.33 116.87,0.16 116.76,0.66 116.65,1.15 116.39,1.59 116.13,2.02 115.75,2.35 115.36,2.68 114.89,2.86 114.42,3.05 113.91,3.08 113.41,3.11 112.92,2.97 112.43,2.84 112.01,2.55 111.59,2.27 111.29,1.86 110.98,1.46 110.82,0.98 110.66,0.50 110.66,-0.00 110.66,-0.50 110.82,-0.98 110.98,-1.46 111.29,-1.86 111.59,-2.27 112.01,-2.55 112.43,-2.84 112.92,-2.97 113.41,-3.11 113.91,-3.08 114.42,-3.05 114.89,-2.86 115.36,-2.68 115.75,-2.35 116.13,-2.02 116.39,-1.59 116.65,-1.15 116.76,-0.66 116.87,-0.16 116.82,0.33 116.76,0.83 116.55,1.29 116.34,1.75 115.99,2.12 115.64,2.49 115.19,2.72 114.75,2.96 114.25,3.04 113.75,3.13 113.75,3.13 113.75,3.13 110.77,2.92 107.78,2.71 100.77,2.73 93.76,2.74 86.98,2.76 80.20,2.79 68.45,2.82 56.69,2.85 48.58,2.89 40.48,2.94 31.73,3.00 22.98,3.05 17.01,3.14 11.04,3.22 5.52,3.33 0,3.44 -0.41,3.39 -0.82,3.34 -1.21,3.19 -1.59,3.04 -1.94,2.81 -2.28,2.57 -2.55,2.26 -2.83,1.95 -3.02,1.58 -3.21,1.22 -3.31,0.81 -3.41,0.41 -3.41,-0.00 -3.41,-0.41 -3.31,-0.81 -3.21,-1.22 -3.02,-1.58 -2.83,-1.95 -2.55,-2.26 -2.28,-2.57 -1.94,-2.81 -1.59,-3.04 -1.21,-3.19 -0.82,-3.34 -0.41,-3.39 0.00,-3.44 0.00,-3.44 L 0,-3.44 Z"></path></g><g transform="translate(48.28759828761986 215.80978858045) rotate(0 17.90151647156722 0)" stroke="none"><path fill="#1e1e1e" d="M 0,-4.57 Q 0,-4.57 4.65,-4.32 9.31,-4.06 12.39,-4.12 15.46,-4.17 17.92,-4.29 20.37,-4.40 24.18,-4.28 28.00,-4.16 31.52,-4.38 35.05,-4.59 35.78,-4.47 36.52,-4.35 37.18,-4.01 37.83,-3.66 38.34,-3.12 38.86,-2.58 39.17,-1.90 39.48,-1.23 39.56,-0.49 39.64,0.24 39.48,0.97 39.32,1.70 38.94,2.34 38.55,2.97 37.99,3.45 37.42,3.94 36.73,4.21 36.04,4.49 35.29,4.53 34.55,4.57 33.83,4.37 33.12,4.17 32.50,3.75 31.89,3.33 31.44,2.74 30.99,2.15 30.75,1.44 30.51,0.74 30.51,-0.00 30.51,-0.74 30.75,-1.44 30.99,-2.15 31.44,-2.74 31.89,-3.33 32.50,-3.75 33.12,-4.17 33.84,-4.37 34.55,-4.57 35.30,-4.53 36.04,-4.49 36.73,-4.21 37.42,-3.94 37.99,-3.45 38.56,-2.97 38.94,-2.33 39.32,-1.70 39.48,-0.97 39.64,-0.24 39.56,0.49 39.48,1.23 39.17,1.90 38.86,2.58 38.34,3.12 37.83,3.66 37.17,4.01 36.52,4.35 35.78,4.47 35.05,4.59 35.05,4.59 35.05,4.59 31.52,4.38 28.00,4.16 24.18,4.28 20.37,4.40 17.92,4.29 15.46,4.17 12.39,4.12 9.31,4.06 4.65,4.32 0,4.57 -0.54,4.51 -1.09,4.44 -1.61,4.24 -2.12,4.05 -2.58,3.74 -3.03,3.42 -3.40,3.01 -3.76,2.60 -4.02,2.11 -4.28,1.62 -4.41,1.08 -4.54,0.55 -4.54,-0.00 -4.54,-0.55 -4.41,-1.08 -4.28,-1.62 -4.02,-2.11 -3.76,-2.60 -3.40,-3.01 -3.03,-3.42 -2.58,-3.74 -2.12,-4.05 -1.61,-4.24 -1.09,-4.44 -0.54,-4.51 0.00,-4.57 0.00,-4.57 L 0,-4.57 Z"></path></g><g transform="translate(120.60035192157193 215.86929912762298) rotate(0 39.191414722814216 0)" stroke="none"><path fill="#1e1e1e" d="M 0,-3.99 Q 0,-3.99 5.07,-3.81 10.15,-3.63 15.18,-3.49 20.21,-3.35 24.13,-3.34 28.05,-3.32 35.89,-3.22 43.73,-3.13 49.94,-3.06 56.15,-2.99 60.09,-3.01 64.04,-3.03 66.50,-3.25 68.96,-3.47 71.24,-3.77 73.53,-4.08 75.87,-4.20 78.20,-4.33 78.90,-4.21 79.59,-4.10 80.21,-3.77 80.83,-3.44 81.31,-2.94 81.79,-2.43 82.08,-1.79 82.38,-1.15 82.45,-0.46 82.53,0.23 82.38,0.91 82.23,1.60 81.87,2.20 81.51,2.80 80.97,3.25 80.44,3.71 79.79,3.97 79.13,4.23 78.43,4.26 77.73,4.30 77.06,4.11 76.38,3.93 75.80,3.53 75.22,3.14 74.80,2.58 74.38,2.02 74.15,1.36 73.93,0.70 73.93,-0.00 73.93,-0.70 74.15,-1.36 74.38,-2.03 74.80,-2.58 75.22,-3.14 75.80,-3.53 76.38,-3.93 77.06,-4.11 77.74,-4.30 78.44,-4.26 79.14,-4.23 79.79,-3.97 80.44,-3.71 80.97,-3.25 81.51,-2.80 81.87,-2.20 82.23,-1.60 82.38,-0.91 82.53,-0.23 82.45,0.46 82.38,1.16 82.08,1.79 81.79,2.43 81.31,2.94 80.82,3.44 80.21,3.77 79.59,4.10 78.89,4.21 78.20,4.33 78.20,4.33 78.20,4.33 75.87,4.20 73.53,4.08 71.24,3.77 68.96,3.47 66.50,3.25 64.04,3.03 60.09,3.01 56.15,2.99 49.94,3.06 43.73,3.13 35.89,3.22 28.05,3.32 24.13,3.34 20.21,3.35 15.18,3.49 10.15,3.63 5.07,3.81 0,3.99 -0.47,3.93 -0.95,3.88 -1.40,3.71 -1.85,3.53 -2.25,3.26 -2.65,2.99 -2.97,2.63 -3.28,2.27 -3.51,1.84 -3.73,1.41 -3.85,0.94 -3.96,0.48 -3.96,-0.00 -3.96,-0.48 -3.85,-0.94 -3.73,-1.41 -3.51,-1.84 -3.28,-2.27 -2.96,-2.63 -2.65,-2.99 -2.25,-3.26 -1.85,-3.53 -1.40,-3.71 -0.95,-3.88 -0.47,-3.93 0.00,-3.99 0.00,-3.99 L 0,-3.99 Z"></path></g></svg>