<?xml version="1.0" standalone="no"?>
<!DOCTYPE svg PUBLIC "-//W3C//DTD SVG 1.1//EN" "http://www.w3.org/Graphics/SVG/1.1/DTD/svg11.dtd">
<svg version="1.1" xmlns="http://www.w3.org/2000/svg" viewBox="0 0 328.1456132633298 241.37179666626662" width="984.4368397899893" height="724.1153899987999" filter="invert(93%) hue-rotate(180deg)"><!-- svg-source:excalidraw --><metadata></metadata><defs><style class="style-fonts">
      </style></defs><g transform="translate(15.936177080536254 188.61346852225324) rotate(0 148.13662955112864 -67.92757018911993)" stroke="none"><path fill="#1e1e1e" d="M -3.02,0.79 Q -3.02,0.79 -4.29,-4.28 -5.56,-9.37 -6.47,-13.80 -7.37,-18.22 -7.76,-24.25 -8.15,-30.28 -8.30,-35.16 -8.44,-40.03 -8.50,-45.65 -8.55,-51.27 -8.57,-57.20 -8.59,-63.13 -8.14,-70.11 -7.69,-77.09 -5.83,-83.19 -3.96,-89.30 -1.51,-94.79 0.93,-100.28 4.98,-106.19 9.02,-112.10 13.23,-116.73 17.45,-121.36 23.23,-125.88 29.02,-130.40 35.97,-134.30 42.92,-138.20 50.28,-141.78 57.63,-145.37 64.28,-148.65 70.93,-151.94 77.29,-155.10 83.66,-158.27 89.92,-161.39 96.18,-164.51 101.69,-167.45 107.20,-170.38 113.28,-172.60 119.36,-174.82 125.51,-176.64 131.66,-178.47 139.89,-179.28 148.12,-180.09 155.99,-180.42 163.85,-180.75 173.83,-180.44 183.82,-180.13 193.53,-177.86 203.24,-175.60 213.61,-170.04 223.99,-164.49 231.45,-159.92 238.91,-155.34 244.84,-150.65 250.78,-145.96 255.70,-141.92 260.62,-137.88 264.87,-133.65 269.11,-129.41 272.23,-125.92 275.35,-122.43 278.19,-118.68 281.03,-114.94 283.49,-110.33 285.95,-105.72 288.06,-101.62 290.16,-97.52 292.26,-92.84 294.36,-88.16 296.09,-83.21 297.82,-78.26 299.36,-73.28 300.91,-68.30 302.04,-62.49 303.17,-56.69 303.65,-51.97 304.13,-47.25 304.46,-43.56 304.79,-39.88 305.04,-36.62 305.29,-33.36 305.46,-30.22 305.63,-27.08 304.48,-23.87 303.33,-20.67 301.58,-18.07 299.84,-15.46 297.24,-12.93 294.65,-10.40 290.25,-8.14 285.86,-5.88 281.14,-3.87 276.43,-1.86 270.83,0.29 265.23,2.45 258.40,4.84 251.58,7.23 241.78,11.68 231.98,16.13 223.34,19.98 214.70,23.82 206.62,27.38 198.54,30.95 191.50,33.81 184.46,36.67 177.83,38.80 171.19,40.93 165.41,42.22 159.62,43.51 154.18,44.06 148.74,44.62 142.85,44.84 136.95,45.07 131.58,45.17 126.20,45.26 121.71,45.30 117.23,45.34 113.00,45.01 108.77,44.69 105.62,44.14 102.46,43.58 100.03,43.19 97.59,42.80 92.88,42.40 88.17,42.01 85.60,41.92 83.04,41.83 80.77,41.86 78.51,41.89 75.90,41.92 73.28,41.95 70.49,41.96 67.70,41.98 65.06,41.74 62.43,41.51 59.92,41.43 57.42,41.35 54.59,40.69 51.76,40.04 49.65,39.56 47.53,39.07 44.76,38.12 41.99,37.18 38.44,35.29 34.89,33.41 32.30,32.16 29.70,30.91 27.41,29.84 25.13,28.78 22.05,27.05 18.97,25.32 16.93,23.87 14.89,22.43 13.32,20.46 11.75,18.50 10.67,16.04 9.60,13.59 8.36,11.40 7.12,9.21 4.66,8.23 2.19,7.25 1.23,6.83 0.28,6.41 -0.49,5.70 -1.26,4.99 -1.77,4.07 -2.27,3.16 -2.46,2.13 -2.64,1.10 -2.49,0.06 -2.34,-0.97 -1.86,-1.90 -1.39,-2.83 -0.64,-3.57 0.10,-4.30 1.04,-4.75 1.98,-5.21 3.02,-5.34 4.06,-5.47 5.09,-5.26 6.11,-5.05 7.02,-4.53 7.93,-4.00 8.62,-3.22 9.31,-2.43 9.71,-1.46 10.12,-0.50 10.19,0.54 10.27,1.58 10.00,2.60 9.74,3.61 9.16,4.49 8.59,5.36 7.77,6.01 6.95,6.66 5.96,7.01 4.97,7.36 3.92,7.38 2.88,7.39 1.88,7.08 0.88,6.76 0.04,6.14 -0.80,5.52 -1.40,4.66 -2.00,3.80 -2.30,2.80 -2.60,1.79 -2.56,0.75 -2.52,-0.29 -2.14,-1.27 -1.77,-2.25 -1.11,-3.06 -0.44,-3.87 0.44,-4.42 1.32,-4.98 2.34,-5.22 3.36,-5.46 4.41,-5.36 5.45,-5.27 5.45,-5.27 5.45,-5.27 9.21,-4.35 12.98,-3.43 15.18,-1.26 17.37,0.90 18.78,4.15 20.20,7.41 20.98,9.96 21.77,12.52 23.22,14.43 24.67,16.34 27.08,18.12 29.50,19.90 31.72,21.05 33.93,22.20 36.49,23.46 39.05,24.72 42.21,26.05 45.36,27.37 47.75,28.20 50.14,29.03 54.04,30.25 57.94,31.47 62.85,31.98 67.76,32.50 70.58,32.55 73.41,32.60 76.13,32.70 78.84,32.80 81.25,33.00 83.66,33.20 86.65,33.52 89.65,33.83 92.10,34.40 94.56,34.98 96.92,35.46 99.29,35.93 101.63,36.73 103.97,37.52 106.61,38.41 109.24,39.30 113.21,39.68 117.18,40.05 121.64,40.00 126.10,39.96 131.42,39.86 136.75,39.76 142.47,39.53 148.20,39.30 153.33,38.78 158.45,38.26 163.99,37.02 169.52,35.77 175.95,33.68 182.38,31.59 189.33,28.72 196.27,25.85 204.32,22.24 212.36,18.62 220.95,14.71 229.53,10.80 239.52,6.15 249.50,1.49 256.16,-1.00 262.82,-3.49 268.19,-5.79 273.57,-8.08 277.92,-10.24 282.28,-12.41 285.66,-14.42 289.05,-16.43 291.20,-18.38 293.35,-20.34 296.01,-23.82 298.68,-27.30 298.78,-30.25 298.87,-33.19 298.95,-36.38 299.03,-39.56 298.97,-43.14 298.90,-46.72 298.46,-51.21 298.01,-55.70 296.95,-61.22 295.89,-66.75 294.37,-71.64 292.86,-76.53 291.21,-81.27 289.56,-86.01 287.53,-90.56 285.49,-95.12 283.40,-99.19 281.31,-103.25 279.07,-107.52 276.83,-111.78 274.13,-115.35 271.43,-118.93 268.41,-122.31 265.40,-125.70 261.34,-129.76 257.29,-133.82 252.40,-137.83 247.52,-141.84 241.84,-146.36 236.15,-150.87 228.83,-155.37 221.50,-159.87 211.74,-165.18 201.98,-170.50 192.81,-172.69 183.63,-174.89 173.85,-175.19 164.07,-175.50 156.35,-175.18 148.62,-174.86 140.88,-174.14 133.14,-173.43 127.15,-171.65 121.15,-169.88 115.41,-167.81 109.66,-165.74 104.10,-162.77 98.53,-159.81 92.26,-156.68 86.00,-153.56 79.63,-150.39 73.26,-147.22 66.60,-143.93 59.94,-140.64 52.72,-137.12 45.49,-133.60 38.87,-129.91 32.25,-126.23 26.79,-122.01 21.34,-117.79 17.36,-113.44 13.37,-109.09 9.57,-103.59 5.77,-98.10 3.45,-92.90 1.12,-87.71 -0.61,-82.21 -2.35,-76.72 -2.77,-69.94 -3.19,-63.16 -3.14,-57.25 -3.10,-51.34 -3.01,-45.78 -2.92,-40.23 -2.72,-35.45 -2.53,-30.66 -2.13,-25.05 -1.72,-19.43 -0.75,-15.16 0.21,-10.90 1.61,-5.84 3.02,-0.79 3.07,-0.42 3.12,-0.05 3.08,0.32 3.04,0.69 2.91,1.05 2.79,1.40 2.58,1.71 2.37,2.03 2.09,2.28 1.81,2.54 1.48,2.72 1.15,2.90 0.79,2.99 0.42,3.09 0.05,3.10 -0.32,3.10 -0.69,3.02 -1.05,2.93 -1.39,2.76 -1.73,2.60 -2.01,2.35 -2.30,2.11 -2.52,1.80 -2.74,1.49 -2.88,1.14 -3.02,0.79 -3.02,0.79 L -3.02,0.79 Z"></path></g><g transform="translate(13.146620181787966 121.15826330132131) rotate(0 141.21108962383641 -18.54125485368013)" stroke="none"><path fill="#1e1e1e" d="M 0,-4.65 Q 0,-4.65 4.92,-4.38 9.84,-4.12 14.81,-3.92 19.78,-3.72 23.56,-3.68 27.35,-3.65 30.63,-3.72 33.91,-3.79 38.07,-4.10 42.24,-4.40 45.81,-4.64 49.37,-4.88 51.61,-6.30 53.86,-7.73 56.63,-9.31 59.41,-10.90 61.61,-11.44 63.82,-11.98 66.23,-12.31 68.65,-12.64 71.18,-12.82 73.71,-13.00 75.88,-13.12 78.04,-13.24 80.54,-13.33 83.04,-13.43 85.00,-16.82 86.96,-20.21 89.57,-23.34 92.17,-26.46 94.91,-28.70 97.64,-30.93 99.73,-32.21 101.82,-33.49 103.96,-34.06 106.10,-34.62 108.43,-35.08 110.77,-35.54 113.30,-36.04 115.83,-36.55 118.72,-37.31 121.61,-38.07 123.77,-38.64 125.93,-39.20 129.37,-40.02 132.82,-40.85 136.02,-41.27 139.21,-41.69 142.20,-42.07 145.19,-42.45 148.43,-42.59 151.67,-42.74 154.72,-42.74 157.76,-42.74 160.20,-42.77 162.63,-42.80 164.82,-42.83 167.01,-42.86 170.54,-42.31 174.07,-41.76 176.53,-40.07 178.98,-38.37 181.35,-36.55 183.73,-34.73 185.92,-32.01 188.11,-29.30 188.94,-27.31 189.77,-25.32 190.22,-22.61 190.68,-19.89 191.04,-17.80 191.41,-15.70 194.42,-16.53 197.42,-17.36 200.68,-17.33 203.93,-17.30 206.73,-17.35 209.54,-17.39 211.68,-17.44 213.81,-17.50 217.64,-17.81 221.48,-18.12 225.18,-18.46 228.89,-18.81 233.05,-18.82 237.21,-18.83 240.34,-18.85 243.48,-18.87 246.28,-18.89 249.08,-18.91 251.44,-18.94 253.81,-18.97 255.95,-19.00 258.08,-19.03 260.22,-19.48 262.37,-19.93 265.53,-21.03 268.70,-22.13 270.85,-22.78 273.00,-23.43 275.26,-23.65 277.52,-23.88 282.90,-21.81 288.28,-19.74 288.76,-18.69 289.24,-17.64 289.36,-16.49 289.47,-15.34 289.22,-14.21 288.96,-13.08 288.36,-12.10 287.76,-11.11 286.87,-10.37 285.98,-9.63 284.91,-9.21 283.83,-8.79 282.68,-8.73 281.52,-8.68 280.41,-8.99 279.30,-9.31 278.35,-9.96 277.40,-10.62 276.70,-11.54 276.01,-12.47 275.65,-13.57 275.29,-14.66 275.30,-15.82 275.30,-16.98 275.68,-18.07 276.06,-19.16 276.76,-20.08 277.47,-20.99 278.43,-21.63 279.39,-22.27 280.51,-22.58 281.62,-22.88 282.77,-22.81 283.93,-22.74 285.00,-22.30 286.07,-21.87 286.94,-21.11 287.82,-20.36 288.41,-19.36 289.00,-18.37 289.24,-17.24 289.48,-16.11 289.34,-14.96 289.21,-13.81 288.72,-12.77 288.23,-11.72 287.43,-10.89 286.63,-10.06 285.60,-9.52 284.58,-8.99 283.43,-8.81 282.29,-8.63 281.15,-8.82 280.02,-9.02 279.00,-9.57 277.98,-10.12 277.19,-10.96 276.40,-11.81 276.40,-11.80 276.41,-11.80 275.79,-10.76 275.18,-9.73 271.99,-8.66 268.80,-7.60 265.34,-6.44 261.87,-5.28 259.05,-5.33 256.23,-5.38 254.02,-5.41 251.82,-5.44 249.07,-5.46 246.32,-5.48 243.45,-5.49 240.59,-5.50 237.04,-5.43 233.49,-5.36 230.00,-5.14 226.51,-4.92 224.15,-4.53 221.79,-4.15 219.54,-4.14 217.28,-4.12 213.92,-3.82 210.56,-3.51 208.36,-3.56 206.16,-3.61 203.36,-3.62 200.56,-3.62 197.01,-3.59 193.47,-3.55 189.67,-3.62 185.87,-3.70 183.91,-4.84 181.95,-5.98 180.29,-7.34 178.63,-8.71 178.19,-11.60 177.76,-14.48 177.53,-17.43 177.31,-20.37 176.08,-22.90 174.86,-25.42 172.84,-27.22 170.82,-29.02 168.96,-30.14 167.11,-31.25 164.97,-31.24 162.83,-31.24 160.48,-31.19 158.14,-31.14 155.36,-30.95 152.58,-30.76 149.99,-30.46 147.39,-30.15 144.52,-29.48 141.65,-28.81 137.14,-27.63 132.64,-26.46 129.90,-25.74 127.16,-25.02 124.91,-24.72 122.65,-24.42 120.02,-23.65 117.39,-22.89 114.97,-22.42 112.55,-21.96 110.35,-21.78 108.15,-21.60 105.81,-20.17 103.47,-18.75 101.66,-16.91 99.85,-15.07 97.49,-11.89 95.13,-8.72 93.88,-5.51 92.62,-2.30 90.64,-1.32 88.65,-0.34 85.84,-0.17 83.04,0.00 80.54,-0.09 78.04,-0.19 75.88,-0.31 73.71,-0.43 71.42,-0.58 69.13,-0.74 66.68,-0.85 64.22,-0.96 61.89,0.01 59.56,1.00 57.19,2.34 54.82,3.68 52.15,4.28 49.49,4.88 45.86,4.64 42.24,4.40 38.07,4.10 33.91,3.79 30.63,3.72 27.35,3.65 23.56,3.68 19.78,3.72 14.81,3.92 9.84,4.12 4.92,4.38 0,4.65 -0.55,4.58 -1.11,4.51 -1.63,4.31 -2.16,4.11 -2.62,3.80 -3.08,3.48 -3.45,3.06 -3.82,2.64 -4.08,2.14 -4.34,1.64 -4.48,1.10 -4.61,0.56 -4.61,-0.00 -4.61,-0.56 -4.48,-1.10 -4.34,-1.64 -4.08,-2.14 -3.82,-2.64 -3.45,-3.06 -3.08,-3.48 -2.62,-3.80 -2.16,-4.11 -1.63,-4.31 -1.11,-4.51 -0.55,-4.58 0.00,-4.65 0.00,-4.65 L 0,-4.65 Z"></path></g><g transform="translate(21.545046151619772 168.93779386308188) rotate(0 59.153483890256666 20.014140896219487)" stroke="none"><path fill="#1e1e1e" d="M 0,-4.36 Q 0,-4.36 2.74,-4.43 5.48,-4.50 8.31,-4.55 11.15,-4.59 15.80,-4.33 20.45,-4.08 24.63,-3.90 28.80,-3.73 32.60,-4.01 36.40,-4.29 39.68,-4.78 42.96,-5.27 45.22,-6.11 47.48,-6.94 49.73,-7.70 51.98,-8.46 54.06,-9.14 56.15,-9.81 59.92,-11.20 63.68,-12.59 66.25,-13.40 68.82,-14.21 71.38,-14.56 73.94,-14.90 76.41,-14.71 78.88,-14.52 81.22,-12.23 83.56,-9.95 85.30,-8.71 87.03,-7.48 89.48,-6.22 91.93,-4.97 95.86,-3.66 99.79,-2.35 102.63,-1.36 105.47,-0.37 106.56,1.78 107.65,3.93 108.91,6.36 110.16,8.79 111.76,12.85 113.36,16.91 114.29,19.70 115.23,22.48 116.13,24.69 117.03,26.89 117.82,29.31 118.62,31.73 119.96,34.86 121.31,37.99 122.52,41.11 123.74,44.22 124.26,46.17 124.77,48.11 124.75,49.17 124.73,50.23 124.38,51.23 124.02,52.24 123.36,53.07 122.70,53.90 121.81,54.48 120.92,55.06 119.89,55.33 118.86,55.60 117.80,55.52 116.74,55.44 115.76,55.03 114.78,54.62 113.98,53.92 113.19,53.21 112.65,52.29 112.12,51.37 111.91,50.33 111.70,49.29 111.84,48.23 111.97,47.18 112.44,46.22 112.90,45.27 113.65,44.51 114.39,43.75 115.34,43.27 116.29,42.79 117.34,42.64 118.39,42.48 119.44,42.67 120.48,42.87 121.41,43.38 122.34,43.90 123.06,44.68 123.78,45.47 124.20,46.44 124.63,47.41 124.73,48.47 124.82,49.53 124.58,50.56 124.33,51.60 123.76,52.50 123.20,53.40 122.38,54.07 121.55,54.74 120.56,55.12 119.56,55.49 118.50,55.53 117.44,55.57 116.42,55.27 115.40,54.96 114.53,54.35 113.66,53.74 113.04,52.88 112.41,52.02 112.09,51.01 111.77,49.99 111.77,49.99 111.77,50.00 111.02,47.37 110.27,44.75 109.39,42.30 108.51,39.86 106.92,35.99 105.33,32.12 104.18,29.73 103.02,27.34 101.82,24.76 100.62,22.18 98.73,18.24 96.83,14.31 96.17,12.01 95.52,9.71 93.05,9.00 90.58,8.29 87.19,6.98 83.80,5.68 81.47,3.90 79.14,2.13 76.23,-0.11 73.32,-2.36 72.57,-4.76 71.83,-7.17 73.03,-5.36 74.24,-3.54 71.66,-3.60 69.08,-3.66 66.09,-3.16 63.10,-2.65 60.77,-1.87 58.43,-1.08 56.32,-0.66 54.21,-0.24 51.97,0.21 49.73,0.67 46.83,1.35 43.94,2.04 40.50,2.43 37.06,2.82 32.93,3.28 28.80,3.73 24.63,3.90 20.45,4.08 15.80,4.33 11.15,4.59 8.31,4.55 5.48,4.50 2.74,4.43 0,4.36 -0.52,4.30 -1.04,4.23 -1.53,4.05 -2.02,3.86 -2.46,3.56 -2.89,3.26 -3.24,2.87 -3.59,2.48 -3.83,2.01 -4.08,1.54 -4.20,1.03 -4.33,0.52 -4.33,-0.00 -4.33,-0.52 -4.20,-1.03 -4.08,-1.54 -3.83,-2.01 -3.59,-2.48 -3.24,-2.87 -2.89,-3.26 -2.46,-3.56 -2.02,-3.86 -1.53,-4.05 -1.04,-4.23 -0.52,-4.30 0.00,-4.36 0.00,-4.36 L 0,-4.36 Z"></path></g><g transform="translate(192.80896209797083 220.48880535194985) rotate(0 53.70826882389997 -39.29183877116907)" stroke="none"><path fill="#1e1e1e" d="M -4.96,0 Q -4.96,0 -4.66,-4.26 -4.35,-8.52 -4.40,-11.47 -4.44,-14.43 -5.06,-17.22 -5.68,-20.02 -5.98,-22.26 -6.29,-24.50 -6.45,-26.78 -6.61,-29.06 -6.76,-31.19 -6.92,-33.31 -7.08,-36.00 -7.24,-38.69 -7.91,-41.47 -8.58,-44.24 -9.41,-47.01 -10.23,-49.77 -8.02,-54.34 -5.81,-58.92 -3.40,-59.35 -0.99,-59.79 2.25,-59.38 5.49,-58.97 9.58,-58.69 13.67,-58.41 16.21,-58.29 18.75,-58.17 22.03,-57.95 25.31,-57.74 28.38,-57.61 31.45,-57.48 35.22,-56.90 39.00,-56.32 42.00,-56.09 45.01,-55.85 47.96,-55.74 50.90,-55.64 53.82,-55.58 56.74,-55.53 59.65,-55.50 62.57,-55.47 65.73,-55.70 68.90,-55.94 71.52,-56.86 74.15,-57.78 76.92,-59.19 79.70,-60.60 81.98,-62.09 84.26,-63.58 86.33,-65.09 88.41,-66.60 92.26,-69.27 96.10,-71.94 98.41,-73.33 100.73,-74.72 101.80,-76.81 102.88,-78.90 104.45,-80.06 106.03,-81.23 106.62,-82.04 107.21,-82.86 108.04,-83.44 108.86,-84.02 109.82,-84.31 110.79,-84.60 111.79,-84.56 112.80,-84.53 113.74,-84.17 114.68,-83.82 115.46,-83.18 116.24,-82.55 116.78,-81.70 117.31,-80.84 117.55,-79.87 117.79,-78.89 117.70,-77.88 117.61,-76.88 117.20,-75.96 116.80,-75.04 116.12,-74.29 115.44,-73.55 114.57,-73.06 113.69,-72.57 112.70,-72.39 111.71,-72.21 110.71,-72.35 109.71,-72.49 108.82,-72.95 107.92,-73.40 107.21,-74.12 106.50,-74.83 106.06,-75.74 105.62,-76.64 105.49,-77.64 105.37,-78.64 105.56,-79.63 105.76,-80.61 106.26,-81.49 106.76,-82.36 107.52,-83.03 108.27,-83.69 109.20,-84.08 110.13,-84.47 111.13,-84.55 112.13,-84.62 113.11,-84.37 114.08,-84.12 114.93,-83.58 115.77,-83.03 116.40,-82.24 117.02,-81.45 117.36,-80.50 117.70,-79.55 117.72,-78.55 117.74,-77.54 117.44,-76.58 117.14,-75.62 117.14,-75.62 117.14,-75.62 114.08,-73.81 111.02,-72.00 110.06,-69.72 109.10,-67.44 106.32,-66.00 103.55,-64.57 100.59,-63.19 97.62,-61.82 95.70,-60.34 93.78,-58.86 91.47,-57.34 89.16,-55.81 86.54,-54.21 83.92,-52.60 80.58,-50.78 77.24,-48.97 73.60,-47.70 69.95,-46.43 66.24,-45.94 62.53,-45.46 59.59,-45.45 56.65,-45.45 53.66,-45.45 50.67,-45.45 47.59,-45.48 44.50,-45.50 41.19,-45.58 37.87,-45.67 34.65,-45.83 31.42,-45.99 28.35,-45.86 25.27,-45.74 21.95,-45.55 18.63,-45.35 15.98,-45.28 13.32,-45.21 11.04,-45.22 8.77,-45.23 5.94,-45.33 3.11,-45.42 0.53,-46.52 -2.03,-47.63 0.26,-50.34 2.57,-53.06 3.44,-49.62 4.31,-46.19 4.81,-43.16 5.31,-40.13 5.15,-37.33 4.99,-34.53 4.80,-31.80 4.60,-29.08 4.46,-26.86 4.31,-24.64 4.18,-21.91 4.05,-19.18 4.25,-16.81 4.44,-14.44 4.40,-11.48 4.35,-8.52 4.66,-4.26 4.96,0 4.89,0.59 4.81,1.18 4.60,1.74 4.39,2.30 4.05,2.79 3.71,3.29 3.26,3.68 2.81,4.08 2.28,4.36 1.76,4.64 1.17,4.78 0.59,4.92 -0.00,4.92 -0.59,4.92 -1.17,4.78 -1.76,4.64 -2.29,4.36 -2.82,4.08 -3.26,3.68 -3.71,3.29 -4.05,2.79 -4.39,2.30 -4.60,1.74 -4.81,1.18 -4.89,0.59 -4.96,-0.00 -4.96,-0.00 L -4.96,0 Z"></path></g><g transform="translate(152.28962929873342 116.05756084296718) rotate(0 -8.766392443354789 15.795408383559106)" stroke="none"><path fill="#1e1e1e" d="M 5.09,0 Q 5.09,0 5.14,2.23 5.20,4.46 5.36,7.64 5.51,10.82 5.63,13.11 5.75,15.41 5.95,17.69 6.14,19.98 4.73,22.43 3.31,24.89 0.96,25.83 -1.39,26.78 -3.89,28.66 -6.38,30.54 -8.24,32.16 -10.10,33.79 -11.42,34.99 -12.73,36.19 -13.59,36.82 -14.46,37.46 -15.49,37.78 -16.52,38.10 -17.59,38.08 -18.67,38.06 -19.68,37.70 -20.69,37.33 -21.54,36.67 -22.38,36.00 -22.97,35.10 -23.55,34.19 -23.82,33.15 -24.09,32.11 -24.01,31.04 -23.93,29.96 -23.51,28.97 -23.09,27.98 -22.38,27.18 -21.67,26.37 -20.74,25.83 -19.80,25.30 -18.75,25.09 -17.69,24.87 -16.63,25.01 -15.56,25.15 -14.59,25.62 -13.62,26.09 -12.86,26.85 -12.09,27.60 -11.61,28.56 -11.12,29.52 -10.97,30.59 -10.82,31.65 -11.01,32.71 -11.20,33.77 -11.73,34.71 -12.25,35.65 -13.05,36.37 -13.84,37.10 -14.83,37.53 -15.81,37.96 -16.88,38.06 -17.95,38.15 -19.00,37.90 -20.05,37.65 -20.96,37.08 -21.87,36.50 -22.55,35.67 -23.23,34.84 -23.61,33.83 -23.99,32.82 -24.02,31.75 -24.06,30.67 -23.75,29.64 -23.44,28.61 -22.82,27.73 -22.20,26.85 -22.20,26.85 -22.20,26.85 -20.37,25.19 -18.54,23.53 -16.76,22.08 -14.97,20.63 -12.40,18.68 -9.82,16.73 -6.63,16.37 -3.44,16.01 -4.79,17.99 -6.14,19.98 -5.95,17.69 -5.75,15.41 -5.63,13.11 -5.51,10.82 -5.36,7.64 -5.20,4.46 -5.14,2.23 -5.09,0 -5.01,-0.60 -4.94,-1.21 -4.72,-1.79 -4.50,-2.36 -4.15,-2.87 -3.81,-3.37 -3.35,-3.78 -2.89,-4.18 -2.34,-4.47 -1.80,-4.76 -1.20,-4.90 -0.61,-5.05 0.00,-5.05 0.61,-5.05 1.20,-4.90 1.80,-4.75 2.34,-4.47 2.89,-4.18 3.35,-3.78 3.81,-3.37 4.15,-2.87 4.50,-2.36 4.72,-1.79 4.94,-1.21 5.01,-0.60 5.09,0.00 5.09,0.00 L 5.09,0 Z"></path></g><g transform="translate(154.5074487686752 135.88936682780877) rotate(0 6.013149737534604 5.594453842179519)" stroke="none"><path fill="#1e1e1e" d="M 2.69,-4.32 Q 2.69,-4.32 4.70,-3.13 6.72,-1.93 9.13,-0.15 11.54,1.63 13.20,4.06 14.86,6.48 14.15,5.97 13.44,5.46 14.31,5.85 15.18,6.23 15.89,6.87 16.59,7.52 17.05,8.35 17.51,9.19 17.68,10.12 17.86,11.06 17.72,12.01 17.58,12.95 17.15,13.80 16.72,14.65 16.04,15.32 15.36,15.99 14.50,16.40 13.64,16.82 12.70,16.94 11.75,17.06 10.82,16.87 9.88,16.68 9.06,16.21 8.23,15.73 7.60,15.01 6.97,14.30 6.60,13.42 6.23,12.54 6.16,11.59 6.09,10.64 6.33,9.71 6.57,8.79 7.09,7.99 7.61,7.19 8.36,6.60 9.11,6.01 10.01,5.69 10.91,5.37 11.86,5.35 12.81,5.34 13.72,5.63 14.63,5.91 15.40,6.48 16.17,7.04 16.72,7.82 17.27,8.60 17.54,9.51 17.81,10.43 17.78,11.38 17.74,12.33 17.40,13.22 17.07,14.12 16.46,14.85 15.86,15.59 15.05,16.10 14.24,16.60 13.32,16.83 12.39,17.05 11.44,16.96 10.49,16.87 10.49,16.87 10.49,16.88 7.33,13.77 4.16,10.67 2.70,8.78 1.23,6.88 -0.72,5.60 -2.69,4.32 -3.17,3.94 -3.65,3.55 -4.02,3.07 -4.39,2.58 -4.64,2.01 -4.88,1.45 -4.98,0.84 -5.09,0.24 -5.04,-0.37 -5.00,-0.98 -4.81,-1.56 -4.62,-2.15 -4.29,-2.67 -3.97,-3.19 -3.53,-3.62 -3.09,-4.05 -2.56,-4.36 -2.03,-4.67 -1.44,-4.85 -0.85,-5.02 -0.24,-5.05 0.37,-5.08 0.97,-4.96 1.57,-4.84 2.13,-4.58 2.69,-4.32 2.69,-4.32 L 2.69,-4.32 Z"></path></g><g transform="translate(130.35165608271154 150.80847430714994) rotate(0 22.023404095680007 -14.638285181850733)" stroke="none"><path fill="#1e1e1e" d="M -4.79,2.12 Q -4.79,2.12 -5.73,0.11 -6.68,-1.90 -7.76,-4.64 -8.84,-7.38 -9.32,-10.23 -9.81,-13.07 -10.12,-15.22 -10.42,-17.37 -10.62,-19.73 -10.82,-22.08 -10.52,-25.06 -10.22,-28.03 -9.00,-30.51 -7.78,-32.98 -6.05,-35.29 -4.32,-37.59 -2.26,-39.28 -0.20,-40.97 2.01,-42.36 4.22,-43.74 7.57,-44.85 10.92,-45.96 13.15,-46.35 15.39,-46.73 17.87,-46.89 20.36,-47.04 23.12,-47.09 25.88,-47.13 28.86,-46.57 31.84,-46.01 34.29,-45.07 36.73,-44.14 39.06,-42.95 41.38,-41.75 43.83,-39.89 46.28,-38.03 47.91,-35.95 49.53,-33.87 50.69,-32.06 51.84,-30.25 52.77,-28.02 53.70,-25.78 54.37,-23.65 55.03,-21.53 55.35,-19.39 55.67,-17.26 55.81,-14.73 55.95,-12.20 55.97,-10.00 55.99,-7.80 55.72,-5.12 55.45,-2.44 54.62,0.01 53.79,2.46 52.09,4.79 50.38,7.12 47.95,8.99 45.52,10.86 42.96,12.25 40.40,13.64 38.11,14.69 35.82,15.75 32.85,16.58 29.88,17.41 26.61,17.67 23.34,17.92 20.24,17.72 17.14,17.52 14.75,17.18 12.36,16.85 9.67,16.35 6.97,15.85 4.65,15.21 2.32,14.56 0.28,13.86 -1.76,13.16 -5.86,10.81 -9.96,8.45 -10.54,7.42 -11.13,6.38 -11.35,5.22 -11.57,4.06 -11.41,2.88 -11.24,1.71 -10.71,0.65 -10.19,-0.40 -9.35,-1.24 -8.51,-2.07 -7.44,-2.60 -6.38,-3.12 -5.21,-3.28 -4.03,-3.44 -2.87,-3.21 -1.71,-2.98 -0.68,-2.40 0.34,-1.81 1.13,-0.93 1.92,-0.05 2.39,1.03 2.85,2.12 2.95,3.30 3.04,4.48 2.75,5.63 2.46,6.78 1.82,7.78 1.18,8.77 0.26,9.51 -0.66,10.25 -1.77,10.66 -2.88,11.07 -4.07,11.10 -5.25,11.13 -6.38,10.77 -7.52,10.42 -8.48,9.73 -9.44,9.04 -10.13,8.07 -10.81,7.11 -11.16,5.98 -11.50,4.84 -11.47,3.66 -11.44,2.48 -11.02,1.37 -10.61,0.25 -9.87,-0.66 -9.12,-1.58 -8.13,-2.21 -7.13,-2.85 -5.98,-3.13 -4.83,-3.42 -3.64,-3.32 -2.46,-3.22 -1.38,-2.75 -0.29,-2.28 0.58,-1.48 1.46,-0.69 1.46,-0.69 1.46,-0.69 1.59,-0.84 1.71,-1.00 4.19,-0.13 6.66,0.73 9.28,1.42 11.90,2.11 14.39,2.43 16.87,2.74 19.78,3.00 22.69,3.25 25.61,2.89 28.53,2.53 30.94,1.46 33.34,0.38 35.34,-0.77 37.34,-1.94 38.95,-3.72 40.55,-5.50 40.73,-7.77 40.90,-10.04 40.90,-12.47 40.89,-14.90 40.31,-17.77 39.73,-20.64 38.98,-22.67 38.22,-24.70 36.81,-26.62 35.41,-28.53 33.43,-29.64 31.45,-30.75 28.68,-31.75 25.91,-32.76 23.35,-32.76 20.79,-32.77 18.29,-32.58 15.79,-32.39 13.57,-31.90 11.35,-31.42 9.06,-30.17 6.77,-28.92 5.21,-27.44 3.65,-25.97 2.82,-23.63 2.00,-21.29 2.00,-19.01 2.00,-16.74 2.08,-13.94 2.15,-11.14 2.62,-8.68 3.08,-6.22 3.93,-4.17 4.79,-2.12 4.98,-1.51 5.16,-0.91 5.19,-0.28 5.23,0.34 5.11,0.96 4.99,1.59 4.73,2.16 4.47,2.74 4.07,3.23 3.68,3.73 3.18,4.11 2.68,4.50 2.10,4.76 1.52,5.01 0.90,5.12 0.28,5.23 -0.34,5.19 -0.97,5.15 -1.57,4.96 -2.18,4.77 -2.72,4.43 -3.26,4.10 -3.70,3.65 -4.14,3.20 -4.47,2.66 -4.79,2.12 -4.79,2.12 L -4.79,2.12 Z"></path></g></svg>