<?xml version="1.0" standalone="no"?>
<!DOCTYPE svg PUBLIC "-//W3C//DTD SVG 1.1//EN" "http://www.w3.org/Graphics/SVG/1.1/DTD/svg11.dtd">
<svg version="1.1" xmlns="http://www.w3.org/2000/svg" viewBox="0 0 591.2684881388486 584.0301352458764" width="1773.8054644165459" height="1752.0904057376292" filter="invert(93%) hue-rotate(180deg)"><!-- svg-source:excalidraw --><metadata></metadata><defs><style class="style-fonts">
      </style></defs><g transform="translate(158.45790116623994 251.03954023129063) rotate(0 176.43783788535757 108.59321010965232)" stroke="none"><path fill="#1e1e1e" d="M -1.48,-2.74 Q -1.48,-2.74 4.97,-6.17 11.44,-9.59 22.59,-14.42 33.74,-19.25 52.19,-23.42 70.64,-27.58 90.39,-30.41 110.13,-33.25 130.23,-34.45 150.33,-35.65 167.28,-36.16 184.24,-36.66 198.67,-35.42 213.11,-34.19 229.17,-27.07 245.23,-19.96 257.55,-12.21 269.88,-4.47 281.84,3.86 293.80,12.21 303.67,21.37 313.54,30.54 322.81,41.23 332.09,51.93 338.12,61.21 344.15,70.49 348.35,81.70 352.55,92.91 354.34,104.90 356.14,116.89 356.88,132.08 357.62,147.27 353.30,159.28 348.99,171.29 340.28,183.24 331.56,195.19 321.56,205.10 311.56,215.01 298.73,223.53 285.91,232.06 266.69,237.83 247.47,243.61 228.74,246.76 210.01,249.90 193.57,251.24 177.14,252.57 157.45,253.14 137.76,253.70 120.84,252.25 103.92,250.80 89.50,247.04 75.08,243.28 64.27,239.04 53.46,234.80 44.37,228.59 35.28,222.39 28.69,214.98 22.09,207.58 16.40,198.63 10.71,189.69 6.66,178.64 2.60,167.60 0.16,154.23 -2.28,140.85 -3.30,130.54 -4.33,120.22 -4.77,111.20 -5.21,102.17 -5.39,93.71 -5.58,85.25 -5.65,77.03 -5.73,68.82 -5.76,62.64 -5.80,56.47 -5.81,51.75 -5.83,47.02 -5.67,43.61 -5.52,40.20 -5.74,37.20 -5.95,34.21 -6.23,32.05 -6.51,29.88 -6.75,26.95 -6.99,24.02 -7.18,21.51 -7.36,18.99 -7.50,14.71 -7.64,10.43 -7.66,8.17 -7.68,5.91 -7.38,2.23 -7.08,-1.45 -6.66,-1.83 -6.24,-2.21 -5.98,-2.88 -5.73,-3.55 -5.32,-4.14 -4.92,-4.73 -4.38,-5.20 -3.85,-5.68 -3.21,-6.01 -2.58,-6.34 -1.89,-6.52 -1.19,-6.69 -0.48,-6.69 0.23,-6.69 0.92,-6.52 1.62,-6.35 2.25,-6.02 2.89,-5.68 3.42,-5.21 3.96,-4.74 4.37,-4.15 4.77,-3.56 5.03,-2.89 5.28,-2.22 5.37,-1.51 5.46,-0.80 5.37,-0.09 5.29,0.61 5.31,-0.71 5.33,-2.04 5.37,-1.08 5.42,-0.12 5.16,0.79 4.90,1.72 4.35,2.51 3.81,3.30 3.04,3.88 2.27,4.46 1.36,4.76 0.45,5.06 -0.50,5.06 -1.46,5.05 -2.37,4.74 -3.28,4.43 -4.04,3.84 -4.80,3.26 -5.34,2.46 -5.87,1.66 -6.12,0.73 -6.38,-0.18 -6.32,-1.14 -6.26,-2.10 -5.90,-2.99 -5.54,-3.88 -4.91,-4.61 -4.29,-5.34 -3.46,-5.83 -2.64,-6.32 -1.70,-6.52 -0.76,-6.72 0.19,-6.62 1.14,-6.51 2.01,-6.10 2.88,-5.69 3.57,-5.02 4.27,-4.36 4.71,-3.51 5.16,-2.66 5.31,-1.71 5.46,-0.76 5.30,0.18 5.14,1.12 4.68,1.97 4.23,2.82 3.53,3.47 2.82,4.13 1.95,4.53 1.08,4.93 0.12,5.02 -0.82,5.12 -1.76,4.91 -2.70,4.70 -3.52,4.20 -4.34,3.70 -4.96,2.96 -5.57,2.23 -5.91,0.01 -6.24,-2.21 -5.98,-2.88 -5.73,-3.55 -5.32,-4.14 -4.92,-4.73 -4.38,-5.20 -3.85,-5.68 -3.22,-6.01 -2.58,-6.34 -1.89,-6.52 -1.19,-6.69 -0.48,-6.69 0.23,-6.69 0.92,-6.52 1.62,-6.35 2.25,-6.02 2.89,-5.68 3.42,-5.21 3.96,-4.74 4.37,-4.15 4.77,-3.56 5.03,-2.89 5.28,-2.22 5.37,-1.51 5.46,-0.80 5.37,-0.09 5.29,0.61 4.78,0.97 4.27,1.33 3.91,3.62 3.54,5.91 3.53,8.17 3.51,10.43 3.37,14.71 3.23,19.00 3.04,21.51 2.86,24.02 2.61,26.98 2.37,29.93 2.01,32.24 1.64,34.55 1.03,37.67 0.42,40.79 -0.07,43.90 -0.57,47.01 -0.56,51.72 -0.54,56.44 -0.51,62.60 -0.48,68.77 -0.40,76.95 -0.32,85.14 -0.14,93.53 0.03,101.92 0.46,110.81 0.88,119.70 1.88,129.81 2.88,139.92 5.21,152.87 7.54,165.81 11.35,176.36 15.15,186.90 20.59,195.50 26.04,204.11 32.16,211.09 38.29,218.08 46.85,224.00 55.40,229.93 65.91,234.06 76.42,238.20 90.40,241.88 104.38,245.57 121.00,247.01 137.61,248.45 157.16,247.89 176.72,247.33 192.93,246.03 209.14,244.72 227.56,241.65 245.98,238.58 264.52,233.11 283.06,227.65 295.47,219.45 307.88,211.26 317.61,201.67 327.33,192.08 335.71,180.75 344.08,169.43 348.24,158.39 352.39,147.36 351.67,132.51 350.94,117.65 349.27,106.19 347.61,94.72 343.66,84.02 339.72,73.33 333.91,64.35 328.11,55.38 319.02,44.89 309.94,34.41 300.35,25.48 290.76,16.55 278.91,8.28 267.05,0.01 255.05,-7.54 243.05,-15.09 227.80,-21.98 212.55,-28.87 198.48,-30.07 184.40,-31.26 167.53,-30.73 150.66,-30.21 130.79,-28.99 110.92,-27.78 91.40,-24.93 71.89,-22.08 53.96,-18.02 36.03,-13.95 25.16,-9.15 14.28,-4.34 7.88,-0.79 1.48,2.74 1.13,2.88 0.78,3.02 0.41,3.07 0.04,3.12 -0.33,3.08 -0.70,3.04 -1.06,2.91 -1.41,2.78 -1.72,2.57 -2.04,2.36 -2.29,2.08 -2.54,1.80 -2.72,1.47 -2.90,1.14 -3.00,0.78 -3.09,0.41 -3.10,0.04 -3.10,-0.33 -3.02,-0.70 -2.93,-1.06 -2.76,-1.40 -2.59,-1.74 -2.34,-2.02 -2.10,-2.31 -1.79,-2.52 -1.48,-2.74 -1.48,-2.74 L -1.48,-2.74 Z"></path></g><g transform="translate(137.75812300861708 265.8506913654237) rotate(0 32.58453249509239 -73.50630974149499)" stroke="none"><path fill="#1e1e1e" d="M -3.44,0 Q -3.44,0 -3.33,-7.05 -3.22,-14.11 -3.14,-20.63 -3.06,-27.15 -3.00,-38.26 -2.94,-49.37 -2.90,-62.51 -2.85,-75.65 -2.82,-85.85 -2.79,-96.05 -2.77,-104.17 -2.74,-112.29 -2.73,-118.42 -2.71,-124.56 -2.78,-128.43 -2.86,-132.29 -2.57,-135.46 -2.28,-138.63 -1.49,-141.02 -0.70,-143.41 0.03,-145.42 0.76,-147.44 1.00,-147.72 1.25,-148.00 1.49,-148.47 1.73,-148.95 2.07,-149.35 2.42,-149.75 2.85,-150.06 3.29,-150.36 3.78,-150.56 4.27,-150.75 4.80,-150.83 5.33,-150.90 5.85,-150.84 6.38,-150.78 6.88,-150.60 7.38,-150.42 7.82,-150.13 8.26,-149.83 8.62,-149.44 8.98,-149.05 9.23,-148.58 9.48,-148.11 9.62,-147.60 9.75,-147.08 9.76,-146.55 9.76,-146.02 9.64,-145.51 9.52,-144.99 12.81,-142.24 16.10,-139.48 19.28,-135.04 22.45,-130.60 25.69,-124.83 28.93,-119.05 32.21,-114.07 35.48,-109.08 38.93,-104.23 42.38,-99.38 45.21,-95.43 48.04,-91.47 50.02,-89.30 52.01,-87.13 54.54,-85.31 57.07,-83.49 59.42,-81.24 61.77,-78.98 62.10,-76.84 62.43,-74.69 62.65,-71.96 62.87,-69.22 63.02,-66.52 63.17,-63.82 65.29,-60.94 67.40,-58.05 68.33,-54.38 69.25,-50.70 69.98,-48.94 70.71,-47.17 71.05,-46.18 71.39,-45.18 71.39,-44.13 71.39,-43.07 71.06,-42.07 70.73,-41.07 70.09,-40.23 69.46,-39.39 68.59,-38.80 67.72,-38.20 66.70,-37.92 65.69,-37.63 64.64,-37.68 63.58,-37.74 62.60,-38.12 61.62,-38.51 60.82,-39.19 60.01,-39.87 59.46,-40.77 58.92,-41.67 58.69,-42.70 58.46,-43.73 58.57,-44.78 58.68,-45.82 59.12,-46.78 59.56,-47.74 60.28,-48.51 61.00,-49.28 61.93,-49.77 62.86,-50.27 63.90,-50.44 64.94,-50.62 65.98,-50.45 67.02,-50.28 67.95,-49.79 68.89,-49.30 69.61,-48.54 70.34,-47.78 70.79,-46.82 71.23,-45.87 71.35,-44.82 71.47,-43.77 71.24,-42.74 71.02,-41.71 70.48,-40.81 69.94,-39.90 69.14,-39.22 68.34,-38.53 67.36,-38.14 66.38,-37.75 65.33,-37.69 64.28,-37.63 63.26,-37.90 62.24,-38.18 61.37,-38.77 60.50,-39.36 59.86,-40.20 59.22,-41.03 59.22,-41.03 59.22,-41.03 58.40,-43.19 57.58,-45.34 57.09,-47.60 56.59,-49.86 55.88,-52.23 55.16,-54.59 54.12,-56.54 53.09,-58.50 52.50,-61.15 51.91,-63.79 52.04,-66.46 52.17,-69.13 53.02,-71.88 53.87,-74.63 51.79,-77.03 49.71,-79.43 48.19,-81.09 46.66,-82.75 44.84,-85.24 43.02,-87.73 40.04,-91.58 37.06,-95.42 33.34,-100.21 29.63,-104.99 25.93,-110.00 22.23,-115.00 18.92,-120.07 15.61,-125.14 11.66,-129.60 7.72,-134.06 5.69,-137.49 3.66,-140.92 2.45,-144.46 1.25,-148.00 1.49,-148.47 1.73,-148.95 2.07,-149.35 2.42,-149.75 2.85,-150.06 3.29,-150.36 3.78,-150.56 4.27,-150.75 4.80,-150.83 5.33,-150.90 5.85,-150.84 6.38,-150.78 6.88,-150.60 7.38,-150.42 7.82,-150.13 8.26,-149.83 8.62,-149.44 8.98,-149.05 9.23,-148.58 9.48,-148.11 9.62,-147.60 9.75,-147.09 9.76,-146.55 9.76,-146.02 9.64,-145.51 9.52,-144.99 8.50,-143.53 7.47,-142.08 5.80,-139.81 4.12,-137.55 3.49,-134.91 2.86,-132.28 2.78,-128.42 2.71,-124.56 2.73,-118.42 2.74,-112.29 2.77,-104.17 2.79,-96.05 2.82,-85.85 2.85,-75.65 2.90,-62.51 2.94,-49.37 3.00,-38.26 3.06,-27.15 3.14,-20.63 3.22,-14.11 3.33,-7.05 3.44,0 3.39,0.41 3.34,0.82 3.20,1.21 3.05,1.60 2.81,1.94 2.58,2.28 2.27,2.56 1.95,2.83 1.59,3.03 1.22,3.22 0.81,3.32 0.41,3.42 -0.00,3.42 -0.41,3.42 -0.81,3.32 -1.22,3.22 -1.59,3.03 -1.95,2.83 -2.27,2.56 -2.58,2.28 -2.81,1.94 -3.05,1.60 -3.20,1.21 -3.34,0.82 -3.39,0.41 -3.44,-0.00 -3.44,-0.00 L -3.44,0 Z"></path></g><g transform="translate(335.8094915207603 211.19276588978482) rotate(0 90.03149328510153 -75.58464869096156)" stroke="none"><path fill="#1e1e1e" d="M -2.90,-1.13 Q -2.90,-1.13 0.26,-9.06 3.43,-16.98 8.94,-28.03 14.44,-39.09 25.22,-55.63 36.01,-72.17 50.26,-91.49 64.51,-110.81 79.38,-126.74 94.26,-142.67 108.23,-154.54 122.20,-166.41 133.26,-175.13 144.33,-183.86 152.89,-189.51 161.44,-195.15 165.80,-197.58 170.15,-200.00 172.78,-201.31 175.41,-202.62 178.32,-201.61 181.22,-200.60 182.07,-196.66 182.91,-192.72 182.99,-187.51 183.07,-182.30 183.06,-174.39 183.05,-166.47 182.17,-152.98 181.29,-139.50 180.18,-126.70 179.07,-113.91 177.73,-100.05 176.40,-86.19 174.01,-66.02 171.61,-45.85 169.87,-31.57 168.12,-17.29 166.66,-5.50 165.19,6.28 163.37,14.94 161.54,23.59 160.30,29.09 159.07,34.59 157.78,38.38 156.49,42.17 156.20,44.30 155.91,46.42 155.10,48.55 154.28,50.68 153.97,51.15 153.65,51.63 153.20,51.98 152.74,52.33 152.20,52.52 151.66,52.70 151.09,52.71 150.52,52.71 149.97,52.54 149.43,52.36 148.97,52.02 148.51,51.67 148.19,51.20 147.86,50.73 147.71,50.18 147.55,49.63 147.57,49.06 147.60,48.49 147.81,47.96 148.01,47.42 148.38,46.98 148.75,46.54 149.24,46.24 149.72,45.95 150.28,45.82 150.84,45.69 151.41,45.75 151.98,45.80 152.50,46.04 153.02,46.28 153.44,46.67 153.86,47.06 154.13,47.56 154.40,48.06 154.50,48.63 154.60,49.19 154.51,49.76 154.42,50.32 154.16,50.83 153.89,51.34 153.48,51.73 153.07,52.13 152.55,52.37 152.03,52.62 151.47,52.69 150.90,52.75 150.34,52.63 149.78,52.52 149.29,52.22 148.79,51.93 148.42,51.50 148.04,51.07 147.83,50.54 147.61,50.01 147.58,49.44 147.54,48.87 147.69,48.31 147.84,47.76 147.84,47.76 147.84,47.76 148.66,46.26 149.49,44.77 150.32,42.49 151.16,40.21 152.51,36.82 153.87,33.42 155.08,27.95 156.30,22.48 158.07,14.05 159.84,5.62 161.28,-6.15 162.71,-17.94 164.42,-32.22 166.12,-46.50 168.46,-66.61 170.80,-86.71 172.06,-100.55 173.32,-114.39 174.33,-127.12 175.34,-139.86 176.08,-153.13 176.83,-166.41 176.66,-174.23 176.49,-182.05 176.18,-186.95 175.88,-191.84 176.63,-194.31 177.38,-196.77 175.06,-196.06 172.73,-195.36 168.55,-193.03 164.38,-190.70 156.01,-185.18 147.65,-179.65 136.67,-170.97 125.70,-162.30 111.97,-150.62 98.24,-138.95 83.60,-123.24 68.96,-107.53 54.85,-88.31 40.74,-69.10 30.18,-52.81 19.62,-36.53 14.31,-25.66 9.00,-14.80 5.95,-6.83 2.90,1.13 2.73,1.47 2.55,1.80 2.29,2.08 2.04,2.36 1.73,2.57 1.42,2.78 1.06,2.91 0.71,3.04 0.34,3.08 -0.03,3.12 -0.40,3.07 -0.78,3.02 -1.13,2.88 -1.48,2.75 -1.78,2.53 -2.09,2.31 -2.34,2.03 -2.59,1.74 -2.76,1.41 -2.93,1.07 -3.01,0.70 -3.10,0.34 -3.10,-0.03 -3.09,-0.41 -3.00,-0.77 -2.90,-1.13 -2.90,-1.13 L -2.90,-1.13 Z"></path></g><g transform="translate(220.25862372108168 350.9192545729188) rotate(0 21.67325301039 -10.702251142083242)" stroke="none"><path fill="#1e1e1e" d="M 2.36,-3.21 Q 2.36,-3.21 5.02,-1.29 7.68,0.61 9.84,1.65 12.01,2.69 14.29,2.97 16.57,3.25 19.01,3.54 21.45,3.83 23.85,1.78 26.26,-0.26 29.84,-4.68 33.43,-9.10 36.05,-13.58 38.68,-18.05 40.61,-21.36 42.55,-24.68 43.58,-26.60 44.61,-28.51 43.47,-26.72 42.33,-24.92 40.03,-24.76 37.73,-24.59 32.88,-24.22 28.04,-23.85 23.30,-22.84 18.55,-21.84 13.94,-20.05 9.32,-18.27 6.10,-16.67 2.88,-15.07 0.85,-13.87 -1.16,-12.67 -1.98,-12.34 -2.80,-12.01 -3.30,-11.83 -3.80,-11.64 -4.32,-11.59 -4.85,-11.53 -5.38,-11.60 -5.90,-11.67 -6.39,-11.87 -6.88,-12.06 -7.32,-12.37 -7.75,-12.67 -8.09,-13.07 -8.44,-13.48 -8.68,-13.95 -8.92,-14.42 -9.04,-14.93 -9.16,-15.45 -9.15,-15.98 -9.14,-16.51 -9.01,-17.02 -8.88,-17.53 -8.62,-18.00 -8.37,-18.46 -8.02,-18.86 -7.66,-19.25 -7.22,-19.54 -6.78,-19.84 -2.61,-13.84 1.55,-7.84 1.62,-7.24 1.70,-6.64 1.59,-6.05 1.47,-5.45 1.17,-4.93 0.87,-4.40 0.41,-4.00 -0.03,-3.59 -0.59,-3.36 -1.15,-3.12 -1.75,-3.08 -2.36,-3.03 -2.95,-3.18 -3.53,-3.33 -4.04,-3.66 -4.55,-3.99 -4.93,-4.46 -5.31,-4.94 -5.51,-5.51 -5.72,-6.08 -5.73,-6.68 -5.74,-7.29 -5.56,-7.87 -5.38,-8.45 -5.03,-8.94 -4.67,-9.43 -4.18,-9.78 -3.68,-10.13 -3.10,-10.31 -2.52,-10.48 -1.91,-10.46 -1.31,-10.44 -0.74,-10.23 -0.17,-10.02 0.29,-9.63 0.76,-9.25 1.08,-8.74 1.41,-8.23 1.55,-7.64 1.69,-7.05 1.64,-6.44 1.59,-5.84 1.35,-5.28 1.10,-4.73 0.70,-4.28 0.29,-3.83 -0.23,-3.53 -0.76,-3.24 -1.36,-3.13 -1.95,-3.02 -2.55,-3.10 -3.15,-3.19 -3.70,-3.46 -4.24,-3.73 -4.66,-4.16 -5.09,-4.59 -5.36,-5.14 -5.62,-5.68 -5.62,-5.68 -5.62,-5.68 -4.21,-8.84 -2.80,-12.01 -3.30,-11.83 -3.80,-11.64 -4.32,-11.59 -4.85,-11.53 -5.37,-11.60 -5.90,-11.67 -6.39,-11.87 -6.88,-12.06 -7.32,-12.37 -7.75,-12.67 -8.09,-13.07 -8.44,-13.48 -8.68,-13.95 -8.92,-14.42 -9.04,-14.93 -9.16,-15.45 -9.15,-15.98 -9.14,-16.51 -9.01,-17.02 -8.88,-17.53 -8.62,-18.00 -8.37,-18.46 -8.02,-18.86 -7.66,-19.25 -7.22,-19.54 -6.78,-19.84 -5.83,-19.96 -4.89,-20.09 -2.75,-21.01 -0.62,-21.92 2.77,-23.71 6.17,-25.49 11.18,-27.92 16.20,-30.34 21.44,-32.08 26.69,-33.83 30.48,-34.46 34.26,-35.09 37.28,-34.89 40.30,-34.69 43.00,-34.34 45.70,-33.99 48.83,-31.70 51.96,-29.42 50.15,-25.35 48.34,-21.28 46.42,-18.03 44.51,-14.79 41.81,-9.74 39.11,-4.69 35.11,0.63 31.10,5.97 26.70,9.10 22.30,12.22 18.62,12.04 14.93,11.86 11.50,11.05 8.06,10.23 5.47,8.69 2.88,7.15 0.25,5.18 -2.36,3.21 -2.71,2.88 -3.06,2.55 -3.32,2.15 -3.58,1.74 -3.74,1.29 -3.90,0.83 -3.94,0.35 -3.98,-0.12 -3.91,-0.59 -3.84,-1.07 -3.66,-1.51 -3.47,-1.96 -3.19,-2.34 -2.90,-2.73 -2.53,-3.04 -2.16,-3.35 -1.73,-3.56 -1.30,-3.77 -0.83,-3.87 -0.36,-3.97 0.12,-3.96 0.60,-3.94 1.06,-3.81 1.52,-3.68 1.94,-3.45 2.36,-3.21 2.36,-3.21 L 2.36,-3.21 Z"></path></g><g transform="translate(348.7573042864051 334.04170896604) rotate(0 16.81185098491278 3.5295928710775115)" stroke="none"><path fill="#1e1e1e" d="M 4.91,0 Q 4.91,0 4.61,5.44 4.31,10.89 5.03,13.87 5.75,16.86 8.28,18.66 10.81,20.46 14.75,17.11 18.68,13.76 20.28,11.46 21.88,9.16 23.35,6.91 24.81,4.67 26.35,2.96 27.88,1.26 27.85,-2.05 27.81,-5.37 27.74,-7.73 27.67,-10.08 25.23,-10.91 22.79,-11.73 20.51,-12.61 18.23,-13.48 16.02,-12.99 13.82,-12.50 10.82,-8.51 7.82,-4.51 7.35,-3.77 6.88,-3.02 6.19,-2.47 5.51,-1.91 4.69,-1.60 3.86,-1.30 2.98,-1.27 2.10,-1.24 1.26,-1.49 0.42,-1.75 -0.29,-2.26 -1.01,-2.76 -1.53,-3.48 -2.04,-4.19 -2.31,-5.03 -2.57,-5.87 -2.55,-6.75 -2.53,-7.63 -2.23,-8.46 -1.93,-9.28 -1.39,-9.97 -0.84,-10.66 -0.10,-11.14 0.63,-11.62 1.48,-11.84 2.33,-12.05 3.21,-11.99 4.09,-11.92 4.90,-11.58 5.71,-11.23 6.37,-10.65 7.03,-10.06 7.46,-9.30 7.90,-8.54 8.07,-7.67 8.24,-6.81 8.13,-5.94 8.02,-5.06 7.63,-4.27 7.24,-3.48 6.62,-2.86 6.00,-2.23 5.22,-1.84 4.43,-1.44 3.56,-1.32 2.69,-1.19 1.82,-1.36 0.96,-1.52 0.19,-1.95 -0.57,-2.37 -1.16,-3.03 -1.75,-3.68 -2.10,-4.48 -2.46,-5.29 -2.53,-6.17 -2.61,-7.05 -2.40,-7.90 -2.19,-8.76 -2.19,-8.76 -2.19,-8.75 0.27,-14.59 2.74,-20.42 5.81,-22.14 8.88,-23.86 11.92,-24.85 14.95,-25.84 18.17,-25.45 21.39,-25.06 25.03,-23.44 28.67,-21.82 31.26,-20.31 33.85,-18.81 36.01,-16.30 38.17,-13.78 38.65,-9.30 39.13,-4.81 38.97,-2.58 38.81,-0.34 38.31,2.15 37.80,4.65 35.60,7.49 33.39,10.34 31.88,12.64 30.37,14.95 28.70,17.44 27.04,19.93 25.18,22.65 23.33,25.37 20.73,28.12 18.13,30.87 15.70,31.36 13.27,31.86 9.91,30.62 6.56,29.39 4.20,27.05 1.85,24.71 -0.11,22.00 -2.08,19.30 -3.20,15.13 -4.31,10.96 -4.61,5.48 -4.91,0 -4.84,-0.58 -4.77,-1.17 -4.56,-1.72 -4.35,-2.28 -4.01,-2.77 -3.67,-3.25 -3.23,-3.65 -2.79,-4.04 -2.26,-4.31 -1.74,-4.59 -1.16,-4.73 -0.59,-4.87 0.00,-4.87 0.59,-4.87 1.16,-4.73 1.74,-4.59 2.26,-4.31 2.79,-4.04 3.23,-3.65 3.67,-3.25 4.01,-2.77 4.35,-2.28 4.56,-1.72 4.77,-1.17 4.84,-0.58 4.91,0.00 4.91,0.00 L 4.91,0 Z"></path></g><g transform="translate(307.56080407541776 393.0713129215919) rotate(0 6.306683708727633 11.14419678076274)" stroke="none"><path fill="#1e1e1e" d="M 0,-5.18 Q 0,-5.18 2.21,-5.23 4.42,-5.28 7.32,-5.49 10.21,-5.70 13.22,-4.53 16.22,-3.36 17.72,-1.06 19.21,1.23 19.44,4.20 19.68,7.16 19.71,10.51 19.74,13.86 19.79,16.30 19.85,18.73 18.24,22.41 16.63,26.09 14.43,27.17 12.24,28.26 9.86,28.59 7.49,28.93 4.38,28.77 1.26,28.62 -1.11,27.33 -3.49,26.04 -5.27,23.22 -7.05,20.39 -7.43,17.82 -7.82,15.25 -7.87,12.87 -7.91,10.48 -7.94,8.33 -7.97,6.17 -7.69,3.67 -7.42,1.18 -7.06,0.07 -6.71,-1.02 -6.02,-1.95 -5.33,-2.89 -4.38,-3.55 -3.43,-4.21 -2.32,-4.54 -1.20,-4.87 -0.05,-4.82 1.10,-4.77 2.18,-4.36 3.27,-3.94 4.16,-3.21 5.06,-2.47 5.67,-1.48 6.28,-0.50 6.54,0.62 6.81,1.75 6.70,2.90 6.59,4.06 6.12,5.11 5.65,6.17 4.86,7.03 4.08,7.88 3.06,8.44 2.04,8.99 0.90,9.20 -0.23,9.40 -1.38,9.23 -2.52,9.06 -3.55,8.53 -4.59,8.00 -5.40,7.17 -6.20,6.34 -6.71,5.29 -7.21,4.25 -7.35,3.10 -7.49,1.95 -7.26,0.81 -7.02,-0.31 -6.44,-1.31 -5.85,-2.32 -4.98,-3.08 -4.11,-3.84 -3.04,-4.29 -1.97,-4.73 -0.81,-4.81 0.34,-4.89 1.46,-4.59 2.58,-4.30 3.55,-3.66 4.52,-3.02 5.23,-2.11 5.94,-1.20 6.33,-0.10 6.71,0.98 6.73,2.14 6.75,3.30 6.75,3.30 6.75,3.30 6.56,5.27 6.37,7.24 6.35,9.49 6.32,11.75 6.66,14.28 7.01,16.81 7.03,13.47 7.05,10.12 8.63,7.91 10.21,5.70 7.32,5.49 4.42,5.28 2.21,5.23 0,5.18 -0.62,5.10 -1.24,5.03 -1.82,4.80 -2.40,4.58 -2.92,4.23 -3.43,3.87 -3.85,3.41 -4.26,2.94 -4.55,2.39 -4.84,1.83 -4.99,1.23 -5.14,0.62 -5.14,-0.00 -5.14,-0.62 -4.99,-1.23 -4.84,-1.83 -4.55,-2.39 -4.26,-2.94 -3.85,-3.41 -3.43,-3.87 -2.92,-4.23 -2.40,-4.58 -1.82,-4.80 -1.23,-5.03 -0.61,-5.10 0.00,-5.18 0.00,-5.18 L 0,-5.18 Z"></path></g><g transform="translate(286.8490814410743 414.79831607722735) rotate(0 -117.55156765045831 0)" stroke="none"><path fill="#1e1e1e" d="M 0,3.59 Q 0,3.59 -25.42,3.46 -50.85,3.33 -75.10,3.23 -99.35,3.14 -127.18,3.07 -155.00,3.00 -175.26,2.94 -195.51,2.89 -206.22,2.86 -216.93,2.82 -222.15,2.79 -227.38,2.76 -229.60,3.01 -231.82,3.26 -232.34,3.17 -232.86,3.09 -233.32,2.84 -233.79,2.59 -234.15,2.21 -234.52,1.83 -234.74,1.35 -234.96,0.87 -235.02,0.34 -235.07,-0.17 -234.96,-0.69 -234.85,-1.20 -234.58,-1.66 -234.30,-2.11 -233.90,-2.45 -233.50,-2.79 -233.01,-2.99 -232.52,-3.18 -231.99,-3.21 -231.46,-3.24 -230.95,-3.10 -230.45,-2.96 -230.01,-2.66 -229.57,-2.36 -229.25,-1.94 -228.93,-1.52 -228.76,-1.02 -228.60,-0.52 -228.60,0.00 -228.60,0.52 -228.76,1.02 -228.93,1.52 -229.25,1.94 -229.57,2.36 -230.01,2.66 -230.45,2.96 -230.95,3.10 -231.46,3.24 -231.99,3.21 -232.52,3.18 -233.01,2.99 -233.50,2.79 -233.90,2.45 -234.30,2.11 -234.58,1.65 -234.85,1.20 -234.96,0.69 -235.07,0.17 -235.02,-0.34 -234.96,-0.87 -234.74,-1.35 -234.52,-1.83 -234.15,-2.21 -233.79,-2.59 -233.32,-2.84 -232.86,-3.09 -232.34,-3.17 -231.81,-3.26 -231.82,-3.26 -231.82,-3.26 -229.60,-3.01 -227.38,-2.76 -222.15,-2.79 -216.93,-2.82 -206.22,-2.86 -195.51,-2.89 -175.26,-2.94 -155.00,-3.00 -127.18,-3.07 -99.35,-3.14 -75.10,-3.23 -50.85,-3.33 -25.42,-3.46 0,-3.59 0.43,-3.54 0.86,-3.48 1.26,-3.33 1.67,-3.18 2.02,-2.93 2.38,-2.68 2.67,-2.36 2.95,-2.04 3.15,-1.65 3.36,-1.27 3.46,-0.85 3.56,-0.43 3.56,0.00 3.56,0.43 3.46,0.85 3.36,1.27 3.15,1.65 2.95,2.04 2.67,2.36 2.38,2.69 2.02,2.93 1.66,3.18 1.26,3.33 0.85,3.48 0.42,3.54 -0.00,3.59 -0.00,3.59 L 0,3.59 Z"></path></g><g transform="translate(256.4623326626588 440.9089421894969) rotate(0 -123.2311663313294 42.50442041194492)" stroke="none"><path fill="#1e1e1e" d="M 0.27,3.40 Q 0.27,3.40 -11.81,4.26 -23.91,5.13 -40.45,9.31 -56.99,13.49 -74.09,18.87 -91.20,24.24 -115.03,35.19 -138.86,46.14 -156.71,53.37 -174.57,60.60 -190.81,67.28 -207.06,73.96 -217.19,77.86 -227.33,81.76 -232.63,83.44 -237.93,85.11 -240.07,86.06 -242.21,87.00 -242.72,87.08 -243.23,87.15 -243.74,87.06 -244.25,86.97 -244.70,86.72 -245.15,86.47 -245.50,86.09 -245.85,85.71 -246.06,85.23 -246.27,84.76 -246.31,84.25 -246.36,83.73 -246.24,83.23 -246.12,82.73 -245.85,82.29 -245.57,81.85 -245.17,81.53 -244.78,81.20 -244.29,81.02 -243.81,80.83 -243.29,80.82 -242.78,80.80 -242.28,80.94 -241.79,81.09 -241.37,81.39 -240.94,81.68 -240.64,82.10 -240.33,82.52 -240.18,83.01 -240.02,83.50 -240.03,84.02 -240.04,84.53 -240.21,85.02 -240.39,85.51 -240.71,85.91 -241.02,86.32 -241.46,86.60 -241.89,86.88 -242.39,87.01 -242.89,87.14 -243.40,87.10 -243.92,87.07 -244.39,86.87 -244.87,86.67 -245.26,86.33 -245.65,85.98 -245.90,85.54 -246.16,85.09 -246.26,84.58 -246.37,84.08 -246.30,83.57 -246.24,83.05 -246.01,82.59 -245.79,82.13 -245.43,81.76 -245.06,81.39 -244.60,81.15 -244.14,80.92 -244.14,80.92 -244.14,80.92 -241.85,80.46 -239.56,79.99 -234.42,78.35 -229.28,76.71 -219.21,72.80 -209.15,68.89 -192.91,62.17 -176.67,55.44 -158.96,48.21 -141.24,40.97 -117.11,29.82 -92.97,18.66 -75.74,13.13 -58.50,7.59 -41.47,3.17 -24.43,-1.24 -12.35,-2.32 -0.27,-3.40 0.13,-3.38 0.54,-3.36 0.94,-3.25 1.33,-3.13 1.69,-2.93 2.05,-2.72 2.34,-2.44 2.64,-2.15 2.86,-1.80 3.08,-1.46 3.21,-1.07 3.34,-0.68 3.37,-0.27 3.40,0.13 3.34,0.54 3.27,0.95 3.11,1.32 2.95,1.70 2.70,2.03 2.45,2.36 2.14,2.62 1.82,2.88 1.45,3.06 1.07,3.23 0.67,3.31 0.27,3.40 0.27,3.40 L 0.27,3.40 Z"></path></g><g transform="translate(282.76407040246613 436.7403198138418) rotate(0 -62.720447262363905 68.64490771601731)" stroke="none"><path fill="#1e1e1e" d="M 2.91,2.17 Q 2.91,2.17 -1.90,8.41 -6.72,14.64 -14.81,23.29 -22.89,31.94 -32.78,44.20 -42.67,56.46 -54.62,69.41 -66.58,82.36 -79.05,95.10 -91.52,107.85 -99.77,116.19 -108.01,124.54 -112.19,128.75 -116.37,132.96 -119.23,135.74 -122.08,138.51 -122.51,138.78 -122.94,139.05 -123.44,139.17 -123.93,139.29 -124.44,139.24 -124.94,139.19 -125.40,138.99 -125.87,138.78 -126.24,138.44 -126.62,138.10 -126.86,137.65 -127.11,137.21 -127.20,136.71 -127.29,136.21 -127.21,135.71 -127.14,135.20 -126.91,134.75 -126.68,134.30 -126.32,133.94 -125.95,133.59 -125.50,133.37 -125.04,133.15 -124.54,133.09 -124.03,133.02 -123.53,133.12 -123.04,133.22 -122.60,133.48 -122.16,133.73 -121.82,134.11 -121.49,134.50 -121.29,134.96 -121.10,135.43 -121.06,135.94 -121.03,136.45 -121.16,136.94 -121.28,137.43 -121.56,137.85 -121.84,138.28 -122.24,138.59 -122.64,138.90 -123.12,139.07 -123.59,139.24 -124.10,139.25 -124.61,139.26 -125.09,139.11 -125.58,138.95 -125.98,138.65 -126.39,138.35 -126.68,137.93 -126.98,137.52 -127.12,137.03 -127.26,136.55 -127.24,136.04 -127.22,135.53 -127.04,135.06 -126.86,134.58 -126.54,134.19 -126.22,133.80 -126.22,133.80 -126.22,133.80 -123.24,131.46 -120.27,129.12 -116.12,124.88 -111.97,120.64 -103.77,112.27 -95.58,103.90 -83.22,91.16 -70.86,78.42 -59.12,65.56 -47.38,52.70 -37.46,40.18 -27.55,27.66 -19.83,19.14 -12.11,10.62 -7.51,4.22 -2.91,-2.17 -2.61,-2.49 -2.30,-2.80 -1.94,-3.04 -1.57,-3.27 -1.15,-3.41 -0.74,-3.55 -0.30,-3.59 0.13,-3.63 0.56,-3.56 0.99,-3.49 1.40,-3.32 1.80,-3.15 2.15,-2.89 2.50,-2.63 2.78,-2.29 3.06,-1.95 3.25,-1.55 3.44,-1.16 3.53,-0.73 3.62,-0.30 3.60,0.13 3.59,0.57 3.47,0.99 3.35,1.41 3.13,1.79 2.91,2.17 2.91,2.17 L 2.91,2.17 Z"></path></g><g transform="translate(345.5322955717147 405.7324582459314) rotate(0 117.86809628356696 0)" stroke="none"><path fill="#1e1e1e" d="M 0,-3.44 Q 0,-3.44 6.15,-3.33 12.31,-3.22 23.35,-3.14 34.38,-3.06 63.50,-3.00 92.62,-2.94 117.68,-2.89 142.73,-2.85 165.02,-2.82 187.31,-2.79 199.47,-2.77 211.63,-2.74 218.56,-2.73 225.49,-2.71 228.43,-2.92 231.38,-3.13 231.88,-3.05 232.38,-2.97 232.83,-2.73 233.28,-2.49 233.63,-2.12 233.98,-1.76 234.19,-1.30 234.40,-0.83 234.46,-0.33 234.51,0.17 234.40,0.66 234.29,1.16 234.03,1.59 233.77,2.03 233.38,2.36 233.00,2.68 232.52,2.87 232.05,3.06 231.55,3.09 231.04,3.11 230.55,2.98 230.06,2.84 229.64,2.56 229.22,2.27 228.91,1.87 228.61,1.46 228.44,0.98 228.28,0.50 228.28,-0.00 228.28,-0.50 228.44,-0.98 228.61,-1.47 228.91,-1.87 229.22,-2.27 229.64,-2.56 230.06,-2.84 230.55,-2.98 231.04,-3.11 231.55,-3.09 232.05,-3.06 232.52,-2.87 233.00,-2.68 233.38,-2.35 233.77,-2.03 234.03,-1.59 234.29,-1.16 234.40,-0.66 234.51,-0.16 234.46,0.33 234.40,0.84 234.19,1.30 233.97,1.76 233.63,2.13 233.28,2.49 232.83,2.73 232.38,2.97 231.88,3.05 231.38,3.13 231.38,3.13 231.38,3.13 228.43,2.92 225.49,2.71 218.56,2.73 211.63,2.74 199.47,2.77 187.31,2.79 165.02,2.82 142.73,2.85 117.68,2.89 92.62,2.94 63.50,3.00 34.38,3.06 23.35,3.14 12.31,3.22 6.15,3.33 0,3.44 -0.41,3.39 -0.82,3.34 -1.21,3.19 -1.60,3.05 -1.94,2.81 -2.28,2.57 -2.56,2.26 -2.83,1.95 -3.02,1.58 -3.22,1.22 -3.32,0.81 -3.42,0.41 -3.42,-0.00 -3.42,-0.41 -3.32,-0.81 -3.22,-1.22 -3.02,-1.58 -2.83,-1.95 -2.56,-2.26 -2.28,-2.57 -1.94,-2.81 -1.60,-3.05 -1.21,-3.19 -0.82,-3.34 -0.41,-3.39 0.00,-3.44 0.00,-3.44 L 0,-3.44 Z"></path></g><g transform="translate(352.4839810233807 427.92529599368845) rotate(0 62.35016848401074 17.09851842621856)" stroke="none"><path fill="#1e1e1e" d="M 0,-3.68 Q 0,-3.68 6.89,-3.54 13.79,-3.40 27.51,-1.07 41.24,1.24 53.08,4.56 64.92,7.88 76.27,12.61 87.63,17.33 96.10,20.49 104.57,23.64 109.94,25.59 115.31,27.54 119.66,29.00 124.00,30.47 124.45,30.73 124.90,31.00 125.24,31.39 125.58,31.79 125.77,32.27 125.97,32.75 126.00,33.27 126.03,33.79 125.90,34.29 125.76,34.80 125.47,35.23 125.18,35.66 124.77,35.98 124.36,36.30 123.87,36.47 123.37,36.64 122.85,36.64 122.33,36.64 121.84,36.48 121.34,36.32 120.93,36.01 120.51,35.69 120.21,35.26 119.92,34.84 119.78,34.34 119.63,33.83 119.66,33.31 119.68,32.79 119.87,32.31 120.06,31.82 120.40,31.43 120.73,31.03 121.18,30.75 121.62,30.48 122.13,30.37 122.63,30.25 123.15,30.31 123.67,30.36 124.14,30.57 124.62,30.79 125.00,31.14 125.38,31.50 125.63,31.96 125.87,32.42 125.96,32.93 126.05,33.44 125.97,33.96 125.89,34.47 125.65,34.93 125.41,35.39 125.03,35.75 124.65,36.12 124.18,36.34 123.71,36.56 123.20,36.62 122.68,36.68 122.17,36.57 121.66,36.46 121.66,36.46 121.66,36.46 117.55,34.62 113.44,32.79 108.02,30.88 102.61,28.98 94.00,25.86 85.40,22.74 74.35,18.24 63.31,13.74 51.76,10.64 40.21,7.54 26.99,5.47 13.77,3.40 6.88,3.54 0,3.68 -0.44,3.63 -0.88,3.58 -1.29,3.42 -1.71,3.26 -2.07,3.01 -2.44,2.76 -2.74,2.42 -3.03,2.09 -3.24,1.70 -3.44,1.30 -3.55,0.87 -3.66,0.44 -3.66,-0.00 -3.66,-0.44 -3.55,-0.87 -3.44,-1.30 -3.24,-1.70 -3.03,-2.09 -2.73,-2.42 -2.44,-2.76 -2.07,-3.01 -1.71,-3.26 -1.29,-3.42 -0.88,-3.58 -0.44,-3.63 0.00,-3.68 0.00,-3.68 L 0,-3.68 Z"></path></g><g transform="translate(346.5475760930058 409.2919123088118) rotate(0 94.18817118403604 -38.32385355956876)" stroke="none"><path fill="#1e1e1e" d="M 0,-3.30 Q 0,-3.30 4.64,-3.21 9.29,-3.11 22.70,-4.97 36.11,-6.83 51.17,-10.94 66.24,-15.04 80.99,-20.95 95.75,-26.85 109.58,-33.54 123.41,-40.23 134.29,-45.92 145.17,-51.61 152.49,-55.54 159.81,-59.46 164.23,-61.62 168.65,-63.77 171.74,-65.30 174.83,-66.84 176.57,-68.37 178.30,-69.90 180.29,-71.13 182.27,-72.37 183.37,-74.29 184.48,-76.20 184.02,-76.41 183.56,-76.61 183.77,-77.35 183.97,-78.10 184.40,-78.74 184.84,-79.38 185.45,-79.85 186.07,-80.32 186.80,-80.57 187.53,-80.82 188.31,-80.82 189.08,-80.82 189.81,-80.57 190.55,-80.33 191.16,-79.86 191.78,-79.39 192.21,-78.76 192.65,-78.12 192.86,-77.37 193.07,-76.63 193.02,-75.85 192.98,-75.08 192.70,-74.36 192.41,-73.64 191.91,-73.05 191.41,-72.46 190.75,-72.06 190.09,-71.66 189.34,-71.50 188.58,-71.33 187.81,-71.41 187.04,-71.49 186.34,-71.82 185.64,-72.14 185.07,-72.67 184.51,-73.20 184.15,-73.88 183.79,-74.57 183.66,-75.33 183.53,-76.09 183.66,-76.86 183.78,-77.62 184.14,-78.30 184.50,-78.99 185.06,-79.52 185.62,-80.05 186.33,-80.38 187.03,-80.71 187.80,-80.79 188.56,-80.88 189.32,-80.71 190.08,-80.54 190.74,-80.15 191.40,-79.75 191.90,-79.16 192.41,-78.57 192.69,-77.85 192.98,-77.14 193.02,-76.36 193.07,-75.59 193.07,-75.59 193.07,-75.59 191.00,-72.11 188.94,-68.62 185.60,-66.47 182.27,-64.32 179.77,-62.84 177.27,-61.36 174.14,-60.16 171.00,-58.95 166.68,-56.83 162.37,-54.71 155.04,-50.75 147.71,-46.78 136.77,-41.02 125.82,-35.26 111.84,-28.44 97.85,-21.63 82.81,-15.55 67.77,-9.48 52.36,-5.20 36.95,-0.92 23.13,1.09 9.30,3.11 4.65,3.21 0,3.30 -0.39,3.25 -0.79,3.20 -1.16,3.06 -1.53,2.92 -1.86,2.69 -2.19,2.47 -2.45,2.17 -2.71,1.87 -2.90,1.52 -3.08,1.17 -3.18,0.78 -3.27,0.39 -3.27,-0.00 -3.27,-0.39 -3.18,-0.78 -3.08,-1.17 -2.90,-1.52 -2.71,-1.87 -2.45,-2.17 -2.19,-2.47 -1.86,-2.69 -1.53,-2.92 -1.16,-3.06 -0.79,-3.20 -0.39,-3.25 0.00,-3.30 0.00,-3.30 L 0,-3.30 Z"></path></g></svg>