<?xml version="1.0" standalone="no"?>
<!DOCTYPE svg PUBLIC "-//W3C//DTD SVG 1.1//EN" "http://www.w3.org/Graphics/SVG/1.1/DTD/svg11.dtd">
<svg version="1.1" xmlns="http://www.w3.org/2000/svg" viewBox="0 0 365.53481113933594 344.6957927461733" width="1096.6044334180078" height="1034.08737823852" filter="invert(93%) hue-rotate(180deg)"><!-- svg-source:excalidraw --><metadata></metadata><defs><style class="style-fonts">
      </style></defs><g transform="translate(42.145888040872705 190.10626716233241) rotate(0 140.62151752879527 29.17127722042369)" stroke="none"><path fill="#1e1e1e" d="M -3.17,0 Q -3.17,0 -3.09,-4.56 -3.02,-9.12 -2.17,-13.13 -1.33,-17.15 0.82,-22.22 2.98,-27.29 6.93,-32.51 10.87,-37.72 15.42,-42.75 19.98,-47.78 25.32,-52.21 30.67,-56.63 36.24,-60.69 41.82,-64.75 48.64,-68.43 55.45,-72.11 63.82,-75.05 72.18,-77.99 81.06,-80.56 89.95,-83.12 99.41,-84.78 108.88,-86.44 118.31,-87.15 127.74,-87.86 137.72,-88.15 147.70,-88.45 154.43,-88.57 161.17,-88.69 167.34,-88.75 173.50,-88.80 177.84,-88.82 182.19,-88.84 186.55,-88.85 190.90,-88.86 194.48,-89.00 198.06,-89.14 201.31,-89.30 204.56,-89.46 208.68,-88.89 212.79,-88.32 216.46,-87.22 220.13,-86.13 224.11,-84.57 228.09,-83.02 232.27,-81.34 236.45,-79.65 240.15,-77.58 243.86,-75.50 247.86,-73.06 251.86,-70.62 256.03,-68.17 260.21,-65.71 263.87,-62.81 267.54,-59.91 270.76,-57.47 273.98,-55.02 276.69,-52.84 279.41,-50.65 281.98,-47.88 284.55,-45.12 286.64,-42.10 288.72,-39.08 290.87,-35.23 293.02,-31.37 295.19,-28.12 297.35,-24.86 299.27,-21.66 301.19,-18.45 303.52,-15.03 305.85,-11.60 307.87,-8.01 309.88,-4.41 311.68,-0.27 313.47,3.85 314.39,7.80 315.32,11.74 315.87,14.25 316.42,16.75 316.45,21.35 316.47,25.94 316.44,30.36 316.41,34.78 316.51,38.39 316.61,42.00 316.74,45.27 316.86,48.54 316.98,51.66 317.09,54.78 317.19,57.84 317.29,60.90 317.36,63.94 317.44,66.97 317.05,70.30 316.65,73.62 315.51,77.20 314.37,80.79 312.99,84.08 311.61,87.36 309.71,90.26 307.81,93.16 306.44,95.06 305.08,96.96 302.50,99.27 299.92,101.58 296.93,103.50 293.93,105.41 290.07,107.39 286.20,109.37 282.05,111.65 277.90,113.93 273.44,115.91 268.98,117.90 265.44,119.60 261.91,121.30 257.77,122.96 253.64,124.63 248.52,126.72 243.39,128.81 238.56,130.27 233.74,131.74 228.45,133.43 223.17,135.11 217.50,136.41 211.83,137.70 206.24,139.31 200.65,140.93 194.73,141.66 188.82,142.39 183.13,143.22 177.43,144.06 172.39,144.42 167.34,144.79 161.88,144.94 156.42,145.09 149.78,145.15 143.13,145.22 136.09,145.79 129.05,146.36 120.60,146.61 112.16,146.86 104.28,146.96 96.40,147.06 88.73,147.11 81.05,147.15 73.47,147.17 65.89,147.19 58.34,147.19 50.80,147.20 44.29,147.21 37.78,147.21 30.59,146.66 23.40,146.10 16.92,144.75 10.44,143.39 5.05,141.36 -0.33,139.33 -4.33,137.60 -8.32,135.88 -11.81,134.38 -15.30,132.88 -18.36,130.90 -21.42,128.92 -23.43,127.57 -25.44,126.21 -27.59,123.99 -29.75,121.76 -32.21,118.61 -34.67,115.46 -35.73,112.33 -36.79,109.20 -37.09,105.36 -37.39,101.51 -37.11,97.39 -36.83,93.26 -36.56,88.23 -36.29,83.19 -36.09,78.54 -35.89,73.89 -35.74,69.41 -35.59,64.92 -35.17,61.08 -34.75,57.23 -33.88,54.12 -33.01,51.00 -31.91,48.39 -30.81,45.78 -29.69,43.83 -28.56,41.89 -27.04,38.48 -25.51,35.08 -24.39,32.50 -23.27,29.93 -22.25,26.56 -21.24,23.20 -19.97,20.62 -18.70,18.03 -17.87,16.02 -17.05,14.01 -15.84,11.02 -14.64,8.03 -12.87,3.36 -11.09,-1.29 -10.19,-3.86 -9.29,-6.42 -8.45,-8.86 -7.61,-11.30 -6.76,-13.92 -5.91,-16.54 -4.66,-19.39 -3.41,-22.23 -2.73,-23.50 -2.04,-24.77 -1.54,-25.63 -1.04,-26.49 -0.29,-27.14 0.46,-27.80 1.38,-28.17 2.30,-28.55 3.29,-28.62 4.28,-28.69 5.24,-28.43 6.21,-28.18 7.04,-27.63 7.87,-27.08 8.48,-26.29 9.09,-25.51 9.42,-24.57 9.75,-23.63 9.76,-22.63 9.77,-21.64 9.47,-20.69 9.16,-19.74 8.57,-18.95 7.97,-18.15 7.16,-17.58 6.34,-17.01 5.38,-16.73 4.43,-16.45 3.43,-16.50 2.44,-16.54 1.51,-16.90 0.58,-17.25 -0.18,-17.89 -0.94,-18.52 -1.47,-19.37 -1.99,-20.22 -2.21,-21.19 -2.44,-22.16 -2.34,-23.15 -2.25,-24.14 -1.84,-25.05 -1.43,-25.95 -0.76,-26.69 -0.08,-27.42 0.78,-27.89 1.66,-28.37 2.64,-28.54 3.62,-28.71 4.60,-28.56 5.59,-28.41 6.47,-27.96 7.36,-27.50 8.05,-26.79 8.74,-26.07 9.17,-25.18 9.60,-24.28 9.72,-23.29 9.84,-22.30 9.63,-21.33 9.43,-20.35 9.43,-20.35 9.43,-20.35 8.51,-18.63 7.58,-16.91 6.23,-14.87 4.88,-12.82 3.86,-10.27 2.84,-7.72 2.05,-5.39 1.26,-3.06 0.34,0.05 -0.56,3.17 -1.49,5.50 -2.42,7.83 -3.57,11.07 -4.73,14.31 -5.83,16.32 -6.92,18.33 -7.92,20.61 -8.92,22.89 -9.92,24.88 -10.93,26.87 -11.79,29.43 -12.66,31.99 -14.39,35.12 -16.12,38.24 -17.63,40.33 -19.15,42.42 -21.33,45.88 -23.52,49.34 -24.69,51.39 -25.86,53.44 -26.83,55.76 -27.81,58.08 -28.25,61.50 -28.69,64.92 -28.54,69.41 -28.38,73.89 -28.18,78.54 -27.97,83.18 -27.70,88.21 -27.42,93.24 -27.16,99.11 -26.91,104.98 -26.93,107.95 -26.96,110.93 -25.45,113.83 -23.94,116.73 -22.44,118.71 -20.94,120.70 -19.36,122.26 -17.77,123.83 -15.33,125.78 -12.89,127.73 -9.57,129.39 -6.24,131.06 -2.35,132.74 1.53,134.41 6.53,136.33 11.53,138.25 17.67,139.56 23.81,140.86 30.80,141.41 37.78,141.95 44.29,141.95 50.79,141.94 58.33,141.93 65.87,141.93 73.45,141.91 81.02,141.89 88.67,141.84 96.33,141.80 104.16,141.69 112.00,141.58 120.31,141.34 128.62,141.09 135.85,140.51 143.08,139.92 149.67,139.85 156.27,139.78 161.61,139.63 166.95,139.47 171.80,139.11 176.65,138.76 182.40,137.89 188.16,137.03 193.65,136.36 199.13,135.68 204.86,134.00 210.58,132.31 216.00,131.03 221.42,129.75 226.71,127.99 232.01,126.22 236.54,124.75 241.07,123.29 246.12,121.08 251.18,118.87 255.09,117.10 258.99,115.33 262.54,113.57 266.08,111.82 270.11,109.75 274.15,107.68 278.15,105.07 282.15,102.45 285.62,100.13 289.10,97.80 291.54,96.27 293.97,94.74 297.40,91.52 300.82,88.31 302.40,86.20 303.97,84.10 305.22,81.16 306.46,78.23 307.42,75.32 308.38,72.41 308.85,69.69 309.32,66.96 309.40,63.94 309.48,60.91 309.57,57.85 309.66,54.79 309.77,51.68 309.87,48.56 309.98,45.30 310.08,42.05 310.13,38.46 310.18,34.87 310.03,30.51 309.89,26.15 309.64,21.92 309.39,17.69 309.29,15.35 309.20,13.02 308.60,9.65 308.00,6.28 306.20,2.45 304.40,-1.37 302.58,-4.67 300.76,-7.98 298.10,-11.56 295.45,-15.15 293.75,-18.23 292.06,-21.31 289.76,-24.70 287.46,-28.09 285.20,-31.70 282.94,-35.32 281.29,-38.05 279.64,-40.78 277.46,-43.37 275.28,-45.97 272.91,-48.25 270.53,-50.53 267.32,-53.04 264.10,-55.54 260.73,-58.17 257.36,-60.80 253.12,-63.20 248.88,-65.60 244.88,-67.91 240.88,-70.22 237.57,-72.11 234.27,-73.99 230.08,-75.52 225.89,-77.04 221.97,-78.39 218.05,-79.74 214.96,-80.85 211.88,-81.96 208.22,-82.49 204.55,-83.02 201.31,-83.17 198.07,-83.33 194.49,-83.46 190.92,-83.60 186.57,-83.59 182.22,-83.58 177.88,-83.55 173.54,-83.53 167.41,-83.47 161.27,-83.42 154.56,-83.29 147.85,-83.17 138.00,-82.87 128.14,-82.58 118.97,-81.89 109.79,-81.21 100.61,-79.61 91.43,-78.00 82.69,-75.46 73.95,-72.93 65.98,-70.14 58.01,-67.36 51.52,-63.85 45.04,-60.34 39.62,-56.36 34.21,-52.37 29.19,-48.19 24.17,-44.01 19.83,-39.12 15.49,-34.23 11.99,-29.59 8.49,-24.95 6.63,-20.33 4.77,-15.70 3.89,-12.39 3.02,-9.08 3.09,-4.54 3.17,0 3.12,0.37 3.07,0.75 2.94,1.11 2.80,1.47 2.59,1.78 2.37,2.10 2.08,2.35 1.80,2.60 1.46,2.78 1.12,2.96 0.75,3.05 0.38,3.14 -0.00,3.14 -0.38,3.14 -0.75,3.05 -1.12,2.96 -1.46,2.78 -1.80,2.60 -2.08,2.35 -2.37,2.10 -2.59,1.78 -2.80,1.47 -2.94,1.11 -3.07,0.75 -3.12,0.37 -3.17,-0.00 -3.17,-0.00 L -3.17,0 Z"></path></g><g transform="translate(62.036156266162834 145.83870050604764) rotate(0 26.514776750379042 -60.31818714335918)" stroke="none"><path fill="#1e1e1e" d="M -3.49,0 Q -3.49,0 -3.37,-5.37 -3.26,-10.74 -3.17,-15.53 -3.08,-20.32 -3.02,-26.52 -2.96,-32.71 -2.91,-37.07 -2.87,-41.43 -2.97,-45.02 -3.08,-48.61 -2.28,-52.27 -1.49,-55.94 0.59,-60.09 2.68,-64.23 4.86,-67.75 7.04,-71.27 9.24,-74.51 11.45,-77.75 13.66,-80.87 15.88,-83.98 18.10,-87.05 20.33,-90.11 22.45,-92.74 24.57,-95.37 26.01,-97.58 27.45,-99.79 28.74,-101.92 30.02,-104.06 31.87,-106.38 33.73,-108.70 35.04,-110.68 36.36,-112.66 38.77,-115.77 41.18,-118.88 43.82,-120.99 46.46,-123.10 51.97,-122.08 57.49,-121.05 57.59,-116.62 57.70,-112.19 57.19,-108.94 56.69,-105.68 55.91,-102.42 55.14,-99.16 54.24,-95.41 53.34,-91.66 51.91,-88.38 50.47,-85.10 49.50,-82.36 48.53,-79.62 47.82,-77.23 47.12,-74.84 46.89,-72.55 46.67,-70.27 45.81,-67.41 44.95,-64.56 44.52,-61.98 44.10,-59.41 44.12,-56.57 44.14,-53.73 44.19,-51.57 44.23,-49.41 44.30,-47.10 44.37,-44.78 43.06,-46.64 41.75,-48.50 44.03,-46.91 46.31,-45.32 48.49,-41.57 50.67,-37.83 51.75,-35.35 52.84,-32.88 53.54,-30.57 54.24,-28.27 54.24,-27.10 54.23,-25.94 53.85,-24.83 53.48,-23.73 52.77,-22.80 52.06,-21.87 51.09,-21.22 50.12,-20.57 48.99,-20.26 47.86,-19.96 46.70,-20.03 45.53,-20.09 44.45,-20.53 43.37,-20.97 42.48,-21.73 41.60,-22.49 41.00,-23.49 40.40,-24.49 40.16,-25.64 39.91,-26.78 40.04,-27.94 40.17,-29.10 40.67,-30.15 41.16,-31.21 41.97,-32.05 42.78,-32.90 43.81,-33.44 44.84,-33.98 46.00,-34.17 47.15,-34.35 48.30,-34.16 49.45,-33.96 50.48,-33.41 51.51,-32.86 52.31,-32.01 53.11,-31.16 53.59,-30.09 54.08,-29.03 54.20,-27.87 54.32,-26.71 54.06,-25.57 53.81,-24.43 53.20,-23.43 52.59,-22.44 51.70,-21.69 50.81,-20.93 49.72,-20.51 48.64,-20.08 47.47,-20.02 46.30,-19.96 45.18,-20.28 44.06,-20.60 43.09,-21.26 42.13,-21.92 41.43,-22.85 40.73,-23.78 40.36,-24.89 39.99,-26.00 39.99,-26.00 39.99,-26.00 39.77,-27.11 39.55,-28.21 38.56,-31.71 37.58,-35.21 35.02,-37.67 32.47,-40.12 31.73,-43.68 30.99,-47.25 31.04,-49.45 31.09,-51.65 31.17,-53.91 31.25,-56.17 31.46,-58.74 31.66,-61.32 32.32,-63.56 32.98,-65.80 34.06,-68.77 35.14,-71.74 35.77,-74.84 36.40,-77.94 37.11,-80.44 37.82,-82.95 38.70,-86.17 39.59,-89.40 40.47,-92.00 41.36,-94.60 42.89,-99.39 44.41,-104.18 44.84,-106.59 45.27,-108.99 45.82,-111.48 46.37,-113.97 46.78,-116.31 47.19,-118.65 50.55,-116.77 53.90,-114.89 51.17,-113.52 48.45,-112.16 46.03,-109.77 43.60,-107.37 41.92,-105.23 40.23,-103.10 38.51,-101.27 36.79,-99.44 35.19,-97.34 33.60,-95.24 31.75,-93.00 29.90,-90.77 27.77,-88.48 25.64,-86.18 23.39,-83.18 21.14,-80.18 18.91,-77.16 16.69,-74.13 14.52,-71.05 12.36,-67.96 10.34,-64.72 8.32,-61.48 6.62,-57.85 4.93,-54.21 4.00,-51.39 3.08,-48.56 2.97,-44.99 2.87,-41.43 2.91,-37.07 2.96,-32.71 3.02,-26.52 3.08,-20.32 3.17,-15.53 3.26,-10.74 3.37,-5.37 3.49,0 3.44,0.41 3.39,0.83 3.24,1.23 3.09,1.62 2.85,1.97 2.61,2.31 2.30,2.59 1.98,2.87 1.61,3.07 1.23,3.26 0.83,3.37 0.42,3.47 -0.00,3.47 -0.42,3.47 -0.83,3.37 -1.24,3.26 -1.61,3.07 -1.98,2.87 -2.30,2.59 -2.61,2.31 -2.85,1.97 -3.09,1.62 -3.24,1.23 -3.39,0.83 -3.44,0.41 -3.49,-0.00 -3.49,-0.00 L -3.49,0 Z"></path></g><g transform="translate(254.2975873439491 101.66042798320973) rotate(0 -26.604070883825898 -33.32903530904332)" stroke="none"><path fill="#1e1e1e" d="M -5.21,0.51 Q -5.21,0.51 -5.44,-2.65 -5.68,-5.83 -5.99,-8.35 -6.31,-10.88 -7.18,-13.77 -8.05,-16.67 -8.87,-19.97 -9.69,-23.26 -10.61,-25.72 -11.53,-28.18 -12.63,-31.87 -13.72,-35.55 -14.72,-37.63 -15.73,-39.70 -17.61,-43.05 -19.50,-46.41 -20.69,-48.30 -21.87,-50.19 -24.16,-52.59 -26.45,-54.99 -29.88,-56.41 -33.32,-57.83 -35.50,-59.08 -37.67,-60.34 -40.27,-60.05 -42.87,-59.76 -45.31,-59.72 -47.76,-59.68 -48.74,-59.67 -49.72,-59.66 -50.80,-59.32 -51.88,-58.98 -53.02,-59.00 -54.15,-59.02 -55.22,-59.40 -56.29,-59.79 -57.18,-60.49 -58.07,-61.19 -58.69,-62.15 -59.31,-63.10 -59.59,-64.20 -59.87,-65.30 -59.79,-66.43 -59.71,-67.56 -59.27,-68.61 -58.83,-69.65 -58.08,-70.50 -57.32,-71.35 -56.34,-71.92 -55.36,-72.49 -54.24,-72.71 -53.13,-72.93 -52.01,-72.79 -50.88,-72.64 -49.86,-72.15 -48.84,-71.65 -48.03,-70.86 -47.22,-70.06 -46.71,-69.05 -46.19,-68.03 -46.03,-66.91 -45.87,-65.79 -46.07,-64.67 -46.28,-63.55 -46.83,-62.56 -47.38,-61.57 -48.22,-60.80 -49.06,-60.04 -50.10,-59.58 -51.14,-59.13 -52.27,-59.03 -53.40,-58.92 -54.50,-59.19 -55.61,-59.45 -56.57,-60.06 -57.53,-60.66 -58.25,-61.54 -58.96,-62.42 -59.36,-63.48 -59.76,-64.54 -59.80,-65.68 -59.84,-66.81 -59.52,-67.90 -59.19,-68.99 -58.54,-69.92 -57.88,-70.84 -56.97,-71.51 -56.05,-72.18 -56.05,-72.18 -56.05,-72.18 -50.52,-72.87 -44.99,-73.55 -42.75,-73.52 -40.51,-73.48 -37.74,-73.33 -34.97,-73.19 -32.50,-72.27 -30.02,-71.35 -27.93,-70.02 -25.83,-68.69 -23.62,-67.87 -21.40,-67.05 -18.53,-64.96 -15.67,-62.87 -13.59,-60.39 -11.52,-57.90 -10.30,-56.13 -9.09,-54.36 -8.05,-51.78 -7.01,-49.21 -5.75,-47.45 -4.49,-45.69 -2.98,-41.50 -1.47,-37.30 -0.75,-34.72 -0.02,-32.13 1.05,-28.40 2.13,-24.67 2.64,-22.01 3.15,-19.36 3.72,-15.76 4.29,-12.17 4.35,-9.50 4.42,-6.83 4.81,-3.67 5.21,-0.51 5.19,0.11 5.18,0.74 5.01,1.35 4.85,1.96 4.54,2.51 4.24,3.06 3.81,3.53 3.38,3.99 2.85,4.34 2.33,4.68 1.73,4.90 1.14,5.11 0.51,5.17 -0.11,5.23 -0.73,5.14 -1.36,5.05 -1.94,4.81 -2.53,4.58 -3.04,4.21 -3.55,3.84 -3.96,3.36 -4.37,2.87 -4.65,2.31 -4.93,1.74 -5.07,1.13 -5.21,0.51 -5.21,0.51 L -5.21,0.51 Z"></path></g><g transform="translate(201.0894455762973 35.89529869959165) rotate(0 47.5268025270957 25.76693838276185)" stroke="none"><path fill="#1e1e1e" d="M -2.52,-2.92 Q -2.52,-2.92 2.68,-7.19 7.89,-11.46 12.69,-15.22 17.49,-18.99 23.08,-21.82 28.67,-24.64 33.77,-25.86 38.87,-27.08 43.59,-27.55 48.31,-28.03 52.03,-28.34 55.75,-28.65 59.07,-28.87 62.39,-29.09 65.53,-29.26 68.68,-29.42 71.52,-29.14 74.36,-28.86 77.88,-28.02 81.40,-27.18 83.58,-26.25 85.76,-25.31 87.17,-23.42 88.57,-21.53 89.38,-17.82 90.20,-14.12 90.24,-11.62 90.28,-9.12 90.10,-5.47 89.92,-1.83 89.84,1.44 89.76,4.72 89.79,7.29 89.83,9.86 90.01,12.95 90.19,16.03 90.33,18.38 90.48,20.73 90.59,23.50 90.69,26.27 90.76,29.58 90.84,32.90 90.92,35.26 91.00,37.62 91.71,39.72 92.42,41.83 92.69,44.22 92.96,46.60 93.33,48.74 93.71,50.87 95.10,52.73 96.49,54.59 98.02,56.97 99.54,59.36 100.62,61.30 101.70,63.25 101.85,65.38 102.00,67.51 102.04,70.10 102.08,72.69 102.11,74.88 102.13,77.07 101.94,78.20 101.76,79.33 101.22,80.34 100.68,81.35 99.85,82.14 99.02,82.93 97.98,83.41 96.94,83.89 95.80,84.01 94.67,84.14 93.55,83.89 92.43,83.64 91.45,83.05 90.47,82.46 89.72,81.59 88.98,80.72 88.56,79.65 88.13,78.59 88.07,77.45 88.01,76.30 88.32,75.20 88.62,74.09 89.27,73.15 89.91,72.20 90.82,71.51 91.73,70.81 92.82,70.45 93.90,70.08 95.05,70.08 96.19,70.08 97.28,70.45 98.37,70.81 99.28,71.51 100.19,72.20 100.83,73.15 101.47,74.10 101.78,75.20 102.09,76.30 102.02,77.45 101.96,78.59 101.54,79.65 101.11,80.72 100.37,81.59 99.63,82.46 98.65,83.05 97.67,83.65 96.55,83.89 95.43,84.14 94.29,84.01 93.15,83.89 92.11,83.41 91.07,82.93 90.24,82.14 89.41,81.35 88.88,80.34 88.34,79.33 88.15,78.20 87.97,77.07 87.97,77.07 87.97,77.07 88.00,74.00 88.04,70.94 88.02,68.33 88.00,65.72 86.68,63.84 85.36,61.96 83.90,59.63 82.43,57.31 81.46,53.90 80.49,50.49 80.34,47.72 80.18,44.94 79.38,41.34 78.58,37.74 78.66,35.32 78.74,32.90 78.82,29.58 78.89,26.27 79.00,23.50 79.10,20.73 79.25,18.38 79.39,16.03 79.57,12.95 79.74,9.87 79.78,7.30 79.81,4.73 79.72,1.47 79.62,-1.79 79.41,-5.38 79.20,-8.97 79.18,-11.27 79.16,-13.57 78.63,-16.16 78.11,-18.76 75.58,-19.95 73.06,-21.14 70.90,-21.69 68.74,-22.25 65.66,-22.33 62.57,-22.42 59.33,-22.47 56.10,-22.52 52.51,-22.41 48.93,-22.30 44.60,-21.80 40.27,-21.29 35.88,-20.20 31.49,-19.10 26.56,-16.49 21.63,-13.88 17.07,-9.99 12.51,-6.10 7.51,-1.58 2.52,2.92 2.13,3.18 1.74,3.44 1.30,3.60 0.87,3.76 0.40,3.81 -0.05,3.86 -0.51,3.80 -0.97,3.74 -1.41,3.56 -1.84,3.39 -2.22,3.12 -2.60,2.85 -2.90,2.50 -3.21,2.15 -3.42,1.73 -3.63,1.31 -3.73,0.86 -3.84,0.41 -3.83,-0.05 -3.83,-0.52 -3.71,-0.97 -3.59,-1.42 -3.37,-1.83 -3.14,-2.24 -2.83,-2.58 -2.52,-2.92 -2.52,-2.92 L -2.52,-2.92 Z"></path></g><g transform="translate(175.90849994428027 225.15421454022817) rotate(0 1.2836031682986686 15.057223252478025)" stroke="none"><path fill="#1e1e1e" d="M 4.24,3.11 Q 4.24,3.11 3.02,4.85 1.81,6.60 0.37,8.60 -1.06,10.60 -2.51,12.82 -3.95,15.04 -5.11,16.93 -6.26,18.83 -2.64,20.56 0.96,22.28 3.20,22.67 5.43,23.07 7.71,23.01 9.98,22.95 9.41,20.69 8.84,18.42 8.89,16.13 8.95,13.84 8.93,11.36 8.90,8.87 11.14,11.00 13.37,13.13 10.55,12.58 7.73,12.02 5.45,11.72 3.18,11.42 1.51,10.25 -0.15,9.07 -1.03,8.96 -1.92,8.85 -2.75,8.53 -3.58,8.21 -4.30,7.70 -5.03,7.20 -5.62,6.53 -6.21,5.86 -6.62,5.07 -7.03,4.28 -7.23,3.42 -7.44,2.55 -7.44,1.66 -7.43,0.78 -7.22,-0.08 -7.00,-0.94 -6.58,-1.72 -6.17,-2.51 -5.57,-3.17 -4.98,-3.83 -4.25,-4.34 -3.51,-4.84 -2.68,-5.15 -1.85,-5.46 -0.97,-5.56 -0.08,-5.67 -3.50,-3.40 -6.92,-1.14 -6.29,-2.15 -5.65,-3.16 -4.73,-3.92 -3.81,-4.68 -2.69,-5.10 -1.58,-5.52 -0.38,-5.56 0.80,-5.61 1.94,-5.27 3.09,-4.93 4.06,-4.24 5.04,-3.55 5.74,-2.59 6.45,-1.63 6.81,-0.49 7.17,0.64 7.15,1.83 7.13,3.02 6.73,4.15 6.33,5.27 5.59,6.21 4.85,7.14 3.85,7.79 2.85,8.45 1.69,8.74 0.54,9.04 -0.64,8.96 -1.83,8.87 -2.93,8.41 -4.03,7.95 -4.93,7.16 -5.82,6.37 -6.42,5.34 -7.02,4.31 -7.25,3.14 -7.49,1.97 -7.34,0.78 -7.19,-0.39 -6.67,-1.46 -6.15,-2.54 -5.31,-3.39 -4.47,-4.24 -3.41,-4.78 -2.35,-5.32 -1.17,-5.49 0.00,-5.66 1.18,-5.45 2.35,-5.24 3.40,-4.66 4.44,-4.08 5.24,-3.20 6.05,-2.32 6.53,-1.23 7.01,-0.14 7.12,1.04 7.23,2.23 3.53,5.65 -0.15,9.07 -1.03,8.96 -1.92,8.85 -2.74,8.53 -3.57,8.21 -4.30,7.71 -5.03,7.20 -5.62,6.53 -6.21,5.86 -6.62,5.07 -7.02,4.28 -7.23,3.42 -7.44,2.55 -7.44,1.67 -7.43,0.78 -7.22,-0.08 -7.00,-0.94 -6.58,-1.72 -6.17,-2.51 -5.57,-3.17 -4.98,-3.83 -4.25,-4.33 -3.51,-4.84 -2.68,-5.15 -1.85,-5.46 -0.97,-5.56 -0.08,-5.67 0.53,-4.52 1.16,-3.37 3.36,-3.36 5.55,-3.36 8.33,-3.07 11.11,-2.79 13.29,-2.10 15.47,-1.42 17.81,-0.46 20.14,0.48 21.82,4.67 23.50,8.87 23.47,11.40 23.44,13.94 23.31,16.46 23.17,18.99 22.69,21.71 22.21,24.43 21.48,26.57 20.76,28.71 19.46,31.02 18.17,33.33 14.04,35.30 9.92,37.26 7.75,37.16 5.58,37.05 3.02,36.46 0.45,35.87 -1.93,35.23 -4.33,34.60 -7.04,33.92 -9.76,33.24 -11.96,32.04 -14.17,30.84 -16.26,28.98 -18.36,27.12 -19.28,24.16 -20.19,21.20 -19.76,18.68 -19.33,16.15 -18.17,14.15 -17.02,12.15 -14.84,9.55 -12.66,6.96 -11.25,5.20 -9.83,3.45 -8.33,1.85 -6.84,0.24 -5.54,-1.43 -4.24,-3.11 -3.80,-3.57 -3.37,-4.03 -2.84,-4.38 -2.30,-4.72 -1.70,-4.93 -1.10,-5.14 -0.47,-5.20 0.15,-5.25 0.78,-5.16 1.40,-5.06 1.99,-4.82 2.57,-4.58 3.09,-4.21 3.60,-3.83 4.00,-3.34 4.41,-2.86 4.69,-2.29 4.97,-1.72 5.10,-1.10 5.23,-0.48 5.22,0.15 5.20,0.78 5.03,1.39 4.86,2.00 4.55,2.56 4.24,3.11 4.24,3.11 L 4.24,3.11 Z"></path></g><g transform="translate(113.20169473121769 283.75348961473514) rotate(0 68.9908798543861 -3.6610594713215505)" stroke="none"><path fill="#1e1e1e" d="M 0,-3.88 Q 0,-3.88 4.11,-3.75 8.22,-3.62 12.48,-3.48 16.74,-3.35 21.06,-3.25 25.38,-3.15 30.50,-3.08 35.63,-3.01 41.18,-2.95 46.74,-2.90 50.82,-2.90 54.91,-2.90 58.37,-3.03 61.84,-3.15 65.99,-3.55 70.15,-3.96 73.70,-4.25 77.25,-4.55 80.45,-4.78 83.65,-5.01 86.79,-5.19 89.93,-5.36 92.24,-5.51 94.55,-5.65 97.57,-6.62 100.58,-7.59 104.14,-8.62 107.71,-9.65 110.34,-10.56 112.97,-11.47 116.75,-11.93 120.53,-12.40 123.91,-12.90 127.28,-13.41 130.20,-13.56 133.12,-13.71 135.37,-13.74 137.63,-13.77 138.66,-13.61 139.69,-13.44 140.61,-12.96 141.54,-12.47 142.26,-11.72 142.98,-10.96 143.42,-10.01 143.87,-9.07 143.98,-8.03 144.10,-6.99 143.88,-5.97 143.66,-4.95 143.13,-4.05 142.59,-3.15 141.80,-2.47 141.00,-1.80 140.03,-1.40 139.06,-1.01 138.02,-0.95 136.98,-0.89 135.97,-1.17 134.96,-1.44 134.10,-2.03 133.23,-2.61 132.59,-3.44 131.96,-4.27 131.62,-5.26 131.28,-6.25 131.28,-7.29 131.27,-8.34 131.60,-9.33 131.93,-10.32 132.56,-11.15 133.19,-11.99 134.06,-12.58 134.92,-13.17 135.92,-13.45 136.93,-13.73 137.97,-13.68 139.02,-13.63 139.99,-13.24 140.96,-12.86 141.76,-12.19 142.56,-11.51 143.10,-10.62 143.64,-9.73 143.87,-8.71 144.10,-7.69 143.99,-6.65 143.88,-5.61 143.45,-4.66 143.01,-3.71 142.29,-2.95 141.58,-2.19 140.66,-1.70 139.74,-1.20 138.71,-1.03 137.68,-0.86 137.68,-0.86 137.68,-0.86 135.54,-0.85 133.39,-0.85 130.79,-0.82 128.19,-0.79 124.70,-0.30 121.22,0.18 118.82,0.32 116.43,0.45 113.22,1.38 110.01,2.30 107.00,3.09 103.98,3.87 101.86,4.42 99.73,4.97 97.20,5.31 94.67,5.65 92.30,5.51 89.93,5.36 86.79,5.19 83.65,5.01 80.45,4.78 77.25,4.55 73.70,4.25 70.15,3.96 65.99,3.55 61.84,3.15 58.37,3.03 54.91,2.90 50.82,2.90 46.74,2.90 41.18,2.95 35.63,3.01 30.50,3.08 25.38,3.15 21.06,3.25 16.74,3.35 12.48,3.48 8.22,3.62 4.11,3.75 0,3.88 -0.46,3.82 -0.92,3.77 -1.36,3.60 -1.80,3.44 -2.19,3.17 -2.57,2.90 -2.88,2.55 -3.19,2.20 -3.41,1.79 -3.63,1.37 -3.74,0.92 -3.85,0.46 -3.85,-0.00 -3.85,-0.46 -3.74,-0.92 -3.63,-1.37 -3.41,-1.79 -3.19,-2.20 -2.88,-2.55 -2.57,-2.90 -2.19,-3.17 -1.80,-3.44 -1.36,-3.60 -0.92,-3.77 -0.46,-3.82 0.00,-3.88 0.00,-3.88 L 0,-3.88 Z"></path></g><g transform="translate(101.40370734955013 165.57270399780555) rotate(0 37.670962547897034 0.3962427171704803)" stroke="none"><path fill="#1e1e1e" d="M 0,-4.28 Q 0,-4.28 7.77,-4.06 15.54,-3.84 23.16,-3.68 30.78,-3.51 37.31,-3.39 43.84,-3.27 49.12,-3.18 54.41,-3.10 57.83,-3.20 61.25,-3.31 65.38,-3.69 69.52,-4.07 73.88,-3.29 78.24,-2.51 78.67,-1.94 79.09,-1.37 79.32,-0.70 79.54,-0.02 79.53,0.68 79.53,1.39 79.29,2.07 79.06,2.74 78.62,3.30 78.19,3.87 77.59,4.26 77.00,4.65 76.31,4.84 75.63,5.02 74.92,4.98 74.20,4.93 73.55,4.66 72.89,4.40 72.35,3.93 71.81,3.46 71.45,2.85 71.09,2.24 70.94,1.54 70.79,0.84 70.87,0.14 70.96,-0.56 71.26,-1.20 71.57,-1.85 72.06,-2.36 72.56,-2.87 73.19,-3.20 73.82,-3.53 74.52,-3.64 75.23,-3.75 75.93,-3.63 76.63,-3.50 77.26,-3.16 77.88,-2.83 78.37,-2.30 78.85,-1.78 79.15,-1.13 79.44,-0.49 79.51,0.21 79.58,0.92 79.42,1.62 79.26,2.31 78.89,2.92 78.52,3.52 77.97,3.98 77.42,4.44 76.76,4.69 76.10,4.95 75.38,4.98 74.67,5.02 73.99,4.82 73.30,4.62 72.72,4.22 72.13,3.81 72.13,3.81 72.13,3.81 70.83,3.94 69.52,4.07 65.38,3.69 61.25,3.31 57.83,3.20 54.41,3.10 49.12,3.18 43.84,3.27 37.31,3.39 30.78,3.51 23.16,3.68 15.54,3.84 7.77,4.06 0,4.28 -0.51,4.22 -1.02,4.16 -1.50,3.97 -1.99,3.79 -2.41,3.50 -2.84,3.20 -3.18,2.82 -3.52,2.43 -3.76,1.97 -4.00,1.52 -4.13,1.01 -4.25,0.51 -4.25,-0.00 -4.25,-0.51 -4.13,-1.01 -4.00,-1.52 -3.76,-1.97 -3.52,-2.43 -3.18,-2.82 -2.84,-3.20 -2.41,-3.50 -1.99,-3.79 -1.50,-3.97 -1.02,-4.16 -0.51,-4.22 0.00,-4.28 0.00,-4.28 L 0,-4.28 Z"></path></g><g transform="translate(219.6961106332883 180.45133898338986) rotate(0 25.35953389891074 -0.5413456840216213)" stroke="none"><path fill="#1e1e1e" d="M 0,-4.71 Q 0,-4.71 6.46,-4.43 12.92,-4.16 17.38,-3.96 21.84,-3.75 25.46,-3.75 29.08,-3.74 31.79,-3.88 34.50,-4.01 38.32,-4.30 42.13,-4.59 46.00,-5.35 49.87,-6.11 50.69,-6.05 51.51,-5.99 52.27,-5.67 53.03,-5.35 53.64,-4.80 54.26,-4.26 54.67,-3.54 55.08,-2.83 55.24,-2.02 55.40,-1.21 55.29,-0.40 55.19,0.41 54.83,1.15 54.47,1.89 53.89,2.48 53.31,3.06 52.57,3.43 51.84,3.80 51.02,3.92 50.21,4.04 49.40,3.89 48.59,3.74 47.87,3.34 47.15,2.94 46.60,2.33 46.04,1.72 45.71,0.96 45.38,0.21 45.31,-0.60 45.24,-1.42 45.43,-2.22 45.63,-3.02 46.06,-3.72 46.50,-4.42 47.14,-4.94 47.78,-5.46 48.55,-5.75 49.32,-6.03 50.14,-6.06 50.97,-6.09 51.76,-5.85 52.55,-5.62 53.22,-5.14 53.89,-4.66 54.37,-4.00 54.86,-3.33 55.10,-2.55 55.35,-1.76 55.33,-0.94 55.32,-0.12 55.04,0.65 54.76,1.42 54.25,2.07 53.74,2.71 53.05,3.16 52.35,3.61 51.56,3.81 50.76,4.02 50.76,4.02 50.76,4.02 49.54,4.07 48.33,4.12 45.23,4.36 42.13,4.59 38.32,4.30 34.50,4.01 31.79,3.88 29.08,3.74 25.46,3.75 21.84,3.75 17.38,3.96 12.92,4.16 6.46,4.43 0,4.71 -0.56,4.64 -1.12,4.57 -1.65,4.37 -2.18,4.17 -2.65,3.84 -3.12,3.52 -3.50,3.10 -3.87,2.67 -4.14,2.17 -4.40,1.67 -4.54,1.11 -4.67,0.56 -4.67,-0.00 -4.67,-0.56 -4.54,-1.11 -4.40,-1.67 -4.14,-2.17 -3.87,-2.67 -3.50,-3.10 -3.12,-3.52 -2.65,-3.84 -2.18,-4.17 -1.65,-4.37 -1.12,-4.57 -0.56,-4.64 0.00,-4.71 0.00,-4.71 L 0,-4.71 Z"></path></g><g transform="translate(139.331390531107 189.9276788954387) rotate(0 4.883272922876131 11.011082830666851)" stroke="none"><path fill="#1e1e1e" d="M 1.74,-4.81 Q 1.74,-4.81 3.35,-4.32 4.97,-3.83 7.40,-3.82 9.83,-3.82 12.38,-3.00 14.92,-2.18 11.58,-1.76 8.25,-1.34 8.16,1.24 8.08,3.84 6.58,6.38 5.09,8.92 4.60,11.63 4.11,14.35 3.99,16.68 3.87,19.01 1.84,18.31 -0.17,17.60 -0.53,15.49 -0.88,13.38 -0.40,9.39 0.07,5.40 -0.60,6.53 -1.27,7.67 -1.99,6.85 -2.71,6.03 -3.14,5.02 -3.56,4.02 -3.64,2.93 -3.72,1.84 -3.44,0.78 -3.17,-0.26 -2.58,-1.18 -1.98,-2.09 -1.12,-2.77 -0.27,-3.44 0.75,-3.81 1.78,-4.18 2.87,-4.20 3.96,-4.22 5.00,-3.89 6.04,-3.56 6.92,-2.91 7.80,-2.27 8.43,-1.38 9.06,-0.49 9.37,0.55 9.68,1.59 9.64,2.69 9.60,3.78 9.22,4.80 8.83,5.82 8.14,6.66 7.45,7.51 6.52,8.09 5.60,8.66 4.54,8.92 3.48,9.17 2.39,9.07 1.30,8.98 0.31,8.54 -0.68,8.10 -1.49,7.36 -2.29,6.62 -2.82,5.67 -3.35,4.71 -3.55,3.64 -3.74,2.57 -3.59,1.49 -3.43,0.41 -2.94,-0.55 -2.44,-1.53 -1.66,-2.29 -0.88,-3.06 0.09,-3.53 1.07,-4.01 2.15,-4.15 3.23,-4.28 4.30,-4.07 5.37,-3.85 6.32,-3.31 7.26,-2.76 7.26,-2.76 7.26,-2.76 9.96,0.41 12.66,3.58 12.87,6.59 13.09,9.59 13.16,13.36 13.24,17.13 13.08,20.26 12.91,23.40 11.18,26.16 9.45,28.93 6.11,30.28 2.77,31.62 0.27,31.52 -2.21,31.42 -4.53,30.41 -6.86,29.39 -8.36,25.16 -9.87,20.92 -9.74,18.10 -9.61,15.28 -9.07,12.16 -8.53,9.05 -7.89,5.99 -7.26,2.94 -6.06,-0.11 -4.86,-3.18 -2.91,-5.35 -0.97,-7.52 2.86,-8.34 6.71,-9.17 9.12,-8.82 11.54,-8.47 14.67,-5.99 17.81,-3.52 18.24,-0.11 18.67,3.29 15.91,5.66 13.15,8.03 9.83,7.72 6.50,7.40 3.93,6.76 1.36,6.12 -0.18,5.47 -1.74,4.81 -2.29,4.53 -2.84,4.25 -3.31,3.85 -3.78,3.45 -4.14,2.95 -4.50,2.44 -4.72,1.87 -4.95,1.29 -5.03,0.68 -5.12,0.07 -5.05,-0.53 -4.99,-1.15 -4.78,-1.73 -4.57,-2.31 -4.22,-2.82 -3.88,-3.34 -3.42,-3.75 -2.97,-4.17 -2.43,-4.46 -1.88,-4.76 -1.29,-4.92 -0.69,-5.07 -0.07,-5.08 0.54,-5.09 1.14,-4.95 1.74,-4.81 1.74,-4.81 L 1.74,-4.81 Z"></path></g><g transform="translate(249.8105571382448 208.043226218472) rotate(0 7.668133709749327 -6.496148208259683)" stroke="none"><path fill="#1e1e1e" d="M -0.68,-5.19 Q -0.68,-5.19 1.69,-5.54 4.06,-5.88 6.82,-7.09 9.57,-8.30 11.59,-9.20 13.60,-10.10 12.11,-8.46 10.61,-6.82 7.82,-5.96 5.03,-5.11 3.01,-6.00 0.99,-6.90 2.00,-6.42 3.01,-5.94 3.81,-5.16 4.62,-4.38 5.13,-3.39 5.64,-2.39 5.81,-1.29 5.98,-0.18 5.78,0.91 5.59,2.01 5.05,2.99 4.52,3.97 3.70,4.73 2.88,5.49 1.86,5.95 0.84,6.40 -0.26,6.51 -1.38,6.62 -2.46,6.37 -3.55,6.11 -4.50,5.53 -5.46,4.94 -6.17,4.08 -6.88,3.22 -7.28,2.18 -7.69,1.13 -7.73,0.02 -7.78,-1.09 -7.47,-2.16 -7.16,-3.24 -6.52,-4.16 -5.88,-5.07 -4.98,-5.74 -4.09,-6.41 -3.02,-6.75 -1.96,-7.09 -0.84,-7.08 0.27,-7.07 1.32,-6.70 2.38,-6.33 3.26,-5.64 4.14,-4.96 4.76,-4.02 5.37,-3.09 5.66,-2.01 5.95,-0.93 5.87,0.18 5.80,1.29 5.37,2.32 4.95,3.36 4.21,4.20 3.48,5.04 2.51,5.61 1.55,6.17 0.46,6.40 -0.63,6.63 -1.74,6.50 -2.85,6.36 -2.85,6.36 -2.85,6.36 -5.30,0.40 -7.76,-5.56 -6.72,-8.45 -5.68,-11.35 -3.57,-13.93 -1.47,-16.51 0.86,-17.36 3.21,-18.20 6.97,-19.09 10.72,-19.98 13.53,-19.79 16.34,-19.60 18.75,-18.14 21.15,-16.68 22.56,-14.09 23.96,-11.51 23.67,-8.90 23.38,-6.29 21.39,-3.23 19.40,-0.17 17.14,0.59 14.87,1.36 12.69,2.40 10.50,3.45 7.97,4.04 5.44,4.63 3.06,4.91 0.68,5.19 0.04,5.20 -0.58,5.21 -1.19,5.06 -1.81,4.91 -2.37,4.63 -2.93,4.34 -3.41,3.92 -3.89,3.51 -4.25,2.99 -4.61,2.47 -4.84,1.89 -5.07,1.30 -5.16,0.67 -5.24,0.04 -5.17,-0.57 -5.10,-1.20 -4.88,-1.80 -4.66,-2.39 -4.31,-2.91 -3.95,-3.44 -3.48,-3.86 -3.01,-4.28 -2.46,-4.58 -1.90,-4.88 -1.29,-5.04 -0.68,-5.19 -0.68,-5.19 L -0.68,-5.19 Z"></path></g></svg>