<?xml version="1.0" standalone="no"?>
<!DOCTYPE svg PUBLIC "-//W3C//DTD SVG 1.1//EN" "http://www.w3.org/Graphics/SVG/1.1/DTD/svg11.dtd">
<svg version="1.1" xmlns="http://www.w3.org/2000/svg" viewBox="0 0 383.7061672957734 354.99810339260557" width="1151.1185018873202" height="1064.9943101778167" filter="invert(93%) hue-rotate(180deg)"><!-- svg-source:excalidraw --><metadata></metadata><defs><style class="style-fonts">
      </style></defs><g transform="translate(122.97940234364887 255.96069057939758) rotate(0 116.36699853129085 -44.54661082330631)" stroke="none"><path fill="#1e1e1e" d="M -2.96,0.98 Q -2.96,0.98 -4.79,-4.72 -6.61,-10.43 -7.94,-15.45 -9.27,-20.46 -10.92,-26.90 -12.57,-33.34 -13.29,-40.60 -14.02,-47.85 -14.31,-57.55 -14.60,-67.24 -14.71,-76.68 -14.83,-86.12 -14.87,-95.48 -14.92,-104.83 -14.93,-112.10 -14.95,-119.36 -14.95,-124.18 -14.96,-129.00 -14.06,-133.83 -13.16,-138.67 -10.95,-142.40 -8.74,-146.13 -2.26,-151.44 4.21,-156.76 10.27,-160.61 16.33,-164.47 23.28,-168.01 30.24,-171.56 36.63,-173.66 43.02,-175.76 49.05,-177.20 55.09,-178.63 61.07,-179.26 67.05,-179.88 73.93,-180.14 80.80,-180.39 87.00,-180.50 93.21,-180.61 100.16,-180.65 107.12,-180.69 114.61,-179.47 122.10,-178.25 129.67,-175.93 137.25,-173.60 144.78,-170.84 152.31,-168.07 158.84,-165.23 165.37,-162.38 171.44,-159.52 177.51,-156.65 182.65,-153.88 187.79,-151.10 192.56,-147.90 197.34,-144.70 201.07,-142.05 204.81,-139.40 208.83,-136.91 212.85,-134.41 216.45,-131.51 220.05,-128.60 223.62,-124.76 227.18,-120.92 230.36,-117.63 233.53,-114.33 236.04,-110.17 238.55,-106.02 240.58,-101.71 242.61,-97.41 244.09,-90.40 245.58,-83.39 246.19,-77.09 246.80,-70.79 247.05,-64.81 247.31,-58.82 247.41,-52.98 247.52,-47.13 247.01,-41.22 246.50,-35.32 245.84,-30.29 245.19,-25.27 243.89,-20.47 242.60,-15.66 241.22,-11.82 239.84,-7.98 237.76,-3.78 235.67,0.41 233.85,4.60 232.02,8.79 230.42,12.39 228.82,16.00 226.80,19.42 224.78,22.84 222.07,26.12 219.36,29.41 216.36,31.89 213.36,34.38 210.45,36.65 207.55,38.93 203.65,41.39 199.75,43.86 194.72,46.57 189.68,49.28 185.18,52.29 180.67,55.30 175.30,58.31 169.93,61.31 164.35,64.23 158.77,67.15 153.00,69.53 147.23,71.91 140.40,74.15 133.58,76.39 126.45,79.08 119.32,81.76 112.94,84.03 106.57,86.29 101.27,87.82 95.98,89.35 90.17,90.03 84.36,90.71 80.18,91.02 76.01,91.33 70.91,91.43 65.80,91.54 60.20,91.03 54.60,90.52 47.69,88.36 40.78,86.20 34.56,83.62 28.33,81.04 23.12,78.39 17.91,75.74 13.91,73.28 9.91,70.82 6.71,67.96 3.51,65.09 1.25,62.76 -1.00,60.43 -2.97,57.61 -4.94,54.78 -6.67,51.86 -8.39,48.93 -9.56,47.15 -10.73,45.37 -11.72,43.22 -12.71,41.08 -13.96,36.80 -15.21,32.51 -15.37,29.62 -15.54,26.73 -15.60,23.79 -15.66,20.85 -15.68,17.87 -15.70,14.90 -15.77,12.46 -15.84,10.02 -15.88,7.69 -15.93,5.36 -15.15,3.05 -14.38,0.74 -12.62,-1.46 -10.86,-3.66 -10.79,-6.07 -10.72,-8.48 -9.92,-10.57 -9.12,-12.66 -8.68,-13.26 -8.23,-13.86 -7.66,-14.33 -7.09,-14.80 -6.42,-15.13 -5.75,-15.45 -5.02,-15.60 -4.29,-15.75 -3.55,-15.73 -2.80,-15.70 -2.09,-15.50 -1.37,-15.30 -0.73,-14.93 -0.08,-14.56 0.45,-14.05 0.99,-13.54 1.39,-12.91 1.79,-12.28 2.03,-11.58 2.27,-10.87 2.34,-10.13 2.40,-9.39 2.28,-8.66 2.17,-7.92 1.88,-7.24 1.59,-6.55 2.73,-6.38 3.86,-6.22 4.06,-5.29 4.25,-4.36 4.15,-3.42 4.04,-2.48 3.63,-1.62 3.23,-0.76 2.57,-0.07 1.92,0.60 1.08,1.04 0.24,1.48 -0.69,1.63 -1.63,1.78 -2.57,1.62 -3.50,1.46 -4.34,1.01 -5.17,0.56 -5.82,-0.12 -6.47,-0.82 -6.86,-1.68 -7.26,-2.54 -7.35,-3.49 -7.45,-4.43 -7.24,-5.36 -7.03,-6.28 -6.54,-7.09 -6.04,-7.90 -5.32,-8.51 -4.59,-9.12 -3.70,-9.47 -2.82,-9.82 -1.87,-9.86 -0.92,-9.91 -0.01,-9.65 0.89,-9.39 1.67,-8.85 2.46,-8.31 3.03,-7.55 3.59,-6.80 3.89,-5.89 4.19,-4.99 4.18,-4.04 4.18,-3.10 3.87,-2.20 3.56,-1.30 2.98,-0.55 2.40,0.19 1.61,0.72 0.83,1.25 -0.08,1.50 -1.00,1.75 -1.94,1.69 -2.89,1.63 -3.77,1.27 -4.65,0.92 -5.37,0.30 -6.09,-0.31 -6.57,-1.13 -7.06,-1.94 -7.06,-1.94 -7.06,-1.94 -8.09,-7.30 -9.12,-12.66 -8.68,-13.26 -8.24,-13.85 -7.66,-14.33 -7.09,-14.80 -6.42,-15.13 -5.75,-15.45 -5.02,-15.60 -4.29,-15.75 -3.55,-15.73 -2.80,-15.70 -2.09,-15.50 -1.37,-15.30 -0.73,-14.93 -0.08,-14.56 0.45,-14.05 0.99,-13.54 1.39,-12.91 1.79,-12.28 2.03,-11.58 2.27,-10.88 2.34,-10.13 2.40,-9.39 2.28,-8.66 2.17,-7.92 1.88,-7.24 1.59,-6.55 0.98,-5.08 0.37,-3.60 -0.50,-1.49 -1.37,0.61 -3.15,3.03 -4.93,5.45 -5.43,7.72 -5.94,9.99 -5.99,12.41 -6.04,14.83 -6.02,17.76 -6.00,20.69 -5.96,23.51 -5.93,26.33 -5.87,28.89 -5.80,31.45 -5.26,34.76 -4.73,38.08 -3.42,41.77 -2.12,45.46 -0.66,48.30 0.80,51.15 2.27,53.76 3.74,56.38 5.49,58.73 7.24,61.09 9.96,63.71 12.69,66.34 16.50,68.69 20.31,71.03 25.33,73.59 30.36,76.15 36.37,78.64 42.38,81.14 48.75,83.17 55.11,85.21 60.40,85.69 65.68,86.18 70.67,86.06 75.65,85.93 79.70,85.69 83.75,85.45 89.13,84.85 94.51,84.25 99.65,82.76 104.78,81.27 111.11,79.01 117.43,76.76 124.66,74.01 131.89,71.27 138.52,69.07 145.14,66.88 150.67,64.57 156.20,62.26 161.68,59.34 167.16,56.42 172.30,53.48 177.44,50.53 182.12,47.30 186.81,44.08 191.57,41.38 196.33,38.68 199.95,36.18 203.58,33.69 206.53,31.52 209.48,29.35 212.14,27.46 214.80,25.57 217.26,22.64 219.72,19.70 221.70,16.65 223.68,13.60 225.38,10.12 227.07,6.64 228.93,2.32 230.79,-1.99 232.73,-5.96 234.68,-9.94 236.10,-13.49 237.53,-17.05 238.75,-21.50 239.98,-25.95 240.62,-30.87 241.26,-35.78 241.77,-41.41 242.27,-47.04 242.16,-52.82 242.06,-58.60 241.81,-64.45 241.57,-70.29 241.00,-76.31 240.43,-82.33 239.14,-88.77 237.85,-95.21 235.94,-99.27 234.03,-103.33 231.88,-107.02 229.72,-110.71 226.52,-114.03 223.33,-117.36 220.03,-120.94 216.73,-124.52 213.40,-127.24 210.08,-129.95 205.92,-132.53 201.77,-135.11 198.09,-137.73 194.41,-140.34 189.85,-143.41 185.29,-146.48 180.28,-149.19 175.27,-151.90 169.27,-154.73 163.26,-157.56 156.88,-160.35 150.49,-163.13 143.10,-165.85 135.70,-168.57 128.47,-170.81 121.23,-173.05 114.19,-174.24 107.14,-175.42 100.22,-175.37 93.30,-175.32 87.15,-175.21 81.00,-175.10 74.30,-174.85 67.60,-174.60 61.96,-174.02 56.32,-173.44 50.50,-172.06 44.69,-170.67 38.69,-168.70 32.69,-166.74 25.97,-163.30 19.26,-159.87 13.48,-156.16 7.70,-152.46 1.81,-147.73 -4.06,-143.00 -6.04,-140.27 -8.01,-137.55 -8.83,-133.27 -9.65,-128.99 -9.63,-124.19 -9.62,-119.38 -9.59,-112.12 -9.56,-104.86 -9.49,-95.53 -9.43,-86.20 -9.29,-76.80 -9.14,-67.41 -8.83,-57.91 -8.51,-48.41 -7.81,-41.58 -7.11,-34.76 -5.41,-28.38 -3.70,-22.00 -2.32,-17.16 -0.94,-12.32 1.01,-6.65 2.96,-0.98 3.03,-0.61 3.11,-0.24 3.09,0.12 3.08,0.50 2.97,0.86 2.87,1.22 2.68,1.55 2.49,1.88 2.23,2.15 1.97,2.42 1.65,2.62 1.33,2.82 0.97,2.94 0.62,3.06 0.24,3.09 -0.13,3.12 -0.50,3.06 -0.87,2.99 -1.22,2.85 -1.56,2.70 -1.86,2.47 -2.16,2.24 -2.40,1.95 -2.64,1.66 -2.80,1.32 -2.96,0.98 -2.96,0.98 L -2.96,0.98 Z"></path></g><g transform="translate(108.1900614915121 172.03536690602255) rotate(0 -43.770868038986464 49.468949929564815)" stroke="none"><path fill="#1e1e1e" d="M 0.99,2.97 Q 0.99,2.97 -2.90,4.23 -6.79,5.49 -11.74,8.89 -16.70,12.30 -21.73,16.59 -26.75,20.88 -31.72,24.95 -36.69,29.02 -40.65,33.14 -44.61,37.27 -48.26,41.52 -51.92,45.78 -55.44,50.10 -58.97,54.42 -62.44,58.76 -65.90,63.11 -69.17,66.76 -72.43,70.40 -74.91,73.21 -77.40,76.01 -79.66,78.88 -81.92,81.74 -84.70,85.08 -87.48,88.43 -89.15,90.67 -90.82,92.92 -91.73,95.35 -92.65,97.79 -93.64,99.55 -94.64,101.31 -95.05,101.65 -95.46,101.99 -95.94,102.23 -96.42,102.46 -96.94,102.57 -97.47,102.69 -98.00,102.67 -98.54,102.65 -99.05,102.51 -99.57,102.36 -100.03,102.10 -100.50,101.84 -100.89,101.47 -101.28,101.10 -101.57,100.65 -101.86,100.20 -102.03,99.70 -102.20,99.19 -102.25,98.66 -102.30,98.13 -102.22,97.60 -102.14,97.07 -101.93,96.58 -101.73,96.08 -101.41,95.65 -101.09,95.22 -98.76,94.28 -96.43,93.33 -94.30,92.72 -92.17,92.11 -88.60,91.53 -85.03,90.94 -82.16,89.94 -79.28,88.94 -75.81,88.34 -72.33,87.75 -69.40,87.13 -66.48,86.50 -63.21,86.17 -59.93,85.85 -56.00,85.86 -52.07,85.87 -48.70,85.82 -45.33,85.78 -41.38,85.89 -37.43,86.00 -34.58,85.90 -31.74,85.80 -29.35,85.68 -26.96,85.55 -24.78,85.44 -22.59,85.32 -18.10,85.15 -13.62,84.99 -10.66,84.80 -7.71,84.62 -4.66,83.98 -1.60,83.35 1.24,82.57 4.10,81.80 7.12,81.60 10.13,81.40 11.10,81.52 12.06,81.65 12.93,82.08 13.81,82.51 14.50,83.19 15.19,83.88 15.62,84.75 16.06,85.62 16.19,86.58 16.33,87.54 16.15,88.50 15.97,89.45 15.49,90.30 15.01,91.15 14.29,91.80 13.57,92.45 12.68,92.84 11.79,93.23 10.82,93.31 9.85,93.39 8.91,93.16 7.96,92.93 7.14,92.41 6.32,91.89 5.71,91.13 5.10,90.38 4.76,89.47 4.42,88.55 4.39,87.58 4.36,86.61 4.64,85.68 4.93,84.75 5.49,83.96 6.05,83.17 6.84,82.60 7.63,82.03 8.56,81.74 9.49,81.45 10.46,81.47 11.43,81.50 12.34,81.83 13.26,82.16 14.02,82.77 14.78,83.37 15.30,84.19 15.83,85.01 16.07,85.95 16.31,86.89 16.23,87.86 16.15,88.83 15.77,89.73 15.39,90.62 14.74,91.35 14.10,92.07 13.25,92.55 12.41,93.04 11.45,93.22 10.50,93.41 10.50,93.41 10.50,93.41 7.27,93.57 4.04,93.74 1.21,94.27 -1.60,94.80 -4.66,95.06 -7.71,95.32 -10.66,95.14 -13.61,94.95 -18.10,94.79 -22.58,94.62 -24.77,94.51 -26.95,94.40 -29.33,94.28 -31.71,94.17 -34.55,94.08 -37.39,94.00 -41.30,94.15 -45.21,94.30 -48.51,94.36 -51.81,94.41 -55.47,94.65 -59.12,94.89 -61.88,95.10 -64.64,95.32 -67.79,95.96 -70.94,96.61 -73.62,96.98 -76.31,97.36 -79.81,98.63 -83.32,99.90 -86.64,100.62 -89.97,101.34 -92.30,101.33 -94.64,101.31 -95.05,101.65 -95.46,101.99 -95.94,102.23 -96.42,102.46 -96.94,102.57 -97.47,102.69 -98.00,102.67 -98.54,102.65 -99.05,102.51 -99.57,102.36 -100.03,102.10 -100.50,101.84 -100.89,101.47 -101.28,101.10 -101.57,100.65 -101.86,100.21 -102.03,99.70 -102.20,99.19 -102.25,98.66 -102.30,98.13 -102.22,97.60 -102.14,97.07 -101.93,96.58 -101.73,96.08 -101.41,95.65 -101.09,95.22 -100.64,95.00 -100.18,94.78 -98.03,91.66 -95.87,88.54 -93.95,86.64 -92.03,84.75 -89.32,81.31 -86.61,77.87 -84.10,74.97 -81.60,72.06 -79.00,69.46 -76.40,66.85 -73.24,63.32 -70.09,59.79 -66.62,55.40 -63.15,51.02 -59.60,46.63 -56.05,42.25 -52.32,37.86 -48.59,33.47 -44.42,29.09 -40.26,24.72 -35.37,20.63 -30.49,16.54 -25.27,11.99 -20.05,7.44 -14.42,3.57 -8.79,-0.30 -4.89,-1.64 -0.99,-2.97 -0.62,-3.05 -0.24,-3.12 0.12,-3.11 0.50,-3.09 0.86,-2.99 1.23,-2.88 1.55,-2.69 1.88,-2.50 2.15,-2.24 2.43,-1.98 2.63,-1.66 2.83,-1.34 2.95,-0.98 3.07,-0.62 3.10,-0.24 3.13,0.12 3.07,0.50 3.01,0.87 2.86,1.22 2.71,1.57 2.48,1.87 2.26,2.17 1.96,2.41 1.67,2.65 1.33,2.81 0.99,2.97 0.99,2.97 L 0.99,2.97 Z"></path></g><g transform="translate(158.00502618818336 149.7341570776673) rotate(0 12.88625963305094 -6.323140824706343)" stroke="none"><path fill="#1e1e1e" d="M 5.31,0 Q 5.31,0 5.36,2.00 5.41,4.00 6.95,2.50 8.49,1.00 10.77,0.92 13.06,0.85 15.24,0.77 17.43,0.70 19.78,0.60 22.13,0.51 20.59,2.16 19.04,3.81 18.95,1.21 18.87,-1.38 18.66,-3.57 18.45,-5.76 17.61,-8.46 16.76,-11.17 16.37,-13.37 15.98,-15.57 14.53,-13.01 13.08,-10.45 11.05,-8.61 9.03,-6.77 8.48,-4.19 7.93,-1.62 7.35,-0.72 6.76,0.16 5.92,0.82 5.08,1.48 4.08,1.83 3.07,2.19 2.00,2.20 0.94,2.22 -0.07,1.90 -1.09,1.57 -1.95,0.94 -2.80,0.31 -3.42,-0.56 -4.03,-1.43 -4.33,-2.46 -4.63,-3.48 -4.59,-4.55 -4.55,-5.61 -4.17,-6.61 -3.79,-7.61 -3.11,-8.43 -2.43,-9.25 -1.53,-9.82 -0.62,-10.38 0.41,-10.63 1.45,-10.87 2.51,-10.77 3.57,-10.67 4.55,-10.24 5.52,-9.81 6.31,-9.09 7.09,-8.36 7.61,-7.43 8.12,-6.49 8.31,-5.44 8.50,-4.39 8.34,-3.34 8.19,-2.28 7.70,-1.33 7.21,-0.38 6.45,0.35 5.69,1.10 4.73,1.56 3.76,2.02 2.71,2.16 1.65,2.29 0.60,2.07 -0.43,1.86 -1.36,1.32 -2.28,0.79 -2.98,-0.01 -3.69,-0.81 -4.10,-1.79 -4.51,-2.78 -4.58,-3.84 -4.65,-4.91 -4.38,-5.94 -4.11,-6.97 -4.11,-6.97 -4.11,-6.97 -2.89,-10.77 -1.66,-14.57 -0.12,-16.59 1.42,-18.61 3.81,-20.47 6.21,-22.33 8.20,-23.52 10.19,-24.71 12.92,-25.59 15.65,-26.48 19.78,-25.89 23.91,-25.30 25.87,-23.52 27.82,-21.75 28.72,-19.68 29.63,-17.62 30.27,-15.22 30.92,-12.81 31.81,-9.23 32.70,-5.64 32.66,-2.49 32.62,0.64 32.44,3.56 32.26,6.49 30.45,9.29 28.64,12.09 24.68,12.81 20.72,13.53 17.97,13.43 15.23,13.32 12.97,13.23 10.70,13.14 7.98,13.00 5.25,12.85 2.21,12.19 -0.81,11.52 -2.44,9.91 -4.07,8.29 -4.74,6.19 -5.41,4.10 -5.36,2.05 -5.31,0 -5.23,-0.63 -5.15,-1.27 -4.92,-1.86 -4.70,-2.46 -4.33,-2.99 -3.97,-3.52 -3.49,-3.94 -3.01,-4.37 -2.45,-4.66 -1.88,-4.96 -1.26,-5.11 -0.63,-5.27 0.00,-5.27 0.64,-5.27 1.26,-5.11 1.88,-4.96 2.45,-4.66 3.01,-4.37 3.49,-3.94 3.97,-3.52 4.33,-2.99 4.70,-2.46 4.93,-1.86 5.15,-1.27 5.23,-0.63 5.31,0.00 5.31,0.00 L 5.31,0 Z"></path></g><g transform="translate(107.00691422334148 102.55336931767852) rotate(0 133.34962653621596 -38.95456571619616)" stroke="none"><path fill="#1e1e1e" d="M -3.93,0 Q -3.93,0 -3.75,-5.05 -3.58,-10.10 -3.45,-15.54 -3.32,-20.98 -3.22,-25.80 -3.13,-30.62 -3.06,-36.04 -2.99,-41.46 -2.94,-46.27 -2.89,-51.09 -2.96,-54.86 -3.03,-58.63 -3.16,-61.96 -3.29,-65.29 -3.27,-69.03 -3.26,-72.78 -0.71,-75.29 1.83,-77.81 4.89,-75.37 7.94,-72.93 10.05,-69.19 12.16,-65.45 13.72,-63.49 15.27,-61.53 17.53,-58.85 19.79,-56.17 22.07,-53.71 24.35,-51.25 26.36,-49.67 28.37,-48.09 30.06,-46.71 31.75,-45.34 33.84,-44.01 35.93,-42.67 33.79,-42.54 31.64,-42.41 32.76,-45.67 33.87,-48.93 35.08,-50.85 36.28,-52.77 37.56,-54.77 38.83,-56.78 41.59,-59.37 44.36,-61.96 47.47,-63.93 50.58,-65.90 53.45,-67.77 56.32,-69.64 59.32,-71.67 62.32,-73.69 64.05,-75.21 65.77,-76.73 69.12,-78.73 72.46,-80.72 74.99,-81.30 77.51,-81.88 80.95,-79.97 84.39,-78.06 85.10,-73.21 85.81,-68.35 86.00,-64.80 86.19,-61.25 86.68,-58.05 87.18,-54.85 87.43,-51.45 87.69,-48.05 88.44,-44.83 89.19,-41.60 87.43,-42.91 85.68,-44.21 86.39,-46.75 87.09,-49.28 88.98,-54.01 90.86,-58.74 93.01,-62.02 95.16,-65.30 98.73,-70.54 102.29,-75.77 105.25,-79.74 108.21,-83.71 110.68,-86.71 113.16,-89.70 114.86,-91.55 116.56,-93.41 121.83,-94.30 127.10,-95.19 128.90,-93.19 130.71,-91.20 131.09,-85.22 131.48,-79.24 131.42,-74.49 131.36,-69.74 131.26,-65.21 131.16,-60.68 131.29,-57.58 131.43,-54.48 131.76,-51.09 132.10,-47.70 133.98,-44.50 135.85,-41.31 136.56,-39.28 137.26,-37.26 138.41,-34.94 139.55,-32.62 142.13,-36.31 144.70,-40.00 146.80,-41.46 148.90,-42.91 151.74,-44.41 154.58,-45.91 157.52,-47.31 160.47,-48.70 163.77,-49.82 167.06,-50.93 169.22,-52.00 171.39,-53.06 174.14,-53.81 176.90,-54.55 179.41,-55.43 181.91,-56.31 185.64,-55.05 189.37,-53.78 190.54,-51.45 191.72,-49.13 193.21,-45.32 194.70,-41.52 195.13,-38.84 195.56,-36.16 195.74,-33.79 195.91,-31.43 196.09,-28.48 196.27,-25.53 194.18,-26.18 192.08,-26.84 195.00,-29.67 197.92,-32.50 202.00,-35.60 206.08,-38.70 210.37,-41.82 214.67,-44.94 218.18,-47.81 221.68,-50.69 225.14,-52.99 228.59,-55.28 231.48,-56.54 234.38,-57.81 236.95,-58.43 239.52,-59.06 243.22,-59.14 246.91,-59.23 249.31,-55.62 251.70,-52.00 251.99,-48.58 252.28,-45.15 251.60,-40.65 250.93,-36.15 249.78,-32.44 248.63,-28.74 246.98,-26.17 245.34,-23.60 243.72,-20.15 242.10,-16.69 241.52,-14.17 240.93,-11.64 240.35,-8.91 239.76,-6.19 238.59,-8.47 237.41,-10.75 240.02,-11.35 242.63,-11.94 244.93,-12.22 247.23,-12.50 250.74,-12.55 254.24,-12.60 257.80,-12.79 261.35,-12.99 264.55,-12.59 267.74,-12.20 270.09,-9.46 272.43,-6.72 272.72,-4.20 273.01,-1.68 273.13,1.07 273.24,3.84 273.31,6.45 273.38,9.06 272.36,12.54 271.33,16.03 270.88,17.02 270.42,18.02 269.67,18.82 268.92,19.62 267.96,20.13 267.00,20.65 265.92,20.83 264.84,21.02 263.76,20.85 262.68,20.68 261.71,20.17 260.74,19.66 259.98,18.87 259.22,18.08 258.76,17.09 258.29,16.10 258.17,15.01 258.04,13.92 258.27,12.85 258.50,11.78 259.06,10.84 259.62,9.90 260.45,9.19 261.28,8.47 262.30,8.06 263.31,7.65 264.41,7.59 265.50,7.52 266.55,7.81 267.61,8.10 268.52,8.71 269.43,9.32 270.10,10.18 270.76,11.05 271.12,12.09 271.47,13.12 271.48,14.22 271.48,15.31 271.14,16.35 270.79,17.39 270.14,18.27 269.48,19.14 268.58,19.76 267.67,20.38 266.62,20.68 265.57,20.97 264.47,20.92 263.38,20.87 262.36,20.47 261.34,20.07 260.51,19.36 259.67,18.66 259.10,17.72 258.53,16.79 258.29,15.72 258.05,14.65 258.16,13.56 258.27,12.48 258.27,12.48 258.27,12.48 259.14,10.69 260.00,8.90 260.07,6.38 260.14,3.87 260.87,1.31 261.60,-1.24 258.23,-1.22 254.87,-1.21 251.93,-0.90 249.00,-0.60 245.73,-0.05 242.47,0.49 239.86,0.51 237.26,0.53 233.94,-0.33 230.61,-1.20 229.23,-3.45 227.86,-5.70 228.33,-8.33 228.80,-10.96 229.42,-14.23 230.04,-17.50 231.63,-21.16 233.23,-24.83 234.41,-27.26 235.59,-29.69 236.80,-31.68 238.01,-33.68 239.11,-36.86 240.21,-40.05 240.76,-42.47 241.31,-44.90 242.61,-47.73 243.91,-50.56 240.53,-50.38 237.15,-50.20 234.99,-49.60 232.83,-49.01 229.91,-46.93 226.99,-44.85 223.63,-41.47 220.27,-38.10 216.51,-34.62 212.76,-31.14 209.70,-27.93 206.64,-24.73 204.57,-21.95 202.49,-19.17 199.71,-16.67 196.92,-14.16 194.70,-13.65 192.49,-13.14 189.38,-14.29 186.28,-15.44 185.27,-17.41 184.26,-19.38 184.17,-22.33 184.08,-25.28 184.09,-27.96 184.10,-30.64 183.76,-34.30 183.42,-37.96 183.21,-41.50 183.01,-45.05 179.53,-44.24 176.05,-43.44 173.39,-42.13 170.72,-40.81 168.18,-39.82 165.63,-38.83 162.97,-37.29 160.31,-35.75 158.07,-34.38 155.84,-33.02 152.82,-30.79 149.81,-28.55 147.96,-26.47 146.10,-24.38 141.81,-23.00 137.52,-21.63 134.76,-22.64 132.01,-23.65 130.69,-25.89 129.36,-28.13 128.29,-31.15 127.22,-34.18 126.46,-37.18 125.69,-40.18 124.47,-43.89 123.26,-47.60 123.56,-51.00 123.85,-54.41 123.93,-57.49 124.00,-60.56 123.76,-65.01 123.52,-69.46 123.12,-74.00 122.73,-78.55 123.42,-83.02 124.11,-87.49 121.75,-86.09 119.39,-84.70 117.23,-81.92 115.07,-79.14 112.66,-75.05 110.26,-70.96 107.28,-65.37 104.30,-59.77 102.86,-57.12 101.43,-54.46 100.45,-51.68 99.47,-48.89 98.04,-45.71 96.62,-42.53 95.73,-39.90 94.85,-37.28 93.02,-35.68 91.19,-34.07 88.12,-33.75 85.05,-33.43 82.75,-35.00 80.45,-36.57 79.64,-39.61 78.83,-42.65 78.45,-44.94 78.07,-47.23 77.79,-50.13 77.51,-53.04 76.75,-56.52 75.99,-60.00 75.26,-64.02 74.52,-68.04 74.70,-71.36 74.87,-74.67 75.88,-72.77 76.88,-70.86 74.38,-70.08 71.89,-69.29 69.86,-67.73 67.84,-66.17 64.95,-63.88 62.07,-61.58 59.21,-59.36 56.35,-57.15 54.09,-55.58 51.84,-54.02 50.09,-52.33 48.34,-50.65 47.09,-48.67 45.83,-46.70 44.59,-44.77 43.35,-42.84 42.17,-41.06 40.99,-39.28 38.21,-36.79 35.42,-34.29 31.81,-35.06 28.19,-35.83 25.35,-38.41 22.51,-40.98 20.17,-42.99 17.84,-45.00 15.40,-47.45 12.97,-49.91 10.22,-52.69 7.48,-55.46 5.39,-58.19 3.30,-60.92 2.09,-63.34 0.88,-65.76 0.46,-68.26 0.05,-70.76 2.27,-70.71 4.50,-70.67 3.90,-67.98 3.29,-65.29 3.16,-61.96 3.03,-58.63 2.96,-54.86 2.89,-51.09 2.94,-46.27 2.99,-41.46 3.06,-36.04 3.13,-30.62 3.22,-25.80 3.32,-20.98 3.45,-15.54 3.58,-10.10 3.75,-5.05 3.93,0 3.87,0.47 3.81,0.94 3.64,1.38 3.48,1.82 3.21,2.21 2.94,2.60 2.58,2.92 2.23,3.23 1.81,3.45 1.39,3.67 0.93,3.78 0.47,3.90 -0.00,3.90 -0.47,3.90 -0.93,3.78 -1.39,3.67 -1.81,3.45 -2.23,3.23 -2.58,2.92 -2.94,2.60 -3.21,2.21 -3.48,1.82 -3.64,1.38 -3.81,0.94 -3.87,0.47 -3.93,-0.00 -3.93,-0.00 L -3.93,0 Z"></path></g></svg>