<?xml version="1.0" standalone="no"?>
<!DOCTYPE svg PUBLIC "-//W3C//DTD SVG 1.1//EN" "http://www.w3.org/Graphics/SVG/1.1/DTD/svg11.dtd">
<svg version="1.1" xmlns="http://www.w3.org/2000/svg" viewBox="0 0 462.0538364227341 169.58033273328147" width="1386.1615092682023" height="508.7409981998444" filter="invert(93%) hue-rotate(180deg)"><!-- svg-source:excalidraw --><metadata></metadata><defs><style class="style-fonts">
      </style></defs><g stroke-linecap="round"><g transform="translate(12.00766377709806 157.91851703371867) rotate(0 218.87700109758612 -74.23916568810137)"><path d="M-2.01 1.66 C35.14 -10.94, 148.1 -50.95, 221.78 -75.88 C295.45 -100.81, 403.58 -136.14, 440.05 -147.92 M2.1 0.1 C40.19 -12, 153.93 -48.13, 226.82 -72.23 C299.72 -96.33, 404.95 -131.29, 439.48 -144.5" stroke="#000000" stroke-width="2" fill="none"></path></g><g transform="translate(12.00766377709806 157.91851703371867) rotate(0 218.87700109758612 -74.23916568810137)"><path d="M421.41 -130.35 C425.26 -130.93, 430.63 -134.7, 440.87 -144.28 M419.77 -128.54 C425.4 -133.51, 432.26 -137.28, 440.45 -144.85" stroke="#000000" stroke-width="2" fill="none"></path></g><g transform="translate(12.00766377709806 157.91851703371867) rotate(0 218.87700109758612 -74.23916568810137)"><path d="M415.67 -146.46 C421 -142.81, 427.86 -142.41, 440.87 -144.28 M414.03 -144.65 C421.48 -144.76, 430.07 -143.66, 440.45 -144.85" stroke="#000000" stroke-width="2" fill="none"></path></g></g><mask></mask></svg>