<?xml version="1.0" standalone="no"?>
<!DOCTYPE svg PUBLIC "-//W3C//DTD SVG 1.1//EN" "http://www.w3.org/Graphics/SVG/1.1/DTD/svg11.dtd">
<svg version="1.1" xmlns="http://www.w3.org/2000/svg" viewBox="0 0 606.6803186417269 244.36243601182287" width="1820.0409559251807" height="733.0873080354686" filter="invert(93%) hue-rotate(180deg)"><!-- svg-source:excalidraw --><metadata></metadata><defs><style class="style-fonts">
      </style></defs><g stroke-linecap="round"><g transform="translate(10.742508605495004 11.632895853742866) rotate(0 293.7558645129527 107.38857890333429)"><path d="M-0.74 -1.63 C14.67 34.37, -3.54 191.02, 94.24 217.32 C192.02 243.61, 503.26 166.06, 585.94 156.14 M4.05 3.65 C20.24 38.81, 3.28 187.7, 99.82 213.69 C196.36 239.67, 502.62 169.68, 583.28 159.55" stroke="#000000" stroke-width="2" fill="none"></path></g><g transform="translate(10.742508605495004 11.632895853742866) rotate(0 293.7558645129527 107.38857890333429)"><path d="M560.42 170.9 C571.2 166.41, 577.64 165.01, 584.82 158.7 M561.79 172.92 C566.77 169.97, 572.44 166.07, 583.32 159.04" stroke="#000000" stroke-width="2" fill="none"></path></g><g transform="translate(10.742508605495004 11.632895853742866) rotate(0 293.7558645129527 107.38857890333429)"><path d="M557.5 154.05 C569.42 155.67, 576.91 160.38, 584.82 158.7 M558.87 156.07 C564.58 157.1, 570.94 157.18, 583.32 159.04" stroke="#000000" stroke-width="2" fill="none"></path></g></g><mask></mask></svg>