<?xml version="1.0" standalone="no"?>
<!DOCTYPE svg PUBLIC "-//W3C//DTD SVG 1.1//EN" "http://www.w3.org/Graphics/SVG/1.1/DTD/svg11.dtd">
<svg version="1.1" xmlns="http://www.w3.org/2000/svg" viewBox="0 0 67.13315413376222 22.74243126183137" width="201.39946240128666" height="68.22729378549411" filter="invert(93%) hue-rotate(180deg)"><!-- svg-source:excalidraw --><metadata></metadata><defs><style class="style-fonts">
      </style></defs><g stroke-linecap="round"><g transform="translate(24.997332660122993 10.947516773855568) rotate(0 15.52500321923003 -0.3625399558945901)"><path d="M-0.05 0.8 C5.12 0.46, 26.89 -0.76, 32.14 -0.95 M-1.54 0.17 C3.48 0.53, 26.36 0.91, 31.76 0.47" stroke="#000" stroke-width="1" fill="none"></path></g><g transform="translate(24.997332660122993 10.947516773855568) rotate(0 15.52500321923003 -0.3625399558945901)"><path d="M18.32 7.52 C22.59 4.37, 29.05 1.72, 30.58 0.92 M17.83 5.49 C22 4.78, 25.38 3.14, 31.46 0.74" stroke="#000" stroke-width="1" fill="none"></path></g><g transform="translate(24.997332660122993 10.947516773855568) rotate(0 15.52500321923003 -0.3625399558945901)"><path d="M18.08 -3.1 C22.54 -2.11, 29.09 -0.62, 30.58 0.92 M17.59 -5.13 C21.82 -2.67, 25.26 -1.12, 31.46 0.74" stroke="#000" stroke-width="1" fill="none"></path></g></g><mask></mask><g stroke-linecap="round"><g transform="translate(41.5709846039108 12.200362566861259) rotate(0 -15.578520855093075 0.06260186117287958)"><path d="M1.09 -0.22 C-4.04 -0.27, -25.43 0.63, -30.81 0.54 M0.2 -1.38 C-5.05 -1.87, -26.22 -1.61, -31.57 -1.37" stroke="#000" stroke-width="1" fill="none"></path></g><g transform="translate(41.5709846039108 12.200362566861259) rotate(0 -15.578520855093075 0.06260186117287958)"><path d="M-17.35 -6.6 C-20.78 -5.24, -26.78 -3.12, -31.59 -1.65 M-16.68 -6.84 C-20.54 -5.76, -23.2 -4.6, -31.81 -1.74" stroke="#000" stroke-width="1" fill="none"></path></g><g transform="translate(41.5709846039108 12.200362566861259) rotate(0 -15.578520855093075 0.06260186117287958)"><path d="M-17.1 4.05 C-20.67 2.26, -26.75 1.25, -31.59 -1.65 M-16.43 3.81 C-20.41 2.74, -23.12 1.74, -31.81 -1.74" stroke="#000" stroke-width="1" fill="none"></path></g></g><mask></mask></svg>