<?xml version="1.0" standalone="no"?>
<!DOCTYPE svg PUBLIC "-//W3C//DTD SVG 1.1//EN" "http://www.w3.org/Graphics/SVG/1.1/DTD/svg11.dtd">
<svg version="1.1" xmlns="http://www.w3.org/2000/svg" viewBox="0 0 65.9052821313453 23.188594709799872" width="197.7158463940359" height="69.56578412939962" filter="invert(93%) hue-rotate(180deg)"><!-- svg-source:excalidraw --><metadata></metadata><defs><style class="style-fonts">
      </style></defs><g stroke-linecap="round"><g transform="translate(24.90348833526423 10.970169738534423) rotate(0 15.225976250262875 -0.35555707656021696)"><path d="M0.85 -0.59 C6.01 -0.93, 26.17 -1.04, 31 -0.92 M-0.16 1.71 C4.88 2.07, 25.52 1.08, 30.34 0.5" stroke="#000" stroke-width="1" fill="none"></path></g><g transform="translate(24.90348833526423 10.970169738534423) rotate(0 15.225976250262875 -0.35555707656021696)"><path d="M15.71 7.47 C20.37 4, 25.96 3.42, 28.83 2.02 M15.85 7.39 C19.81 5.52, 21.36 3.71, 29.92 0.12" stroke="#000" stroke-width="1" fill="none"></path></g><g transform="translate(24.90348833526423 10.970169738534423) rotate(0 15.225976250262875 -0.35555707656021696)"><path d="M14.93 -2.92 C19.93 -3.23, 25.75 -0.64, 28.83 2.02 M15.07 -3 C19.26 -2.75, 20.97 -2.45, 29.92 0.12" stroke="#000" stroke-width="1" fill="none"></path></g></g><mask></mask><g stroke-linecap="round"><g transform="translate(41.15791529497346 12.198884478245418) rotate(0 -15.27846308334847 0.06139608720104661)"><path d="M0.55 -0.21 C-4.78 0.05, -26.05 1.12, -31.16 0.98 M-0.62 -1.37 C-5.63 -1.38, -23.76 -0.86, -28.76 -0.7" stroke="#000" stroke-width="1" fill="none"></path></g><g transform="translate(41.15791529497346 12.198884478245418) rotate(0 -15.27846308334847 0.06139608720104661)"><path d="M-14.84 -7.12 C-18.77 -3.62, -26.64 -0.58, -30.24 0.34 M-13.99 -6.46 C-18.25 -5.71, -20.9 -4.28, -29.03 0.03" stroke="#000" stroke-width="1" fill="none"></path></g><g transform="translate(41.15791529497346 12.198884478245418) rotate(0 -15.27846308334847 0.06139608720104661)"><path d="M-14.52 3.33 C-18.52 2.95, -26.51 2.12, -30.24 0.34 M-13.68 3.99 C-17.91 2.58, -20.64 1.85, -29.03 0.03" stroke="#000" stroke-width="1" fill="none"></path></g></g><mask></mask></svg>