<?xml version="1.0" standalone="no"?>
<!DOCTYPE svg PUBLIC "-//W3C//DTD SVG 1.1//EN" "http://www.w3.org/Graphics/SVG/1.1/DTD/svg11.dtd">
<svg version="1.1" xmlns="http://www.w3.org/2000/svg" viewBox="0 0 71.59804017373699 22.59532986574959" width="214.79412052121097" height="67.78598959724877" filter="invert(93%) hue-rotate(180deg)"><!-- svg-source:excalidraw --><metadata></metadata><defs><style class="style-fonts">
      </style></defs><g stroke-linecap="round"><g transform="translate(26.878067356129577 10.77905839363666) rotate(0 17.13383798469249 -0.4001094737022868)"><path d="M0.98 0.46 C6.91 0.24, 29.33 -0.39, 34.72 -0.78 M0.03 -0.34 C5.92 -0.41, 28.06 0.91, 34.01 0.77" stroke="#000" stroke-width="1" fill="none"></path></g><g transform="translate(26.878067356129577 10.77905839363666) rotate(0 17.13383798469249 -0.4001094737022868)"><path d="M18.44 6.92 C21.46 3.53, 23.53 5.14, 32.9 2.04 M17.32 5.97 C23.1 4.01, 28.97 2.97, 34.41 1.54" stroke="#000" stroke-width="1" fill="none"></path></g><g transform="translate(26.878067356129577 10.77905839363666) rotate(0 17.13383798469249 -0.4001094737022868)"><path d="M18.7 -4.8 C21.71 -5.54, 23.72 -1.28, 32.9 2.04 M17.57 -5.75 C23.32 -3.39, 29.1 -0.11, 34.41 1.54" stroke="#000" stroke-width="1" fill="none"></path></g></g><mask></mask><g stroke-linecap="round"><g transform="translate(45.16922409275503 12.161734875827278) rotate(0 -17.192901579672252 0.06908920608475455)"><path d="M0.67 -0.29 C-5.29 -0.12, -29.33 0.51, -35.17 0.43 M-0.43 -1.49 C-6.06 -1.65, -27.08 -1.8, -32.87 -1.55" stroke="#000" stroke-width="1" fill="none"></path></g><g transform="translate(45.16922409275503 12.161734875827278) rotate(0 -17.192901579672252 0.06908920608475455)"><path d="M-17.22 -8.8 C-22.04 -5.44, -29.4 -3.81, -32.27 -0.37 M-16.86 -7.43 C-22.21 -5.05, -27.18 -3.91, -33.41 -2.16" stroke="#000" stroke-width="1" fill="none"></path></g><g transform="translate(45.16922409275503 12.161734875827278) rotate(0 -17.192901579672252 0.06908920608475455)"><path d="M-17.04 2.96 C-21.87 2.21, -29.28 -0.28, -32.27 -0.37 M-16.68 4.33 C-22.12 3.2, -27.14 0.82, -33.41 -2.16" stroke="#000" stroke-width="1" fill="none"></path></g></g><mask></mask></svg>