<svg version="1.1" xmlns="http://www.w3.org/2000/svg" viewBox="0 0 1387.07817726961 838.8939734166543" width="4161.23453180883" height="2516.681920249963">
  <!-- svg-source:excalidraw -->
  
  <defs>
    <style class="style-fonts">
      
    </style>
    
  </defs>
  <g stroke-linecap="round" transform="translate(10 10) rotate(0 683.539088634805 409.44698670832713)"><path d="M32 0 C467.89 2.82, 903.03 4.19, 1335.08 0 M32 0 C437.06 -6.78, 841.88 -6.49, 1335.08 0 M1335.08 0 C1358.1 -1.85, 1366.27 7.83, 1367.08 32 M1335.08 0 C1352.6 -4.26, 1369.65 13.6, 1367.08 32 M1367.08 32 C1368.93 235.26, 1368.02 437.52, 1367.08 786.89 M1367.08 32 C1366.57 212.14, 1366.76 392.9, 1367.08 786.89 M1367.08 786.89 C1364.55 809.23, 1354.83 819.62, 1335.08 818.89 M1367.08 786.89 C1367.6 809.64, 1353.84 821.88, 1335.08 818.89 M1335.08 818.89 C813.52 814.56, 295.68 815.03, 32 818.89 M1335.08 818.89 C904.03 821.08, 472.21 820.21, 32 818.89 M32 818.89 C8.56 819.2, -2.56 810.63, 0 786.89 M32 818.89 C11.51 815.98, 3.37 810.29, 0 786.89 M0 786.89 C-2.16 498.41, -3.19 209.96, 0 32 M0 786.89 C-2.98 551.8, -2 315.1, 0 32 M0 32 C0.71 14.66, 11.73 0.79, 32 0 M0 32 C1.1 11.42, 10 -0.91, 32 0" stroke="#ebebeb" stroke-width="4" fill="none"></path></g><g stroke-linecap="round"><g transform="translate(38.12622359337729 125.35857691327328) rotate(0 655.1665039588579 -0.18990333448073216)"><path d="M-0.11 -1.59 C217.91 -1.07, 1091.81 1.81, 1310.62 1.59 M-3.61 3.72 C213.83 3.6, 1089.23 -1.54, 1308.54 -2.36" stroke="#ebebeb" stroke-width="4" fill="none"></path></g></g><mask></mask><g stroke-linecap="round" transform="translate(76.09662544443563 42.837879297523614) rotate(0 38.324545907252286 28.500897739784705)"><path d="M18.08 3.66 C23.9 -0.01, 33.86 -0.67, 40.9 -0.54 C47.94 -0.42, 54.86 1.16, 60.31 4.41 C65.77 7.66, 71.46 13.48, 73.61 18.97 C75.77 24.45, 75.71 31.73, 73.22 37.32 C70.73 42.9, 64.78 49.4, 58.67 52.48 C52.56 55.56, 43.59 56.23, 36.56 55.8 C29.54 55.37, 22.63 52.81, 16.53 49.91 C10.42 47, 2.23 43.39, -0.09 38.37 C-2.4 33.34, -5.33 25.76, 2.65 19.76 C10.62 13.75, 36.35 2.97, 47.75 2.34 C59.15 1.72, 71.33 15.6, 71.05 15.99 M28.89 -1.57 C35.53 -4.1, 43.17 -3.9, 49.74 -1.19 C56.3 1.52, 63.55 9.6, 68.3 14.71 C73.06 19.81, 78.62 23.73, 78.27 29.43 C77.91 35.13, 71.42 44.44, 66.18 48.91 C60.94 53.38, 53.29 55.53, 46.84 56.27 C40.39 57.01, 33.73 55.36, 27.47 53.34 C21.21 51.32, 14.29 48.71, 9.27 44.15 C4.25 39.59, -2.5 31.37, -2.63 25.97 C-2.77 20.56, 3.14 15.94, 8.49 11.74 C13.84 7.54, 25.99 2.7, 29.47 0.78 C32.95 -1.14, 29.65 -0.76, 29.37 0.22" stroke="#ebebeb" stroke-width="4" fill="none"></path></g><g stroke-linecap="round" transform="translate(186.52798070631434 51.747938450460424) rotate(0 92.91405578666127 17.886841099072626)"><path d="M8.94 0 C64.41 1.79, 117.39 -1.24, 176.88 0 M8.94 0 C48.17 0.57, 91.81 -1.63, 176.88 0 M176.88 0 C183.04 1.11, 185 5.72, 185.83 8.94 M176.88 0 C180.19 -0.86, 184.45 4.56, 185.83 8.94 M185.83 8.94 C185.09 17.22, 185.98 21.81, 185.83 26.83 M185.83 8.94 C184.47 16.32, 186.37 21.5, 185.83 26.83 M185.83 26.83 C184.09 34.28, 180.68 33.47, 176.88 35.77 M185.83 26.83 C188.07 30.82, 186.88 40.31, 176.88 35.77 M176.88 35.77 C117.57 32.53, 60.85 38.02, 8.94 35.77 M176.88 35.77 C136.82 31.69, 94.79 32.91, 8.94 35.77 M8.94 35.77 C1.53 37.15, -2.52 33.43, 0 26.83 M8.94 35.77 C5 33.4, 1.4 36.03, 0 26.83 M0 26.83 C1.61 19.14, 0.91 16.22, 0 8.94 M0 26.83 C-0.01 22.24, 1.71 15.96, 0 8.94 M0 8.94 C3.01 4.14, 0.49 -0.17, 8.94 0 M0 8.94 C-4.25 5.25, -0.11 1, 8.94 0" stroke="#ebebeb" stroke-width="4" fill="none"></path></g><g stroke-linecap="round" transform="translate(66.98126538935503 168.92342834768715) rotate(0 271.40266010842515 30.163835047130306)"><path d="M15.08 0 C173.35 -1.16, 334.33 -2.24, 527.72 0 M15.08 0 C184.63 -1.51, 354.34 -1.88, 527.72 0 M527.72 0 C538.84 1.6, 544.53 5.19, 542.81 15.08 M527.72 0 C536.15 0.02, 546.79 9.47, 542.81 15.08 M542.81 15.08 C540.77 26.32, 539.56 39.87, 542.81 45.25 M542.81 15.08 C541.99 23.81, 543.68 30.35, 542.81 45.25 M542.81 45.25 C545.67 59.17, 537.8 60.78, 527.72 60.33 M542.81 45.25 C541.16 58.43, 539.87 59.27, 527.72 60.33 M527.72 60.33 C416.16 60.25, 307.73 59.66, 15.08 60.33 M527.72 60.33 C401.47 60.91, 275.59 60.41, 15.08 60.33 M15.08 60.33 C1.45 61.66, 1.78 52.31, 0 45.25 M15.08 60.33 C3.17 57.07, -0.11 58.8, 0 45.25 M0 45.25 C1.34 36.68, 2.07 25.18, 0 15.08 M0 45.25 C1.04 40.38, 0.36 31.3, 0 15.08 M0 15.08 C-2.81 2.58, 4.87 3.7, 15.08 0 M0 15.08 C4.47 2.61, 5.27 1.54, 15.08 0" stroke="#ebebeb" stroke-width="4" fill="none"></path></g><g stroke-linecap="round"><g transform="translate(48.617099692803095 267.86819813475086) rotate(0 641.9810535188244 -2.5611287542142236)"><path d="M0.22 0.36 C214.42 -0.14, 1069.8 -3.47, 1283.6 -4.81 M-3.1 -1.91 C210.83 -1.73, 1067.19 -0.33, 1281.17 -1.01" stroke="#ebebeb" stroke-width="4" fill="none"></path></g></g><mask></mask><g stroke-linecap="round" transform="translate(249.7247309079994 315.51340499922844) rotate(0 68.52430861225821 39.73085708692088)"><path d="M5.29 4.6 C5.29 4.6, 5.29 4.6, 5.29 4.6 M5.29 4.6 C5.29 4.6, 5.29 4.6, 5.29 4.6 M0.96 33.96 C9.52 23.84, 10.2 19.12, 30.48 0 M0.96 33.96 C10.14 22.12, 20.05 13.03, 30.48 0 M1.23 58.04 C20.67 39.41, 35.08 20.36, 51.74 -0.07 M1.23 58.04 C20.76 34.59, 42.68 11.72, 51.74 -0.07 M6.74 76.09 C34.16 46.88, 55.13 21.68, 73 -0.14 M6.74 76.09 C21.21 59.29, 36.25 39.48, 73 -0.14 M24.72 79.79 C40.56 64.64, 56.68 44.28, 94.26 -0.21 M24.72 79.79 C49.23 50.23, 74.3 23.31, 94.26 -0.21 M45.98 79.72 C65.23 65.93, 81.58 40.57, 115.53 -0.28 M45.98 79.72 C64.98 56.33, 83.43 33.76, 115.53 -0.28 M66.59 80.41 C90.69 55.28, 109.6 35.65, 132.19 4.94 M66.59 80.41 C92.68 52.39, 114.47 21.96, 132.19 4.94 M87.85 80.34 C97.73 69.36, 112.94 48, 137.71 22.98 M87.85 80.34 C101.4 69.03, 110.78 50.87, 137.71 22.98 M109.11 80.27 C116.56 67.29, 126.41 59.11, 137.32 47.82 M109.11 80.27 C115.04 72.5, 121.75 66.4, 137.32 47.82 M7.64 76.57 C7.64 76.57, 7.64 76.57, 7.64 76.57 M7.64 76.57 C7.64 76.57, 7.64 76.57, 7.64 76.57 M35.5 79.58 C19.16 65.41, 10.47 58.89, 0.78 49.4 M35.5 79.58 C21.6 67.44, 11.32 59.97, 0.78 49.4 M59.58 79.31 C50.1 66.35, 31.2 57.83, 0.71 28.14 M59.58 79.31 C48.49 69.74, 38.17 57.35, 0.71 28.14 M83.66 79.05 C61.16 55.04, 29.22 39.86, 2.91 8.85 M83.66 79.05 C61.87 62.96, 43.14 44.96, 2.91 8.85 M108.5 79.44 C88.01 58.3, 61.14 43.15, 17.18 0.05 M108.5 79.44 C72.57 49.2, 35.77 16.76, 17.18 0.05 M129.56 76.55 C102.5 52.84, 77.36 29.37, 41.26 -0.21 M129.56 76.55 C107.57 61.33, 90.54 41.86, 41.26 -0.21 M137.04 61.85 C115.89 40.06, 88.41 19.84, 66.1 0.18 M137.04 61.85 C120.61 47.58, 107.57 35.4, 66.1 0.18 M136.97 40.59 C122.37 28.99, 116.23 18.93, 90.18 -0.09 M136.97 40.59 C123.67 29.91, 114.59 21.42, 90.18 -0.09 M136.9 19.33 C125.61 11.68, 120.93 4.81, 114.26 -0.35 M136.9 19.33 C129.77 13.94, 127.01 8.23, 114.26 -0.35" stroke="#00A3E9" stroke-width="2" fill="none"></path><path d="M19.87 0 C55.59 -2.4, 84.38 -1.31, 117.18 0 M19.87 0 C46.79 -0.52, 72.29 -0.53, 117.18 0 M117.18 0 C132.58 -1.22, 134.02 2.68, 137.05 19.87 M117.18 0 C126.55 1.25, 135.19 8.2, 137.05 19.87 M137.05 19.87 C135.15 32.55, 136.17 51.26, 137.05 59.6 M137.05 19.87 C138.63 28.79, 137.93 34.83, 137.05 59.6 M137.05 59.6 C140.29 69.01, 133.76 75.53, 117.18 79.46 M137.05 59.6 C140.89 72.99, 126.23 83.92, 117.18 79.46 M117.18 79.46 C92.08 83.67, 59.19 80.72, 19.87 79.46 M117.18 79.46 C83.13 80.74, 46.54 81.47, 19.87 79.46 M19.87 79.46 C4.15 76.47, -1.64 71.14, 0 59.6 M19.87 79.46 C6.58 77.57, -1.87 76.91, 0 59.6 M0 59.6 C-3.34 46.02, -2.34 33.49, 0 19.87 M0 59.6 C0.29 52.27, 1.98 41.81, 0 19.87 M0 19.87 C-3.47 7.72, 3.61 0.46, 19.87 0 M0 19.87 C-0.88 10.03, 3.6 0.79, 19.87 0" stroke="#ebebeb" stroke-width="4" fill="none"></path></g><g stroke-linecap="round" transform="translate(813.2346471058154 315.32863418729903) rotate(0 68.52430861225821 39.73085708692088)"><path d="M5.29 4.6 C5.29 4.6, 5.29 4.6, 5.29 4.6 M5.29 4.6 C5.29 4.6, 5.29 4.6, 5.29 4.6 M0.96 33.96 C5.34 29.32, 13.35 20.11, 30.48 0 M0.96 33.96 C5.91 24.66, 14.49 18.42, 30.48 0 M1.23 58.04 C15.27 41.46, 29.11 27.34, 51.74 -0.07 M1.23 58.04 C12.16 44.86, 19.59 35.68, 51.74 -0.07 M6.74 76.09 C18.84 62.06, 33.14 47.26, 73 -0.14 M6.74 76.09 C31.05 46.57, 56.61 19.06, 73 -0.14 M24.72 79.79 C54.8 46.19, 84.77 20.78, 94.26 -0.21 M24.72 79.79 C44.32 56.3, 66.02 32.68, 94.26 -0.21 M45.98 79.72 C66.88 52.66, 91.87 23.75, 115.53 -0.28 M45.98 79.72 C65.19 58.23, 85.25 37.2, 115.53 -0.28 M66.59 80.41 C83.68 62.43, 101.23 37.67, 132.19 4.94 M66.59 80.41 C92.33 49.26, 119.59 20.19, 132.19 4.94 M87.85 80.34 C109.96 60.65, 127.11 33.72, 137.71 22.98 M87.85 80.34 C100.31 65.31, 110.23 53.4, 137.71 22.98 M109.11 80.27 C120.05 71.88, 126.05 58.37, 137.32 47.82 M109.11 80.27 C114.48 70.11, 122.73 63.51, 137.32 47.82 M7.64 76.57 C7.64 76.57, 7.64 76.57, 7.64 76.57 M7.64 76.57 C7.64 76.57, 7.64 76.57, 7.64 76.57 M35.5 79.58 C23.56 67.55, 13.79 63.03, 0.78 49.4 M35.5 79.58 C21.66 69.07, 8.6 54.97, 0.78 49.4 M59.58 79.31 C36.73 64.17, 18.76 43.22, 0.71 28.14 M59.58 79.31 C41.04 64.55, 24.44 48, 0.71 28.14 M83.66 79.05 C63.71 62.86, 42.04 41.67, 2.91 8.85 M83.66 79.05 C50.21 51.53, 20.02 24.66, 2.91 8.85 M108.5 79.44 C78.1 51.27, 47.61 26.17, 17.18 0.05 M108.5 79.44 C86.06 59.37, 64.2 39.74, 17.18 0.05 M129.56 76.55 C101.85 50.82, 70.85 26.04, 41.26 -0.21 M129.56 76.55 C99.37 50, 69.33 24.33, 41.26 -0.21 M137.04 61.85 C117.85 38.53, 89.75 20.55, 66.1 0.18 M137.04 61.85 C113.35 45.92, 92.64 26.36, 66.1 0.18 M136.97 40.59 C119.56 30.45, 105.38 18.71, 90.18 -0.09 M136.97 40.59 C119.36 25.49, 101.81 11.92, 90.18 -0.09 M136.9 19.33 C127.79 8.48, 121.92 4.43, 114.26 -0.35 M136.9 19.33 C132.3 13.73, 123.19 10.03, 114.26 -0.35" stroke="#00A3E9" stroke-width="2" fill="none"></path><path d="M19.87 0 C48.34 2.59, 71.49 -1.02, 117.18 0 M19.87 0 C55.67 -0.91, 96.22 -2.35, 117.18 0 M117.18 0 C130.67 0.14, 140.88 4.49, 137.05 19.87 M117.18 0 C131.82 0.62, 140.35 7.04, 137.05 19.87 M137.05 19.87 C133.78 29.92, 138.93 33.91, 137.05 59.6 M137.05 19.87 C139.28 33.02, 137.89 47.47, 137.05 59.6 M137.05 59.6 C133.53 75.17, 132.41 78.11, 117.18 79.46 M137.05 59.6 C132.68 75.89, 128.1 76.43, 117.18 79.46 M117.18 79.46 C85.24 78.97, 54.66 75.4, 19.87 79.46 M117.18 79.46 C80.5 78.95, 45.61 79.89, 19.87 79.46 M19.87 79.46 C5.87 79.82, -2.55 72.8, 0 59.6 M19.87 79.46 C8.42 80.33, -2.67 72.53, 0 59.6 M0 59.6 C2.76 41.26, 2.37 27.98, 0 19.87 M0 59.6 C0.62 50.05, 0.13 44.23, 0 19.87 M0 19.87 C3.18 8.78, 2.75 0.16, 19.87 0 M0 19.87 C2.41 8.93, 8.1 -2.55, 19.87 0" stroke="#ebebeb" stroke-width="4" fill="none"></path></g><g stroke-linecap="round" transform="translate(998.5803015591027 316.2216931116109) rotate(0 68.52430861225821 39.73085708692088)"><path d="M5.29 4.6 C5.29 4.6, 5.29 4.6, 5.29 4.6 M5.29 4.6 C5.29 4.6, 5.29 4.6, 5.29 4.6 M10.15 23.4 C11.62 15.76, 18.43 15.89, 25.89 5.28 M10.15 23.4 C16.42 18.18, 19.8 13.28, 25.89 5.28 M9.76 48.23 C20.57 33.25, 34.73 17.47, 47.15 5.21 M9.76 48.23 C21.77 36.82, 33.78 22.92, 47.15 5.21 M7.4 75.33 C32.51 49.01, 48.14 24.15, 68.41 5.14 M7.4 75.33 C24.43 55.71, 41.65 35.41, 68.41 5.14 M22.75 82.06 C47.41 54.45, 68.8 31.9, 89.67 5.08 M22.75 82.06 C46.23 53.2, 70.95 28.59, 89.67 5.08 M44.01 81.99 C65.37 55.24, 89.22 24.85, 110.93 5.01 M44.01 81.99 C60.89 59.21, 82.52 37.68, 110.93 5.01 M65.27 81.92 C79.99 68.78, 91.16 51.82, 132.19 4.94 M65.27 81.92 C81.04 61.09, 98.29 41.92, 132.19 4.94 M86.53 81.85 C100.72 65.64, 110.16 54.66, 140.99 19.21 M86.53 81.85 C102.3 61.66, 119.39 39.79, 140.99 19.21 M107.8 81.78 C121.16 70.31, 135.25 52.92, 141.25 43.29 M107.8 81.78 C115.78 71.97, 124.09 62.02, 141.25 43.29 M7.64 76.57 C7.64 76.57, 7.64 76.57, 7.64 76.57 M7.64 76.57 C7.64 76.57, 7.64 76.57, 7.64 76.57 M35.5 79.58 C27.8 68.68, 11.3 58.24, 0.78 49.4 M35.5 79.58 C23.75 67.41, 12.35 58.9, 0.78 49.4 M59.58 79.31 C36.14 62.34, 13.72 37.24, 0.71 28.14 M59.58 79.31 C40.61 64.09, 22.42 48.07, 0.71 28.14 M83.66 79.05 C64.2 58, 39.02 38.88, 2.91 8.85 M83.66 79.05 C62.16 60.61, 41.49 41.65, 2.91 8.85 M108.5 79.44 C73.6 50.93, 37.19 14.63, 17.18 0.05 M108.5 79.44 C88.21 62.23, 65.21 45.74, 17.18 0.05 M129.56 76.55 C105.28 55.22, 76.81 30.5, 41.26 -0.21 M129.56 76.55 C98.95 50.03, 70.51 22.63, 41.26 -0.21 M137.04 61.85 C111.08 40.84, 84.17 10.53, 66.1 0.18 M137.04 61.85 C117.38 45.04, 94.13 26.46, 66.1 0.18 M136.97 40.59 C128.46 27.77, 116.06 23.46, 90.18 -0.09 M136.97 40.59 C127.87 33.03, 118.51 24.07, 90.18 -0.09 M136.9 19.33 C127.39 10.22, 126.51 5.97, 114.26 -0.35 M136.9 19.33 C130 14.29, 125.47 8.77, 114.26 -0.35" stroke="#00A3E9" stroke-width="2" fill="none"></path><path d="M19.87 0 C53.96 0.53, 87.73 3.66, 117.18 0 M19.87 0 C44.87 0.15, 71.92 3.59, 117.18 0 M117.18 0 C127.41 -2.59, 138.19 4.02, 137.05 19.87 M117.18 0 C134.32 4.47, 136.43 3.11, 137.05 19.87 M137.05 19.87 C136.89 33.36, 137.23 51.04, 137.05 59.6 M137.05 19.87 C138.18 33.73, 136.52 50.19, 137.05 59.6 M137.05 59.6 C137.51 71.26, 132.07 79.47, 117.18 79.46 M137.05 59.6 C141.56 71.83, 131.16 76.48, 117.18 79.46 M117.18 79.46 C88.59 82.02, 60.23 81, 19.87 79.46 M117.18 79.46 C89.13 82.36, 64.16 81.83, 19.87 79.46 M19.87 79.46 C10.24 81.45, 2.31 69.15, 0 59.6 M19.87 79.46 C3.31 75.07, 2.18 72.83, 0 59.6 M0 59.6 C0.56 50.71, 0.95 44.15, 0 19.87 M0 59.6 C-0.97 45.92, -0.12 31.15, 0 19.87 M0 19.87 C-4 5.16, 5.8 -0.14, 19.87 0 M0 19.87 C1.35 9.15, 5.7 4.32, 19.87 0" stroke="#ebebeb" stroke-width="4" fill="none"></path></g><g stroke-linecap="round" transform="translate(1181.3288996003012 309.61100406266087) rotate(0 68.52430861225821 39.73085708692088)"><path d="M5.29 4.6 C5.29 4.6, 5.29 4.6, 5.29 4.6 M5.29 4.6 C5.29 4.6, 5.29 4.6, 5.29 4.6 M0.96 33.96 C7.38 20.81, 20.31 9.76, 30.48 0 M0.96 33.96 C7.08 26.85, 16.06 18.69, 30.48 0 M1.23 58.04 C15.75 39.59, 30.21 23.98, 51.74 -0.07 M1.23 58.04 C20.19 36.59, 38.38 14.09, 51.74 -0.07 M6.74 76.09 C23.76 49.69, 46.28 29.49, 73 -0.14 M6.74 76.09 C27.16 55, 45.84 30.22, 73 -0.14 M24.72 79.79 C38.16 59.25, 52.36 44.42, 94.26 -0.21 M24.72 79.79 C44.15 56.42, 67.61 29.1, 94.26 -0.21 M45.98 79.72 C65.91 54.85, 89.1 29.24, 115.53 -0.28 M45.98 79.72 C73.77 49.18, 99.54 20.06, 115.53 -0.28 M66.59 80.41 C86.04 55.34, 102.52 35.86, 132.19 4.94 M66.59 80.41 C87.43 53.63, 111.16 27.43, 132.19 4.94 M87.85 80.34 C105 66.48, 114.42 44.5, 137.71 22.98 M87.85 80.34 C102.01 66.34, 113.12 50.16, 137.71 22.98 M109.11 80.27 C122.15 68.46, 128.03 56.99, 137.32 47.82 M109.11 80.27 C117.1 74.58, 121.61 64.24, 137.32 47.82 M7.64 76.57 C7.64 76.57, 7.64 76.57, 7.64 76.57 M7.64 76.57 C7.64 76.57, 7.64 76.57, 7.64 76.57 M35.5 79.58 C26.34 73.7, 19.93 59.34, 0.78 49.4 M35.5 79.58 C23.01 71.42, 12.41 61.43, 0.78 49.4 M59.58 79.31 C37.61 61.9, 14.77 45.33, 0.71 28.14 M59.58 79.31 C39.05 61.29, 17.6 41.98, 0.71 28.14 M83.66 79.05 C61.05 60.1, 34.86 45.77, 2.91 8.85 M83.66 79.05 C59.79 56.06, 34.13 33.72, 2.91 8.85 M108.5 79.44 C88.18 57.1, 61.8 39.85, 17.18 0.05 M108.5 79.44 C89.65 60.98, 67.73 44.83, 17.18 0.05 M129.56 76.55 C105.43 56.65, 86.12 36.48, 41.26 -0.21 M129.56 76.55 C102.01 55.1, 76.91 33.69, 41.26 -0.21 M137.04 61.85 C107.48 35.65, 77.76 16.47, 66.1 0.18 M137.04 61.85 C119.85 48.19, 104.54 34.64, 66.1 0.18 M136.97 40.59 C127.23 31.06, 112.51 22.14, 90.18 -0.09 M136.97 40.59 C125.3 28.97, 111.46 15.13, 90.18 -0.09 M136.9 19.33 C128.12 14.12, 120.15 3.51, 114.26 -0.35 M136.9 19.33 C133.33 14.09, 128.39 11.36, 114.26 -0.35" stroke="#00A3E9" stroke-width="2" fill="none"></path><path d="M19.87 0 C53.23 2.33, 91.61 -1.58, 117.18 0 M19.87 0 C42.54 1.29, 65.74 0.73, 117.18 0 M117.18 0 C131.18 -1.32, 138.47 7.28, 137.05 19.87 M117.18 0 C127.79 2.83, 134.12 8.23, 137.05 19.87 M137.05 19.87 C139.23 32.65, 134.77 47.93, 137.05 59.6 M137.05 19.87 C138.31 33.16, 138.08 47.01, 137.05 59.6 M137.05 59.6 C135.22 71.92, 129.57 80.21, 117.18 79.46 M137.05 59.6 C132.47 70.09, 132.95 76.24, 117.18 79.46 M117.18 79.46 C95.67 83.4, 71.04 83.22, 19.87 79.46 M117.18 79.46 C90.07 79.44, 63.45 80.82, 19.87 79.46 M19.87 79.46 C3.33 82.66, 2.87 76.16, 0 59.6 M19.87 79.46 C4.57 80.5, 1.01 73.52, 0 59.6 M0 59.6 C0.28 43.36, -4.03 30.38, 0 19.87 M0 59.6 C1.4 49.06, -0.32 33.9, 0 19.87 M0 19.87 C2.05 10.45, 8.04 -0.7, 19.87 0 M0 19.87 C3.1 3.22, 6.41 -2.68, 19.87 0" stroke="#ebebeb" stroke-width="4" fill="none"></path></g><g stroke-linecap="round"><g transform="translate(61.68450211410709 443.2362287439664) rotate(0 632.7630430126737 -2.263442446109366)"><path d="M0.57 2.32 C211.99 1.32, 1055.79 -5.31, 1266.59 -6.62 M-2.56 1.11 C208.75 0.45, 1053.92 -3.44, 1264.92 -4.13" stroke="#fff" stroke-width="4" fill="none"></path></g></g><mask></mask><g stroke-linecap="round" transform="translate(73.71000245704272 316.20116302140013) rotate(0 68.52430861225821 39.73085708692088)"><path d="M5.29 4.6 C5.29 4.6, 5.29 4.6, 5.29 4.6 M5.29 4.6 C5.29 4.6, 5.29 4.6, 5.29 4.6 M10.15 23.4 C13.47 18.99, 23.7 9.87, 25.89 5.28 M10.15 23.4 C14.91 17.24, 21.88 7.13, 25.89 5.28 M9.76 48.23 C17.55 37.5, 31.23 23.39, 47.15 5.21 M9.76 48.23 C20.7 37.27, 29.41 25.24, 47.15 5.21 M7.4 75.33 C30.19 44.57, 58.03 16.86, 68.41 5.14 M7.4 75.33 C23.79 56.29, 37.92 39.32, 68.41 5.14 M22.75 82.06 C38.27 61.16, 62.38 38.17, 89.67 5.08 M22.75 82.06 C39.01 64.31, 56.55 43.79, 89.67 5.08 M44.01 81.99 C58.73 66.77, 77.73 45.13, 110.93 5.01 M44.01 81.99 C65.06 57.77, 84.43 34.78, 110.93 5.01 M65.27 81.92 C86.61 54.39, 105.77 29.71, 132.19 4.94 M65.27 81.92 C83.73 59.44, 104.03 39.38, 132.19 4.94 M86.53 81.85 C99.3 66.35, 116.56 45.79, 140.99 19.21 M86.53 81.85 C103.89 61.88, 119.93 40.59, 140.99 19.21 M107.8 81.78 C116.3 70.41, 129.04 54.67, 141.25 43.29 M107.8 81.78 C121.11 67.24, 130.38 56.61, 141.25 43.29 M7.64 76.57 C7.64 76.57, 7.64 76.57, 7.64 76.57 M7.64 76.57 C7.64 76.57, 7.64 76.57, 7.64 76.57 M35.5 79.58 C22.48 69.06, 18.71 65, 0.78 49.4 M35.5 79.58 C25.75 71.99, 15.02 62.02, 0.78 49.4 M59.58 79.31 C42.13 61.35, 20.64 44.18, 0.71 28.14 M59.58 79.31 C43.81 67.41, 30.09 53.61, 0.71 28.14 M83.66 79.05 C62.67 55.72, 38.73 41.25, 2.91 8.85 M83.66 79.05 C63.06 62.77, 43.97 41.54, 2.91 8.85 M108.5 79.44 C80.96 57.62, 52.95 35.61, 17.18 0.05 M108.5 79.44 C86.35 59.64, 66.22 42.32, 17.18 0.05 M129.56 76.55 C99.49 53.15, 65.78 22.09, 41.26 -0.21 M129.56 76.55 C103.03 49.75, 75.67 27.78, 41.26 -0.21 M137.04 61.85 C115.87 40.21, 92.32 25.02, 66.1 0.18 M137.04 61.85 C111.29 38.71, 79.89 14.3, 66.1 0.18 M136.97 40.59 C126.9 29.44, 116.21 24.74, 90.18 -0.09 M136.97 40.59 C119.86 28.04, 108.27 14.17, 90.18 -0.09 M136.9 19.33 C129.09 13.7, 125.5 6.48, 114.26 -0.35 M136.9 19.33 C131.22 12.7, 123.18 9.02, 114.26 -0.35" stroke="#00A3E9" stroke-width="2" fill="none"></path><path d="M19.87 0 C47.73 2.81, 78.44 -3.07, 117.18 0 M19.87 0 C50.88 0.55, 83.72 0.49, 117.18 0 M117.18 0 C132.22 3.21, 136.12 5.77, 137.05 19.87 M117.18 0 C131 -3.9, 138.86 9.53, 137.05 19.87 M137.05 19.87 C137.13 34.02, 135.7 43.38, 137.05 59.6 M137.05 19.87 C137.06 33.76, 139.39 51.84, 137.05 59.6 M137.05 59.6 C133.82 73.36, 132.53 78.37, 117.18 79.46 M137.05 59.6 C140.4 72.31, 128.6 78.87, 117.18 79.46 M117.18 79.46 C89.1 80.5, 56.4 80.65, 19.87 79.46 M117.18 79.46 C93.88 80.22, 70.96 79.24, 19.87 79.46 M19.87 79.46 C3.49 78.43, 1.64 75.68, 0 59.6 M19.87 79.46 C8.49 78.6, 3.28 70.79, 0 59.6 M0 59.6 C1.84 54.7, -1.23 41.97, 0 19.87 M0 59.6 C2.06 47.77, 1.11 39.55, 0 19.87 M0 19.87 C-2.91 5.57, 3.61 -1.62, 19.87 0 M0 19.87 C-1.6 8.66, 4.25 3.48, 19.87 0" stroke="#ebebeb" stroke-width="4" fill="none"></path></g><g stroke-linecap="round" transform="translate(435.7684084285738 311.5818927232158) rotate(0 68.52430861225821 39.73085708692088)"><path d="M5.29 4.6 C5.29 4.6, 5.29 4.6, 5.29 4.6 M5.29 4.6 C5.29 4.6, 5.29 4.6, 5.29 4.6 M0.96 33.96 C9.92 27.61, 14.97 16.27, 30.48 0 M0.96 33.96 C6.04 27.87, 12.14 21.02, 30.48 0 M1.23 58.04 C22.07 40.88, 37.99 21.7, 51.74 -0.07 M1.23 58.04 C17.46 37.23, 37.42 16.6, 51.74 -0.07 M6.74 76.09 C23.86 56.43, 48.3 33.6, 73 -0.14 M6.74 76.09 C22.99 54.24, 40.85 33.61, 73 -0.14 M24.72 79.79 C46.67 54.78, 76.36 18.88, 94.26 -0.21 M24.72 79.79 C44.27 55.44, 64.4 32.09, 94.26 -0.21 M45.98 79.72 C61.78 59, 81.21 36.5, 115.53 -0.28 M45.98 79.72 C65.35 53.35, 84.91 33.3, 115.53 -0.28 M66.59 80.41 C93.99 54.58, 115.85 22.67, 132.19 4.94 M66.59 80.41 C78.24 63.23, 95.72 47.83, 132.19 4.94 M87.85 80.34 C109.59 58.15, 127.19 42.78, 137.71 22.98 M87.85 80.34 C97.97 64.58, 112.55 51.68, 137.71 22.98 M109.11 80.27 C116.11 72.87, 123.57 68.47, 137.32 47.82 M109.11 80.27 C118.34 73.46, 124.18 65.43, 137.32 47.82 M7.64 76.57 C7.64 76.57, 7.64 76.57, 7.64 76.57 M7.64 76.57 C7.64 76.57, 7.64 76.57, 7.64 76.57 M35.5 79.58 C28.57 71.35, 23.3 64.78, 0.78 49.4 M35.5 79.58 C21.99 70.34, 10.42 59.75, 0.78 49.4 M59.58 79.31 C42.86 67.89, 27.11 53.33, 0.71 28.14 M59.58 79.31 C40.97 62.95, 23.01 46.84, 0.71 28.14 M83.66 79.05 C55.41 56.96, 29.34 37.51, 2.91 8.85 M83.66 79.05 C51.6 53.44, 25.69 26.93, 2.91 8.85 M108.5 79.44 C77.63 52.79, 46.02 24.87, 17.18 0.05 M108.5 79.44 C78.79 54.35, 51.23 31.67, 17.18 0.05 M129.56 76.55 C107.42 52.08, 83.03 34.31, 41.26 -0.21 M129.56 76.55 C103.9 52.41, 77.37 27.63, 41.26 -0.21 M137.04 61.85 C108.32 34.54, 81.73 13.06, 66.1 0.18 M137.04 61.85 C116.67 40.61, 94.89 23.57, 66.1 0.18 M136.97 40.59 C119.25 28.57, 100.26 8.89, 90.18 -0.09 M136.97 40.59 C118.8 27.34, 103.15 9.81, 90.18 -0.09 M136.9 19.33 C128.99 9.06, 123.99 10.08, 114.26 -0.35 M136.9 19.33 C128.9 13.56, 123.08 9.65, 114.26 -0.35" stroke="#00A3E9" stroke-width="2" fill="none"></path><path d="M19.87 0 C56.57 -0.82, 97.94 1.94, 117.18 0 M19.87 0 C42.8 0.28, 61.75 -0.18, 117.18 0 M117.18 0 C131.88 -2.31, 133.95 7.78, 137.05 19.87 M117.18 0 C127.54 -2.51, 138.75 8.52, 137.05 19.87 M137.05 19.87 C136.59 37.74, 134.27 48.11, 137.05 59.6 M137.05 19.87 C135.78 30.98, 135.95 45.32, 137.05 59.6 M137.05 59.6 C136.88 69.94, 129.73 78.38, 117.18 79.46 M137.05 59.6 C133.42 68.64, 130.3 84.02, 117.18 79.46 M117.18 79.46 C97.4 77.59, 77.4 76.91, 19.87 79.46 M117.18 79.46 C81.49 78.59, 49.03 79.72, 19.87 79.46 M19.87 79.46 C8.05 80.63, -3.82 73.12, 0 59.6 M19.87 79.46 C9.86 77.69, 1.26 74.86, 0 59.6 M0 59.6 C3.63 51.4, -0.38 40.74, 0 19.87 M0 59.6 C-1.06 45.12, 0.2 30.12, 0 19.87 M0 19.87 C-0.81 4.22, 8.9 2.47, 19.87 0 M0 19.87 C2.67 9.51, 4.97 -2.15, 19.87 0" stroke="#ebebeb" stroke-width="4" fill="none"></path></g><g stroke-linecap="round" transform="translate(619.4100653940841 313.73755219570194) rotate(0 68.52430861225821 39.73085708692088)"><path d="M5.29 4.6 C5.29 4.6, 5.29 4.6, 5.29 4.6 M5.29 4.6 C5.29 4.6, 5.29 4.6, 5.29 4.6 M10.15 23.4 C14.56 14.97, 20.3 15.14, 25.89 5.28 M10.15 23.4 C15.7 16.32, 20.48 9.1, 25.89 5.28 M9.76 48.23 C16.91 33.75, 31.47 20.59, 47.15 5.21 M9.76 48.23 C22.76 35.89, 32.01 22.72, 47.15 5.21 M7.4 75.33 C21.2 57.19, 32.57 47.18, 68.41 5.14 M7.4 75.33 C23.66 56.01, 42.19 33.51, 68.41 5.14 M22.75 82.06 C43.47 54.54, 65.39 27.83, 89.67 5.08 M22.75 82.06 C40.42 62.05, 54.25 42.38, 89.67 5.08 M44.01 81.99 C68.25 58.59, 86.78 26.91, 110.93 5.01 M44.01 81.99 C67.75 54.13, 91.59 30.11, 110.93 5.01 M65.27 81.92 C77.29 65.67, 94.66 50.87, 132.19 4.94 M65.27 81.92 C84.21 60.58, 104.47 37.54, 132.19 4.94 M86.53 81.85 C107.93 57.35, 126.64 34.92, 140.99 19.21 M86.53 81.85 C102.02 62.19, 117.62 44.27, 140.99 19.21 M107.8 81.78 C116.92 67.48, 133.74 54.11, 141.25 43.29 M107.8 81.78 C113.62 73.2, 121.61 63.65, 141.25 43.29 M7.64 76.57 C7.64 76.57, 7.64 76.57, 7.64 76.57 M7.64 76.57 C7.64 76.57, 7.64 76.57, 7.64 76.57 M35.5 79.58 C22.53 69.53, 15.87 60.12, 0.78 49.4 M35.5 79.58 C24.15 71.53, 17.58 64.25, 0.78 49.4 M59.58 79.31 C44.52 63.23, 18.56 51.23, 0.71 28.14 M59.58 79.31 C45.29 64.15, 27.47 51.39, 0.71 28.14 M83.66 79.05 C63.32 61.3, 40.53 42.66, 2.91 8.85 M83.66 79.05 C57.73 57.42, 33.14 33.67, 2.91 8.85 M108.5 79.44 C77.92 55.17, 44.72 29.38, 17.18 0.05 M108.5 79.44 C83.25 57.84, 59.53 35.47, 17.18 0.05 M129.56 76.55 C106.77 56.73, 82.29 36.77, 41.26 -0.21 M129.56 76.55 C101.02 53.66, 72.72 28.03, 41.26 -0.21 M137.04 61.85 C116.72 43.11, 92.29 20.26, 66.1 0.18 M137.04 61.85 C123.46 48.72, 105.38 35.52, 66.1 0.18 M136.97 40.59 C129.17 34.85, 114.43 27.73, 90.18 -0.09 M136.97 40.59 C121.86 26.17, 107.92 15.34, 90.18 -0.09 M136.9 19.33 C128.79 14.29, 131.03 9.56, 114.26 -0.35 M136.9 19.33 C133.91 15.57, 127.76 12.73, 114.26 -0.35" stroke="#00A3E9" stroke-width="2" fill="none"></path><path d="M19.87 0 C38.06 1.88, 63.13 -3.25, 117.18 0 M19.87 0 C57.65 1.62, 97.46 0.39, 117.18 0 M117.18 0 C131.52 -3.97, 137.63 6.26, 137.05 19.87 M117.18 0 C132.08 3.25, 134.35 3.1, 137.05 19.87 M137.05 19.87 C139.75 36.09, 137.65 47, 137.05 59.6 M137.05 19.87 C137.04 32.72, 139.32 48.87, 137.05 59.6 M137.05 59.6 C134.15 72.83, 126.8 80.03, 117.18 79.46 M137.05 59.6 C138.77 77.36, 126.91 80.34, 117.18 79.46 M117.18 79.46 C83.18 76.55, 44.41 76.57, 19.87 79.46 M117.18 79.46 C78.18 81.02, 40.41 78.4, 19.87 79.46 M19.87 79.46 C3.64 78, 3.52 71.8, 0 59.6 M19.87 79.46 C10.09 80.22, -2.82 73.46, 0 59.6 M0 59.6 C-0.37 49.7, -0.87 40.34, 0 19.87 M0 59.6 C1.38 51.57, 1.75 39.24, 0 19.87 M0 19.87 C-3.79 8.97, 9.04 -0.24, 19.87 0 M0 19.87 C2.08 6.42, 3.3 0.67, 19.87 0" stroke="#ebebeb" stroke-width="4" fill="none"></path></g><g stroke-linecap="round" transform="translate(79.76124654765954 492.8163966111242) rotate(0 223.6650678379874 22.39319590107698)"><path d="M11.2 0 C145.9 0.19, 276.68 -1.53, 436.13 0 M11.2 0 C151.08 1.35, 290.63 1.14, 436.13 0 M436.13 0 C441.94 -2.2, 447.34 3.87, 447.33 11.2 M436.13 0 C439.3 2.09, 448.62 5.75, 447.33 11.2 M447.33 11.2 C446.56 15.17, 444.58 21.32, 447.33 33.59 M447.33 11.2 C446.22 17.62, 445.74 23.74, 447.33 33.59 M447.33 33.59 C447.67 43.09, 447.14 46.87, 436.13 44.79 M447.33 33.59 C446.67 43.09, 439.98 40.61, 436.13 44.79 M436.13 44.79 C281.78 44.59, 130.28 41.53, 11.2 44.79 M436.13 44.79 C291.82 45.76, 148.36 47.78, 11.2 44.79 M11.2 44.79 C3.36 43.38, -0.46 37.94, 0 33.59 M11.2 44.79 C3.74 42.95, 4.17 43.22, 0 33.59 M0 33.59 C1.87 26.32, 0.72 18.34, 0 11.2 M0 33.59 C-1.94 26.47, -1.41 17.54, 0 11.2 M0 11.2 C-0.35 1.07, 4.94 2.36, 11.2 0 M0 11.2 C-3.91 8.15, 4.93 -1.03, 11.2 0" stroke="#fff" stroke-width="4" fill="none"></path></g><g stroke-linecap="round" transform="translate(83.30268710959899 590.5601561206613) rotate(0 32.48886776388281 26.565936737101765)"><path d="M49.1 1.99 C55 4.65, 60.4 12.02, 63.03 17.15 C65.66 22.28, 67.19 27.39, 64.88 32.76 C62.57 38.13, 55.01 45.91, 49.16 49.35 C43.31 52.79, 36.64 54.21, 29.79 53.39 C22.94 52.57, 12.89 48.99, 8.06 44.44 C3.24 39.89, 0.99 31.48, 0.84 26.09 C0.68 20.71, 2.73 16.33, 7.14 12.13 C11.55 7.94, 18.28 0.38, 27.31 0.92 C36.33 1.46, 54.91 10.42, 61.3 15.38 C67.68 20.34, 66.37 30.28, 65.62 30.71 M22.45 0.09 C28.33 -1.95, 35.14 -1.56, 41.25 1.06 C47.37 3.68, 54.79 10.66, 59.13 15.83 C63.48 21.01, 68.42 27.04, 67.33 32.12 C66.25 37.2, 58.63 42.7, 52.62 46.33 C46.61 49.96, 38.25 53.6, 31.28 53.92 C24.32 54.24, 15.95 51.84, 10.82 48.26 C5.68 44.67, 1.15 38.24, 0.48 32.4 C-0.2 26.56, 3.17 18.23, 6.77 13.22 C10.37 8.21, 19.61 4.16, 22.08 2.34 C24.55 0.53, 21.3 2.35, 21.58 2.33" stroke="#fff" stroke-width="4" fill="none"></path></g><g stroke-linecap="round" transform="translate(179.0960880487928 602.5907889861492) rotate(0 67.79549040965594 13.580654676656195)"><path d="M6.79 0 C53.34 -1.53, 100.51 0.09, 128.8 0 M6.79 0 C39.87 1.77, 71.46 0.72, 128.8 0 M128.8 0 C134.2 0.35, 135.78 4.28, 135.59 6.79 M128.8 0 C130.34 3.06, 134.35 -0.41, 135.59 6.79 M135.59 6.79 C135.39 10.14, 134.09 13.86, 135.59 20.37 M135.59 6.79 C134.37 10.52, 135.78 14.6, 135.59 20.37 M135.59 20.37 C137.42 22.82, 134.97 24.89, 128.8 27.16 M135.59 20.37 C134.92 26.98, 130.48 30.31, 128.8 27.16 M128.8 27.16 C81.82 26.2, 31.28 30.91, 6.79 27.16 M128.8 27.16 C85.69 23.96, 42.47 26.09, 6.79 27.16 M6.79 27.16 C4.61 29.74, -2.67 28.8, 0 20.37 M6.79 27.16 C2.81 26.81, -3.42 23.57, 0 20.37 M0 20.37 C-2.5 17.08, -1.15 11.34, 0 6.79 M0 20.37 C-1.43 16.02, -0.29 13.86, 0 6.79 M0 6.79 C0.88 2.92, 5.83 0.67, 6.79 0 M0 6.79 C-1.82 2.97, 2.73 0.96, 6.79 0" stroke="#fff" stroke-width="4" fill="none"></path></g><g stroke-linecap="round" transform="translate(85.08880495822996 686.8257491347804) rotate(0 32.48886776388281 26.565936737101765)"><path d="M45.78 1.11 C52.24 3.1, 58.05 9.53, 61.3 14.92 C64.55 20.31, 66.82 28.16, 65.27 33.42 C63.72 38.69, 57.78 43.35, 51.98 46.5 C46.17 49.66, 37.66 52.63, 30.43 52.36 C23.21 52.1, 13.39 48.82, 8.62 44.93 C3.84 41.05, 2.07 34.71, 1.78 29.07 C1.49 23.42, 3.62 15.71, 6.89 11.05 C10.16 6.39, 11.41 -0.9, 21.39 1.09 C31.36 3.09, 62.05 15.27, 66.72 23.02 C71.4 30.77, 50.41 47.17, 49.43 47.61 M35.22 -0.04 C42.15 1.14, 54.33 7.61, 59.17 11.58 C64.01 15.54, 64.8 18.98, 64.26 23.77 C63.72 28.56, 59.9 35.74, 55.95 40.32 C52 44.89, 47.42 50.13, 40.55 51.24 C33.67 52.34, 20.9 49.86, 14.71 46.93 C8.52 44.01, 5.17 38.27, 3.42 33.7 C1.67 29.12, 2.43 24.05, 4.22 19.5 C6.01 14.95, 8.41 9.16, 14.15 6.42 C19.89 3.69, 34.49 3.69, 38.67 3.08 C42.85 2.47, 39.84 2.44, 39.24 2.74" stroke="#fff" stroke-width="4" fill="none"></path></g><g stroke-linecap="round" transform="translate(183.21750365928528 697.2242398282442) rotate(0 49.2568189462836 13.580654676656195)"><path d="M6.79 0 C29.63 -2.25, 42.74 -3.86, 91.72 0 M6.79 0 C22.77 -1.19, 42.49 -0.92, 91.72 0 M91.72 0 C99.61 1.89, 96.61 5.65, 98.51 6.79 M91.72 0 C98.26 4.26, 101.53 5.2, 98.51 6.79 M98.51 6.79 C100.85 7.34, 97.72 13.84, 98.51 20.37 M98.51 6.79 C97.7 12.91, 97.66 17.94, 98.51 20.37 M98.51 20.37 C100.35 21.71, 95.56 28, 91.72 27.16 M98.51 20.37 C95.2 24.34, 96.17 22.59, 91.72 27.16 M91.72 27.16 C64.37 29.12, 32.17 29.74, 6.79 27.16 M91.72 27.16 C75.47 29.29, 56.82 28.33, 6.79 27.16 M6.79 27.16 C6.07 29.49, -1.07 26.38, 0 20.37 M6.79 27.16 C3.54 31.49, -1.78 28.01, 0 20.37 M0 20.37 C-0.31 12.8, -2.06 11.95, 0 6.79 M0 20.37 C-0.22 17.2, -0.56 13.47, 0 6.79 M0 6.79 C1.28 5.8, 3.16 3.77, 6.79 0 M0 6.79 C-0.07 2.15, -1.08 -1.49, 6.79 0" stroke="#fff" stroke-width="4" fill="none"></path></g><g stroke-linecap="round" transform="translate(650.215465760406 589.5131215197398) rotate(0 32.48886776388281 26.565936737101765)"><path d="M26.93 -1.43 C33.63 -2.62, 42.53 1.61, 48.87 4.69 C55.22 7.76, 62.87 11.96, 65 17.02 C67.13 22.08, 64.2 29.68, 61.63 35.03 C59.07 40.38, 55.49 46.37, 49.59 49.12 C43.7 51.87, 33.1 52.33, 26.24 51.53 C19.39 50.73, 12.52 48.41, 8.44 44.33 C4.36 40.25, 1.77 33.16, 1.77 27.03 C1.78 20.89, 2.28 11.81, 8.45 7.53 C14.63 3.24, 32.08 1.74, 38.82 1.32 C45.55 0.9, 48.79 5.05, 48.84 5.01 M23.53 2.56 C29.35 -0.16, 35.91 -0.92, 41.68 0.7 C47.46 2.32, 54.56 7.57, 58.19 12.26 C61.81 16.94, 64.37 23.18, 63.43 28.83 C62.49 34.47, 57.49 42.1, 52.55 46.11 C47.62 50.12, 40.48 52.81, 33.79 52.9 C27.1 52.99, 18.12 50.14, 12.43 46.64 C6.73 43.14, 0.65 37.48, -0.36 31.89 C-1.37 26.3, 2.27 18.37, 6.36 13.1 C10.45 7.83, 21.81 2.49, 24.18 0.26 C26.55 -1.98, 20.98 -0.69, 20.6 -0.31" stroke="#fff" stroke-width="4" fill="none"></path></g><g stroke-linecap="round" transform="translate(746.0088666995998 601.5437543852277) rotate(0 67.79549040965594 13.580654676656195)"><path d="M6.79 0 C29.38 1.8, 57.85 -3.22, 128.8 0 M6.79 0 C43.4 -3.75, 80.36 -1.48, 128.8 0 M128.8 0 C132.38 -1.09, 133.22 4.02, 135.59 6.79 M128.8 0 C135 4.08, 136.77 4.13, 135.59 6.79 M135.59 6.79 C136.58 11.05, 137.93 9.73, 135.59 20.37 M135.59 6.79 C136.63 10.79, 134.79 13.59, 135.59 20.37 M135.59 20.37 C132.48 23.72, 131.87 24.24, 128.8 27.16 M135.59 20.37 C134.1 23.83, 135.02 26.81, 128.8 27.16 M128.8 27.16 C90.23 29.25, 49.76 30.43, 6.79 27.16 M128.8 27.16 C97.63 24.05, 66.34 24.3, 6.79 27.16 M6.79 27.16 C-0.98 28.73, -1.28 26.51, 0 20.37 M6.79 27.16 C2.81 30.83, 2.99 22.49, 0 20.37 M0 20.37 C0.21 19.5, -0.86 14.61, 0 6.79 M0 20.37 C-0.4 16.97, -0.08 11.33, 0 6.79 M0 6.79 C0.45 -0.43, 0.71 -3.32, 6.79 0 M0 6.79 C-3.22 0.87, -1.62 3.53, 6.79 0" stroke="#fff" stroke-width="4" fill="none"></path></g><g stroke-linecap="round" transform="translate(652.001583609037 685.7787145338589) rotate(0 32.48886776388281 26.565936737101765)"><path d="M8.77 9.78 C12.26 5.01, 17.62 1.13, 24.25 -0.06 C30.88 -1.26, 42.25 0.02, 48.55 2.59 C54.84 5.16, 59.4 9.87, 62.02 15.34 C64.65 20.81, 66.04 29.7, 64.3 35.41 C62.56 41.11, 57.48 46.96, 51.58 49.55 C45.68 52.15, 35.96 51.67, 28.9 50.96 C21.84 50.26, 13.91 49.05, 9.21 45.34 C4.5 41.63, -1.83 36.35, 0.67 28.69 C3.18 21.02, 17.54 3.88, 24.26 -0.65 C30.98 -5.19, 40.85 0.47, 40.99 1.47 M39.72 0.29 C46.27 1.34, 54.67 5.14, 58.68 9.96 C62.69 14.77, 64.25 23.19, 63.75 29.16 C63.26 35.14, 60.53 41.88, 55.7 45.8 C50.87 49.73, 42.07 52.3, 34.78 52.71 C27.5 53.13, 17.3 51.72, 11.99 48.29 C6.68 44.87, 3.83 38.03, 2.92 32.16 C2.02 26.28, 3.88 18.48, 6.56 13.05 C9.25 7.63, 13.2 1.88, 19.04 -0.38 C24.89 -2.63, 38.01 -0.6, 41.65 -0.47 C45.29 -0.34, 41.38 -0.49, 40.88 0.41" stroke="#fff" stroke-width="4" fill="none"></path></g><g stroke-linecap="round" transform="translate(750.1302823100941 696.1772052273227) rotate(0 49.2568189462836 13.580654676656195)"><path d="M6.79 0 C35.37 3.76, 67.53 0.54, 91.72 0 M6.79 0 C26.01 -1.32, 44.99 0.1, 91.72 0 M91.72 0 C97.7 3.55, 99.54 3.89, 98.51 6.79 M91.72 0 C91.83 1.79, 100.64 3.76, 98.51 6.79 M98.51 6.79 C97.77 11.37, 100.77 18.55, 98.51 20.37 M98.51 6.79 C97.3 10.87, 97.86 14.76, 98.51 20.37 M98.51 20.37 C97.22 23.97, 97.72 26.86, 91.72 27.16 M98.51 20.37 C99.53 24.31, 94.89 28, 91.72 27.16 M91.72 27.16 C58.41 27.77, 25.54 28.32, 6.79 27.16 M91.72 27.16 C69.29 27.22, 49.46 27.24, 6.79 27.16 M6.79 27.16 C2.74 30.35, 2.6 22.81, 0 20.37 M6.79 27.16 C-2.04 27.6, 1.19 25.29, 0 20.37 M0 20.37 C0.11 18.04, 0.06 10.03, 0 6.79 M0 20.37 C0.11 14.69, -0.56 9.72, 0 6.79 M0 6.79 C-2.8 1.06, -1.11 3.07, 6.79 0 M0 6.79 C-0.15 -0.78, 1.25 2.23, 6.79 0" stroke="#fff" stroke-width="4" fill="none"></path></g><g stroke-linecap="round" transform="translate(375.1533170713101 591.5353354058334) rotate(0 32.48886776388281 26.565936737101765)"><path d="M21.55 -0.06 C27.66 -1.61, 35.57 1.24, 42.34 3.78 C49.11 6.32, 58.41 10.48, 62.15 15.19 C65.9 19.91, 66.37 26.97, 64.83 32.07 C63.28 37.17, 58.63 42.46, 52.87 45.81 C47.12 49.16, 37.09 51.86, 30.28 52.15 C23.47 52.44, 16.82 51.35, 12.04 47.54 C7.26 43.74, 2.55 35.38, 1.62 29.34 C0.69 23.29, -0.65 15.59, 6.47 11.29 C13.58 6.99, 35.42 2.78, 44.32 3.52 C53.22 4.27, 59.87 15.4, 59.87 15.76 M16.64 6.67 C21.92 2.88, 32.35 -1.29, 38.89 -0.66 C45.44 -0.02, 51.57 5.98, 55.91 10.47 C60.25 14.95, 64.23 21.34, 64.95 26.27 C65.67 31.2, 64.02 35.6, 60.22 40.02 C56.42 44.44, 48.79 51.58, 42.14 52.8 C35.48 54.03, 26.52 50.27, 20.28 47.37 C14.05 44.48, 8.17 39.8, 4.71 35.44 C1.25 31.07, -1.86 26.85, -0.49 21.19 C0.88 15.53, 10.14 4.62, 12.94 1.48 C15.73 -1.67, 15.89 1.45, 16.27 2.32" stroke="#fff" stroke-width="4" fill="none"></path></g><g stroke-linecap="round" transform="translate(470.9467180105039 603.5659682713213) rotate(0 48.173856687488296 13.580654676656195)"><path d="M6.79 0 C26.14 -1.65, 51.8 -2.4, 89.56 0 M6.79 0 C25 -0.5, 40.73 -0.91, 89.56 0 M89.56 0 C91.12 -2.97, 94.4 4.23, 96.35 6.79 M89.56 0 C96.41 2.86, 93.45 6.28, 96.35 6.79 M96.35 6.79 C95.12 11.48, 97.54 14.7, 96.35 20.37 M96.35 6.79 C97.32 11.23, 97.57 13, 96.35 20.37 M96.35 20.37 C95.64 27.36, 94.09 28.31, 89.56 27.16 M96.35 20.37 C99.35 20.73, 98.1 27.62, 89.56 27.16 M89.56 27.16 C55.28 25.73, 27.94 25.6, 6.79 27.16 M89.56 27.16 C71.1 26.11, 52.75 26.79, 6.79 27.16 M6.79 27.16 C4.28 26.93, 1.89 21.86, 0 20.37 M6.79 27.16 C6.13 31.7, 1.8 24.23, 0 20.37 M0 20.37 C-2.59 16.49, -2.42 15.36, 0 6.79 M0 20.37 C0.9 15.34, -1.28 11.09, 0 6.79 M0 6.79 C0.76 -1.49, 0.26 -0.36, 6.79 0 M0 6.79 C-3.49 3.09, 5.02 4.33, 6.79 0" stroke="#fff" stroke-width="4" fill="none"></path></g><g stroke-linecap="round" transform="translate(376.93943491994105 687.8009284199525) rotate(0 32.48886776388281 26.565936737101765)"><path d="M11.87 8.26 C16.89 4.1, 24.98 1.02, 31.75 0.33 C38.53 -0.36, 47.32 0.83, 52.49 4.11 C57.66 7.39, 61.15 14.03, 62.76 20.01 C64.38 25.99, 64.99 35.01, 62.19 39.99 C59.4 44.98, 52.29 48.19, 45.97 49.91 C39.65 51.64, 31.15 51.63, 24.27 50.36 C17.39 49.1, 8.82 46.68, 4.68 42.3 C0.54 37.93, -3.18 30.59, -0.57 24.13 C2.05 17.67, 15.52 7.17, 20.36 3.54 C25.2 -0.08, 28.1 2.03, 28.47 2.4 M56.08 10.62 C60.46 14.7, 64.3 21.55, 64.96 26.48 C65.63 31.41, 63.91 35.79, 60.06 40.19 C56.22 44.58, 48.55 51.66, 41.89 52.85 C35.22 54.03, 26.27 50.21, 20.06 47.28 C13.85 44.34, 8.02 39.63, 4.61 35.24 C1.2 30.86, -1.84 26.63, -0.41 20.99 C1.01 15.34, 6.77 5.2, 13.15 1.36 C19.53 -2.47, 30.88 -3.32, 37.87 -2.03 C44.86 -0.75, 52.51 7, 55.07 9.08 C57.62 11.17, 53.08 10.25, 53.19 10.47" stroke="#fff" stroke-width="4" fill="none"></path></g><g stroke-linecap="round" transform="translate(475.0681336209982 698.1994191134163) rotate(0 60.37386279724251 13.580654676656195)"><path d="M6.79 0 C29.21 5.52, 61.73 4.36, 113.96 0 M6.79 0 C40.01 -1.55, 75.23 0.92, 113.96 0 M113.96 0 C120.51 2.48, 118.23 5.76, 120.75 6.79 M113.96 0 C115.07 -0.68, 124.44 0.26, 120.75 6.79 M120.75 6.79 C119.33 14.07, 123.35 18.02, 120.75 20.37 M120.75 6.79 C120.7 12.84, 120.95 17.6, 120.75 20.37 M120.75 20.37 C123.36 21.28, 121.97 27.56, 113.96 27.16 M120.75 20.37 C125.04 20.67, 121.91 25.18, 113.96 27.16 M113.96 27.16 C85.36 26.85, 60.87 23.6, 6.79 27.16 M113.96 27.16 C81.71 28, 48.38 26.6, 6.79 27.16 M6.79 27.16 C5.63 31.11, 1.56 24.32, 0 20.37 M6.79 27.16 C-1.27 25.25, 1.26 20.31, 0 20.37 M0 20.37 C2.65 18.03, 2.29 15.13, 0 6.79 M0 20.37 C0.49 14.78, -0.45 11.61, 0 6.79 M0 6.79 C-3.04 2.98, 4.66 3.76, 6.79 0 M0 6.79 C-3.5 0.75, 1.27 -3.29, 6.79 0" stroke="#fff" stroke-width="4" fill="none"></path></g><g stroke-linecap="round" transform="translate(915.7234237160974 588.1889307009269) rotate(0 32.48886776388281 26.565936737101765)"><path d="M60.01 11.67 C64.36 16.2, 67.14 23.34, 66.69 29.12 C66.24 34.89, 62.2 42.08, 57.33 46.32 C52.45 50.57, 44.48 54.04, 37.45 54.59 C30.42 55.13, 21.11 52.82, 15.13 49.57 C9.15 46.33, 3.87 41, 1.54 35.12 C-0.78 29.24, -1.56 19.44, 1.19 14.29 C3.93 9.14, 11.75 6.57, 17.99 4.22 C24.24 1.87, 30.52 -3.01, 38.64 0.18 C46.77 3.38, 62.82 17.08, 66.77 23.39 C70.71 29.7, 63.03 38.06, 62.3 38.04 M19.7 1.18 C24.98 -1.46, 34.57 0.74, 40.99 2.49 C47.41 4.25, 54.56 7.39, 58.22 11.7 C61.89 16.01, 63.11 23.02, 63 28.37 C62.9 33.73, 62.74 39.82, 57.59 43.81 C52.44 47.81, 39.46 51.77, 32.08 52.32 C24.7 52.88, 18.58 49.97, 13.3 47.16 C8.02 44.36, 1.73 41.42, 0.41 35.52 C-0.91 29.62, 2.04 17.09, 5.36 11.74 C8.67 6.38, 18.3 5.15, 20.31 3.4 C22.32 1.65, 16.89 1.3, 17.41 1.24" stroke="#fff" stroke-width="4" fill="none"></path></g><g stroke-linecap="round" transform="translate(1011.5168246552912 600.2195635664148) rotate(0 48.173856687488296 13.580654676656195)"><path d="M6.79 0 C33.67 -4.44, 59.41 -0.43, 89.56 0 M6.79 0 C40.26 0.45, 72.98 -0.35, 89.56 0 M89.56 0 C96.27 0.69, 99.18 -1.17, 96.35 6.79 M89.56 0 C91.11 -1.06, 100.06 -2.17, 96.35 6.79 M96.35 6.79 C97.28 12.22, 97.74 13.18, 96.35 20.37 M96.35 6.79 C96.57 9.89, 96.16 14.45, 96.35 20.37 M96.35 20.37 C94.34 24.38, 91.77 25.27, 89.56 27.16 M96.35 20.37 C100.85 21.57, 90.83 25.98, 89.56 27.16 M89.56 27.16 C67.71 29.36, 34.26 27.64, 6.79 27.16 M89.56 27.16 C62.78 25.39, 33.48 25.19, 6.79 27.16 M6.79 27.16 C5.22 30.66, -0.5 23.15, 0 20.37 M6.79 27.16 C4.65 25.02, -2.86 28.51, 0 20.37 M0 20.37 C1.54 14.92, -0.28 16.51, 0 6.79 M0 20.37 C1.17 15.39, 0.47 11.33, 0 6.79 M0 6.79 C-3.81 3.49, 5.46 1.02, 6.79 0 M0 6.79 C1.16 -0.79, -0.14 -1.65, 6.79 0" stroke="#fff" stroke-width="4" fill="none"></path></g><g stroke-linecap="round" transform="translate(917.5095415647284 684.454523715046) rotate(0 32.48886776388281 26.565936737101765)"><path d="M43.26 2.24 C49.72 3.62, 57.58 8.7, 61.33 13.43 C65.08 18.15, 66.79 24.97, 65.78 30.6 C64.77 36.23, 60.75 43.67, 55.26 47.2 C49.77 50.73, 39.92 51.39, 32.84 51.78 C25.76 52.18, 18.41 52.84, 12.77 49.57 C7.13 46.31, 0.22 38.02, -1.01 32.18 C-2.25 26.34, 1.87 19.29, 5.36 14.52 C8.86 9.75, 11.31 4.65, 19.95 3.56 C28.59 2.46, 50.07 4.65, 57.22 7.93 C64.38 11.21, 63.12 22.85, 62.88 23.25 M20.98 0.91 C27.02 -1.54, 35.77 -1.31, 42.96 0.53 C50.15 2.37, 60.93 6.81, 64.13 11.95 C67.32 17.08, 64.02 25.52, 62.14 31.35 C60.25 37.17, 58.02 42.77, 52.81 46.89 C47.6 51.01, 37.6 56.64, 30.89 56.08 C24.18 55.52, 17.55 47.6, 12.55 43.51 C7.54 39.41, 2.55 36.92, 0.84 31.52 C-0.86 26.12, -1.67 16.39, 2.34 11.09 C6.34 5.8, 21.31 1.62, 24.87 -0.23 C28.43 -2.09, 23.55 -1.15, 23.69 -0.03" stroke="#fff" stroke-width="4" fill="none"></path></g><g stroke-linecap="round" transform="translate(1015.6382402657855 694.8530144085098) rotate(0 60.37386279724251 13.580654676656195)"><path d="M6.79 0 C34.88 0.41, 58.99 1.72, 113.96 0 M6.79 0 C49.64 -0.72, 91.73 -2.79, 113.96 0 M113.96 0 C115.89 -0.92, 123.97 -1.59, 120.75 6.79 M113.96 0 C116.99 4.57, 120.16 3.39, 120.75 6.79 M120.75 6.79 C119.77 14.36, 123.2 16.67, 120.75 20.37 M120.75 6.79 C119.98 10.26, 119.87 13.45, 120.75 20.37 M120.75 20.37 C124.66 22, 115.65 26.13, 113.96 27.16 M120.75 20.37 C121.28 23.94, 117.83 31.71, 113.96 27.16 M113.96 27.16 C77.01 24.05, 34.8 30.72, 6.79 27.16 M113.96 27.16 C88.73 27.6, 60.31 24.98, 6.79 27.16 M6.79 27.16 C4.33 25.3, -2.49 28.04, 0 20.37 M6.79 27.16 C-1.73 25.79, -2.5 27.37, 0 20.37 M0 20.37 C0.23 15.58, -0.54 16.73, 0 6.79 M0 20.37 C-1.35 17.53, 1.03 14.2, 0 6.79 M0 6.79 C1.01 -0.39, 0.18 -1.43, 6.79 0 M0 6.79 C3.98 5.96, -1.69 2.17, 6.79 0" stroke="#fff" stroke-width="4" fill="none"></path></g><g stroke-linecap="round" transform="translate(1171.0895171060001 492.8163966111224) rotate(0 75.56099703315522 116.94965890486947)"><path d="M7.86 8.16 C7.86 8.16, 7.86 8.16, 7.86 8.16 M7.86 8.16 C7.86 8.16, 7.86 8.16, 7.86 8.16 M0.91 40.54 C6.72 27.2, 22.16 20.58, 36.34 -0.21 M0.91 40.54 C8.63 28.11, 18.81 17.92, 36.34 -0.21 M1.18 64.62 C22.73 43, 39.54 21.45, 56.94 0.47 M1.18 64.62 C13.36 51.17, 25.42 38.77, 56.94 0.47 M0.79 89.46 C18.91 68.66, 31.54 49.66, 78.2 0.41 M0.79 89.46 C21.81 64.35, 42.69 40.32, 78.2 0.41 M1.05 113.54 C22.01 90.07, 42.04 68.7, 99.46 0.34 M1.05 113.54 C23.6 90.37, 45.23 63.88, 99.46 0.34 M0.66 138.38 C30.83 115.24, 54.09 86.28, 120.72 0.27 M0.66 138.38 C36.52 95.22, 75.34 51.11, 120.72 0.27 M0.93 162.46 C31.97 125.64, 65.1 89.15, 137.39 5.48 M0.93 162.46 C51.25 105.34, 104.32 45.31, 137.39 5.48 M0.54 187.3 C48.42 125.83, 98 75.63, 148.81 16.73 M0.54 187.3 C46.75 132.72, 93.4 80.8, 148.81 16.73 M1.46 210.62 C37.57 172.87, 69.82 133.77, 151.04 38.55 M1.46 210.62 C47.42 161.09, 92.76 105.93, 151.04 38.55 M9.6 225.65 C59.45 163.02, 113.92 102.86, 151.31 62.63 M9.6 225.65 C62.43 167.61, 112.34 106.99, 151.31 62.63 M24.3 233.13 C59.94 185.5, 99.17 147.64, 150.92 87.47 M24.3 233.13 C67.41 186.11, 111.08 137.29, 150.92 87.47 M44.91 233.81 C64.8 206.34, 86.99 187.13, 151.19 111.55 M44.91 233.81 C67.64 205.4, 87.37 178.46, 151.19 111.55 M66.17 233.74 C93.78 196.45, 122.06 169.41, 150.8 136.39 M66.17 233.74 C101.41 197.23, 132.9 159.41, 150.8 136.39 M86.77 234.43 C108.25 205.61, 130.84 183.31, 151.06 160.47 M86.77 234.43 C108.93 209.94, 132.05 183.85, 151.06 160.47 M108.03 234.36 C122.7 219.5, 134.84 199.38, 150.67 185.3 M108.03 234.36 C120.5 221.38, 130.9 205.54, 150.67 185.3 M130.6 232.78 C138.84 224.77, 144.15 222.15, 150.94 209.39 M130.6 232.78 C134.57 225.79, 140.63 219.63, 150.94 209.39 M12.55 229.44 C12.55 229.44, 12.55 229.44, 12.55 229.44 M12.55 229.44 C12.55 229.44, 12.55 229.44, 12.55 229.44 M41.16 233.11 C23.34 221.13, 11.06 206.79, 0.41 197.69 M41.16 233.11 C33.01 226.46, 22.38 218.72, 0.41 197.69 M66 233.5 C48.07 219.57, 34.28 209.33, 0.34 176.43 M66 233.5 C54.22 220.37, 41.41 207.39, 0.34 176.43 M90.83 233.89 C59.16 203.92, 25.89 182.17, 0.27 155.17 M90.83 233.89 C56.35 205.64, 17.2 171.73, 0.27 155.17 M114.91 233.63 C82.74 205.71, 48.02 174.72, 0.2 133.91 M114.91 233.63 C75.51 200.92, 38.88 165.78, 0.2 133.91 M135.22 230.08 C97.68 194.98, 62.57 169.82, 0.88 113.3 M135.22 230.08 C105.73 206.9, 72.33 179.51, 0.88 113.3 M147.23 219.32 C85.91 166.38, 28.35 114.95, 0.82 92.04 M147.23 219.32 C108.16 188.15, 69.25 152.55, 0.82 92.04 M150.93 201.34 C112.8 173.09, 66.69 135.95, 0.75 70.78 M150.93 201.34 C110.69 163.74, 69.86 126.99, 0.75 70.78 M150.86 180.08 C101.07 137.36, 42.94 92.73, 0.68 49.52 M150.86 180.08 C90.04 131.78, 35.5 79.37, 0.68 49.52 M150.8 158.82 C109.99 116.53, 58.88 76.03, 0.61 28.26 M150.8 158.82 C100.75 114.29, 47.48 68.73, 0.61 28.26 M150.73 137.56 C114.76 103.7, 88.19 77.64, 6.58 12.25 M150.73 137.56 C101.11 91.82, 55.03 51.13, 6.58 12.25 M151.41 116.95 C127.11 94.79, 96.98 66.55, 18.58 1.49 M151.41 116.95 C106.82 75.72, 61.69 38.13, 18.58 1.49 M151.34 95.69 C127.69 72.36, 100.92 47.37, 41.16 -0.09 M151.34 95.69 C114.35 65.49, 78.05 33.32, 41.16 -0.09 M151.27 74.43 C135.78 56.53, 115.27 41.08, 65.99 0.3 M151.27 74.43 C129.75 56.46, 111.34 39.44, 65.99 0.3 M151.21 53.17 C139.99 40.14, 126.4 30.44, 90.07 0.03 M151.21 53.17 C133.54 37.35, 113.09 19.76, 90.07 0.03 M151.14 31.91 C142.38 18.96, 130.48 15.98, 114.91 0.42 M151.14 31.91 C140.83 22.65, 130.26 10.43, 114.91 0.42" stroke="#e1e1e1" stroke-width="2" fill="none"></path><path d="M32 0 C61.44 -1.08, 90.22 4.08, 119.12 0 M32 0 C60.34 1.75, 91.38 1.03, 119.12 0 M119.12 0 C141.79 -3.41, 151.46 7.95, 151.12 32 M119.12 0 C142.63 0.81, 147.5 13.84, 151.12 32 M151.12 32 C156.77 79.75, 155.9 129.99, 151.12 201.9 M151.12 32 C151.93 92.14, 152.22 151.48, 151.12 201.9 M151.12 201.9 C149.21 225, 138.88 232.47, 119.12 233.9 M151.12 201.9 C153.73 226.3, 140.81 231.51, 119.12 233.9 M119.12 233.9 C85.76 234.72, 47.83 233.84, 32 233.9 M119.12 233.9 C91.22 236.31, 63.1 236.26, 32 233.9 M32 233.9 C10.55 231.63, 1.66 226.04, 0 201.9 M32 233.9 C12.58 231.46, -2.82 220.57, 0 201.9 M0 201.9 C-1.47 151.9, -4.75 90.67, 0 32 M0 201.9 C-2.59 145.52, -2.66 87.79, 0 32 M0 32 C1.13 10.06, 14.53 2.79, 32 0 M0 32 C4.24 11.45, 11.09 -2.84, 32 0" stroke="#fff" stroke-width="4" fill="none"></path></g></svg>