<?xml version="1.0" standalone="no"?>
<!DOCTYPE svg PUBLIC "-//W3C//DTD SVG 1.1//EN" "http://www.w3.org/Graphics/SVG/1.1/DTD/svg11.dtd">
<svg version="1.1" xmlns="http://www.w3.org/2000/svg" viewBox="0 0 739.5846745848044 324.0921343866494" width="2218.754023754413" height="972.2764031599481" filter="invert(93%) hue-rotate(180deg)"><!-- svg-source:excalidraw --><metadata></metadata><defs><style class="style-fonts">
      </style></defs><g transform="translate(186.26358568244586 29.7833039465786) rotate(0 5.379670371438124 122.32869093361023)" stroke="none"><path fill="#1e1e1e" d="M 3.12,0 Q 3.12,0 3.05,4.80 2.98,9.61 2.93,17.36 2.88,25.11 2.85,32.97 2.81,40.84 2.79,48.74 2.76,56.65 2.74,65.46 2.72,74.26 2.71,81.86 2.69,89.46 2.68,97.26 2.67,105.06 2.67,112.94 2.66,120.83 2.65,128.71 2.65,136.60 2.65,143.65 2.64,150.70 2.64,157.55 2.64,164.41 2.63,170.31 2.63,176.21 3.01,180.89 3.38,185.56 3.92,190.54 4.45,195.52 5.41,199.79 6.38,204.06 7.27,208.97 8.16,213.89 8.91,218.24 9.67,222.60 10.38,226.72 11.10,230.84 11.62,233.86 12.14,236.87 12.92,239.97 13.69,243.06 13.92,243.60 14.14,244.14 14.18,244.71 14.22,245.29 14.07,245.86 13.92,246.42 13.60,246.90 13.29,247.39 12.83,247.74 12.37,248.10 11.82,248.30 11.28,248.49 10.70,248.50 10.12,248.50 9.56,248.33 9.01,248.15 8.54,247.80 8.08,247.46 7.74,246.98 7.41,246.51 7.25,245.95 7.08,245.39 7.11,244.81 7.13,244.23 7.34,243.69 7.55,243.15 7.92,242.70 8.29,242.25 8.78,241.95 9.27,241.64 9.84,241.51 10.40,241.38 10.98,241.43 11.56,241.49 12.09,241.72 12.62,241.96 13.04,242.35 13.47,242.75 13.75,243.25 14.03,243.76 14.13,244.33 14.23,244.91 14.15,245.48 14.06,246.05 13.80,246.57 13.53,247.09 13.12,247.49 12.70,247.90 12.18,248.15 11.65,248.40 11.08,248.47 10.50,248.54 9.93,248.42 9.36,248.31 8.86,248.01 8.36,247.72 7.98,247.29 7.60,246.85 7.60,246.85 7.60,246.85 6.79,242.17 5.98,237.49 5.91,234.61 5.84,231.73 5.17,227.61 4.49,223.50 3.74,219.16 2.98,214.83 2.11,210.02 1.24,205.21 0.23,200.65 -0.77,196.09 -1.32,191.04 -1.86,185.98 -2.25,181.09 -2.63,176.21 -2.63,170.31 -2.64,164.41 -2.64,157.55 -2.64,150.70 -2.65,143.65 -2.65,136.60 -2.65,128.71 -2.66,120.83 -2.67,112.94 -2.67,105.06 -2.68,97.26 -2.69,89.46 -2.71,81.86 -2.72,74.26 -2.74,65.46 -2.76,56.65 -2.79,48.74 -2.81,40.84 -2.85,32.97 -2.88,25.11 -2.93,17.36 -2.98,9.61 -3.05,4.80 -3.12,0 -3.07,-0.37 -3.03,-0.74 -2.90,-1.09 -2.76,-1.45 -2.55,-1.76 -2.33,-2.07 -2.05,-2.32 -1.77,-2.57 -1.44,-2.74 -1.10,-2.92 -0.74,-3.01 -0.37,-3.10 0.00,-3.10 0.37,-3.10 0.74,-3.01 1.10,-2.92 1.44,-2.74 1.77,-2.57 2.05,-2.32 2.33,-2.07 2.55,-1.76 2.76,-1.45 2.90,-1.09 3.03,-0.74 3.07,-0.37 3.12,0.00 3.12,0.00 L 3.12,0 Z"></path></g><g transform="translate(188.5697096122808 24.939672415018777) rotate(0 246.38504661733123 120.45448319130264)" stroke="none"><path fill="#1e1e1e" d="M -0.29,-3.11 Q -0.29,-3.11 4.55,-3.50 9.40,-3.89 14.09,-4.57 18.78,-5.25 33.23,-8.10 47.68,-10.95 58.85,-12.87 70.02,-14.79 80.99,-15.61 91.95,-16.44 109.12,-16.78 126.28,-17.12 138.99,-17.25 151.70,-17.39 173.65,-16.36 195.60,-15.32 208.62,-14.42 221.63,-13.51 230.21,-12.28 238.79,-11.04 245.36,-10.14 251.94,-9.24 257.13,-8.07 262.33,-6.90 266.49,-4.96 270.65,-3.01 273.56,-1.03 276.47,0.95 278.56,3.11 280.65,5.28 281.82,7.78 283.00,10.29 283.55,12.68 284.10,15.07 284.58,18.52 285.06,21.97 285.36,24.62 285.65,27.27 285.88,29.72 286.10,32.18 286.19,35.81 286.27,39.45 286.24,42.01 286.20,44.57 286.14,47.39 286.07,50.22 286.07,52.62 286.07,55.01 286.09,57.23 286.11,59.45 286.22,62.39 286.32,65.33 288.37,68.61 290.41,71.89 291.10,74.00 291.80,76.12 292.14,78.62 292.49,81.11 292.53,83.93 292.58,86.75 292.59,89.09 292.61,91.44 292.55,94.19 292.48,96.93 292.47,99.29 292.46,101.65 292.39,104.39 292.33,107.14 292.24,110.10 292.15,113.06 292.26,116.18 292.38,119.31 292.48,121.75 292.59,124.19 295.90,123.72 299.22,123.25 301.76,123.33 304.29,123.41 307.10,123.52 309.91,123.63 313.38,123.85 316.85,124.06 321.31,124.45 325.77,124.83 331.35,125.12 336.93,125.42 341.99,124.83 347.04,124.24 352.33,123.58 357.61,122.93 362.74,121.89 367.86,120.84 372.54,120.40 377.23,119.95 381.38,119.42 385.52,118.89 390.75,118.31 395.98,117.72 400.55,117.48 405.12,117.24 409.34,117.13 413.57,117.03 417.10,116.85 420.63,116.67 423.32,116.45 426.01,116.23 428.35,116.04 430.69,115.84 433.78,116.16 436.87,116.48 439.66,117.75 442.45,119.01 446.11,123.24 449.76,127.47 454.37,134.34 458.98,141.21 462.76,147.93 466.54,154.66 470.33,160.65 474.11,166.64 476.89,171.59 479.67,176.54 481.53,180.45 483.40,184.35 484.97,187.73 486.54,191.11 487.90,193.63 489.27,196.16 490.08,198.77 490.89,201.39 491.55,203.51 492.22,205.63 492.84,208.37 493.47,211.10 494.07,213.35 494.68,215.60 495.05,218.04 495.41,220.49 496.15,224.32 496.89,228.16 497.47,231.01 498.04,233.87 498.32,236.73 498.60,239.59 498.75,241.94 498.91,244.29 497.63,247.54 496.35,250.80 492.71,252.83 489.07,254.87 486.91,255.49 484.75,256.11 481.58,256.23 478.42,256.35 476.05,256.28 473.67,256.21 471.46,256.16 469.26,256.12 467.12,256.09 464.99,256.06 461.71,256.08 458.44,256.10 455.69,256.14 452.94,256.18 450.57,256.26 448.20,256.33 445.42,257.77 442.64,259.20 439.38,259.73 436.11,260.26 432.95,260.21 429.80,260.15 427.50,259.12 425.20,258.10 423.83,256.47 422.46,254.84 420.04,251.50 417.63,248.15 416.42,246.30 415.21,244.46 413.67,241.63 412.13,238.80 410.08,235.89 408.03,232.99 404.99,228.47 401.95,223.96 399.23,220.85 396.52,217.73 394.03,215.18 391.55,212.62 389.27,210.37 386.99,208.13 385.03,206.86 383.07,205.60 380.89,204.09 378.71,202.59 375.46,200.67 372.21,198.74 367.58,197.30 362.94,195.86 359.80,195.02 356.67,194.18 353.04,193.32 349.42,192.46 346.80,192.23 344.18,192.01 341.92,191.98 339.65,191.95 336.33,192.08 333.01,192.21 331.52,194.69 330.02,197.17 329.55,199.54 329.08,201.91 328.52,205.76 327.97,209.62 327.90,213.32 327.84,217.02 327.49,219.47 327.15,221.92 326.68,225.62 326.21,229.32 325.70,231.83 325.19,234.35 324.66,236.73 324.13,239.12 323.60,241.33 323.07,243.55 322.15,246.62 321.23,249.69 320.44,251.67 319.66,253.65 315.99,255.50 312.31,257.36 309.48,257.06 306.65,256.77 303.51,255.77 300.36,254.78 297.66,253.99 294.96,253.20 291.94,252.77 288.93,252.34 285.32,251.99 281.71,251.64 278.42,251.50 275.13,251.36 272.54,251.38 269.95,251.40 266.78,251.56 263.62,251.73 260.38,252.50 257.15,253.27 254.32,253.26 251.49,253.25 248.62,253.19 245.75,253.12 242.79,253.05 239.84,252.98 237.38,252.99 234.93,252.99 231.68,253.11 228.43,253.23 225.11,254.10 221.78,254.97 219.62,255.20 217.46,255.43 215.29,254.79 213.13,254.16 211.30,253.02 209.48,251.88 208.19,249.42 206.90,246.97 205.39,244.42 203.88,241.87 201.23,239.57 198.59,237.28 193.49,232.61 188.39,227.95 181.92,221.97 175.44,216.00 168.91,209.51 162.38,203.02 156.18,197.25 149.98,191.48 143.82,185.96 137.67,180.45 132.22,176.47 126.76,172.50 121.59,169.62 116.41,166.73 111.33,164.68 106.25,162.62 101.99,161.77 97.73,160.92 93.68,160.54 89.63,160.16 86.16,160.13 82.69,160.09 80.42,160.24 78.15,160.39 78.10,163.58 78.05,166.76 77.82,170.65 77.59,174.55 78.17,178.88 78.74,183.21 80.10,187.99 81.46,192.77 82.71,196.60 83.97,200.42 85.22,203.12 86.48,205.82 87.68,208.10 88.88,210.38 90.05,212.51 91.22,214.65 92.17,217.71 93.11,220.77 94.28,224.60 95.45,228.43 95.82,231.05 96.20,233.67 96.36,237.53 96.53,241.40 96.66,244.58 96.79,247.76 94.98,251.84 93.16,255.92 90.48,258.02 87.80,260.12 84.44,261.03 81.09,261.95 77.59,262.12 74.09,262.28 71.62,262.22 69.16,262.16 66.92,262.13 64.67,262.09 62.10,261.75 59.53,261.40 56.03,261.26 52.54,261.11 49.52,260.79 46.51,260.46 44.38,259.57 42.26,258.69 39.95,257.16 37.64,255.64 35.95,254.15 34.27,252.67 31.42,249.56 28.57,246.45 26.56,244.54 24.55,242.63 24.08,242.53 23.60,242.44 22.52,242.25 21.44,242.06 20.48,241.54 19.52,241.02 18.77,240.22 18.02,239.42 17.57,238.42 17.12,237.42 17.01,236.33 16.90,235.24 17.15,234.17 17.39,233.11 17.97,232.17 18.54,231.24 19.38,230.54 20.22,229.84 21.24,229.44 22.27,229.04 23.36,228.99 24.45,228.95 25.51,229.25 26.56,229.55 27.46,230.17 28.36,230.80 29.02,231.67 29.67,232.55 30.01,233.59 30.35,234.63 30.34,235.73 30.33,236.82 29.97,237.86 29.61,238.89 28.94,239.76 28.27,240.63 27.36,241.23 26.45,241.84 25.39,242.12 24.33,242.41 23.24,242.34 22.15,242.27 21.13,241.85 20.12,241.44 19.29,240.72 18.46,240.00 17.91,239.06 17.35,238.12 17.12,237.04 16.90,235.97 17.03,234.89 17.15,233.80 17.62,232.81 18.09,231.82 18.85,231.03 19.61,230.24 20.59,229.74 21.56,229.23 22.64,229.07 23.72,228.90 23.72,228.90 23.72,228.90 27.97,230.39 32.23,231.89 33.81,233.48 35.40,235.08 37.94,237.67 40.47,240.25 42.83,242.42 45.19,244.58 48.09,246.56 50.99,248.54 53.76,248.68 56.52,248.82 60.60,249.20 64.68,249.59 66.91,249.55 69.14,249.52 71.58,249.45 74.02,249.38 76.17,249.39 78.31,249.41 80.51,249.17 82.70,248.93 84.07,246.83 85.44,244.73 85.55,241.15 85.66,237.57 85.76,235.08 85.86,232.59 85.81,229.91 85.76,227.23 85.25,225.14 84.73,223.05 84.19,220.64 83.64,218.23 82.70,215.92 81.75,213.62 80.77,211.09 79.79,208.57 78.72,205.60 77.64,202.63 76.22,198.75 74.79,194.87 73.01,189.70 71.23,184.53 70.16,179.50 69.10,174.47 68.96,170.40 68.82,166.33 69.06,163.70 69.30,161.07 70.17,158.74 71.04,156.41 74.65,154.90 78.26,153.40 80.62,153.68 82.97,153.97 86.55,154.26 90.13,154.54 94.48,154.92 98.83,155.29 103.62,156.20 108.40,157.11 113.87,159.21 119.34,161.31 124.92,164.24 130.51,167.18 136.36,171.17 142.22,175.16 148.62,180.48 155.02,185.79 161.58,191.32 168.15,196.85 174.90,202.77 181.64,208.70 188.47,214.02 195.30,219.34 201.02,223.35 206.73,227.36 208.82,229.00 210.90,230.64 213.95,234.26 216.99,237.87 218.51,240.92 220.02,243.97 217.62,243.51 215.22,243.05 218.17,242.65 221.11,242.25 224.77,241.99 228.43,241.73 231.68,241.85 234.92,241.97 237.37,241.97 239.82,241.97 242.76,241.89 245.71,241.81 248.54,241.72 251.37,241.64 254.56,241.58 257.74,241.52 260.70,241.32 263.65,241.12 266.84,241.32 270.04,241.51 272.66,241.57 275.29,241.64 278.68,241.61 282.06,241.57 285.97,241.48 289.88,241.39 293.83,241.57 297.78,241.74 300.81,242.38 303.84,243.01 306.75,244.35 309.65,245.68 310.56,243.25 311.47,240.83 311.96,238.71 312.45,236.60 312.90,234.43 313.34,232.25 314.06,228.07 314.77,223.88 315.24,220.35 315.70,216.81 315.84,212.81 315.98,208.80 316.55,204.59 317.13,200.37 317.56,197.91 317.99,195.45 319.32,192.51 320.66,189.56 323.33,186.74 326.00,183.91 329.56,182.91 333.12,181.91 336.65,182.20 340.17,182.48 342.67,182.71 345.17,182.94 348.13,183.33 351.09,183.71 354.96,184.29 358.82,184.86 362.58,185.62 366.34,186.37 368.98,187.30 371.62,188.23 376.15,190.42 380.68,192.61 382.40,193.92 384.12,195.23 386.17,196.83 388.22,198.44 390.59,200.29 392.95,202.14 395.21,204.42 397.46,206.71 400.03,209.20 402.59,211.68 406.11,214.83 409.63,217.98 413.08,221.81 416.53,225.65 419.78,228.88 423.02,232.11 424.61,234.39 426.20,236.68 427.73,238.71 429.27,240.74 430.69,243.56 432.12,246.38 434.77,246.36 437.42,246.34 439.74,245.17 442.05,243.99 445.13,243.47 448.20,242.95 450.57,243.03 452.94,243.10 455.69,243.14 458.44,243.19 461.71,243.21 464.98,243.23 467.12,243.20 469.25,243.16 471.45,243.12 473.66,243.07 477.47,243.00 481.28,242.93 483.98,242.96 486.68,243.00 486.84,240.61 486.99,238.21 487.05,235.46 487.11,232.72 486.84,229.41 486.57,226.11 486.16,221.84 485.76,217.58 485.33,215.17 484.91,212.76 484.50,210.16 484.09,207.56 483.49,203.32 482.90,199.08 481.82,196.37 480.74,193.65 479.37,190.33 478.00,187.01 476.13,183.35 474.26,179.69 471.41,174.98 468.57,170.28 464.48,164.28 460.39,158.29 456.50,152.02 452.60,145.75 447.83,139.44 443.06,133.13 441.50,129.95 439.93,126.77 437.78,126.24 435.62,125.72 433.16,124.61 430.70,123.50 428.38,123.32 426.06,123.15 423.39,122.97 420.71,122.79 417.22,122.71 413.72,122.63 409.59,122.75 405.46,122.87 401.07,123.17 396.67,123.46 391.52,124.14 386.36,124.82 382.14,125.48 377.92,126.14 373.62,126.70 369.32,127.26 364.01,128.60 358.70,129.93 353.47,130.91 348.25,131.90 342.59,132.98 336.94,134.07 331.35,134.37 325.77,134.67 321.31,135.05 316.85,135.43 313.38,135.65 309.91,135.86 307.10,135.97 304.29,136.08 299.84,136.17 295.39,136.26 292.45,136.19 289.52,136.13 286.57,135.12 283.63,134.11 282.28,131.75 280.92,129.39 280.70,126.79 280.48,124.19 280.58,121.75 280.69,119.31 280.80,116.19 280.91,113.06 280.82,110.11 280.73,107.15 280.66,104.42 280.58,101.69 280.56,99.35 280.53,97.01 280.43,94.34 280.34,91.67 280.27,89.44 280.20,87.22 279.93,83.55 279.67,79.88 278.93,77.66 278.20,75.43 276.77,72.81 275.34,70.19 274.95,67.76 274.56,65.33 274.66,62.39 274.77,59.45 274.79,57.23 274.81,55.01 274.81,52.62 274.81,50.22 274.74,47.39 274.68,44.57 274.64,42.01 274.61,39.45 274.69,35.82 274.78,32.18 275.00,29.76 275.21,27.34 275.43,24.83 275.66,22.31 275.77,19.29 275.89,16.27 275.58,12.89 275.28,9.50 274.01,7.59 272.75,5.68 270.56,3.70 268.37,1.72 264.75,-0.02 261.14,-1.77 256.18,-2.89 251.22,-4.01 244.63,-4.91 238.03,-5.80 229.65,-7.01 221.26,-8.22 208.31,-9.11 195.35,-10.00 173.56,-11.02 151.76,-12.04 139.07,-11.88 126.39,-11.72 109.38,-11.36 92.37,-11.00 81.67,-10.17 70.97,-9.34 59.88,-7.38 48.79,-5.43 34.22,-2.48 19.66,0.45 14.81,1.25 9.97,2.05 5.13,2.58 0.29,3.11 -0.08,3.10 -0.45,3.09 -0.82,2.99 -1.18,2.89 -1.51,2.70 -1.84,2.52 -2.11,2.26 -2.39,2.01 -2.59,1.69 -2.80,1.37 -2.92,1.02 -3.05,0.66 -3.08,0.29 -3.12,-0.08 -3.06,-0.45 -3.01,-0.82 -2.87,-1.17 -2.72,-1.52 -2.50,-1.82 -2.28,-2.13 -1.99,-2.37 -1.70,-2.61 -1.36,-2.78 -1.03,-2.94 -0.66,-3.02 -0.29,-3.11 -0.29,-3.11 L -0.29,-3.11 Z"></path></g><g transform="translate(297.1503540411054 298.03410755749655) rotate(0 42.46276018631124 0.3007987734569042)" stroke="none"><path fill="#1e1e1e" d="M 3.00,-3.24 Q 3.00,-3.24 5.11,-1.35 7.22,0.53 9.45,1.72 11.68,2.91 14.34,4.14 17.01,5.37 19.64,6.11 22.27,6.84 24.89,7.12 27.52,7.39 30.88,7.62 34.24,7.84 37.96,8.02 41.68,8.20 45.00,8.23 48.32,8.26 50.92,8.17 53.53,8.08 57.06,7.85 60.60,7.61 63.02,6.53 65.43,5.46 68.08,3.44 70.73,1.42 71.52,-1.87 72.30,-5.18 74.53,-7.99 76.75,-10.80 77.53,-12.23 78.30,-13.66 78.79,-14.66 79.27,-15.65 80.05,-16.44 80.83,-17.23 81.82,-17.72 82.81,-18.22 83.91,-18.37 85.01,-18.53 86.10,-18.33 87.19,-18.12 88.16,-17.58 89.12,-17.04 89.87,-16.22 90.61,-15.40 91.05,-14.38 91.50,-13.36 91.59,-12.26 91.69,-11.16 91.42,-10.08 91.16,-9.00 90.57,-8.07 89.98,-7.13 89.12,-6.43 88.25,-5.73 87.22,-5.35 86.18,-4.96 85.07,-4.92 83.96,-4.89 82.90,-5.21 81.84,-5.53 80.94,-6.17 80.03,-6.81 79.38,-7.71 78.73,-8.61 78.40,-9.67 78.07,-10.73 78.10,-11.83 78.12,-12.94 78.50,-13.98 78.88,-15.03 79.57,-15.89 80.26,-16.76 81.19,-17.36 82.12,-17.96 83.19,-18.23 84.27,-18.51 85.37,-18.42 86.48,-18.34 87.50,-17.90 88.52,-17.47 89.35,-16.73 90.18,-16.00 90.73,-15.03 91.28,-14.07 91.49,-12.98 91.70,-11.90 91.56,-10.80 91.41,-9.70 91.41,-9.70 91.41,-9.70 90.10,-6.80 88.78,-3.90 86.32,-1.88 83.86,0.14 83.16,2.18 82.46,4.22 81.19,6.54 79.92,8.86 77.73,11.00 75.54,13.15 73.57,14.22 71.61,15.30 69.28,15.82 66.95,16.34 63.79,16.86 60.62,17.38 57.05,17.13 53.49,16.88 50.87,16.77 48.25,16.65 44.89,16.63 41.53,16.60 37.69,16.65 33.85,16.70 30.13,16.61 26.41,16.52 23.07,16.07 19.72,15.61 16.46,14.63 13.20,13.64 10.17,12.23 7.14,10.82 4.13,9.01 1.11,7.20 -0.94,5.22 -3.00,3.24 -3.34,2.83 -3.69,2.42 -3.92,1.95 -4.16,1.47 -4.28,0.95 -4.39,0.43 -4.38,-0.09 -4.37,-0.63 -4.23,-1.14 -4.09,-1.65 -3.83,-2.12 -3.57,-2.59 -3.21,-2.98 -2.85,-3.37 -2.41,-3.66 -1.96,-3.95 -1.46,-4.13 -0.96,-4.31 -0.43,-4.36 0.09,-4.41 0.62,-4.34 1.15,-4.26 1.64,-4.06 2.14,-3.86 2.57,-3.55 3.00,-3.24 3.00,-3.24 L 3.00,-3.24 Z"></path></g><g transform="translate(520.5975659850933 287.89950272872306) rotate(0 36.038006896837715 13.096315828963156)" stroke="none"><path fill="#1e1e1e" d="M 1.60,-4.85 Q 1.60,-4.85 4.57,-3.81 7.54,-2.77 10.55,-0.87 13.57,1.02 15.51,2.28 17.46,3.54 20.23,6.01 23.01,8.47 25.94,10.60 28.88,12.73 32.50,14.74 36.12,16.76 38.73,17.83 41.34,18.90 43.65,19.43 45.95,19.96 48.67,19.93 51.38,19.89 53.35,17.92 55.32,15.95 56.95,14.21 58.57,12.47 60.04,10.82 61.52,9.17 62.91,6.60 64.30,4.03 64.87,2.82 65.44,1.61 66.06,0.64 66.67,-0.33 67.57,-1.06 68.46,-1.78 69.54,-2.19 70.62,-2.59 71.78,-2.63 72.93,-2.67 74.04,-2.34 75.14,-2.00 76.08,-1.34 77.02,-0.67 77.70,0.26 78.38,1.19 78.72,2.29 79.07,3.39 79.04,4.54 79.02,5.70 78.63,6.78 78.23,7.87 77.52,8.77 76.80,9.67 75.83,10.30 74.86,10.93 73.74,11.21 72.63,11.50 71.48,11.41 70.33,11.32 69.26,10.87 68.20,10.42 67.34,9.66 66.48,8.89 65.90,7.89 65.33,6.89 65.11,5.76 64.88,4.63 65.03,3.48 65.18,2.34 65.69,1.30 66.19,0.26 67.01,-0.55 67.82,-1.37 68.85,-1.88 69.88,-2.40 71.02,-2.56 72.16,-2.73 73.30,-2.51 74.43,-2.30 75.44,-1.74 76.45,-1.18 77.22,-0.32 78.00,0.52 78.46,1.58 78.92,2.63 79.02,3.78 79.12,4.93 78.85,6.05 78.57,7.17 78.57,7.17 78.57,7.17 76.99,9.60 75.41,12.02 74.10,14.62 72.78,17.23 71.08,19.15 69.38,21.07 67.70,22.38 66.02,23.68 63.26,26.09 60.49,28.49 58.37,29.78 56.25,31.06 52.92,31.76 49.59,32.45 46.63,32.13 43.67,31.82 40.96,30.99 38.25,30.16 34.48,28.43 30.71,26.69 28.59,25.52 26.47,24.35 24.28,22.99 22.09,21.64 18.72,18.90 15.36,16.17 13.49,14.05 11.63,11.92 9.87,10.63 8.11,9.33 6.22,8.01 4.33,6.68 1.36,5.77 -1.60,4.85 -2.15,4.59 -2.71,4.33 -3.19,3.94 -3.67,3.55 -4.04,3.06 -4.42,2.57 -4.66,2.00 -4.90,1.44 -5.01,0.83 -5.11,0.22 -5.06,-0.38 -5.01,-1.00 -4.82,-1.58 -4.63,-2.17 -4.30,-2.69 -3.97,-3.22 -3.53,-3.64 -3.09,-4.07 -2.55,-4.38 -2.02,-4.69 -1.43,-4.87 -0.84,-5.04 -0.22,-5.07 0.39,-5.10 0.99,-4.98 1.60,-4.85 1.60,-4.85 L 1.60,-4.85 Z"></path></g><g transform="translate(556.6625676436515 267.3449198758451) rotate(0 0.00005000000010113581 0.00004999999998744897)" stroke="none"><path fill="#1e1e1e" d="M 3.14,-3.14 Q 3.14,-3.14 3.55,-2.55 3.97,-1.97 4.18,-1.28 4.40,-0.59 4.38,0.11 4.36,0.83 4.11,1.51 3.86,2.18 3.41,2.74 2.96,3.30 2.36,3.69 1.75,4.07 1.05,4.25 0.36,4.42 -0.35,4.36 -1.07,4.30 -1.73,4.02 -2.39,3.74 -2.92,3.26 -3.46,2.78 -3.81,2.15 -4.16,1.53 -4.30,0.82 -4.43,0.11 -4.34,-0.59 -4.24,-1.30 -3.92,-1.94 -3.60,-2.59 -3.09,-3.09 -2.59,-3.60 -1.94,-3.92 -1.30,-4.24 -0.59,-4.34 0.12,-4.43 0.82,-4.30 1.53,-4.16 2.15,-3.81 2.78,-3.46 3.26,-2.92 3.74,-2.39 4.02,-1.73 4.31,-1.07 4.36,-0.35 4.42,0.36 4.25,1.05 4.07,1.75 3.69,2.36 3.30,2.96 2.74,3.41 2.18,3.86 1.51,4.11 0.83,4.36 0.11,4.38 -0.60,4.40 -1.28,4.18 -1.97,3.97 -2.55,3.55 -3.14,3.13 -3.14,3.14 -3.14,3.14 -3.47,2.71 -3.80,2.29 -4.02,1.80 -4.24,1.32 -4.33,0.79 -4.43,0.26 -4.40,-0.26 -4.36,-0.80 -4.20,-1.31 -4.04,-1.82 -3.77,-2.28 -3.49,-2.73 -3.11,-3.11 -2.73,-3.49 -2.28,-3.77 -1.82,-4.05 -1.31,-4.20 -0.80,-4.36 -0.26,-4.40 0.26,-4.43 0.79,-4.33 1.32,-4.24 1.80,-4.02 2.29,-3.80 2.71,-3.47 3.14,-3.14 3.14,-3.14 L 3.14,-3.14 Z"></path></g><g transform="translate(326.6363466289299 261.35979556296206) rotate(0 0.00005000000010113581 0.00004999999998744897)" stroke="none"><path fill="#1e1e1e" d="M 3.14,-3.14 Q 3.14,-3.14 3.55,-2.55 3.97,-1.97 4.18,-1.28 4.40,-0.59 4.38,0.11 4.36,0.83 4.11,1.51 3.86,2.18 3.41,2.74 2.96,3.30 2.36,3.69 1.75,4.07 1.05,4.25 0.36,4.42 -0.35,4.36 -1.07,4.30 -1.73,4.02 -2.39,3.74 -2.92,3.26 -3.46,2.78 -3.81,2.15 -4.16,1.53 -4.30,0.82 -4.43,0.11 -4.34,-0.59 -4.24,-1.30 -3.92,-1.94 -3.60,-2.59 -3.09,-3.09 -2.59,-3.60 -1.94,-3.92 -1.30,-4.24 -0.59,-4.34 0.12,-4.43 0.82,-4.30 1.53,-4.16 2.15,-3.81 2.78,-3.46 3.26,-2.92 3.74,-2.39 4.02,-1.73 4.31,-1.07 4.36,-0.35 4.42,0.36 4.25,1.05 4.07,1.75 3.69,2.36 3.30,2.96 2.74,3.41 2.18,3.86 1.51,4.11 0.83,4.36 0.11,4.38 -0.60,4.40 -1.28,4.18 -1.97,3.97 -2.55,3.55 -3.14,3.13 -3.14,3.14 -3.14,3.14 -3.47,2.71 -3.80,2.29 -4.02,1.80 -4.24,1.32 -4.33,0.79 -4.43,0.26 -4.40,-0.26 -4.36,-0.80 -4.20,-1.31 -4.04,-1.82 -3.77,-2.28 -3.49,-2.73 -3.11,-3.11 -2.73,-3.49 -2.28,-3.77 -1.82,-4.05 -1.31,-4.20 -0.80,-4.36 -0.26,-4.40 0.26,-4.43 0.79,-4.33 1.32,-4.24 1.80,-4.02 2.29,-3.80 2.71,-3.47 3.14,-3.14 3.14,-3.14 L 3.14,-3.14 Z"></path></g><g transform="translate(289.3218731421671 227.4775132092309) rotate(0 30.731608021497777 26.628404239985457)" stroke="none"><path fill="#1e1e1e" d="M 2.98,-3.80 Q 2.98,-3.80 6.46,-0.70 9.94,2.38 12.66,4.51 15.38,6.65 17.87,8.81 20.36,10.98 22.37,12.75 24.38,14.51 25.97,16.20 27.56,17.89 29.48,19.93 31.40,21.97 33.69,24.44 35.98,26.92 38.36,28.23 40.75,29.54 43.97,32.18 47.20,34.82 50.56,36.92 53.92,39.02 56.37,40.90 58.81,42.79 61.29,44.39 63.77,45.99 65.68,48.47 67.58,50.96 67.76,52.00 67.93,53.04 67.77,54.09 67.60,55.13 67.11,56.07 66.62,57.00 65.85,57.74 65.09,58.47 64.13,58.91 63.17,59.36 62.12,59.48 61.07,59.60 60.04,59.38 59.00,59.16 58.09,58.61 57.19,58.07 56.50,57.27 55.81,56.47 55.41,55.49 55.02,54.50 54.96,53.45 54.89,52.39 55.17,51.37 55.45,50.35 56.04,49.47 56.63,48.60 57.47,47.95 58.31,47.31 59.31,46.97 60.31,46.62 61.37,46.62 62.43,46.61 63.43,46.95 64.43,47.28 65.28,47.92 66.12,48.55 66.72,49.43 67.32,50.30 67.61,51.32 67.89,52.34 67.84,53.39 67.79,54.45 67.40,55.43 67.01,56.42 66.33,57.23 65.65,58.04 64.75,58.59 63.84,59.13 62.81,59.37 61.78,59.60 60.73,59.49 59.67,59.38 58.71,58.94 57.75,58.50 56.98,57.77 56.21,57.05 55.71,56.12 55.21,55.18 55.21,55.19 55.21,55.19 54.59,54.58 53.97,53.98 51.58,52.35 49.20,50.73 46.70,48.94 44.20,47.15 41.89,45.72 39.59,44.28 37.62,42.75 35.64,41.21 33.49,39.50 31.33,37.79 28.92,34.89 26.51,31.98 24.40,29.18 22.29,26.38 20.28,23.68 18.28,20.97 16.49,19.16 14.71,17.35 12.48,15.32 10.25,13.29 7.47,11.19 4.69,9.08 0.85,6.44 -2.98,3.80 -3.39,3.39 -3.80,2.97 -4.10,2.48 -4.40,1.98 -4.57,1.42 -4.75,0.86 -4.78,0.28 -4.82,-0.29 -4.71,-0.86 -4.61,-1.43 -4.37,-1.96 -4.13,-2.50 -3.77,-2.95 -3.41,-3.41 -2.95,-3.77 -2.49,-4.13 -1.96,-4.37 -1.43,-4.61 -0.86,-4.71 -0.29,-4.82 0.29,-4.78 0.87,-4.75 1.42,-4.57 1.98,-4.40 2.48,-4.10 2.98,-3.80 2.98,-3.80 L 2.98,-3.80 Z"></path></g><g transform="translate(306.46740322920186 288.3391317053138) rotate(0 17.843537497235502 -23.43145317337462)" stroke="none"><path fill="#1e1e1e" d="M -5.19,-1.09 Q -5.19,-1.09 -4.69,-3.52 -4.20,-5.96 -2.88,-10.08 -1.55,-14.21 -0.06,-16.29 1.42,-18.36 3.84,-21.54 6.25,-24.71 8.13,-27.25 10.00,-29.78 12.20,-31.60 14.39,-33.41 16.37,-35.78 18.35,-38.15 20.24,-40.20 22.12,-42.24 23.88,-43.75 25.65,-45.25 27.17,-46.82 28.68,-48.39 29.31,-49.60 29.95,-50.81 30.76,-51.59 31.57,-52.37 32.59,-52.86 33.60,-53.34 34.72,-53.47 35.84,-53.60 36.94,-53.37 38.05,-53.13 39.02,-52.56 39.99,-51.99 40.72,-51.14 41.46,-50.28 41.88,-49.24 42.31,-48.20 42.38,-47.07 42.45,-45.95 42.16,-44.86 41.87,-43.77 41.24,-42.84 40.62,-41.90 39.73,-41.21 38.83,-40.52 37.77,-40.15 36.71,-39.78 35.58,-39.78 34.45,-39.77 33.38,-40.12 32.31,-40.47 31.41,-41.14 30.51,-41.82 29.87,-42.74 29.23,-43.67 28.92,-44.75 28.61,-45.84 28.66,-46.96 28.71,-48.09 29.12,-49.14 29.53,-50.19 30.25,-51.05 30.97,-51.91 31.93,-52.50 32.89,-53.09 33.99,-53.34 35.09,-53.59 36.21,-53.48 37.33,-53.37 38.36,-52.90 39.38,-52.44 40.21,-51.67 41.03,-50.90 41.57,-49.91 42.10,-48.92 42.29,-47.81 42.48,-46.70 42.31,-45.59 42.14,-44.48 41.62,-43.48 41.10,-42.48 41.10,-42.48 41.10,-42.48 40.09,-41.09 39.09,-39.70 37.48,-38.17 35.88,-36.64 33.57,-34.52 31.25,-32.39 29.56,-30.75 27.87,-29.10 26.03,-27.56 24.19,-26.02 22.63,-24.52 21.06,-23.02 19.29,-21.66 17.52,-20.30 15.10,-17.42 12.68,-14.54 10.57,-11.90 8.45,-9.26 7.35,-6.51 6.25,-3.75 5.72,-1.33 5.19,1.09 4.98,1.70 4.78,2.30 4.43,2.84 4.09,3.38 3.62,3.82 3.16,4.26 2.60,4.58 2.04,4.89 1.43,5.07 0.81,5.24 0.17,5.26 -0.46,5.28 -1.08,5.15 -1.71,5.02 -2.28,4.74 -2.86,4.46 -3.35,4.06 -3.85,3.65 -4.23,3.13 -4.61,2.62 -4.86,2.03 -5.10,1.44 -5.20,0.81 -5.30,0.17 -5.25,-0.45 -5.19,-1.09 -5.19,-1.09 L -5.19,-1.09 Z"></path></g><g transform="translate(316.6637103704793 236.25466716291794) rotate(0 6.848956687938198 23.37746364993359)" stroke="none"><path fill="#1e1e1e" d="M 5.07,0 Q 5.07,0 4.96,3.43 4.85,6.86 5.09,9.83 5.33,12.80 6.01,14.92 6.70,17.05 7.57,19.08 8.45,21.11 10.00,24.75 11.54,28.40 12.26,30.54 12.97,32.68 13.62,35.29 14.26,37.89 15.11,40.32 15.96,42.75 15.82,41.69 15.68,40.63 16.59,41.13 17.50,41.64 18.20,42.41 18.90,43.18 19.32,44.13 19.74,45.08 19.83,46.12 19.92,47.15 19.68,48.16 19.44,49.18 18.89,50.06 18.33,50.94 17.53,51.60 16.72,52.26 15.75,52.62 14.78,52.99 13.74,53.03 12.70,53.06 11.70,52.77 10.70,52.47 9.85,51.87 9.00,51.27 8.39,50.43 7.78,49.59 7.46,48.60 7.15,47.61 7.17,46.57 7.19,45.53 7.54,44.55 7.89,43.57 8.53,42.75 9.18,41.94 10.05,41.37 10.92,40.80 11.93,40.54 12.94,40.28 13.97,40.36 15.01,40.43 15.97,40.84 16.93,41.24 17.71,41.93 18.49,42.61 19.01,43.52 19.53,44.42 19.73,45.44 19.94,46.46 19.81,47.49 19.67,48.52 19.22,49.46 18.76,50.39 18.04,51.13 17.31,51.88 16.38,52.35 15.45,52.82 14.42,52.96 13.39,53.11 12.37,52.93 11.34,52.74 11.35,52.74 11.35,52.74 8.70,51.02 6.06,49.30 5.09,47.31 4.12,45.33 3.30,42.12 2.47,38.92 2.21,36.27 1.96,33.62 1.49,31.20 1.02,28.77 0.12,26.76 -0.78,24.76 -1.70,22.22 -2.63,19.69 -3.38,16.70 -4.14,13.71 -4.49,10.29 -4.85,6.86 -4.96,3.43 -5.07,0 -5.00,-0.60 -4.92,-1.21 -4.71,-1.78 -4.49,-2.35 -4.14,-2.86 -3.79,-3.36 -3.34,-3.77 -2.88,-4.17 -2.34,-4.46 -1.79,-4.74 -1.20,-4.89 -0.61,-5.03 0.00,-5.03 0.61,-5.03 1.20,-4.89 1.79,-4.74 2.34,-4.46 2.88,-4.17 3.34,-3.77 3.79,-3.36 4.14,-2.86 4.49,-2.35 4.71,-1.78 4.92,-1.21 5.00,-0.60 5.07,0.00 5.07,0.00 L 5.07,0 Z"></path></g><g transform="translate(550.9319653698471 254.25631683594474) rotate(0 8.287391848186871 16.62877321981432)" stroke="none"><path fill="#1e1e1e" d="M 5.19,-1.15 Q 5.19,-1.15 5.73,1.13 6.27,3.42 7.50,5.93 8.74,8.45 10.35,10.88 11.96,13.32 13.91,16.10 15.85,18.88 17.46,21.46 19.07,24.03 19.67,26.06 20.27,28.09 20.98,28.83 21.69,29.57 22.13,30.50 22.57,31.43 22.69,32.45 22.81,33.47 22.59,34.48 22.38,35.48 21.85,36.37 21.33,37.25 20.55,37.92 19.77,38.59 18.82,38.98 17.86,39.37 16.84,39.43 15.81,39.49 14.82,39.22 13.83,38.95 12.97,38.38 12.12,37.81 11.49,37.00 10.86,36.18 10.53,35.21 10.19,34.24 10.19,33.21 10.18,32.18 10.50,31.21 10.83,30.23 11.44,29.41 12.06,28.58 12.91,28.00 13.75,27.42 14.74,27.14 15.73,26.86 16.76,26.91 17.78,26.95 18.74,27.33 19.70,27.70 20.49,28.36 21.27,29.02 21.81,29.90 22.35,30.78 22.57,31.78 22.80,32.78 22.70,33.81 22.59,34.83 22.17,35.77 21.74,36.70 21.04,37.45 20.34,38.20 19.43,38.69 18.53,39.18 17.51,39.35 16.50,39.52 15.48,39.36 14.47,39.20 13.56,38.73 12.64,38.25 12.65,38.25 12.65,38.25 10.57,34.42 8.49,30.59 7.11,27.87 5.74,25.15 3.87,22.29 2.01,19.43 0.68,16.99 -0.65,14.54 -2.43,10.15 -4.22,5.76 -4.70,3.46 -5.19,1.15 -5.25,0.51 -5.31,-0.11 -5.22,-0.75 -5.13,-1.38 -4.89,-1.98 -4.65,-2.57 -4.27,-3.09 -3.90,-3.61 -3.41,-4.02 -2.92,-4.44 -2.34,-4.72 -1.77,-5.01 -1.14,-5.15 -0.52,-5.29 0.11,-5.27 0.75,-5.26 1.37,-5.09 1.99,-4.92 2.55,-4.61 3.11,-4.30 3.58,-3.87 4.05,-3.43 4.41,-2.90 4.76,-2.36 4.97,-1.76 5.19,-1.15 5.19,-1.15 L 5.19,-1.15 Z"></path></g><g transform="translate(546.0883338382873 278.6287302750047) rotate(0 15.352306629888744 -3.3396376642763244)" stroke="none"><path fill="#1e1e1e" d="M -0.31,-5.17 Q -0.31,-5.17 3.28,-5.23 6.87,-5.29 9.02,-5.65 11.18,-6.00 14.55,-6.78 17.92,-7.56 20.70,-8.61 23.47,-9.65 26.25,-10.95 29.02,-12.24 29.96,-12.31 30.90,-12.37 31.81,-12.14 32.71,-11.90 33.50,-11.38 34.28,-10.87 34.86,-10.13 35.44,-9.39 35.76,-8.50 36.07,-7.62 36.08,-6.68 36.10,-5.74 35.81,-4.84 35.52,-3.95 34.97,-3.19 34.41,-2.44 33.64,-1.90 32.87,-1.36 31.97,-1.09 31.07,-0.83 30.13,-0.87 29.19,-0.90 28.31,-1.24 27.43,-1.57 26.71,-2.17 25.98,-2.77 25.49,-3.57 24.99,-4.37 24.78,-5.28 24.56,-6.19 24.65,-7.13 24.74,-8.06 25.12,-8.92 25.50,-9.78 26.14,-10.47 26.77,-11.16 27.60,-11.62 28.42,-12.07 29.34,-12.23 30.27,-12.40 31.20,-12.26 32.13,-12.12 32.96,-11.69 33.80,-11.27 34.46,-10.59 35.11,-9.92 35.52,-9.07 35.93,-8.23 36.04,-7.29 36.16,-6.36 35.97,-5.44 35.78,-4.52 35.31,-3.71 34.83,-2.90 34.13,-2.28 33.42,-1.66 32.55,-1.30 31.68,-0.94 31.68,-0.94 31.69,-0.94 30.84,-0.83 29.99,-0.72 26.93,0.36 23.87,1.44 21.57,2.24 19.27,3.03 15.88,3.48 12.49,3.92 9.97,4.17 7.45,4.43 3.88,4.80 0.31,5.17 -0.31,5.14 -0.93,5.10 -1.53,4.91 -2.13,4.73 -2.66,4.40 -3.20,4.08 -3.64,3.64 -4.08,3.19 -4.40,2.66 -4.73,2.12 -4.91,1.52 -5.10,0.93 -5.14,0.30 -5.17,-0.31 -5.06,-0.93 -4.95,-1.54 -4.69,-2.11 -4.43,-2.68 -4.05,-3.17 -3.66,-3.67 -3.17,-4.05 -2.68,-4.44 -2.11,-4.69 -1.54,-4.95 -0.92,-5.06 -0.31,-5.17 -0.31,-5.17 L -0.31,-5.17 Z"></path></g><g transform="translate(558.3362428703213 255.33610730476403) rotate(0 0 17.481036411275)" stroke="none"><path fill="#1e1e1e" d="M 5.33,0 Q 5.33,0 5.36,2.36 5.39,4.73 5.52,7.28 5.66,9.84 5.77,12.66 5.89,15.48 5.99,17.77 6.09,20.06 6.17,22.80 6.24,25.54 6.31,27.97 6.38,30.41 6.40,32.43 6.42,34.45 6.25,35.48 6.08,36.50 5.59,37.42 5.11,38.34 4.35,39.05 3.60,39.77 2.66,40.20 1.71,40.64 0.68,40.75 -0.34,40.86 -1.36,40.64 -2.37,40.42 -3.26,39.88 -4.15,39.35 -4.83,38.55 -5.50,37.76 -5.88,36.80 -6.27,35.83 -6.32,34.79 -6.38,33.76 -6.10,32.75 -5.82,31.75 -5.24,30.89 -4.66,30.03 -3.83,29.40 -3.00,28.78 -2.02,28.44 -1.03,28.11 0.00,28.11 1.04,28.11 2.02,28.45 3.00,28.78 3.83,29.41 4.66,30.04 5.24,30.90 5.82,31.76 6.10,32.76 6.38,33.76 6.32,34.80 6.27,35.83 5.88,36.80 5.50,37.76 4.82,38.55 4.15,39.35 3.26,39.88 2.37,40.42 1.36,40.64 0.34,40.86 -0.68,40.75 -1.71,40.64 -2.66,40.20 -3.60,39.77 -4.35,39.05 -5.11,38.34 -5.60,37.42 -6.08,36.50 -6.25,35.47 -6.42,34.45 -6.42,34.45 -6.42,34.45 -6.40,32.43 -6.38,30.41 -6.31,27.97 -6.24,25.54 -6.17,22.80 -6.09,20.06 -5.99,17.77 -5.89,15.48 -5.77,12.66 -5.66,9.84 -5.52,7.28 -5.39,4.73 -5.36,2.36 -5.33,0 -5.26,-0.63 -5.18,-1.27 -4.95,-1.87 -4.72,-2.48 -4.36,-3.01 -3.99,-3.54 -3.51,-3.96 -3.03,-4.39 -2.46,-4.69 -1.89,-4.99 -1.26,-5.14 -0.64,-5.30 0.00,-5.30 0.64,-5.30 1.26,-5.14 1.89,-4.99 2.46,-4.69 3.03,-4.39 3.51,-3.96 3.99,-3.54 4.36,-3.01 4.72,-2.48 4.95,-1.87 5.18,-1.27 5.26,-0.63 5.33,0.00 5.33,0.00 L 5.33,0 Z"></path></g><g transform="translate(326.63208534965315 25.306902700334376) rotate(0 -2.179012295994198 74.799996745425)" stroke="none"><path fill="#1e1e1e" d="M 3.77,0 Q 3.77,0 3.61,6.78 3.46,13.57 3.35,20.31 3.23,27.05 3.15,33.77 3.07,40.49 3.01,50.57 2.94,60.64 2.90,67.54 2.86,74.44 2.82,79.49 2.79,84.54 2.88,88.30 2.96,92.06 3.19,94.24 3.42,96.41 3.54,98.85 3.65,101.28 3.62,104.45 3.60,107.62 3.94,110.23 4.29,112.85 4.40,116.68 4.51,120.51 4.62,123.79 4.73,127.06 4.84,129.64 4.94,132.21 4.19,135.26 3.43,138.31 3.36,140.62 3.29,142.92 2.76,146.33 2.24,149.74 2.02,150.78 1.79,151.83 1.24,152.74 0.69,153.66 -0.11,154.36 -0.92,155.05 -1.91,155.45 -2.90,155.85 -3.97,155.91 -5.03,155.97 -6.06,155.69 -7.09,155.41 -7.98,154.81 -8.87,154.21 -9.52,153.37 -10.17,152.52 -10.51,151.51 -10.86,150.50 -10.86,149.43 -10.86,148.36 -10.53,147.35 -10.19,146.33 -9.54,145.48 -8.90,144.63 -8.02,144.02 -7.14,143.42 -6.11,143.13 -5.08,142.84 -4.01,142.90 -2.95,142.95 -1.95,143.34 -0.96,143.74 -0.14,144.42 0.66,145.11 1.22,146.03 1.77,146.94 2.01,147.98 2.24,149.03 2.13,150.09 2.01,151.15 1.57,152.12 1.12,153.09 0.39,153.87 -0.33,154.65 -1.27,155.15 -2.21,155.66 -3.27,155.83 -4.32,156.01 -5.38,155.84 -6.43,155.67 -7.38,155.17 -8.32,154.67 -9.06,153.90 -9.80,153.13 -10.25,152.16 -10.70,151.19 -10.82,150.13 -10.94,149.07 -10.94,149.07 -10.94,149.07 -10.35,145.24 -9.76,141.41 -9.09,138.58 -8.42,135.74 -7.70,132.80 -6.98,129.86 -6.87,126.89 -6.76,123.91 -6.66,120.20 -6.55,116.48 -6.39,113.22 -6.23,109.97 -5.98,107.62 -5.73,105.28 -5.15,103.09 -4.57,100.91 -4.00,98.66 -3.42,96.41 -3.19,94.24 -2.96,92.06 -2.88,88.30 -2.79,84.54 -2.82,79.49 -2.86,74.44 -2.90,67.54 -2.94,60.64 -3.01,50.57 -3.07,40.49 -3.15,33.77 -3.23,27.05 -3.35,20.31 -3.46,13.57 -3.61,6.78 -3.77,0 -3.71,-0.45 -3.66,-0.90 -3.50,-1.32 -3.33,-1.75 -3.08,-2.12 -2.82,-2.50 -2.48,-2.80 -2.14,-3.10 -1.73,-3.31 -1.33,-3.52 -0.89,-3.63 -0.45,-3.74 0.00,-3.74 0.45,-3.74 0.89,-3.63 1.33,-3.52 1.74,-3.31 2.14,-3.10 2.48,-2.80 2.82,-2.50 3.08,-2.12 3.33,-1.75 3.50,-1.32 3.66,-0.90 3.71,-0.45 3.77,0.00 3.77,0.00 L 3.77,0 Z"></path></g><g transform="translate(201.86244276497473 123.2941055716392) rotate(0 121.93446598374271 0.672568412565397)" stroke="none"><path fill="#1e1e1e" d="M 0,-3.12 Q 0,-3.12 9.13,-3.05 18.27,-2.98 32.13,-2.93 45.99,-2.88 63.04,-2.85 80.10,-2.81 99.96,-2.79 119.82,-2.76 135.42,-2.74 151.03,-2.72 164.82,-2.71 178.61,-2.69 189.06,-2.68 199.52,-2.67 207.88,-2.28 216.24,-1.88 221.85,-1.71 227.47,-1.55 231.09,-1.60 234.70,-1.66 236.97,-1.87 239.23,-2.07 241.45,-2.08 243.66,-2.09 244.21,-2.00 244.76,-1.90 245.25,-1.64 245.74,-1.38 246.12,-0.97 246.50,-0.56 246.73,-0.06 246.96,0.44 247.02,0.99 247.07,1.55 246.95,2.09 246.83,2.63 246.54,3.11 246.25,3.58 245.82,3.94 245.39,4.30 244.87,4.50 244.36,4.70 243.80,4.73 243.24,4.76 242.71,4.60 242.17,4.45 241.72,4.14 241.26,3.82 240.92,3.38 240.59,2.93 240.42,2.40 240.24,1.87 240.24,1.32 240.25,0.76 240.43,0.23 240.61,-0.28 240.95,-0.72 241.29,-1.16 241.75,-1.47 242.22,-1.78 242.75,-1.93 243.29,-2.07 243.84,-2.04 244.40,-2.01 244.92,-1.80 245.43,-1.59 245.85,-1.22 246.27,-0.86 246.56,-0.38 246.84,0.09 246.96,0.63 247.07,1.18 247.01,1.73 246.95,2.28 246.71,2.78 246.47,3.29 246.09,3.69 245.70,4.09 245.21,4.35 244.72,4.61 244.17,4.69 243.62,4.78 243.62,4.78 243.62,4.78 241.38,4.73 239.14,4.67 236.87,4.41 234.59,4.14 230.95,3.95 227.32,3.75 221.65,3.59 215.99,3.43 207.75,3.05 199.52,2.67 189.06,2.68 178.61,2.69 164.82,2.71 151.03,2.72 135.42,2.74 119.82,2.76 99.96,2.79 80.10,2.81 63.04,2.85 45.99,2.88 32.13,2.93 18.27,2.98 9.13,3.05 0,3.12 -0.37,3.07 -0.74,3.03 -1.09,2.90 -1.45,2.76 -1.76,2.55 -2.07,2.33 -2.32,2.05 -2.57,1.77 -2.74,1.44 -2.92,1.10 -3.01,0.74 -3.10,0.37 -3.10,-0.00 -3.10,-0.37 -3.01,-0.74 -2.92,-1.10 -2.74,-1.44 -2.57,-1.77 -2.32,-2.05 -2.07,-2.33 -1.76,-2.55 -1.45,-2.76 -1.09,-2.90 -0.74,-3.03 -0.37,-3.07 0.00,-3.12 0.00,-3.12 L 0,-3.12 Z"></path></g><g transform="translate(185.97779854950932 246.38506114284155) rotate(0 -14.670740251323195 3.6198397489288254)" stroke="none"><path fill="#1e1e1e" d="M 0,5.33 Q 0,5.33 -2.21,5.37 -4.43,5.41 -7.59,5.55 -10.76,5.68 -13.75,6.89 -16.74,8.11 -19.46,8.91 -22.18,9.71 -24.38,10.26 -26.57,10.81 -26.83,11.07 -27.09,11.33 -27.87,11.46 -28.65,11.60 -29.44,11.54 -30.23,11.48 -30.98,11.24 -31.73,11.00 -32.41,10.58 -33.08,10.17 -33.63,9.60 -34.19,9.03 -34.59,8.35 -34.99,7.67 -35.22,6.91 -35.44,6.16 -35.48,5.37 -35.52,4.58 -35.37,3.80 -35.22,3.02 -34.89,2.30 -34.56,1.59 -34.06,0.97 -33.57,0.35 -32.94,-0.12 -32.31,-0.60 -31.59,-0.92 -30.86,-1.23 -28.56,-1.41 -26.26,-1.59 -23.53,-1.66 -20.80,-1.73 -18.16,-0.86 -15.53,-0.00 -14.97,0.14 -14.42,0.28 -13.32,0.55 -12.23,0.81 -11.28,1.41 -10.32,2.01 -9.61,2.89 -8.90,3.76 -8.50,4.81 -8.11,5.87 -8.07,6.99 -8.03,8.12 -8.36,9.20 -8.68,10.28 -9.33,11.19 -9.98,12.11 -10.89,12.78 -11.80,13.44 -12.88,13.78 -13.95,14.11 -15.08,14.09 -16.20,14.07 -17.26,13.69 -18.32,13.31 -19.20,12.61 -20.08,11.91 -20.70,10.96 -21.31,10.02 -21.59,8.93 -21.87,7.84 -21.78,6.71 -21.70,5.59 -21.26,4.55 -20.82,3.52 -20.08,2.67 -19.33,1.83 -18.35,1.27 -17.38,0.71 -16.27,0.49 -15.17,0.27 -14.05,0.41 -12.94,0.56 -11.92,1.05 -10.91,1.55 -10.11,2.34 -9.31,3.13 -8.80,4.13 -8.30,5.14 -8.14,6.25 -7.98,7.37 -8.18,8.48 -8.39,9.58 -8.93,10.57 -9.48,11.55 -10.32,12.31 -11.15,13.06 -12.18,13.52 -13.21,13.97 -14.33,14.07 -15.46,14.16 -15.45,14.16 -15.45,14.17 -18.78,13.05 -22.11,11.94 -24.60,11.63 -27.09,11.33 -27.87,11.46 -28.65,11.60 -29.44,11.54 -30.23,11.48 -30.98,11.24 -31.73,11.00 -32.41,10.58 -33.08,10.17 -33.63,9.60 -34.19,9.04 -34.59,8.35 -34.99,7.67 -35.22,6.91 -35.44,6.16 -35.48,5.37 -35.52,4.58 -35.37,3.80 -35.22,3.02 -34.89,2.31 -34.56,1.59 -34.06,0.97 -33.57,0.35 -32.94,-0.12 -32.31,-0.60 -31.59,-0.92 -30.86,-1.23 -31.18,-1.08 -31.49,-0.93 -28.82,-1.67 -26.15,-2.41 -23.99,-2.68 -21.83,-2.96 -18.75,-4.15 -15.67,-5.34 -13.22,-5.51 -10.76,-5.68 -7.59,-5.55 -4.43,-5.41 -2.21,-5.37 0,-5.33 0.63,-5.25 1.27,-5.18 1.87,-4.95 2.48,-4.72 3.00,-4.36 3.53,-3.99 3.96,-3.51 4.39,-3.03 4.69,-2.46 4.99,-1.89 5.14,-1.26 5.29,-0.64 5.29,0.00 5.29,0.64 5.14,1.26 4.99,1.89 4.69,2.46 4.39,3.03 3.96,3.51 3.53,3.99 3.00,4.36 2.48,4.72 1.87,4.95 1.27,5.18 0.63,5.25 -0.00,5.33 -0.00,5.33 L 0,5.33 Z"></path></g><g transform="translate(143.07012104219166 240.27726507100851) rotate(0 -66.2698607811817 -14.974216242358693)" stroke="none"><path fill="#1e1e1e" d="M -1.28,4.11 Q -1.28,4.11 -4.71,2.97 -8.13,1.83 -11.50,1.10 -14.86,0.37 -19.52,-0.08 -24.19,-0.55 -27.56,-0.63 -30.93,-0.72 -35.04,-0.39 -39.16,-0.07 -42.04,0.68 -44.92,1.44 -47.70,2.79 -50.48,4.14 -50.61,4.59 -50.73,5.04 -51.20,5.32 -51.68,5.60 -52.20,5.76 -52.73,5.91 -53.28,5.94 -53.82,5.97 -54.36,5.86 -54.90,5.76 -55.40,5.53 -55.90,5.30 -56.33,4.95 -56.75,4.61 -57.09,4.17 -57.42,3.74 -57.64,3.23 -57.86,2.73 -57.95,2.19 -58.05,1.65 -58.01,1.10 -57.97,0.55 -57.80,0.03 -57.63,-0.48 -57.34,-0.95 -57.05,-1.41 -56.66,-1.80 -56.26,-2.18 -57.07,-5.90 -57.88,-9.61 -57.92,-12.81 -57.97,-16.02 -58.15,-19.83 -58.34,-23.64 -59.17,-26.73 -60.00,-29.82 -61.11,-32.18 -62.22,-34.53 -64.27,-35.40 -66.32,-36.26 -70.23,-36.68 -74.13,-37.10 -76.75,-37.99 -79.38,-38.89 -81.90,-40.84 -84.43,-42.79 -86.40,-44.89 -88.37,-46.98 -90.02,-49.26 -91.68,-51.53 -93.96,-52.90 -96.24,-54.27 -98.51,-53.38 -100.78,-52.49 -103.07,-50.31 -105.36,-48.13 -107.19,-45.64 -109.01,-43.14 -110.45,-41.19 -111.89,-39.23 -112.88,-37.05 -113.88,-34.86 -115.22,-31.76 -116.57,-28.65 -117.30,-26.58 -118.02,-24.52 -118.54,-21.94 -119.06,-19.36 -118.95,-16.59 -118.84,-13.83 -119.30,-11.13 -119.76,-8.43 -121.02,-5.95 -122.28,-3.48 -124.07,-2.13 -125.86,-0.78 -125.93,1.61 -126.00,4.01 -126.01,6.21 -126.03,8.40 -123.39,9.28 -120.75,10.16 -118.17,10.16 -115.60,10.16 -112.84,11.10 -110.09,12.05 -108.64,14.67 -107.19,17.29 -107.12,19.87 -107.05,22.46 -104.22,21.46 -101.40,20.45 -98.90,20.43 -96.39,20.41 -93.91,20.12 -91.44,19.82 -87.33,20.96 -83.23,22.09 -81.84,23.99 -80.44,25.88 -77.51,24.70 -74.58,23.51 -71.01,22.99 -67.45,22.48 -65.28,22.18 -63.12,21.88 -60.83,21.67 -58.53,21.47 -56.22,21.35 -53.91,21.24 -51.57,21.23 -49.23,21.23 -46.84,21.32 -44.45,21.41 -42.15,21.27 -39.85,21.13 -37.69,20.83 -35.53,20.54 -32.60,20.42 -29.68,20.31 -27.51,20.09 -25.34,19.86 -22.16,19.33 -18.98,18.80 -17.56,16.77 -16.13,14.73 -14.27,13.23 -12.42,11.73 -11.04,9.21 -9.65,6.69 -7.46,4.99 -5.27,3.28 -6.03,3.50 -6.78,3.71 -6.65,2.60 -6.51,1.49 -6.02,0.48 -5.54,-0.52 -4.75,-1.33 -3.97,-2.13 -2.97,-2.64 -1.97,-3.15 -0.86,-3.31 0.23,-3.48 1.34,-3.28 2.44,-3.08 3.42,-2.54 4.41,-2.00 5.16,-1.18 5.92,-0.35 6.38,0.66 6.83,1.69 6.94,2.80 7.04,3.92 6.78,5.01 6.53,6.10 5.93,7.05 5.34,8.01 4.48,8.72 3.61,9.43 2.56,9.83 1.52,10.23 0.40,10.27 -0.71,10.32 -1.79,10.00 -2.87,9.68 -3.78,9.04 -4.70,8.40 -5.37,7.49 -6.03,6.59 -6.37,5.52 -6.71,4.46 -6.70,3.34 -6.68,2.21 -6.31,1.16 -5.93,0.10 -5.24,-0.77 -4.55,-1.65 -3.61,-2.27 -2.67,-2.88 -1.59,-3.17 -0.50,-3.45 0.60,-3.37 1.72,-3.29 2.76,-2.86 3.79,-2.43 4.64,-1.69 5.48,-0.95 6.04,0.00 6.61,0.97 6.83,2.07 7.05,3.17 7.05,3.17 7.05,3.17 6.71,7.24 6.37,11.31 3.52,13.78 0.66,16.24 -0.84,18.24 -2.36,20.24 -4.83,22.62 -7.31,25.01 -8.77,26.63 -10.23,28.26 -13.01,29.53 -15.79,30.80 -19.84,31.44 -23.88,32.09 -26.39,32.43 -28.90,32.76 -31.19,32.97 -33.48,33.18 -36.00,33.65 -38.52,34.12 -41.48,34.52 -44.44,34.92 -46.84,35.00 -49.23,35.09 -51.56,35.09 -53.89,35.08 -56.47,35.05 -59.04,35.02 -61.56,35.27 -64.08,35.52 -66.79,36.24 -69.50,36.97 -72.08,37.27 -74.67,37.56 -79.09,37.65 -83.52,37.74 -86.20,37.34 -88.88,36.93 -90.70,35.56 -92.51,34.18 -93.53,32.04 -94.54,29.89 -92.14,32.08 -89.74,34.26 -91.99,34.58 -94.23,34.90 -96.48,34.86 -98.72,34.82 -101.53,34.75 -104.33,34.68 -108.02,34.34 -111.72,34.00 -114.66,32.55 -117.61,31.10 -119.29,28.34 -120.98,25.58 -120.94,23.12 -120.89,20.66 -118.28,22.51 -115.66,24.36 -118.38,24.31 -121.10,24.26 -124.38,24.11 -127.66,23.97 -130.13,23.36 -132.61,22.74 -134.50,21.27 -136.39,19.80 -137.95,16.71 -139.52,13.62 -139.77,10.80 -140.02,7.98 -139.87,5.81 -139.73,3.65 -139.06,0.65 -138.40,-2.35 -137.44,-5.18 -136.49,-8.02 -134.69,-9.80 -132.89,-11.58 -132.41,-13.77 -131.92,-15.97 -131.72,-18.27 -131.53,-20.57 -130.86,-23.24 -130.19,-25.90 -129.13,-28.78 -128.07,-31.66 -126.67,-34.22 -125.28,-36.78 -123.96,-38.71 -122.64,-40.63 -121.05,-42.95 -119.47,-45.27 -118.07,-46.88 -116.66,-48.49 -114.52,-51.67 -112.38,-54.85 -109.14,-58.42 -105.90,-61.99 -101.85,-63.67 -97.80,-65.34 -94.78,-64.79 -91.77,-64.25 -89.17,-62.81 -86.57,-61.38 -84.83,-59.49 -83.10,-57.60 -81.89,-55.80 -80.68,-54.01 -79.18,-52.31 -77.67,-50.61 -75.17,-48.72 -72.68,-46.84 -67.90,-45.92 -63.13,-44.99 -60.57,-43.65 -58.02,-42.31 -56.37,-40.07 -54.72,-37.82 -53.57,-34.82 -52.42,-31.81 -51.47,-28.07 -50.52,-24.32 -50.04,-20.19 -49.56,-16.06 -49.57,-12.87 -49.58,-9.68 -49.29,-5.35 -48.99,-1.03 -49.86,2.00 -50.73,5.04 -51.20,5.32 -51.68,5.60 -52.20,5.76 -52.73,5.91 -53.28,5.94 -53.82,5.97 -54.36,5.86 -54.90,5.76 -55.40,5.53 -55.90,5.30 -56.33,4.95 -56.75,4.61 -57.09,4.17 -57.42,3.74 -57.64,3.23 -57.86,2.73 -57.95,2.19 -58.05,1.65 -58.01,1.10 -57.97,0.55 -57.80,0.03 -57.63,-0.48 -57.34,-0.95 -57.05,-1.41 -56.66,-1.80 -56.26,-2.18 -56.06,-2.39 -55.85,-2.59 -53.58,-3.55 -51.31,-4.51 -48.92,-5.11 -46.52,-5.72 -43.22,-6.33 -39.92,-6.95 -35.28,-7.59 -30.65,-8.24 -27.19,-8.06 -23.73,-7.88 -18.50,-7.73 -13.26,-7.57 -9.46,-6.85 -5.65,-6.13 -2.18,-5.12 1.28,-4.11 1.75,-3.89 2.22,-3.68 2.63,-3.36 3.04,-3.04 3.36,-2.63 3.68,-2.22 3.89,-1.75 4.11,-1.28 4.20,-0.77 4.29,-0.25 4.26,0.25 4.23,0.77 4.08,1.27 3.92,1.76 3.65,2.21 3.39,2.65 3.02,3.02 2.65,3.39 2.21,3.65 1.76,3.92 1.27,4.08 0.77,4.23 0.25,4.26 -0.26,4.29 -0.77,4.20 -1.28,4.11 -1.28,4.11 L -1.28,4.11 Z"></path></g><g transform="translate(581.1756272291036 156.4630039480976) rotate(0 23.072483063498566 6.750837637097675)" stroke="none"><path fill="#1e1e1e" d="M 3.03,-4.35 Q 3.03,-4.35 5.39,-2.66 7.76,-0.96 10.47,0.09 13.18,1.15 15.78,2.34 18.38,3.53 20.46,4.24 22.55,4.96 24.85,5.66 27.15,6.36 29.43,6.67 31.72,6.99 34.21,6.62 36.70,6.26 39.32,5.59 41.94,4.92 40.57,6.47 39.21,8.01 39.57,6.94 39.94,5.87 40.63,4.97 41.31,4.07 42.25,3.43 43.19,2.80 44.28,2.50 45.38,2.20 46.51,2.27 47.64,2.33 48.69,2.75 49.74,3.18 50.60,3.91 51.46,4.65 52.04,5.62 52.62,6.59 52.86,7.70 53.10,8.80 52.98,9.93 52.85,11.05 52.37,12.08 51.89,13.11 51.11,13.93 50.33,14.75 49.33,15.27 48.33,15.80 47.21,15.98 46.09,16.16 44.97,15.97 43.86,15.79 42.86,15.25 41.86,14.72 41.08,13.90 40.31,13.07 39.84,12.04 39.36,11.01 39.24,9.89 39.13,8.76 39.37,7.66 39.62,6.55 40.21,5.58 40.79,4.61 41.66,3.88 42.52,3.15 43.58,2.74 44.63,2.32 45.76,2.26 46.89,2.21 47.98,2.51 49.07,2.82 50.01,3.46 50.94,4.10 51.62,5.00 52.31,5.90 52.66,6.98 53.02,8.05 53.02,9.18 53.02,10.32 53.02,10.32 53.02,10.31 48.40,14.30 43.79,18.29 40.72,18.86 37.66,19.43 34.43,19.69 31.20,19.95 28.60,19.34 25.99,18.73 23.33,17.95 20.67,17.17 18.18,16.10 15.68,15.04 13.44,13.86 11.20,12.68 8.49,11.29 5.77,9.89 3.78,8.75 1.78,7.62 -0.62,5.99 -3.03,4.35 -3.51,3.93 -3.99,3.50 -4.35,2.97 -4.71,2.44 -4.93,1.84 -5.16,1.24 -5.23,0.61 -5.31,-0.02 -5.23,-0.65 -5.15,-1.29 -4.92,-1.89 -4.69,-2.49 -4.32,-3.01 -3.95,-3.54 -3.47,-3.96 -2.99,-4.38 -2.42,-4.67 -1.85,-4.97 -1.23,-5.12 -0.61,-5.27 0.02,-5.27 0.66,-5.26 1.28,-5.11 1.90,-4.95 2.47,-4.65 3.03,-4.35 3.03,-4.35 L 3.03,-4.35 Z"></path></g><g transform="translate(620.6962271076477 126.73197317975519) rotate(0 16.065284503472867 -21.92398612878219)" stroke="none"><path fill="#1e1e1e" d="M -3.48,-2.21 Q -3.48,-2.21 -1.45,-5.28 0.56,-8.36 4.13,-13.40 7.71,-18.43 11.83,-23.13 15.95,-27.83 18.96,-31.80 21.96,-35.77 23.65,-38.34 25.33,-40.90 26.91,-43.09 28.50,-45.27 28.94,-45.68 29.39,-46.08 29.95,-46.32 30.50,-46.56 31.10,-46.61 31.70,-46.66 32.29,-46.51 32.87,-46.37 33.38,-46.04 33.89,-45.72 34.27,-45.25 34.65,-44.78 34.85,-44.22 35.06,-43.65 35.08,-43.05 35.10,-42.44 34.92,-41.87 34.74,-41.29 34.39,-40.80 34.04,-40.31 33.55,-39.96 33.06,-39.61 32.49,-39.43 31.91,-39.25 31.31,-39.27 30.71,-39.28 30.14,-39.49 29.57,-39.70 29.10,-40.07 28.63,-40.45 28.31,-40.96 27.98,-41.47 27.84,-42.05 27.69,-42.64 27.74,-43.24 27.79,-43.84 28.02,-44.39 28.26,-44.95 28.66,-45.40 29.07,-45.84 29.59,-46.14 30.11,-46.44 30.71,-46.55 31.30,-46.67 31.90,-46.59 32.49,-46.51 33.03,-46.24 33.57,-45.97 34.00,-45.55 34.43,-45.12 34.70,-44.58 34.97,-44.04 35.05,-43.44 35.13,-42.85 35.02,-42.25 34.90,-41.66 34.61,-41.14 34.31,-40.61 34.31,-40.61 34.31,-40.61 32.62,-38.71 30.93,-36.82 29.01,-34.43 27.08,-32.05 24.09,-27.77 21.09,-23.49 17.43,-18.95 13.76,-14.40 10.54,-9.23 7.32,-4.06 5.40,-0.92 3.48,2.21 3.16,2.59 2.85,2.97 2.45,3.27 2.05,3.57 1.59,3.76 1.13,3.96 0.64,4.04 0.15,4.12 -0.33,4.07 -0.83,4.03 -1.30,3.88 -1.77,3.72 -2.19,3.45 -2.61,3.18 -2.95,2.82 -3.30,2.47 -3.54,2.03 -3.79,1.60 -3.93,1.13 -4.07,0.65 -4.09,0.15 -4.10,-0.33 -4.00,-0.82 -3.90,-1.31 -3.69,-1.76 -3.48,-2.21 -3.48,-2.21 L -3.48,-2.21 Z"></path></g><g transform="translate(647.6927413647604 136.12503739582826) rotate(0 15.303038025967908 -12.20277993136142)" stroke="none"><path fill="#1e1e1e" d="M -3.28,-3.71 Q -3.28,-3.71 -0.31,-6.09 2.64,-8.46 5.12,-10.67 7.60,-12.87 10.00,-14.94 12.40,-17.00 14.64,-18.31 16.87,-19.62 19.10,-21.30 21.32,-22.98 23.36,-24.19 25.41,-25.40 25.02,-25.37 24.63,-25.33 25.03,-26.22 25.42,-27.11 26.07,-27.83 26.73,-28.55 27.58,-29.02 28.43,-29.50 29.38,-29.67 30.34,-29.85 31.30,-29.71 32.27,-29.57 33.13,-29.13 34.00,-28.69 34.68,-28.00 35.37,-27.31 35.79,-26.43 36.22,-25.56 36.34,-24.59 36.46,-23.63 36.27,-22.68 36.08,-21.72 35.60,-20.88 35.11,-20.04 34.38,-19.39 33.65,-18.75 32.76,-18.37 31.86,-17.99 30.89,-17.92 29.92,-17.85 28.98,-18.09 28.04,-18.34 27.22,-18.87 26.41,-19.40 25.80,-20.16 25.20,-20.92 24.87,-21.84 24.54,-22.75 24.53,-23.72 24.51,-24.70 24.80,-25.62 25.09,-26.55 25.67,-27.34 26.24,-28.12 27.03,-28.68 27.83,-29.24 28.76,-29.52 29.69,-29.80 30.66,-29.77 31.64,-29.73 32.55,-29.39 33.46,-29.05 34.21,-28.43 34.96,-27.82 35.48,-26.99 36.00,-26.17 36.22,-25.22 36.45,-24.28 36.36,-23.31 36.28,-22.34 36.28,-22.34 36.28,-22.34 34.15,-18.93 32.03,-15.51 29.81,-14.46 27.59,-13.41 25.17,-11.94 22.75,-10.46 20.23,-9.56 17.70,-8.66 15.69,-7.44 13.68,-6.22 11.21,-3.89 8.73,-1.56 6.00,1.07 3.28,3.71 2.78,4.05 2.29,4.39 1.73,4.60 1.17,4.81 0.58,4.88 -0.01,4.95 -0.60,4.88 -1.19,4.81 -1.75,4.59 -2.31,4.38 -2.80,4.04 -3.29,3.70 -3.69,3.25 -4.08,2.80 -4.36,2.27 -4.64,1.74 -4.78,1.16 -4.92,0.58 -4.92,-0.01 -4.92,-0.60 -4.77,-1.18 -4.63,-1.76 -4.35,-2.29 -4.07,-2.82 -3.67,-3.27 -3.27,-3.72 -3.28,-3.72 L -3.28,-3.71 Z"></path></g><g transform="translate(660.8047480361056 148.2731269969654) rotate(0 34.389963274349384 0.3349782726254489)" stroke="none"><path fill="#1e1e1e" d="M 0,-3.82 Q 0,-3.82 4.72,-3.66 9.45,-3.50 16.42,-3.38 23.40,-3.26 29.68,-3.17 35.97,-3.09 42.66,-3.02 49.36,-2.96 54.22,-2.91 59.09,-2.87 63.17,-2.79 67.25,-2.71 67.76,-2.58 68.28,-2.46 68.73,-2.18 69.18,-1.90 69.51,-1.50 69.85,-1.09 70.04,-0.59 70.23,-0.10 70.25,0.42 70.27,0.95 70.12,1.45 69.97,1.96 69.67,2.39 69.36,2.83 68.94,3.14 68.51,3.45 68.01,3.61 67.50,3.78 66.98,3.77 66.45,3.76 65.95,3.58 65.45,3.41 65.04,3.08 64.62,2.75 64.33,2.31 64.04,1.87 63.91,1.36 63.77,0.85 63.81,0.32 63.84,-0.20 64.05,-0.68 64.25,-1.17 64.60,-1.57 64.95,-1.97 65.40,-2.23 65.86,-2.50 66.38,-2.60 66.90,-2.71 67.42,-2.65 67.95,-2.58 68.42,-2.35 68.90,-2.12 69.28,-1.75 69.66,-1.38 69.90,-0.91 70.14,-0.44 70.21,0.07 70.29,0.59 70.20,1.11 70.10,1.63 69.85,2.10 69.60,2.56 69.21,2.92 68.82,3.28 68.33,3.49 67.85,3.70 67.32,3.75 66.80,3.80 66.80,3.80 66.80,3.80 62.94,3.34 59.08,2.87 54.22,2.91 49.36,2.96 42.66,3.02 35.97,3.09 29.68,3.17 23.40,3.26 16.42,3.38 9.45,3.50 4.72,3.66 0,3.82 -0.45,3.76 -0.91,3.71 -1.34,3.54 -1.77,3.38 -2.15,3.12 -2.53,2.86 -2.84,2.51 -3.14,2.17 -3.36,1.76 -3.57,1.35 -3.68,0.90 -3.79,0.46 -3.79,-0.00 -3.79,-0.46 -3.68,-0.90 -3.57,-1.35 -3.36,-1.76 -3.14,-2.17 -2.84,-2.51 -2.53,-2.86 -2.15,-3.12 -1.77,-3.38 -1.34,-3.54 -0.91,-3.71 -0.45,-3.76 0.00,-3.82 0.00,-3.82 L 0,-3.82 Z"></path></g></svg>